<?xml version="1.0" encoding="utf-8"?>
<svg xmlns="http://www.w3.org/2000/svg" xmlns:xlink="http://www.w3.org/1999/xlink" width="900" height="600" viewBox="0 0 3600 2400">
<defs>
  <clipPath id="clip090">
    <rect x="0" y="0" width="3600" height="2400"/>
  </clipPath>
</defs>
<path clip-path="url(#clip090)" d="
M0 2400 L3600 2400 L3600 0 L0 0  Z
  " fill="#ffffff" fill-rule="evenodd" fill-opacity="1"/>
<defs>
  <clipPath id="clip091">
    <rect x="720" y="0" width="2521" height="2400"/>
  </clipPath>
</defs>
<path clip-path="url(#clip090)" d="
M288.556 2278.45 L3552.76 2278.45 L3552.76 47.2441 L288.556 47.2441  Z
  " fill="#ffffff" fill-rule="evenodd" fill-opacity="1"/>
<defs>
  <clipPath id="clip092">
    <rect x="288" y="47" width="3265" height="2232"/>
  </clipPath>
</defs>
<polyline clip-path="url(#clip092)" style="stroke:#000000; stroke-width:2; stroke-opacity:0.1; fill:none" points="
  378.963,2278.45 378.963,47.2441 
  "/>
<polyline clip-path="url(#clip092)" style="stroke:#000000; stroke-width:2; stroke-opacity:0.1; fill:none" points="
  1101.15,2278.45 1101.15,47.2441 
  "/>
<polyline clip-path="url(#clip092)" style="stroke:#000000; stroke-width:2; stroke-opacity:0.1; fill:none" points="
  1822.36,2278.45 1822.36,47.2441 
  "/>
<polyline clip-path="url(#clip092)" style="stroke:#000000; stroke-width:2; stroke-opacity:0.1; fill:none" points="
  2544.55,2278.45 2544.55,47.2441 
  "/>
<polyline clip-path="url(#clip092)" style="stroke:#000000; stroke-width:2; stroke-opacity:0.1; fill:none" points="
  3265.75,2278.45 3265.75,47.2441 
  "/>
<polyline clip-path="url(#clip092)" style="stroke:#000000; stroke-width:2; stroke-opacity:0.1; fill:none" points="
  288.556,2217.07 3552.76,2217.07 
  "/>
<polyline clip-path="url(#clip092)" style="stroke:#000000; stroke-width:2; stroke-opacity:0.1; fill:none" points="
  288.556,1646.86 3552.76,1646.86 
  "/>
<polyline clip-path="url(#clip092)" style="stroke:#000000; stroke-width:2; stroke-opacity:0.1; fill:none" points="
  288.556,1076.66 3552.76,1076.66 
  "/>
<polyline clip-path="url(#clip092)" style="stroke:#000000; stroke-width:2; stroke-opacity:0.1; fill:none" points="
  288.556,506.455 3552.76,506.455 
  "/>
<polyline clip-path="url(#clip090)" style="stroke:#000000; stroke-width:4; stroke-opacity:1; fill:none" points="
  288.556,2278.45 3552.76,2278.45 
  "/>
<polyline clip-path="url(#clip090)" style="stroke:#000000; stroke-width:4; stroke-opacity:1; fill:none" points="
  288.556,2278.45 288.556,47.2441 
  "/>
<polyline clip-path="url(#clip090)" style="stroke:#000000; stroke-width:4; stroke-opacity:1; fill:none" points="
  378.963,2278.45 378.963,2251.67 
  "/>
<polyline clip-path="url(#clip090)" style="stroke:#000000; stroke-width:4; stroke-opacity:1; fill:none" points="
  1101.15,2278.45 1101.15,2251.67 
  "/>
<polyline clip-path="url(#clip090)" style="stroke:#000000; stroke-width:4; stroke-opacity:1; fill:none" points="
  1822.36,2278.45 1822.36,2251.67 
  "/>
<polyline clip-path="url(#clip090)" style="stroke:#000000; stroke-width:4; stroke-opacity:1; fill:none" points="
  2544.55,2278.45 2544.55,2251.67 
  "/>
<polyline clip-path="url(#clip090)" style="stroke:#000000; stroke-width:4; stroke-opacity:1; fill:none" points="
  3265.75,2278.45 3265.75,2251.67 
  "/>
<polyline clip-path="url(#clip090)" style="stroke:#000000; stroke-width:4; stroke-opacity:1; fill:none" points="
  288.556,2217.07 327.726,2217.07 
  "/>
<polyline clip-path="url(#clip090)" style="stroke:#000000; stroke-width:4; stroke-opacity:1; fill:none" points="
  288.556,1646.86 327.726,1646.86 
  "/>
<polyline clip-path="url(#clip090)" style="stroke:#000000; stroke-width:4; stroke-opacity:1; fill:none" points="
  288.556,1076.66 327.726,1076.66 
  "/>
<polyline clip-path="url(#clip090)" style="stroke:#000000; stroke-width:4; stroke-opacity:1; fill:none" points="
  288.556,506.455 327.726,506.455 
  "/>
<path clip-path="url(#clip090)" d="M 0 0 M266.915 2333.98 L283.234 2333.98 L283.234 2337.92 L261.29 2337.92 L261.29 2333.98 Q263.952 2331.23 268.535 2326.6 Q273.142 2321.95 274.322 2320.61 Q276.568 2318.08 277.447 2316.35 Q278.35 2314.59 278.35 2312.9 Q278.35 2310.14 276.406 2308.41 Q274.484 2306.67 271.382 2306.67 Q269.183 2306.67 266.73 2307.43 Q264.299 2308.2 261.521 2309.75 L261.521 2305.03 Q264.345 2303.89 266.799 2303.31 Q269.253 2302.73 271.29 2302.73 Q276.66 2302.73 279.855 2305.42 Q283.049 2308.11 283.049 2312.6 Q283.049 2314.73 282.239 2316.65 Q281.452 2318.54 279.345 2321.14 Q278.767 2321.81 275.665 2325.03 Q272.563 2328.22 266.915 2333.98 Z" fill="#000000" fill-rule="evenodd" fill-opacity="1" /><path clip-path="url(#clip090)" d="M 0 0 M298.304 2306.44 Q294.693 2306.44 292.864 2310 Q291.058 2313.55 291.058 2320.67 Q291.058 2327.78 292.864 2331.35 Q294.693 2334.89 298.304 2334.89 Q301.938 2334.89 303.743 2331.35 Q305.572 2327.78 305.572 2320.67 Q305.572 2313.55 303.743 2310 Q301.938 2306.44 298.304 2306.44 M298.304 2302.73 Q304.114 2302.73 307.169 2307.34 Q310.248 2311.92 310.248 2320.67 Q310.248 2329.4 307.169 2334.01 Q304.114 2338.59 298.304 2338.59 Q292.493 2338.59 289.415 2334.01 Q286.359 2329.4 286.359 2320.67 Q286.359 2311.92 289.415 2307.34 Q292.493 2302.73 298.304 2302.73 Z" fill="#000000" fill-rule="evenodd" fill-opacity="1" /><path clip-path="url(#clip090)" d="M 0 0 M316.128 2333.98 L323.766 2333.98 L323.766 2307.62 L315.456 2309.29 L315.456 2305.03 L323.72 2303.36 L328.396 2303.36 L328.396 2333.98 L336.035 2333.98 L336.035 2337.92 L316.128 2337.92 L316.128 2333.98 Z" fill="#000000" fill-rule="evenodd" fill-opacity="1" /><path clip-path="url(#clip090)" d="M 0 0 M345.132 2333.98 L361.451 2333.98 L361.451 2337.92 L339.507 2337.92 L339.507 2333.98 Q342.169 2331.23 346.752 2326.6 Q351.359 2321.95 352.539 2320.61 Q354.785 2318.08 355.664 2316.35 Q356.567 2314.59 356.567 2312.9 Q356.567 2310.14 354.623 2308.41 Q352.701 2306.67 349.6 2306.67 Q347.401 2306.67 344.947 2307.43 Q342.516 2308.2 339.739 2309.75 L339.739 2305.03 Q342.563 2303.89 345.016 2303.31 Q347.47 2302.73 349.507 2302.73 Q354.877 2302.73 358.072 2305.42 Q361.266 2308.11 361.266 2312.6 Q361.266 2314.73 360.456 2316.65 Q359.669 2318.54 357.563 2321.14 Q356.984 2321.81 353.882 2325.03 Q350.78 2328.22 345.132 2333.98 Z" fill="#000000" fill-rule="evenodd" fill-opacity="1" /><path clip-path="url(#clip090)" d="M 0 0 M363.766 2323.04 L376.243 2323.04 L376.243 2326.83 L363.766 2326.83 L363.766 2323.04 Z" fill="#000000" fill-rule="evenodd" fill-opacity="1" /><path clip-path="url(#clip090)" d="M 0 0 M391.312 2306.44 Q387.701 2306.44 385.873 2310 Q384.067 2313.55 384.067 2320.67 Q384.067 2327.78 385.873 2331.35 Q387.701 2334.89 391.312 2334.89 Q394.947 2334.89 396.752 2331.35 Q398.581 2327.78 398.581 2320.67 Q398.581 2313.55 396.752 2310 Q394.947 2306.44 391.312 2306.44 M391.312 2302.73 Q397.123 2302.73 400.178 2307.34 Q403.257 2311.92 403.257 2320.67 Q403.257 2329.4 400.178 2334.01 Q397.123 2338.59 391.312 2338.59 Q385.502 2338.59 382.424 2334.01 Q379.368 2329.4 379.368 2320.67 Q379.368 2311.92 382.424 2307.34 Q385.502 2302.73 391.312 2302.73 Z" fill="#000000" fill-rule="evenodd" fill-opacity="1" /><path clip-path="url(#clip090)" d="M 0 0 M409.136 2333.98 L416.775 2333.98 L416.775 2307.62 L408.465 2309.29 L408.465 2305.03 L416.729 2303.36 L421.405 2303.36 L421.405 2333.98 L429.044 2333.98 L429.044 2337.92 L409.136 2337.92 L409.136 2333.98 Z" fill="#000000" fill-rule="evenodd" fill-opacity="1" /><path clip-path="url(#clip090)" d="M 0 0 M431.358 2323.04 L443.835 2323.04 L443.835 2326.83 L431.358 2326.83 L431.358 2323.04 Z" fill="#000000" fill-rule="evenodd" fill-opacity="1" /><path clip-path="url(#clip090)" d="M 0 0 M458.905 2306.44 Q455.294 2306.44 453.465 2310 Q451.659 2313.55 451.659 2320.67 Q451.659 2327.78 453.465 2331.35 Q455.294 2334.89 458.905 2334.89 Q462.539 2334.89 464.344 2331.35 Q466.173 2327.78 466.173 2320.67 Q466.173 2313.55 464.344 2310 Q462.539 2306.44 458.905 2306.44 M458.905 2302.73 Q464.715 2302.73 467.77 2307.34 Q470.849 2311.92 470.849 2320.67 Q470.849 2329.4 467.77 2334.01 Q464.715 2338.59 458.905 2338.59 Q453.094 2338.59 450.016 2334.01 Q446.96 2329.4 446.96 2320.67 Q446.96 2311.92 450.016 2307.34 Q453.094 2302.73 458.905 2302.73 Z" fill="#000000" fill-rule="evenodd" fill-opacity="1" /><path clip-path="url(#clip090)" d="M 0 0 M476.729 2333.98 L484.367 2333.98 L484.367 2307.62 L476.057 2309.29 L476.057 2305.03 L484.321 2303.36 L488.997 2303.36 L488.997 2333.98 L496.636 2333.98 L496.636 2337.92 L476.729 2337.92 L476.729 2333.98 Z" fill="#000000" fill-rule="evenodd" fill-opacity="1" /><path clip-path="url(#clip090)" d="M 0 0 M988.063 2333.98 L1004.38 2333.98 L1004.38 2337.92 L982.438 2337.92 L982.438 2333.98 Q985.1 2331.23 989.684 2326.6 Q994.29 2321.95 995.471 2320.61 Q997.716 2318.08 998.596 2316.35 Q999.498 2314.59 999.498 2312.9 Q999.498 2310.14 997.554 2308.41 Q995.633 2306.67 992.531 2306.67 Q990.332 2306.67 987.878 2307.43 Q985.448 2308.2 982.67 2309.75 L982.67 2305.03 Q985.494 2303.89 987.948 2303.31 Q990.401 2302.73 992.438 2302.73 Q997.809 2302.73 1001 2305.42 Q1004.2 2308.11 1004.2 2312.6 Q1004.2 2314.73 1003.39 2316.65 Q1002.6 2318.54 1000.49 2321.14 Q999.915 2321.81 996.813 2325.03 Q993.711 2328.22 988.063 2333.98 Z" fill="#000000" fill-rule="evenodd" fill-opacity="1" /><path clip-path="url(#clip090)" d="M 0 0 M1019.45 2306.44 Q1015.84 2306.44 1014.01 2310 Q1012.21 2313.55 1012.21 2320.67 Q1012.21 2327.78 1014.01 2331.35 Q1015.84 2334.89 1019.45 2334.89 Q1023.09 2334.89 1024.89 2331.35 Q1026.72 2327.78 1026.72 2320.67 Q1026.72 2313.55 1024.89 2310 Q1023.09 2306.44 1019.45 2306.44 M1019.45 2302.73 Q1025.26 2302.73 1028.32 2307.34 Q1031.4 2311.92 1031.4 2320.67 Q1031.4 2329.4 1028.32 2334.01 Q1025.26 2338.59 1019.45 2338.59 Q1013.64 2338.59 1010.56 2334.01 Q1007.51 2329.4 1007.51 2320.67 Q1007.51 2311.92 1010.56 2307.34 Q1013.64 2302.73 1019.45 2302.73 Z" fill="#000000" fill-rule="evenodd" fill-opacity="1" /><path clip-path="url(#clip090)" d="M 0 0 M1037.28 2333.98 L1044.91 2333.98 L1044.91 2307.62 L1036.6 2309.29 L1036.6 2305.03 L1044.87 2303.36 L1049.54 2303.36 L1049.54 2333.98 L1057.18 2333.98 L1057.18 2337.92 L1037.28 2337.92 L1037.28 2333.98 Z" fill="#000000" fill-rule="evenodd" fill-opacity="1" /><path clip-path="url(#clip090)" d="M 0 0 M1075.1 2307.43 L1063.29 2325.88 L1075.1 2325.88 L1075.1 2307.43 M1073.87 2303.36 L1079.75 2303.36 L1079.75 2325.88 L1084.68 2325.88 L1084.68 2329.77 L1079.75 2329.77 L1079.75 2337.92 L1075.1 2337.92 L1075.1 2329.77 L1059.5 2329.77 L1059.5 2325.26 L1073.87 2303.36 Z" fill="#000000" fill-rule="evenodd" fill-opacity="1" /><path clip-path="url(#clip090)" d="M 0 0 M1087 2323.04 L1099.47 2323.04 L1099.47 2326.83 L1087 2326.83 L1087 2323.04 Z" fill="#000000" fill-rule="evenodd" fill-opacity="1" /><path clip-path="url(#clip090)" d="M 0 0 M1114.54 2306.44 Q1110.93 2306.44 1109.1 2310 Q1107.3 2313.55 1107.3 2320.67 Q1107.3 2327.78 1109.1 2331.35 Q1110.93 2334.89 1114.54 2334.89 Q1118.18 2334.89 1119.98 2331.35 Q1121.81 2327.78 1121.81 2320.67 Q1121.81 2313.55 1119.98 2310 Q1118.18 2306.44 1114.54 2306.44 M1114.54 2302.73 Q1120.35 2302.73 1123.41 2307.34 Q1126.49 2311.92 1126.49 2320.67 Q1126.49 2329.4 1123.41 2334.01 Q1120.35 2338.59 1114.54 2338.59 Q1108.73 2338.59 1105.66 2334.01 Q1102.6 2329.4 1102.6 2320.67 Q1102.6 2311.92 1105.66 2307.34 Q1108.73 2302.73 1114.54 2302.73 Z" fill="#000000" fill-rule="evenodd" fill-opacity="1" /><path clip-path="url(#clip090)" d="M 0 0 M1132.37 2333.98 L1140.01 2333.98 L1140.01 2307.62 L1131.7 2309.29 L1131.7 2305.03 L1139.96 2303.36 L1144.64 2303.36 L1144.64 2333.98 L1152.28 2333.98 L1152.28 2337.92 L1132.37 2337.92 L1132.37 2333.98 Z" fill="#000000" fill-rule="evenodd" fill-opacity="1" /><path clip-path="url(#clip090)" d="M 0 0 M1154.59 2323.04 L1167.07 2323.04 L1167.07 2326.83 L1154.59 2326.83 L1154.59 2323.04 Z" fill="#000000" fill-rule="evenodd" fill-opacity="1" /><path clip-path="url(#clip090)" d="M 0 0 M1182.14 2306.44 Q1178.53 2306.44 1176.7 2310 Q1174.89 2313.55 1174.89 2320.67 Q1174.89 2327.78 1176.7 2331.35 Q1178.53 2334.89 1182.14 2334.89 Q1185.77 2334.89 1187.58 2331.35 Q1189.4 2327.78 1189.4 2320.67 Q1189.4 2313.55 1187.58 2310 Q1185.77 2306.44 1182.14 2306.44 M1182.14 2302.73 Q1187.95 2302.73 1191 2307.34 Q1194.08 2311.92 1194.08 2320.67 Q1194.08 2329.4 1191 2334.01 Q1187.95 2338.59 1182.14 2338.59 Q1176.33 2338.59 1173.25 2334.01 Q1170.19 2329.4 1170.19 2320.67 Q1170.19 2311.92 1173.25 2307.34 Q1176.33 2302.73 1182.14 2302.73 Z" fill="#000000" fill-rule="evenodd" fill-opacity="1" /><path clip-path="url(#clip090)" d="M 0 0 M1199.96 2333.98 L1207.6 2333.98 L1207.6 2307.62 L1199.29 2309.29 L1199.29 2305.03 L1207.55 2303.36 L1212.23 2303.36 L1212.23 2333.98 L1219.87 2333.98 L1219.87 2337.92 L1199.96 2337.92 L1199.96 2333.98 Z" fill="#000000" fill-rule="evenodd" fill-opacity="1" /><path clip-path="url(#clip090)" d="M 0 0 M1709.43 2333.98 L1725.75 2333.98 L1725.75 2337.92 L1703.8 2337.92 L1703.8 2333.98 Q1706.46 2331.23 1711.05 2326.6 Q1715.65 2321.95 1716.83 2320.61 Q1719.08 2318.08 1719.96 2316.35 Q1720.86 2314.59 1720.86 2312.9 Q1720.86 2310.14 1718.92 2308.41 Q1717 2306.67 1713.89 2306.67 Q1711.7 2306.67 1709.24 2307.43 Q1706.81 2308.2 1704.03 2309.75 L1704.03 2305.03 Q1706.86 2303.89 1709.31 2303.31 Q1711.77 2302.73 1713.8 2302.73 Q1719.17 2302.73 1722.37 2305.42 Q1725.56 2308.11 1725.56 2312.6 Q1725.56 2314.73 1724.75 2316.65 Q1723.96 2318.54 1721.86 2321.14 Q1721.28 2321.81 1718.18 2325.03 Q1715.08 2328.22 1709.43 2333.98 Z" fill="#000000" fill-rule="evenodd" fill-opacity="1" /><path clip-path="url(#clip090)" d="M 0 0 M1740.82 2306.44 Q1737.21 2306.44 1735.38 2310 Q1733.57 2313.55 1733.57 2320.67 Q1733.57 2327.78 1735.38 2331.35 Q1737.21 2334.89 1740.82 2334.89 Q1744.45 2334.89 1746.26 2331.35 Q1748.08 2327.78 1748.08 2320.67 Q1748.08 2313.55 1746.26 2310 Q1744.45 2306.44 1740.82 2306.44 M1740.82 2302.73 Q1746.63 2302.73 1749.68 2307.34 Q1752.76 2311.92 1752.76 2320.67 Q1752.76 2329.4 1749.68 2334.01 Q1746.63 2338.59 1740.82 2338.59 Q1735.01 2338.59 1731.93 2334.01 Q1728.87 2329.4 1728.87 2320.67 Q1728.87 2311.92 1731.93 2307.34 Q1735.01 2302.73 1740.82 2302.73 Z" fill="#000000" fill-rule="evenodd" fill-opacity="1" /><path clip-path="url(#clip090)" d="M 0 0 M1758.64 2333.98 L1766.28 2333.98 L1766.28 2307.62 L1757.97 2309.29 L1757.97 2305.03 L1766.23 2303.36 L1770.91 2303.36 L1770.91 2333.98 L1778.55 2333.98 L1778.55 2337.92 L1758.64 2337.92 L1758.64 2333.98 Z" fill="#000000" fill-rule="evenodd" fill-opacity="1" /><path clip-path="url(#clip090)" d="M 0 0 M1794.2 2318.78 Q1791.05 2318.78 1789.2 2320.93 Q1787.37 2323.08 1787.37 2326.83 Q1787.37 2330.56 1789.2 2332.73 Q1791.05 2334.89 1794.2 2334.89 Q1797.34 2334.89 1799.17 2332.73 Q1801.02 2330.56 1801.02 2326.83 Q1801.02 2323.08 1799.17 2320.93 Q1797.34 2318.78 1794.2 2318.78 M1803.48 2304.12 L1803.48 2308.38 Q1801.72 2307.55 1799.91 2307.11 Q1798.13 2306.67 1796.37 2306.67 Q1791.74 2306.67 1789.29 2309.8 Q1786.86 2312.92 1786.51 2319.24 Q1787.88 2317.23 1789.94 2316.16 Q1792 2315.07 1794.47 2315.07 Q1799.68 2315.07 1802.69 2318.24 Q1805.72 2321.39 1805.72 2326.83 Q1805.72 2332.16 1802.58 2335.37 Q1799.43 2338.59 1794.2 2338.59 Q1788.2 2338.59 1785.03 2334.01 Q1781.86 2329.4 1781.86 2320.67 Q1781.86 2312.48 1785.75 2307.62 Q1789.64 2302.73 1796.19 2302.73 Q1797.95 2302.73 1799.73 2303.08 Q1801.53 2303.43 1803.48 2304.12 Z" fill="#000000" fill-rule="evenodd" fill-opacity="1" /><path clip-path="url(#clip090)" d="M 0 0 M1808.04 2323.04 L1820.51 2323.04 L1820.51 2326.83 L1808.04 2326.83 L1808.04 2323.04 Z" fill="#000000" fill-rule="evenodd" fill-opacity="1" /><path clip-path="url(#clip090)" d="M 0 0 M1835.58 2306.44 Q1831.97 2306.44 1830.14 2310 Q1828.34 2313.55 1828.34 2320.67 Q1828.34 2327.78 1830.14 2331.35 Q1831.97 2334.89 1835.58 2334.89 Q1839.22 2334.89 1841.02 2331.35 Q1842.85 2327.78 1842.85 2320.67 Q1842.85 2313.55 1841.02 2310 Q1839.22 2306.44 1835.58 2306.44 M1835.58 2302.73 Q1841.39 2302.73 1844.45 2307.34 Q1847.53 2311.92 1847.53 2320.67 Q1847.53 2329.4 1844.45 2334.01 Q1841.39 2338.59 1835.58 2338.59 Q1829.77 2338.59 1826.7 2334.01 Q1823.64 2329.4 1823.64 2320.67 Q1823.64 2311.92 1826.7 2307.34 Q1829.77 2302.73 1835.58 2302.73 Z" fill="#000000" fill-rule="evenodd" fill-opacity="1" /><path clip-path="url(#clip090)" d="M 0 0 M1853.41 2333.98 L1861.05 2333.98 L1861.05 2307.62 L1852.74 2309.29 L1852.74 2305.03 L1861 2303.36 L1865.68 2303.36 L1865.68 2333.98 L1873.32 2333.98 L1873.32 2337.92 L1853.41 2337.92 L1853.41 2333.98 Z" fill="#000000" fill-rule="evenodd" fill-opacity="1" /><path clip-path="url(#clip090)" d="M 0 0 M1875.63 2323.04 L1888.11 2323.04 L1888.11 2326.83 L1875.63 2326.83 L1875.63 2323.04 Z" fill="#000000" fill-rule="evenodd" fill-opacity="1" /><path clip-path="url(#clip090)" d="M 0 0 M1903.18 2306.44 Q1899.57 2306.44 1897.74 2310 Q1895.93 2313.55 1895.93 2320.67 Q1895.93 2327.78 1897.74 2331.35 Q1899.57 2334.89 1903.18 2334.89 Q1906.81 2334.89 1908.62 2331.35 Q1910.44 2327.78 1910.44 2320.67 Q1910.44 2313.55 1908.62 2310 Q1906.81 2306.44 1903.18 2306.44 M1903.18 2302.73 Q1908.99 2302.73 1912.04 2307.34 Q1915.12 2311.92 1915.12 2320.67 Q1915.12 2329.4 1912.04 2334.01 Q1908.99 2338.59 1903.18 2338.59 Q1897.37 2338.59 1894.29 2334.01 Q1891.23 2329.4 1891.23 2320.67 Q1891.23 2311.92 1894.29 2307.34 Q1897.37 2302.73 1903.18 2302.73 Z" fill="#000000" fill-rule="evenodd" fill-opacity="1" /><path clip-path="url(#clip090)" d="M 0 0 M1921 2333.98 L1928.64 2333.98 L1928.64 2307.62 L1920.33 2309.29 L1920.33 2305.03 L1928.59 2303.36 L1933.27 2303.36 L1933.27 2333.98 L1940.91 2333.98 L1940.91 2337.92 L1921 2337.92 L1921 2333.98 Z" fill="#000000" fill-rule="evenodd" fill-opacity="1" /><path clip-path="url(#clip090)" d="M 0 0 M2431.74 2333.98 L2448.06 2333.98 L2448.06 2337.92 L2426.12 2337.92 L2426.12 2333.98 Q2428.78 2331.23 2433.37 2326.6 Q2437.97 2321.95 2439.15 2320.61 Q2441.4 2318.08 2442.28 2316.35 Q2443.18 2314.59 2443.18 2312.9 Q2443.18 2310.14 2441.24 2308.41 Q2439.31 2306.67 2436.21 2306.67 Q2434.01 2306.67 2431.56 2307.43 Q2429.13 2308.2 2426.35 2309.75 L2426.35 2305.03 Q2429.18 2303.89 2431.63 2303.31 Q2434.08 2302.73 2436.12 2302.73 Q2441.49 2302.73 2444.68 2305.42 Q2447.88 2308.11 2447.88 2312.6 Q2447.88 2314.73 2447.07 2316.65 Q2446.28 2318.54 2444.18 2321.14 Q2443.6 2321.81 2440.49 2325.03 Q2437.39 2328.22 2431.74 2333.98 Z" fill="#000000" fill-rule="evenodd" fill-opacity="1" /><path clip-path="url(#clip090)" d="M 0 0 M2463.13 2306.44 Q2459.52 2306.44 2457.69 2310 Q2455.89 2313.55 2455.89 2320.67 Q2455.89 2327.78 2457.69 2331.35 Q2459.52 2334.89 2463.13 2334.89 Q2466.77 2334.89 2468.57 2331.35 Q2470.4 2327.78 2470.4 2320.67 Q2470.4 2313.55 2468.57 2310 Q2466.77 2306.44 2463.13 2306.44 M2463.13 2302.73 Q2468.94 2302.73 2472 2307.34 Q2475.08 2311.92 2475.08 2320.67 Q2475.08 2329.4 2472 2334.01 Q2468.94 2338.59 2463.13 2338.59 Q2457.32 2338.59 2454.24 2334.01 Q2451.19 2329.4 2451.19 2320.67 Q2451.19 2311.92 2454.24 2307.34 Q2457.32 2302.73 2463.13 2302.73 Z" fill="#000000" fill-rule="evenodd" fill-opacity="1" /><path clip-path="url(#clip090)" d="M 0 0 M2480.96 2333.98 L2488.6 2333.98 L2488.6 2307.62 L2480.29 2309.29 L2480.29 2305.03 L2488.55 2303.36 L2493.23 2303.36 L2493.23 2333.98 L2500.86 2333.98 L2500.86 2337.92 L2480.96 2337.92 L2480.96 2333.98 Z" fill="#000000" fill-rule="evenodd" fill-opacity="1" /><path clip-path="url(#clip090)" d="M 0 0 M2515.93 2321.51 Q2512.6 2321.51 2510.68 2323.29 Q2508.78 2325.07 2508.78 2328.2 Q2508.78 2331.32 2510.68 2333.11 Q2512.6 2334.89 2515.93 2334.89 Q2519.27 2334.89 2521.19 2333.11 Q2523.11 2331.3 2523.11 2328.2 Q2523.11 2325.07 2521.19 2323.29 Q2519.29 2321.51 2515.93 2321.51 M2511.26 2319.52 Q2508.25 2318.78 2506.56 2316.72 Q2504.89 2314.66 2504.89 2311.69 Q2504.89 2307.55 2507.83 2305.14 Q2510.8 2302.73 2515.93 2302.73 Q2521.1 2302.73 2524.04 2305.14 Q2526.98 2307.55 2526.98 2311.69 Q2526.98 2314.66 2525.29 2316.72 Q2523.62 2318.78 2520.63 2319.52 Q2524.01 2320.3 2525.89 2322.6 Q2527.79 2324.89 2527.79 2328.2 Q2527.79 2333.22 2524.71 2335.91 Q2521.65 2338.59 2515.93 2338.59 Q2510.22 2338.59 2507.14 2335.91 Q2504.08 2333.22 2504.08 2328.2 Q2504.08 2324.89 2505.98 2322.6 Q2507.88 2320.3 2511.26 2319.52 M2509.55 2312.13 Q2509.55 2314.82 2511.21 2316.32 Q2512.9 2317.83 2515.93 2317.83 Q2518.94 2317.83 2520.63 2316.32 Q2522.35 2314.82 2522.35 2312.13 Q2522.35 2309.45 2520.63 2307.94 Q2518.94 2306.44 2515.93 2306.44 Q2512.9 2306.44 2511.21 2307.94 Q2509.55 2309.45 2509.55 2312.13 Z" fill="#000000" fill-rule="evenodd" fill-opacity="1" /><path clip-path="url(#clip090)" d="M 0 0 M2530.1 2323.04 L2542.58 2323.04 L2542.58 2326.83 L2530.1 2326.83 L2530.1 2323.04 Z" fill="#000000" fill-rule="evenodd" fill-opacity="1" /><path clip-path="url(#clip090)" d="M 0 0 M2557.65 2306.44 Q2554.04 2306.44 2552.21 2310 Q2550.4 2313.55 2550.4 2320.67 Q2550.4 2327.78 2552.21 2331.35 Q2554.04 2334.89 2557.65 2334.89 Q2561.28 2334.89 2563.09 2331.35 Q2564.92 2327.78 2564.92 2320.67 Q2564.92 2313.55 2563.09 2310 Q2561.28 2306.44 2557.65 2306.44 M2557.65 2302.73 Q2563.46 2302.73 2566.51 2307.34 Q2569.59 2311.92 2569.59 2320.67 Q2569.59 2329.4 2566.51 2334.01 Q2563.46 2338.59 2557.65 2338.59 Q2551.84 2338.59 2548.76 2334.01 Q2545.7 2329.4 2545.7 2320.67 Q2545.7 2311.92 2548.76 2307.34 Q2551.84 2302.73 2557.65 2302.73 Z" fill="#000000" fill-rule="evenodd" fill-opacity="1" /><path clip-path="url(#clip090)" d="M 0 0 M2575.47 2333.98 L2583.11 2333.98 L2583.11 2307.62 L2574.8 2309.29 L2574.8 2305.03 L2583.06 2303.36 L2587.74 2303.36 L2587.74 2333.98 L2595.38 2333.98 L2595.38 2337.92 L2575.47 2337.92 L2575.47 2333.98 Z" fill="#000000" fill-rule="evenodd" fill-opacity="1" /><path clip-path="url(#clip090)" d="M 0 0 M2597.69 2323.04 L2610.17 2323.04 L2610.17 2326.83 L2597.69 2326.83 L2597.69 2323.04 Z" fill="#000000" fill-rule="evenodd" fill-opacity="1" /><path clip-path="url(#clip090)" d="M 0 0 M2625.24 2306.44 Q2621.63 2306.44 2619.8 2310 Q2617.99 2313.55 2617.99 2320.67 Q2617.99 2327.78 2619.8 2331.35 Q2621.63 2334.89 2625.24 2334.89 Q2628.87 2334.89 2630.68 2331.35 Q2632.51 2327.78 2632.51 2320.67 Q2632.51 2313.55 2630.68 2310 Q2628.87 2306.44 2625.24 2306.44 M2625.24 2302.73 Q2631.05 2302.73 2634.1 2307.34 Q2637.18 2311.92 2637.18 2320.67 Q2637.18 2329.4 2634.1 2334.01 Q2631.05 2338.59 2625.24 2338.59 Q2619.43 2338.59 2616.35 2334.01 Q2613.29 2329.4 2613.29 2320.67 Q2613.29 2311.92 2616.35 2307.34 Q2619.43 2302.73 2625.24 2302.73 Z" fill="#000000" fill-rule="evenodd" fill-opacity="1" /><path clip-path="url(#clip090)" d="M 0 0 M2643.06 2333.98 L2650.7 2333.98 L2650.7 2307.62 L2642.39 2309.29 L2642.39 2305.03 L2650.66 2303.36 L2655.33 2303.36 L2655.33 2333.98 L2662.97 2333.98 L2662.97 2337.92 L2643.06 2337.92 L2643.06 2333.98 Z" fill="#000000" fill-rule="evenodd" fill-opacity="1" /><path clip-path="url(#clip090)" d="M 0 0 M3153.09 2333.98 L3169.41 2333.98 L3169.41 2337.92 L3147.46 2337.92 L3147.46 2333.98 Q3150.12 2331.23 3154.71 2326.6 Q3159.31 2321.95 3160.49 2320.61 Q3162.74 2318.08 3163.62 2316.35 Q3164.52 2314.59 3164.52 2312.9 Q3164.52 2310.14 3162.58 2308.41 Q3160.66 2306.67 3157.55 2306.67 Q3155.35 2306.67 3152.9 2307.43 Q3150.47 2308.2 3147.69 2309.75 L3147.69 2305.03 Q3150.52 2303.89 3152.97 2303.31 Q3155.42 2302.73 3157.46 2302.73 Q3162.83 2302.73 3166.03 2305.42 Q3169.22 2308.11 3169.22 2312.6 Q3169.22 2314.73 3168.41 2316.65 Q3167.62 2318.54 3165.52 2321.14 Q3164.94 2321.81 3161.84 2325.03 Q3158.73 2328.22 3153.09 2333.98 Z" fill="#000000" fill-rule="evenodd" fill-opacity="1" /><path clip-path="url(#clip090)" d="M 0 0 M3184.47 2306.44 Q3180.86 2306.44 3179.03 2310 Q3177.23 2313.55 3177.23 2320.67 Q3177.23 2327.78 3179.03 2331.35 Q3180.86 2334.89 3184.47 2334.89 Q3188.11 2334.89 3189.91 2331.35 Q3191.74 2327.78 3191.74 2320.67 Q3191.74 2313.55 3189.91 2310 Q3188.11 2306.44 3184.47 2306.44 M3184.47 2302.73 Q3190.28 2302.73 3193.34 2307.34 Q3196.42 2311.92 3196.42 2320.67 Q3196.42 2329.4 3193.34 2334.01 Q3190.28 2338.59 3184.47 2338.59 Q3178.66 2338.59 3175.59 2334.01 Q3172.53 2329.4 3172.53 2320.67 Q3172.53 2311.92 3175.59 2307.34 Q3178.66 2302.73 3184.47 2302.73 Z" fill="#000000" fill-rule="evenodd" fill-opacity="1" /><path clip-path="url(#clip090)" d="M 0 0 M3205.52 2333.98 L3221.84 2333.98 L3221.84 2337.92 L3199.89 2337.92 L3199.89 2333.98 Q3202.55 2331.23 3207.14 2326.6 Q3211.74 2321.95 3212.92 2320.61 Q3215.17 2318.08 3216.05 2316.35 Q3216.95 2314.59 3216.95 2312.9 Q3216.95 2310.14 3215.01 2308.41 Q3213.09 2306.67 3209.98 2306.67 Q3207.78 2306.67 3205.33 2307.43 Q3202.9 2308.2 3200.12 2309.75 L3200.12 2305.03 Q3202.95 2303.89 3205.4 2303.31 Q3207.85 2302.73 3209.89 2302.73 Q3215.26 2302.73 3218.46 2305.42 Q3221.65 2308.11 3221.65 2312.6 Q3221.65 2314.73 3220.84 2316.65 Q3220.05 2318.54 3217.95 2321.14 Q3217.37 2321.81 3214.27 2325.03 Q3211.16 2328.22 3205.52 2333.98 Z" fill="#000000" fill-rule="evenodd" fill-opacity="1" /><path clip-path="url(#clip090)" d="M 0 0 M3236.9 2306.44 Q3233.29 2306.44 3231.46 2310 Q3229.66 2313.55 3229.66 2320.67 Q3229.66 2327.78 3231.46 2331.35 Q3233.29 2334.89 3236.9 2334.89 Q3240.54 2334.89 3242.34 2331.35 Q3244.17 2327.78 3244.17 2320.67 Q3244.17 2313.55 3242.34 2310 Q3240.54 2306.44 3236.9 2306.44 M3236.9 2302.73 Q3242.71 2302.73 3245.77 2307.34 Q3248.85 2311.92 3248.85 2320.67 Q3248.85 2329.4 3245.77 2334.01 Q3242.71 2338.59 3236.9 2338.59 Q3231.09 2338.59 3228.02 2334.01 Q3224.96 2329.4 3224.96 2320.67 Q3224.96 2311.92 3228.02 2307.34 Q3231.09 2302.73 3236.9 2302.73 Z" fill="#000000" fill-rule="evenodd" fill-opacity="1" /><path clip-path="url(#clip090)" d="M 0 0 M3251.16 2323.04 L3263.64 2323.04 L3263.64 2326.83 L3251.16 2326.83 L3251.16 2323.04 Z" fill="#000000" fill-rule="evenodd" fill-opacity="1" /><path clip-path="url(#clip090)" d="M 0 0 M3278.71 2306.44 Q3275.1 2306.44 3273.27 2310 Q3271.46 2313.55 3271.46 2320.67 Q3271.46 2327.78 3273.27 2331.35 Q3275.1 2334.89 3278.71 2334.89 Q3282.34 2334.89 3284.15 2331.35 Q3285.98 2327.78 3285.98 2320.67 Q3285.98 2313.55 3284.15 2310 Q3282.34 2306.44 3278.71 2306.44 M3278.71 2302.73 Q3284.52 2302.73 3287.58 2307.34 Q3290.65 2311.92 3290.65 2320.67 Q3290.65 2329.4 3287.58 2334.01 Q3284.52 2338.59 3278.71 2338.59 Q3272.9 2338.59 3269.82 2334.01 Q3266.77 2329.4 3266.77 2320.67 Q3266.77 2311.92 3269.82 2307.34 Q3272.9 2302.73 3278.71 2302.73 Z" fill="#000000" fill-rule="evenodd" fill-opacity="1" /><path clip-path="url(#clip090)" d="M 0 0 M3296.53 2333.98 L3304.17 2333.98 L3304.17 2307.62 L3295.86 2309.29 L3295.86 2305.03 L3304.13 2303.36 L3308.8 2303.36 L3308.8 2333.98 L3316.44 2333.98 L3316.44 2337.92 L3296.53 2337.92 L3296.53 2333.98 Z" fill="#000000" fill-rule="evenodd" fill-opacity="1" /><path clip-path="url(#clip090)" d="M 0 0 M3318.76 2323.04 L3331.23 2323.04 L3331.23 2326.83 L3318.76 2326.83 L3318.76 2323.04 Z" fill="#000000" fill-rule="evenodd" fill-opacity="1" /><path clip-path="url(#clip090)" d="M 0 0 M3346.3 2306.44 Q3342.69 2306.44 3340.86 2310 Q3339.06 2313.55 3339.06 2320.67 Q3339.06 2327.78 3340.86 2331.35 Q3342.69 2334.89 3346.3 2334.89 Q3349.94 2334.89 3351.74 2331.35 Q3353.57 2327.78 3353.57 2320.67 Q3353.57 2313.55 3351.74 2310 Q3349.94 2306.44 3346.3 2306.44 M3346.3 2302.73 Q3352.11 2302.73 3355.17 2307.34 Q3358.25 2311.92 3358.25 2320.67 Q3358.25 2329.4 3355.17 2334.01 Q3352.11 2338.59 3346.3 2338.59 Q3340.49 2338.59 3337.41 2334.01 Q3334.36 2329.4 3334.36 2320.67 Q3334.36 2311.92 3337.41 2307.34 Q3340.49 2302.73 3346.3 2302.73 Z" fill="#000000" fill-rule="evenodd" fill-opacity="1" /><path clip-path="url(#clip090)" d="M 0 0 M3364.13 2333.98 L3371.77 2333.98 L3371.77 2307.62 L3363.45 2309.29 L3363.45 2305.03 L3371.72 2303.36 L3376.39 2303.36 L3376.39 2333.98 L3384.03 2333.98 L3384.03 2337.92 L3364.13 2337.92 L3364.13 2333.98 Z" fill="#000000" fill-rule="evenodd" fill-opacity="1" /><path clip-path="url(#clip090)" d="M 0 0 M240.611 2202.87 Q237 2202.87 235.172 2206.43 Q233.366 2209.97 233.366 2217.1 Q233.366 2224.21 235.172 2227.77 Q237 2231.32 240.611 2231.32 Q244.246 2231.32 246.051 2227.77 Q247.88 2224.21 247.88 2217.1 Q247.88 2209.97 246.051 2206.43 Q244.246 2202.87 240.611 2202.87 M240.611 2199.16 Q246.422 2199.16 249.477 2203.77 Q252.556 2208.35 252.556 2217.1 Q252.556 2225.83 249.477 2230.44 Q246.422 2235.02 240.611 2235.02 Q234.801 2235.02 231.723 2230.44 Q228.667 2225.83 228.667 2217.1 Q228.667 2208.35 231.723 2203.77 Q234.801 2199.16 240.611 2199.16 Z" fill="#000000" fill-rule="evenodd" fill-opacity="1" /><path clip-path="url(#clip090)" d="M 0 0 M126.144 1666.66 L133.783 1666.66 L133.783 1640.29 L125.473 1641.96 L125.473 1637.7 L133.737 1636.03 L138.413 1636.03 L138.413 1666.66 L146.052 1666.66 L146.052 1670.59 L126.144 1670.59 L126.144 1666.66 Z" fill="#000000" fill-rule="evenodd" fill-opacity="1" /><path clip-path="url(#clip090)" d="M 0 0 M179.292 1645.13 L168.714 1655.75 L179.292 1666.33 L176.538 1669.13 L165.913 1658.51 L155.288 1669.13 L152.556 1666.33 L163.112 1655.75 L152.556 1645.13 L155.288 1642.33 L165.913 1652.95 L176.538 1642.33 L179.292 1645.13 Z" fill="#000000" fill-rule="evenodd" fill-opacity="1" /><path clip-path="url(#clip090)" d="M 0 0 M185.172 1666.66 L192.811 1666.66 L192.811 1640.29 L184.501 1641.96 L184.501 1637.7 L192.764 1636.03 L197.44 1636.03 L197.44 1666.66 L205.079 1666.66 L205.079 1670.59 L185.172 1670.59 L185.172 1666.66 Z" fill="#000000" fill-rule="evenodd" fill-opacity="1" /><path clip-path="url(#clip090)" d="M 0 0 M220.149 1639.11 Q216.537 1639.11 214.709 1642.67 Q212.903 1646.22 212.903 1653.35 Q212.903 1660.45 214.709 1664.02 Q216.537 1667.56 220.149 1667.56 Q223.783 1667.56 225.588 1664.02 Q227.417 1660.45 227.417 1653.35 Q227.417 1646.22 225.588 1642.67 Q223.783 1639.11 220.149 1639.11 M220.149 1635.41 Q225.959 1635.41 229.014 1640.01 Q232.093 1644.6 232.093 1653.35 Q232.093 1662.07 229.014 1666.68 Q225.959 1671.26 220.149 1671.26 Q214.338 1671.26 211.26 1666.68 Q208.204 1662.07 208.204 1653.35 Q208.204 1644.6 211.26 1640.01 Q214.338 1635.41 220.149 1635.41 Z" fill="#000000" fill-rule="evenodd" fill-opacity="1" /><path clip-path="url(#clip090)" d="M 0 0 M244.769 1618.41 L235.177 1633.4 L244.769 1633.4 L244.769 1618.41 M243.773 1615.1 L248.55 1615.1 L248.55 1633.4 L252.556 1633.4 L252.556 1636.56 L248.55 1636.56 L248.55 1643.18 L244.769 1643.18 L244.769 1636.56 L232.093 1636.56 L232.093 1632.89 L243.773 1615.1 Z" fill="#000000" fill-rule="evenodd" fill-opacity="1" /><path clip-path="url(#clip090)" d="M 0 0 M129.732 1096.45 L146.052 1096.45 L146.052 1100.39 L124.107 1100.39 L124.107 1096.45 Q126.769 1093.7 131.353 1089.07 Q135.959 1084.42 137.14 1083.07 Q139.385 1080.55 140.265 1078.81 Q141.167 1077.05 141.167 1075.36 Q141.167 1072.61 139.223 1070.87 Q137.302 1069.14 134.2 1069.14 Q132.001 1069.14 129.547 1069.9 Q127.117 1070.67 124.339 1072.22 L124.339 1067.49 Q127.163 1066.36 129.617 1065.78 Q132.07 1065.2 134.107 1065.2 Q139.478 1065.2 142.672 1067.89 Q145.867 1070.57 145.867 1075.06 Q145.867 1077.19 145.056 1079.11 Q144.269 1081.01 142.163 1083.6 Q141.584 1084.28 138.482 1087.49 Q135.38 1090.69 129.732 1096.45 Z" fill="#000000" fill-rule="evenodd" fill-opacity="1" /><path clip-path="url(#clip090)" d="M 0 0 M179.292 1074.92 L168.714 1085.55 L179.292 1096.13 L176.538 1098.93 L165.913 1088.3 L155.288 1098.93 L152.556 1096.13 L163.112 1085.55 L152.556 1074.92 L155.288 1072.12 L165.913 1082.75 L176.538 1072.12 L179.292 1074.92 Z" fill="#000000" fill-rule="evenodd" fill-opacity="1" /><path clip-path="url(#clip090)" d="M 0 0 M185.172 1096.45 L192.811 1096.45 L192.811 1070.09 L184.501 1071.75 L184.501 1067.49 L192.764 1065.83 L197.44 1065.83 L197.44 1096.45 L205.079 1096.45 L205.079 1100.39 L185.172 1100.39 L185.172 1096.45 Z" fill="#000000" fill-rule="evenodd" fill-opacity="1" /><path clip-path="url(#clip090)" d="M 0 0 M220.149 1068.91 Q216.537 1068.91 214.709 1072.47 Q212.903 1076.01 212.903 1083.14 Q212.903 1090.25 214.709 1093.81 Q216.537 1097.35 220.149 1097.35 Q223.783 1097.35 225.588 1093.81 Q227.417 1090.25 227.417 1083.14 Q227.417 1076.01 225.588 1072.47 Q223.783 1068.91 220.149 1068.91 M220.149 1065.2 Q225.959 1065.2 229.014 1069.81 Q232.093 1074.39 232.093 1083.14 Q232.093 1091.87 229.014 1096.48 Q225.959 1101.06 220.149 1101.06 Q214.338 1101.06 211.26 1096.48 Q208.204 1091.87 208.204 1083.14 Q208.204 1074.39 211.26 1069.81 Q214.338 1065.2 220.149 1065.2 Z" fill="#000000" fill-rule="evenodd" fill-opacity="1" /><path clip-path="url(#clip090)" d="M 0 0 M244.769 1048.21 L235.177 1063.2 L244.769 1063.2 L244.769 1048.21 M243.773 1044.9 L248.55 1044.9 L248.55 1063.2 L252.556 1063.2 L252.556 1066.36 L248.55 1066.36 L248.55 1072.98 L244.769 1072.98 L244.769 1066.36 L232.093 1066.36 L232.093 1062.69 L243.773 1044.9 Z" fill="#000000" fill-rule="evenodd" fill-opacity="1" /><path clip-path="url(#clip090)" d="M 0 0 M138.922 511.549 Q142.279 512.266 144.154 514.535 Q146.052 516.803 146.052 520.137 Q146.052 525.252 142.533 528.053 Q139.015 530.854 132.533 530.854 Q130.357 530.854 128.043 530.414 Q125.751 529.998 123.297 529.141 L123.297 524.627 Q125.242 525.762 127.556 526.34 Q129.871 526.919 132.394 526.919 Q136.793 526.919 139.084 525.183 Q141.399 523.447 141.399 520.137 Q141.399 517.081 139.246 515.368 Q137.117 513.632 133.297 513.632 L129.269 513.632 L129.269 509.789 L133.482 509.789 Q136.931 509.789 138.76 508.424 Q140.589 507.035 140.589 504.442 Q140.589 501.78 138.691 500.368 Q136.816 498.933 133.297 498.933 Q131.376 498.933 129.177 499.35 Q126.978 499.766 124.339 500.646 L124.339 496.479 Q127.001 495.739 129.316 495.368 Q131.654 494.998 133.714 494.998 Q139.038 494.998 142.14 497.428 Q145.242 499.836 145.242 503.956 Q145.242 506.827 143.598 508.817 Q141.955 510.785 138.922 511.549 Z" fill="#000000" fill-rule="evenodd" fill-opacity="1" /><path clip-path="url(#clip090)" d="M 0 0 M179.292 504.72 L168.714 515.345 L179.292 525.924 L176.538 528.725 L165.913 518.1 L155.288 528.725 L152.556 525.924 L163.112 515.345 L152.556 504.72 L155.288 501.919 L165.913 512.544 L176.538 501.919 L179.292 504.72 Z" fill="#000000" fill-rule="evenodd" fill-opacity="1" /><path clip-path="url(#clip090)" d="M 0 0 M185.172 526.248 L192.811 526.248 L192.811 499.882 L184.501 501.549 L184.501 497.29 L192.764 495.623 L197.44 495.623 L197.44 526.248 L205.079 526.248 L205.079 530.183 L185.172 530.183 L185.172 526.248 Z" fill="#000000" fill-rule="evenodd" fill-opacity="1" /><path clip-path="url(#clip090)" d="M 0 0 M220.149 498.702 Q216.537 498.702 214.709 502.266 Q212.903 505.808 212.903 512.938 Q212.903 520.044 214.709 523.609 Q216.537 527.15 220.149 527.15 Q223.783 527.15 225.588 523.609 Q227.417 520.044 227.417 512.938 Q227.417 505.808 225.588 502.266 Q223.783 498.702 220.149 498.702 M220.149 494.998 Q225.959 494.998 229.014 499.604 Q232.093 504.188 232.093 512.938 Q232.093 521.664 229.014 526.271 Q225.959 530.854 220.149 530.854 Q214.338 530.854 211.26 526.271 Q208.204 521.664 208.204 512.938 Q208.204 504.188 211.26 499.604 Q214.338 494.998 220.149 494.998 Z" fill="#000000" fill-rule="evenodd" fill-opacity="1" /><path clip-path="url(#clip090)" d="M 0 0 M244.769 478.003 L235.177 492.992 L244.769 492.992 L244.769 478.003 M243.773 474.692 L248.55 474.692 L248.55 492.992 L252.556 492.992 L252.556 496.152 L248.55 496.152 L248.55 502.772 L244.769 502.772 L244.769 496.152 L232.093 496.152 L232.093 492.485 L243.773 474.692 Z" fill="#000000" fill-rule="evenodd" fill-opacity="1" /><path clip-path="url(#clip090)" d="M 0 0 M32.1444 1374.97 L38.9239 1374.97 Q35.9002 1378.21 34.4043 1381.91 Q32.9083 1385.57 32.9083 1389.7 Q32.9083 1397.85 37.9054 1402.18 Q42.8707 1406.51 52.2919 1406.51 Q61.6813 1406.51 66.6784 1402.18 Q71.6436 1397.85 71.6436 1389.7 Q71.6436 1385.57 70.1477 1381.91 Q68.6518 1378.21 65.6281 1374.97 L72.3439 1374.97 Q74.6355 1378.34 75.7814 1382.13 Q76.9272 1385.88 76.9272 1390.09 Q76.9272 1400.88 70.3387 1407.08 Q63.7183 1413.29 52.2919 1413.29 Q40.8336 1413.29 34.2451 1407.08 Q27.6248 1400.88 27.6248 1390.09 Q27.6248 1385.82 28.7706 1382.07 Q29.8846 1378.28 32.1444 1374.97 Z" fill="#000000" fill-rule="evenodd" fill-opacity="1" /><path clip-path="url(#clip090)" d="M 0 0 M61.9359 1369.43 L40.3562 1369.43 L40.3562 1363.57 L61.7131 1363.57 Q66.7739 1363.57 69.3202 1361.6 Q71.8346 1359.63 71.8346 1355.68 Q71.8346 1350.94 68.8109 1348.2 Q65.7872 1345.43 60.5673 1345.43 L40.3562 1345.43 L40.3562 1339.57 L76.0042 1339.57 L76.0042 1345.43 L70.5296 1345.43 Q73.7762 1347.56 75.3676 1350.4 Q76.9272 1353.2 76.9272 1356.92 Q76.9272 1363.06 73.1078 1366.25 Q69.2883 1369.43 61.9359 1369.43 M39.4968 1354.69 L39.4968 1354.69 Z" fill="#000000" fill-rule="evenodd" fill-opacity="1" /><path clip-path="url(#clip090)" d="M 0 0 M47.1993 1305.68 Q43.2526 1303.48 41.3747 1300.42 Q39.4968 1297.37 39.4968 1293.23 Q39.4968 1287.66 43.4117 1284.64 Q47.2948 1281.61 54.4881 1281.61 L76.0042 1281.61 L76.0042 1287.5 L54.679 1287.5 Q49.5546 1287.5 47.072 1289.32 Q44.5894 1291.13 44.5894 1294.85 Q44.5894 1299.41 47.6131 1302.05 Q50.6368 1304.69 55.8567 1304.69 L76.0042 1304.69 L76.0042 1310.58 L54.679 1310.58 Q49.5228 1310.58 47.072 1312.39 Q44.5894 1314.21 44.5894 1317.99 Q44.5894 1322.48 47.6449 1325.12 Q50.6686 1327.77 55.8567 1327.77 L76.0042 1327.77 L76.0042 1333.65 L40.3562 1333.65 L40.3562 1327.77 L45.8944 1327.77 Q42.616 1325.76 41.0564 1322.96 Q39.4968 1320.16 39.4968 1316.31 Q39.4968 1312.42 41.4702 1309.72 Q43.4436 1306.98 47.1993 1305.68 Z" fill="#000000" fill-rule="evenodd" fill-opacity="1" /><path clip-path="url(#clip090)" d="M 0 0 M61.9359 1276.08 L40.3562 1276.08 L40.3562 1270.22 L61.7131 1270.22 Q66.7739 1270.22 69.3202 1268.25 Q71.8346 1266.27 71.8346 1262.33 Q71.8346 1257.58 68.8109 1254.85 Q65.7872 1252.08 60.5673 1252.08 L40.3562 1252.08 L40.3562 1246.22 L76.0042 1246.22 L76.0042 1252.08 L70.5296 1252.08 Q73.7762 1254.21 75.3676 1257.04 Q76.9272 1259.84 76.9272 1263.57 Q76.9272 1269.71 73.1078 1272.89 Q69.2883 1276.08 61.9359 1276.08 M39.4968 1261.34 L39.4968 1261.34 Z" fill="#000000" fill-rule="evenodd" fill-opacity="1" /><path clip-path="url(#clip090)" d="M 0 0 M26.479 1240.08 L26.479 1234.22 L76.0042 1234.22 L76.0042 1240.08 L26.479 1240.08 Z" fill="#000000" fill-rule="evenodd" fill-opacity="1" /><path clip-path="url(#clip090)" d="M 0 0 M58.0847 1211.88 Q58.0847 1218.98 59.7079 1221.71 Q61.3312 1224.45 65.2461 1224.45 Q68.3653 1224.45 70.2114 1222.41 Q72.0256 1220.34 72.0256 1216.81 Q72.0256 1211.94 68.5881 1209.01 Q65.1188 1206.05 59.3897 1206.05 L58.0847 1206.05 L58.0847 1211.88 M55.6657 1200.2 L76.0042 1200.2 L76.0042 1206.05 L70.5933 1206.05 Q73.8398 1208.06 75.3994 1211.05 Q76.9272 1214.04 76.9272 1218.37 Q76.9272 1223.85 73.8716 1227.09 Q70.7843 1230.31 65.6281 1230.31 Q59.6125 1230.31 56.5569 1226.3 Q53.5014 1222.25 53.5014 1214.26 L53.5014 1206.05 L52.9285 1206.05 Q48.8862 1206.05 46.6901 1208.73 Q44.4621 1211.37 44.4621 1216.17 Q44.4621 1219.23 45.1941 1222.13 Q45.9262 1225.02 47.3903 1227.7 L41.9795 1227.7 Q40.7381 1224.48 40.1334 1221.46 Q39.4968 1218.43 39.4968 1215.57 Q39.4968 1207.84 43.5072 1204.02 Q47.5176 1200.2 55.6657 1200.2 Z" fill="#000000" fill-rule="evenodd" fill-opacity="1" /><path clip-path="url(#clip090)" d="M 0 0 M30.2347 1188.26 L40.3562 1188.26 L40.3562 1176.2 L44.9077 1176.2 L44.9077 1188.26 L64.2594 1188.26 Q68.6199 1188.26 69.8613 1187.08 Q71.1026 1185.87 71.1026 1182.21 L71.1026 1176.2 L76.0042 1176.2 L76.0042 1182.21 Q76.0042 1188.99 73.4897 1191.57 Q70.9434 1194.15 64.2594 1194.15 L44.9077 1194.15 L44.9077 1198.45 L40.3562 1198.45 L40.3562 1194.15 L30.2347 1194.15 L30.2347 1188.26 Z" fill="#000000" fill-rule="evenodd" fill-opacity="1" /><path clip-path="url(#clip090)" d="M 0 0 M40.3562 1170.06 L40.3562 1164.2 L76.0042 1164.2 L76.0042 1170.06 L40.3562 1170.06 M26.479 1170.06 L26.479 1164.2 L33.895 1164.2 L33.895 1170.06 L26.479 1170.06 Z" fill="#000000" fill-rule="evenodd" fill-opacity="1" /><path clip-path="url(#clip090)" d="M 0 0 M40.3562 1162.26 L40.3562 1156.05 L70.275 1144.91 L40.3562 1133.77 L40.3562 1127.56 L76.0042 1140.93 L76.0042 1148.89 L40.3562 1162.26 Z" fill="#000000" fill-rule="evenodd" fill-opacity="1" /><path clip-path="url(#clip090)" d="M 0 0 M56.7161 1090.93 L59.5806 1090.93 L59.5806 1117.86 Q65.6281 1117.47 68.8109 1114.23 Q71.9619 1110.95 71.9619 1105.12 Q71.9619 1101.75 71.1344 1098.6 Q70.3069 1095.42 68.6518 1092.3 L74.1899 1092.3 Q75.5267 1095.45 76.227 1098.76 Q76.9272 1102.07 76.9272 1105.48 Q76.9272 1114.01 71.9619 1119 Q66.9967 1123.97 58.5303 1123.97 Q49.7774 1123.97 44.6531 1119.26 Q39.4968 1114.51 39.4968 1106.49 Q39.4968 1099.3 44.1438 1095.13 Q48.7589 1090.93 56.7161 1090.93 M54.9973 1096.79 Q50.1912 1096.85 47.3266 1099.49 Q44.4621 1102.1 44.4621 1106.43 Q44.4621 1111.33 47.2312 1114.29 Q50.0002 1117.22 55.0292 1117.67 L54.9973 1096.79 Z" fill="#000000" fill-rule="evenodd" fill-opacity="1" /><path clip-path="url(#clip090)" d="M 0 0 M33.7677 1057.38 L51.6235 1057.38 L51.6235 1049.3 Q51.6235 1044.81 49.3 1042.36 Q46.9765 1039.91 42.6797 1039.91 Q38.4147 1039.91 36.0912 1042.36 Q33.7677 1044.81 33.7677 1049.3 L33.7677 1057.38 M28.4842 1063.81 L28.4842 1049.3 Q28.4842 1041.31 32.1126 1037.23 Q35.7092 1033.13 42.6797 1033.13 Q49.7138 1033.13 53.3104 1037.23 Q56.907 1041.31 56.907 1049.3 L56.907 1057.38 L76.0042 1057.38 L76.0042 1063.81 L28.4842 1063.81 Z" fill="#000000" fill-rule="evenodd" fill-opacity="1" /><path clip-path="url(#clip090)" d="M 0 0 M45.8307 1007.47 Q45.2578 1008.46 45.0032 1009.64 Q44.7167 1010.79 44.7167 1012.19 Q44.7167 1017.15 47.9632 1019.82 Q51.1779 1022.47 57.2253 1022.47 L76.0042 1022.47 L76.0042 1028.35 L40.3562 1028.35 L40.3562 1022.47 L45.8944 1022.47 Q42.6479 1020.62 41.0883 1017.66 Q39.4968 1014.7 39.4968 1010.47 Q39.4968 1009.86 39.5923 1009.13 Q39.656 1008.4 39.8151 1007.51 L45.8307 1007.47 Z" fill="#000000" fill-rule="evenodd" fill-opacity="1" /><path clip-path="url(#clip090)" d="M 0 0 M44.4621 988.951 Q44.4621 993.661 48.1542 996.399 Q51.8145 999.136 58.212 999.136 Q64.6095 999.136 68.3017 996.43 Q71.9619 993.693 71.9619 988.951 Q71.9619 984.272 68.2698 981.535 Q64.5777 978.797 58.212 978.797 Q51.8781 978.797 48.186 981.535 Q44.4621 984.272 44.4621 988.951 M39.4968 988.951 Q39.4968 981.312 44.4621 976.951 Q49.4273 972.591 58.212 972.591 Q66.9649 972.591 71.9619 976.951 Q76.9272 981.312 76.9272 988.951 Q76.9272 996.621 71.9619 1000.98 Q66.9649 1005.31 58.212 1005.31 Q49.4273 1005.31 44.4621 1000.98 Q39.4968 996.621 39.4968 988.951 Z" fill="#000000" fill-rule="evenodd" fill-opacity="1" /><path clip-path="url(#clip090)" d="M 0 0 M26.479 948.401 L31.3487 948.401 L31.3487 954.003 Q31.3487 957.154 32.6219 958.395 Q33.895 959.605 37.2052 959.605 L40.3562 959.605 L40.3562 949.961 L44.9077 949.961 L44.9077 959.605 L76.0042 959.605 L76.0042 965.493 L44.9077 965.493 L44.9077 971.095 L40.3562 971.095 L40.3562 965.493 L37.8736 965.493 Q31.9216 965.493 29.2162 962.724 Q26.479 959.955 26.479 953.939 L26.479 948.401 Z" fill="#000000" fill-rule="evenodd" fill-opacity="1" /><path clip-path="url(#clip090)" d="M 0 0 M40.3562 942.258 L40.3562 936.402 L76.0042 936.402 L76.0042 942.258 L40.3562 942.258 M26.479 942.258 L26.479 936.402 L33.895 936.402 L33.895 942.258 L26.479 942.258 Z" fill="#000000" fill-rule="evenodd" fill-opacity="1" /><path clip-path="url(#clip090)" d="M 0 0 M30.2347 924.466 L40.3562 924.466 L40.3562 912.403 L44.9077 912.403 L44.9077 924.466 L64.2594 924.466 Q68.6199 924.466 69.8613 923.289 Q71.1026 922.079 71.1026 918.419 L71.1026 912.403 L76.0042 912.403 L76.0042 918.419 Q76.0042 925.198 73.4897 927.776 Q70.9434 930.354 64.2594 930.354 L44.9077 930.354 L44.9077 934.651 L40.3562 934.651 L40.3562 930.354 L30.2347 930.354 L30.2347 924.466 Z" fill="#000000" fill-rule="evenodd" fill-opacity="1" /><polyline clip-path="url(#clip092)" style="stroke:#009af9; stroke-width:4; stroke-opacity:1; fill:none" points="
  380.939,2215.3 381.927,2199.33 382.915,2196.88 383.903,2206.58 386.866,2201.67 387.854,2193.75 388.842,2189.36 389.83,2189.07 390.818,2196.43 394.77,2190.33 
  395.758,2184.62 396.746,2180.8 397.734,2150.24 400.698,2146.59 401.686,2140.43 402.674,2138.38 403.662,2136.27 404.65,2135.64 407.613,2125.44 408.601,2119.73 
  409.589,2114.77 410.577,2113.01 411.565,2189.93 414.529,2184 415.517,2172.14 416.505,2168.03 417.493,2164.89 418.481,2168.03 421.445,2161.93 422.433,2156.85 
  423.421,2155.89 424.409,2153.78 425.396,2151.15 429.348,2151.04 430.336,2147.5 431.324,2146.08 432.312,2139.01 435.276,2129.66 436.264,2126.52 437.252,2065.74 
  438.24,2063.74 439.228,2157.08 442.192,2144.88 443.18,2141 444.167,2085.64 445.155,2084.38 446.143,2172.31 449.107,2169.46 450.095,2168.71 451.083,2168.54 
  452.071,2167.92 453.059,2098.58 456.023,2097.27 457.011,2087.63 457.999,2083.58 458.987,2082.61 459.975,2084.1 462.938,2080.05 463.926,2078.11 464.914,2076.28 
  465.902,2072.98 466.89,2073.49 469.854,2067.39 470.842,2063.4 471.83,2008.2 472.818,2065.05 476.77,2063.91 477.758,2058.04 478.746,2057.92 479.734,2050.97 
  480.722,2050.4 483.685,2044.58 484.673,2039.85 485.661,2039.62 486.649,2033.75 487.637,2033.63 490.601,2024.85 491.589,2018.12 492.577,2014.08 493.565,2011.17 
  494.553,2058.89 497.517,2046.29 498.505,2045.21 499.493,2036.71 500.481,2029.19 501.468,2025.31 504.432,2022.06 505.42,2020.35 506.408,2016.53 507.396,2016.3 
  508.384,2002.56 511.348,1998.28 512.336,1993.89 513.324,1991.95 514.312,1990.93 515.3,1957.4 518.264,1955 519.252,1954.49 520.239,1945.19 521.227,1944.68 
  522.215,1943.66 526.167,1941.55 527.155,1937.55 528.143,1935.44 529.131,1925.58 532.095,1918.28 533.083,1911.27 534.071,1906.76 535.059,1903.23 536.047,1981.29 
  539.01,1970.51 539.998,1965.55 540.986,1963.9 541.974,1963.56 542.962,1961.79 545.926,1953.8 546.914,1949.76 547.902,1943.6 548.89,1934.93 549.878,1938.01 
  552.842,1926.89 553.83,1923.53 554.818,1915.03 555.806,1914.06 556.794,2018.75 559.757,2018.47 560.745,2013.11 562.721,2007.29 563.709,1995.09 566.673,1988.47 
  567.661,1986.02 568.649,1984.14 569.637,1982.37 570.625,2010.2 573.589,2006.83 574.577,2001.3 575.565,2000.73 576.553,2000.45 577.54,1930.26 580.504,1929 
  581.492,1926.72 582.48,1913.95 583.468,1913.09 584.456,1963.21 587.42,1957.68 588.408,1951.87 589.396,1948.39 590.384,1945.48 591.372,1999.14 594.336,1997.54 
  595.324,1992.52 596.311,1990.87 597.299,1989.56 598.287,1994.29 601.251,1982.66 602.239,1982.54 603.227,1971.08 604.215,1970.8 605.203,1890.85 608.167,1889.31 
  609.155,1872.95 610.143,1870.33 611.131,1870.27 612.119,1880.93 615.082,1875.4 616.07,1873.18 617.058,1871.58 618.046,1867.3 619.034,1868.73 622.986,1863.37 
  623.974,1851.05 624.962,1849.17 625.95,1916 628.914,1915.26 629.902,1913.09 630.89,1909.84 631.878,1909.79 632.866,1953.18 635.829,1945.25 636.817,1942.4 
  637.805,1941.83 638.793,1941.77 639.781,1881.27 642.745,1879.68 643.733,1878.71 644.721,1876.09 645.709,1873.46 646.697,1876.09 649.661,1864.4 650.649,1859.89 
  651.637,1850.37 652.625,1845.35 653.612,1885.72 656.576,1873.06 657.564,1866.73 658.552,1866.68 659.54,1864.68 660.528,1860.8 663.492,1842.33 664.48,1838.28 
  665.468,1836.86 666.456,1834 667.444,1789.3 670.408,1783.66 671.396,1778.98 672.383,1774.02 673.371,1770.94 674.359,1768.32 679.299,1764.73 680.287,1748.36 
  681.275,1752.24 684.239,1743.68 685.227,1737.87 686.215,1734.22 687.203,1732 688.191,1723.56 691.154,1721.5 692.142,1715.63 693.13,1705.48 694.118,1704.23 
  695.106,1700.46 698.07,1696.19 699.058,1693.79 700.046,1693.51 702.022,1717.34 704.986,1716.31 705.974,1714.49 706.962,1703.26 707.95,1700.12 708.938,1716.77 
  711.901,1714.49 712.889,1712.04 713.877,1709.76 714.865,1708.39 715.853,1708.45 718.817,1704.4 719.805,1699.15 720.793,1695.96 721.781,1693.39 722.769,1688.03 
  725.733,1685.12 726.721,1680.56 727.709,1677.88 728.697,1676.91 729.684,1605.98 732.648,1604.04 734.624,1600.56 735.612,1600.39 736.6,1598.17 739.564,1598.8 
  741.54,1595.72 742.528,1592.81 743.516,1627.88 746.48,1622.86 747.468,1621.77 748.455,1619.27 749.443,1618.3 750.431,1626.62 753.395,1625.37 754.383,1620.41 
  755.371,1619.95 756.359,1619.78 757.347,1533.45 761.299,1527.24 762.287,1522.73 763.275,1520.73 764.263,1537.84 767.226,1522.5 768.214,1518.85 769.202,1515.32 
  770.19,1430.59 771.178,1559.51 774.142,1554.09 775.13,1550.44 776.118,1549.7 777.106,1543.94 778.094,1566.86 781.058,1565.1 782.046,1561.68 783.034,1560.14 
  784.022,1559 785.01,1480.93 788.961,1479.97 789.949,1475.92 790.937,1473.18 791.925,1478.82 794.889,1458.53 795.877,1455.1 796.865,1451.4 797.853,1447.86 
  798.841,1493.65 801.805,1489.6 802.793,1485.5 803.781,1482.99 804.769,1477.68 805.756,1529.4 808.72,1526.21 809.708,1522.84 810.696,1521.02 811.684,1520.62 
  812.672,1489.15 815.636,1484.3 816.624,1481.11 817.612,1478.2 818.6,1475.8 819.588,1481.45 822.552,1476.6 823.54,1475 824.527,1474.21 825.515,1487.95 
  829.467,1483.73 830.455,1479.17 831.443,1472.72 832.431,1472.55 833.419,1470.39 836.383,1467.76 837.371,1463.32 838.359,1461.26 839.347,1458.47 840.335,1498.27 
  843.298,1491.31 844.286,1489.03 845.274,1485.27 846.262,1482.93 847.25,1451.85 850.214,1449.12 851.202,1444.33 852.19,1441.65 853.178,1441.13 854.166,1448.03 
  857.13,1443.87 858.118,1443.81 859.106,1442.1 860.094,1440.74 861.082,1481.56 864.045,1478.03 865.033,1474.26 866.021,1469.93 867.009,1467.76 867.997,1491.88 
  870.961,1486.92 871.949,1483.33 872.937,1481.11 873.925,1480.02 874.913,1395.69 877.877,1391.87 878.865,1388.16 879.853,1379.89 880.841,1376.76 881.828,1375.1 
  885.78,1371.17 886.768,1366.1 887.756,1363.64 888.744,1359.65 891.708,1356.57 892.696,1346.42 893.684,1341.01 894.672,1335.42 895.66,1374.02 898.624,1367.29 
  899.612,1363.47 900.599,1357.77 901.587,1355.55 902.575,1359.25 905.539,1351.56 906.527,1345.11 907.515,1340.84 908.503,1337.41 909.491,1322.25 912.455,1313.29 
  913.443,1306.85 914.431,1300.75 915.419,1297.16 916.407,1326.3 919.37,1321.16 920.358,1316.94 921.346,1312.5 923.322,1348.99 926.286,1333.37 927.274,1328.86 
  928.262,1323.73 929.25,1320.94 930.238,1396.2 933.202,1379.95 934.19,1379.72 935.178,1376.36 936.166,1376.3 937.154,1376.24 940.117,1372.2 941.105,1365.92 
  942.093,1359.54 943.081,1357.54 944.069,1363.36 947.033,1357.2 948.021,1352.3 949.009,1347.91 949.997,1344.43 950.985,1386.96 953.949,1382.4 954.937,1373.39 
  955.925,1369.29 956.913,1369 957.9,1369.46 960.864,1368.03 961.852,1365.58 962.84,1361.7 963.828,1360.51 964.816,1317.29 967.78,1309.7 968.768,1304.74 
  969.756,1301.21 970.744,1298.64 971.732,1326.98 974.696,1322.08 975.684,1318.54 976.671,1313.58 977.659,1311.58 978.647,1304 982.599,1300.01 983.587,1296.25 
  984.575,1295.9 985.563,1304.63 988.527,1299.32 989.515,1299.1 990.503,1296.53 991.491,1292.42 992.479,1328.58 995.442,1324.07 996.43,1318.88 997.418,1318.2 
  998.406,1312.84 999.394,1295.9 1002.36,1294.25 1003.35,1293.05 1004.33,1292.71 1005.32,1291.4 1006.31,1284.44 1009.27,1276.97 1010.26,1274.12 1011.25,1271.9 
  1012.24,1270.07 1013.23,1271.56 1016.19,1265.28 1017.18,1260.21 1018.17,1256.96 1019.15,1253.48 1020.14,1326.3 1023.11,1319.45 1024.09,1308.28 1025.08,1306.79 
  1026.07,1298.93 1027.06,1269.27 1030.02,1263.57 1031.01,1259.81 1032,1259.18 1032.98,1251.2 1033.97,1273.55 1036.94,1266.31 1037.92,1259.52 1038.91,1254.39 
  1039.9,1253.42 1040.89,1254.56 1043.85,1252.85 1044.84,1252.11 1045.83,1248.23 1046.82,1243.39 1047.8,1260.72 1050.77,1254.79 1051.76,1251.77 1052.74,1250.57 
  1053.73,1248.86 1054.72,1193.67 1057.68,1187.91 1058.67,1186.94 1059.66,1181.81 1060.65,1181.06 1061.64,1208.83 1064.6,1207.29 1065.59,1203.87 1066.57,1203.53 
  1068.55,1200.39 1071.51,1195.15 1072.5,1191.04 1073.49,1188.7 1074.48,1187.11 1075.47,1197.31 1078.43,1194.58 1079.42,1193.32 1080.41,1190.13 1081.39,1185.45 
  1082.38,1184.54 1085.35,1175.25 1086.33,1168.92 1087.32,1164.81 1088.31,1164.47 1089.3,1163.62 1092.26,1156.55 1093.25,1151.98 1095.23,1151.81 1096.21,1166.81 
  1099.18,1166.58 1100.16,1171.31 1102.14,1168.92 1103.13,1163.67 1106.09,1160.37 1107.08,1154.55 1108.07,1148.96 1109.06,1145.2 1110.04,1169.32 1113.01,1160.76 
  1114,1156.2 1114.98,1149.13 1115.97,1147.99 1116.96,1143.54 1120.91,1140.58 1121.9,1140.12 1122.89,1132.31 1123.88,1120.45 1126.84,1113.04 1127.83,1105.97 
  1128.82,1098.61 1129.8,1097.93 1130.79,1096.5 1133.76,1087.38 1134.74,1080.48 1135.73,1068.39 1136.72,1066.68 1137.71,1171.94 1140.67,1167.78 1141.66,1164.87 
  1142.65,1162.13 1143.63,1159.97 1144.62,1216.53 1148.57,1211.34 1149.56,1208.49 1150.55,1205.58 1151.54,1200.28 1154.5,1191.33 1155.49,1183.06 1156.48,1178.61 
  1157.47,1178.16 1158.45,1207.64 1161.42,1197.89 1162.41,1195.15 1163.39,1193.15 1164.38,1189.05 1165.37,1219.15 1168.33,1216.36 1169.32,1214.99 1170.31,1208.55 
  1171.3,1204.27 1172.29,1192.92 1175.25,1184.43 1176.24,1183.74 1177.22,1183.63 1178.21,1183.29 1179.2,1131.86 1182.16,1127.69 1183.15,1126.78 1184.14,1121.36 
  1185.13,1111.96 1186.12,1122.1 1189.08,1133.97 1190.07,1128.26 1191.06,1119.54 1192.04,1114.75 1193.03,1104.2 1196,1099.24 1196.98,1093.54 1197.97,1089.66 
  1198.96,1083.05 1199.95,1072.95 1202.91,1064.86 1203.9,1061.04 1204.89,1058.41 1205.88,968.777 1209.83,963.759 1210.82,956.404 1211.8,924.244 1212.79,923.446 
  1213.78,944.258 1216.74,937.302 1217.73,925.27 1218.72,925.213 1219.71,920.538 1220.69,931.543 1223.66,927.494 1224.65,920.937 1225.63,920.88 1226.62,917.116 
  1227.61,926.639 1230.57,922.248 1231.56,914.722 1232.55,909.02 1233.54,908.05 1234.53,857.815 1237.49,856.333 1238.48,846.582 1239.47,844.643 1240.45,840.367 
  1241.44,877.088 1245.39,871.785 1246.38,862.548 1247.37,862.491 1248.36,891.628 1251.32,887.751 1252.31,880.395 1253.3,873.439 1254.28,856.504 1255.27,941.008 
  1258.24,936.846 1259.22,935.534 1260.21,933.88 1261.2,933.652 1262.19,930.858 1265.15,925.498 1266.14,922.419 1267.13,919.511 1268.12,919.169 1269.1,789.676 
  1272.07,786.54 1273.06,782.947 1274.04,781.408 1275.03,779.754 1276.02,781.123 1278.98,775.934 1279.97,774.337 1280.96,772.684 1281.95,796.575 1285.9,786.312 
  1286.89,780.553 1287.88,777.074 1288.86,776.333 1289.85,777.302 1292.81,769.034 1293.8,762.249 1294.79,757.801 1295.78,753.354 1296.77,639.085 1299.73,633.782 
  1300.72,631.558 1301.71,630.019 1302.69,629.79 1303.68,627.282 1306.65,621.066 1307.63,616.22 1308.62,611.886 1309.61,599.798 1310.6,592.556 1313.56,585.258 
  1314.55,579.156 1315.54,576.647 1316.53,574.082 1317.51,594.153 1320.48,588.394 1321.47,576.99 1322.45,573.511 1323.44,571.744 1324.43,552.813 1327.39,548.707 
  1328.38,545.514 1329.37,543.861 1330.36,534.851 1331.34,548.936 1334.31,540.896 1335.3,531.829 1336.28,523.847 1337.27,516.605 1338.26,565.3 1342.21,552.642 
  1343.2,551.958 1344.19,541.58 1345.18,566.213 1348.14,561.537 1349.13,559.997 1350.12,556.747 1351.1,555.379 1352.09,550.817 1355.06,546.655 1356.04,542.093 
  1357.03,538.387 1358.02,537.931 1359.01,536.562 1361.97,531.031 1362.96,528.123 1363.95,527.952 1364.94,527.04 1365.92,500.183 1368.89,495.849 1369.87,515.579 
  1370.86,504.06 1371.85,503.262 1372.84,518.43 1375.8,515.465 1376.79,505.771 1377.78,500.582 1378.77,494.367 1379.75,484.388 1382.72,470.532 1383.71,468.138 
  1384.69,455.992 1385.68,452.115 1386.67,446.47 1389.63,437.404 1390.62,431.644 1391.61,428.337 1392.6,425.543 1393.59,479.827 1396.55,475.037 1397.54,469.05 
  1398.53,467.909 1399.51,465.23 1400.5,561.48 1403.47,552.357 1404.45,550.19 1405.44,546.997 1406.43,542.321 1407.42,558.401 1410.38,550.361 1411.37,547.339 
  1412.36,540.097 1413.34,538.9 1414.33,554.181 1417.3,545.571 1418.28,543.918 1419.27,542.378 1420.26,540.953 1421.25,412.486 1424.21,408.095 1425.2,404.389 
  1426.19,401.538 1428.16,398.231 1431.13,392.985 1432.12,387.739 1433.1,383.975 1434.09,375.878 1435.08,398.744 1438.04,392.814 1439.03,386.655 1440.02,380.896 
  1441.01,376.905 1442,364.645 1444.96,358.43 1445.95,354.781 1446.93,351.018 1447.92,348.851 1448.91,348.737 1451.87,345.202 1452.86,331.517 1453.85,330.832 
  1455.83,346.114 1458.79,343.092 1459.78,340.64 1460.77,327.411 1462.74,335.394 1465.71,324.788 1466.69,311.388 1467.68,303.52 1468.67,294.681 1469.66,347.254 
  1472.62,340.811 1473.61,330.376 1474.6,327.582 1475.59,319.542 1476.57,318.117 1480.52,309.564 1481.51,300.954 1482.5,295.822 1483.49,312.415 1486.45,304.774 
  1487.44,292.344 1488.43,285.501 1489.42,280.369 1490.4,266.627 1493.37,256.706 1494.36,251.061 1495.34,244.275 1496.33,236.749 1497.32,304.318 1500.28,296.848 
  1501.27,286.128 1502.26,284.646 1503.25,284.19 1504.24,357.176 1508.19,351.588 1509.18,345.772 1510.16,342.864 1511.15,371.374 1514.12,363.79 1515.1,356.777 
  1516.09,353.013 1517.08,350.219 1518.07,335.337 1521.03,329.236 1522.02,325.986 1523.01,322.336 1523.99,321.31 1524.98,309.165 1527.95,304.603 1528.93,296.164 
  1529.92,291.602 1530.91,287.212 1531.9,293.541 1534.86,286.927 1535.85,279.742 1536.84,275.694 1537.83,274.097 1538.81,319.257 1541.78,316.691 1542.77,315.836 
  1543.75,307.739 1544.74,305.686 1545.73,301.809 1548.69,299.072 1549.68,302.493 1550.67,299.528 1551.66,292.857 1555.61,284.817 1556.6,279.514 1557.58,274.838 
  1558.57,273.584 1559.56,333.113 1562.52,324.788 1563.51,317.718 1564.5,314.068 1565.49,308.994 1566.48,297.247 1569.44,289.664 1570.43,282.593 1571.42,278.773 
  1572.4,275.351 1573.39,337.105 1576.36,331.289 1577.34,327.126 1578.33,321.196 1579.32,316.406 1580.31,315.437 1583.27,308.252 1584.26,295.708 1585.25,287.497 
  1586.24,286.642 1587.22,361.167 1590.19,359 1591.18,352.443 1592.16,347.368 1593.15,346.171 1594.14,370.576 1597.1,365.216 1598.09,360.711 1599.08,358.886 
  1600.07,356.948 1601.05,354.439 1605.01,346.741 1605.99,345.487 1606.98,341.951 1607.97,336.192 1610.93,331.973 1611.92,327.696 1612.91,323.648 1613.9,318.573 
  1614.89,309.165 1617.85,307.511 1618.84,302.436 1619.83,295.651 1620.81,294.282 1621.8,296.62 1624.77,292.914 1625.75,286.87 1626.74,282.935 1627.73,282.08 
  1628.72,282.935 1631.68,276.15 1632.67,274.154 1633.66,269.136 1634.64,267.54 1635.63,259.899 1638.6,259.329 1639.58,252.429 1640.57,249.293 1641.56,242.508 
  1645.51,232.244 1646.5,226.599 1647.49,217.818 1648.48,216.392 1649.46,237.376 1652.43,231.104 1653.42,225.231 1654.4,222.836 1655.39,222.779 1656.38,278.431 
  1659.34,273.299 1660.33,265.43 1661.32,260.583 1662.31,256.478 1663.3,247.925 1666.26,238.345 1667.25,233.441 1668.24,225.059 1669.22,222.836 1670.21,263.035 
  1673.17,256.592 1674.16,252.885 1675.15,248.153 1676.14,243.762 1677.13,237.604 1680.09,232.13 1681.08,227.169 1682.07,221.695 1683.05,219.129 1684.04,229.564 
  1687.01,224.261 1687.99,222.094 1688.98,218.16 1689.97,217.818 1690.96,199.685 1693.92,181.325 1694.91,163.934 1695.9,152.187 1696.89,144.832 1697.87,282.251 
  1700.84,273.641 1701.83,259.386 1702.81,250.719 1703.8,247.583 1704.79,245.017 1708.74,236.064 1709.73,223.064 1710.72,219.7 1711.7,228.766 1714.67,217.077 
  1715.66,206.927 1716.64,194.725 1717.63,191.531 1718.62,178.075 1721.58,167.982 1722.57,164.219 1723.56,153.1 1724.55,143.007 1725.54,137.134 1728.5,124.875 
  1729.49,118.089 1730.48,160.683 1731.46,153.898 1732.45,181.211 1735.42,171.859 1736.4,164.618 1737.39,159.315 1738.38,157.433 1739.37,234.525 1742.33,227.226 
  1743.32,220.612 1744.31,216.506 1745.3,214.397 1746.28,266.855 1749.25,261.496 1750.23,256.877 1751.22,251.175 1752.21,250.719 1753.2,358.715 1756.16,356.149 
  1757.15,353.983 1758.14,350.79 1759.13,349.364 1760.11,343.662 1763.08,336.877 1764.07,327.525 1765.05,321.025 1766.04,310.362 1767.03,324.332 1769.99,319.77 
  1770.98,316.919 1771.97,314.41 1772.96,310.362 1773.95,299.813 1776.91,289.892 1777.9,280.426 1778.89,275.58 1779.87,271.93 1780.86,360.141 1783.83,353.298 
  1784.81,348.851 1785.8,348.452 1787.78,353.584 1790.74,341.951 1791.73,336.705 1792.72,313.783 1793.7,308.081 1794.69,355.066 1797.66,347.197 1798.64,333.968 
  1799.63,325.701 1800.62,321.595 1801.61,308.48 1804.57,295.879 1805.56,284.361 1806.55,276.72 1807.54,275.066 1808.52,251.46 1811.49,244.161 1812.48,236.064 
  1813.46,235.323 1814.45,265.544 1818.4,258.188 1819.39,254.311 1820.38,253.798 1821.37,244.446 1825.32,231.788 1826.31,221.98 1827.29,218.901 1828.28,211.888 
  1829.27,196.948 1832.23,178.588 1833.22,171.745 1834.21,166.328 1835.2,161.482 1836.19,141.867 1840.14,129.436 1841.13,117.063 1842.11,110.391 1843.1,179.785 
  1846.07,167.412 1847.05,160.854 1848.04,149.964 1849.03,143.976 1850.02,259.272 1852.98,246.214 1853.97,232.358 1854.96,223.976 1855.95,217.932 1856.93,202.365 
  1859.9,190.961 1860.88,179.329 1861.87,169.065 1862.86,164.276 1863.85,190.904 1867.8,186 1868.79,180.241 1869.78,178.702 1870.76,191.531 1873.73,186.286 
  1874.72,172.544 1875.7,165.473 1876.69,163.934 1877.68,209.721 1880.64,203.848 1881.63,202.023 1882.62,200.37 1883.61,198.146 1884.6,247.925 1887.56,236.749 
  1888.55,228.082 1889.54,224.033 1890.52,221.353 1891.51,294.795 1894.48,286.527 1895.46,283.334 1896.45,280.027 1897.44,279.343 1898.43,307.967 1901.39,302.094 
  1902.38,297.247 1903.37,295.822 1904.35,284.532 1908.31,278.545 1909.29,274.097 1910.28,271.474 1911.27,306.257 1912.26,305.458 1915.22,300.783 1916.21,296.734 
  1917.2,292.743 1918.19,291.431 1919.17,285.102 1922.14,277.86 1923.13,275.066 1924.11,273.584 1925.1,270.562 1926.09,302.322 1929.05,298.16 1930.04,293.883 
  1931.03,290.576 1932.02,288.124 1933.01,292.115 1935.97,284.589 1936.96,277.575 1937.94,275.294 1938.93,271.93 1939.92,263.035 1942.88,259.614 1943.87,252.258 
  1944.86,244.161 1945.85,239.885 1946.84,243.648 1949.8,237.262 1950.79,233.042 1951.78,218.73 1952.76,217.02 1953.75,214.682 1956.72,208.98 1957.7,200.94 
  1958.69,194.497 1959.68,191.189 1960.67,200.427 1963.63,193.812 1964.62,188.909 1965.61,184.347 1966.6,182.009 1967.58,256.877 1971.54,251.916 1972.52,246.727 
  1973.51,240.284 1974.5,241.652 1977.46,235.608 1978.45,232.586 1979.44,224.09 1980.43,224.033 1981.41,216.734 1984.38,210.291 1985.37,205.045 1986.35,200.655 
  1987.34,199.343 1988.33,191.817 1991.29,181.61 1992.28,169.522 1993.27,156.065 1994.26,147.284 1995.25,135.651 1998.21,128.182 1999.2,123.05 2000.19,120.94 
  2001.17,241.823 2002.16,228.082 2006.11,221.239 2007.1,218.502 2008.09,214.169 2009.08,292.515 2012.04,289.778 2013.03,284.817 2014.02,269.992 2015,267.198 
  2015.99,315.551 2018.96,311.046 2019.94,305.857 2020.93,301.923 2021.92,300.269 2022.91,317.946 2025.87,309.963 2026.86,299.756 2027.85,296.848 2028.84,293.313 
  2029.82,299.471 2032.79,290.918 2033.78,284.931 2034.76,278.659 2035.75,275.979 2036.74,333.854 2039.7,327.81 2040.69,321.481 2041.68,317.661 2042.67,316.634 
  2043.66,331.745 2046.62,327.468 2047.61,322.792 2048.6,321.139 2049.58,319.713 2050.57,318.459 2053.53,313.27 2054.52,310.248 2055.51,305.458 2056.5,302.094 
  2057.49,297.019 2060.45,290.405 2061.44,285.729 2062.43,280.882 2063.41,277.518 2064.4,290.576 2068.35,290.405 2069.34,288.523 2070.33,288.01 2071.32,275.694 
  2074.28,271.474 2075.27,264.803 2076.26,267.996 2077.25,267.026 2078.23,257.903 2081.2,251.004 2082.19,243.135 2083.17,283.505 2084.16,282.251 2085.15,279.856 
  2088.11,276.72 2089.1,273.698 2090.09,290.291 2091.08,281.225 2092.06,290.975 2095.03,287.554 2096.02,283.277 2097,286.128 2097.99,285.729 2098.98,281.738 
  2101.94,279.229 2102.93,274.553 2103.92,269.25 2104.91,265.43 2105.9,260.127 2108.86,252.942 2109.85,252.885 2110.84,270.961 2111.82,267.768 2112.81,263.32 
  2115.78,262.978 2116.76,259.443 2117.75,252.315 2118.74,199.343 2119.73,247.24 2122.69,237.718 2123.68,235.722 2124.67,228.937 2125.66,223.349 2126.64,207.611 
  2129.61,193.698 2130.59,182.237 2131.58,252.771 2132.57,248.951 2133.56,246.271 2136.52,243.192 2137.51,243.078 2138.5,251.118 2139.49,247.126 2140.47,244.674 
  2143.44,243.42 2144.43,241.367 2145.41,250.776 2147.39,253.57 2150.35,247.411 2151.34,241.025 2152.33,241.652 2153.32,238.231 2154.31,232.415 2157.27,229.792 
  2158.26,227.568 2159.25,293.712 2160.23,291.659 2161.22,297.818 2164.19,294.396 2165.17,289.321 2166.16,273.926 2167.15,271.759 2168.14,274.952 2171.1,271.189 
  2172.09,270.79 2173.08,274.211 2174.06,272.158 2175.05,270.505 2179,269.421 2179.99,266.627 2180.98,265.202 2181.97,264.746 2185.92,261.438 2186.91,270.448 
  2187.9,266.456 2188.88,268.851 2191.85,259.5 2192.84,115.067 2193.82,280.027 2194.81,278.145 2195.8,272.957 2199.75,267.483 2200.74,274.61 2201.73,270.391 
  2202.72,269.592 2205.68,265.715 2206.67,265.316 2207.65,310.533 2208.64,310.134 2209.63,307.169 2212.59,306.143 2213.58,304.831 2214.57,302.322 2215.56,300.669 
  2216.55,314.867 2219.51,312.643 2220.5,306.77 2221.49,313.327 2222.47,310.989 2223.46,325.529 2226.43,322.678 2227.41,320.797 2228.4,352.443 2229.39,339.385 
  2230.38,350.675 2234.33,349.364 2235.32,352.215 2236.31,348.11 2237.29,351.303 2240.26,347.026 2241.24,343.491 2242.23,396.121 2243.22,389.906 2244.21,392.871 
  2247.17,392.186 2248.16,391.217 2249.15,386.997 2250.14,382.322 2251.12,390.59 2254.09,387.226 2255.08,383.69 2256.06,405.757 2257.05,404.731 2258.04,399.827 
  2261,397.546 2261.99,392.243 2262.98,390.875 2263.97,386.427 2264.96,378.615 2267.92,375.936 2268.91,374.852 2269.9,390.419 2270.88,387.169 2271.87,383.804 
  2274.84,374.624 2275.82,370.405 2276.81,371.146 2277.8,368.637 2278.79,360.141 2281.75,351.474 2282.74,348.794 2283.73,346.399 2284.71,344.916 2288.67,339.271 
  2289.65,339.214 2290.64,335.223 2291.63,334.026 2292.62,326.727 2295.58,323.534 2296.57,321.196 2297.56,351.417 2298.55,348.68 2299.53,347.14 2302.5,345.144 
  2303.49,343.719 2304.47,340.982 2305.46,339.442 2306.45,341.267 2309.41,320.398 2310.4,318.573 2311.39,345.715 2312.38,344.118 2313.37,336.078 2316.33,335.394 
  2317.32,335.166 2318.3,328.323 2319.29,326.841 2320.28,340.127 2323.24,335.223 2324.23,334.197 2325.22,355.408 2326.21,353.07 2327.2,351.588 2331.15,350.048 
  2332.14,339.214 2333.12,336.306 2334.11,362.821 2337.08,356.72 2338.06,352.785 2339.05,355.807 2340.04,354.496 2341.03,333.911 2343.99,331.802 2344.98,330.547 
  2345.97,355.864 2346.96,355.579 2347.94,351.303 2350.91,349.136 2351.9,345.658 2352.88,345.087 2353.87,343.491 2354.86,336.705 2357.82,328.495 2358.81,324.959 
  2359.8,348.281 2360.79,345.601 2361.77,338.131 2364.74,334.425 2366.71,178.075 2367.7,175.566 2368.69,348.851 2371.65,346.171 2372.64,342.864 2373.63,366.299 
  2374.62,364.702 2375.61,377.475 2378.57,375.536 2379.56,370.861 2380.55,392.7 2381.53,392.3 2382.52,387.568 2385.49,384.146 2386.47,380.782 2387.46,391.73 
  2388.45,388.936 2389.44,385.116 2392.4,382.379 2393.39,381.238 2394.38,382.094 2395.36,379.186 2396.35,382.436 2399.32,380.611 2400.3,376.848 2401.29,373.313 
  2402.28,369.378 2403.27,361.908 2406.23,360.426 2407.22,359.913 2408.21,369.321 2409.2,364.36 2410.18,354.382 2413.15,349.763 2414.14,347.539 2415.12,366.926 
  2416.11,362.878 2417.1,361.794 2420.06,358.031 2421.05,351.246 2422.04,378.045 2423.03,377.646 2424.02,384.032 2427.97,381.638 2428.96,380.668 2429.94,373.883 
  2430.93,371.089 2433.89,370.233 2434.88,369.72 2435.87,390.818 2436.86,367.268 2437.85,381.01 2440.81,377.361 2441.8,373.541 2442.79,385.8 2443.77,381.581 
  2444.76,374.339 2447.73,365.9 2448.71,359.114 2449.7,391.103 2450.69,387.739 2451.68,398.858 2454.64,398.059 2455.63,396.634 2456.62,404.446 2457.61,397.375 
  2458.59,401.88 2461.56,400.283 2462.55,399.599 2463.53,411.63 2464.52,409.407 2465.51,411.63 2468.47,411.516 2469.46,411.459 2470.45,409.578 2471.44,408.152 
  2472.42,419.271 2475.39,413.455 2476.38,413.284 2477.36,404.674 2478.35,400.625 2479.34,428.85 2482.3,422.749 2483.29,422.179 2484.28,427.083 2485.27,424.118 
  2486.26,432.101 2489.22,430.105 2490.21,427.539 2491.2,434.438 2492.18,434.381 2493.17,429.307 2496.14,426.627 2497.12,424.745 2498.11,417.332 2499.1,416.078 
  2500.09,423.662 2503.05,422.521 2504.04,422.236 2505.03,435.636 2507,435.807 2509.97,431.644 2510.95,429.25 2511.94,451.031 2512.93,448.979 2513.92,449.435 
  2516.88,443.277 2517.87,441.452 2518.86,439.627 2519.85,436.719 2520.83,450.803 2523.8,445.843 2524.79,443.448 2525.77,447.667 2526.76,446.128 2527.75,445.843 
  2530.71,443.562 2531.7,441.509 2532.69,439.57 2533.68,439.399 2534.67,444.018 2538.62,443.22 2539.61,441.395 2540.59,440.255 2541.58,437.404 2545.53,437.29 
  2546.52,457.247 2547.51,454.567 2548.5,479.2 2551.46,476.406 2552.45,472.414 2553.44,469.905 2554.42,466.997 2555.41,495.165 2559.36,492.884 2560.35,509.192 
  2561.34,508.793 2562.33,505.771 2565.29,500.753 2566.28,498.358 2567.27,505.087 2568.26,501.437 2569.24,533.711 2572.21,525.614 2573.2,518.943 2574.18,512.385 
  2575.17,506.968 2576.16,495.907 2579.12,479.371 2580.11,469.905 2581.1,479.485 2582.09,463.006 2583.08,463.861 2586.04,452.856 2587.03,443.391 2588.01,522.364 
  2589,517.745 2589.99,531.031 2593.94,525.899 2594.93,514.552 2595.92,510.333 2596.91,557.032 2599.87,565.585 2600.86,558.458 2601.85,542.777 2602.83,534.281 
  2603.82,538.501 2606.79,540.439 2607.77,537.817 2608.76,539.983 2609.75,528.807 2610.74,598.144 2613.7,592.385 2614.69,587.937 2615.68,581.665 2616.67,579.099 
  2617.65,575.678 2620.62,564.673 2621.6,559.199 2622.59,549.962 2623.58,544.944 2624.57,527.439 2627.53,559.883 2628.52,551.33 2629.51,542.777 2630.5,552.927 
  2634.45,540.611 2635.44,536.049 2636.42,571.059 2637.41,564.673 2638.4,555.265 2641.36,546.541 2642.35,542.036 2643.34,551.844 2644.33,540.896 2645.32,542.606 
  2648.28,549.962 2649.27,545.286 2650.26,559.313 2651.24,555.55 2652.23,548.993 2655.2,539.869 2656.18,529.435 2657.17,529.378 2658.16,521.965 2659.15,531.316 
  2662.11,525.614 2663.1,520.881 2664.09,515.693 2665.07,511.929 2666.06,535.422 2669.03,533.54 2670.01,528.18 2671,556.918 2671.99,554.809 2672.98,575.279 
  2675.94,567.011 2676.93,562.677 2677.92,563.191 2678.91,558.23 2679.89,553.269 2682.86,562.392 2683.85,558.572 2684.83,561.024 2685.82,560.226 2686.81,557.717 
  2690.76,551.273 2691.75,567.353 2692.74,563.476 2693.73,577.617 2696.69,581.722 2697.68,577.275 2698.66,598.771 2699.65,593.811 2700.64,604.587 2703.6,598.942 
  2704.59,592.499 2705.58,591.074 2706.57,590.389 2707.56,586.512 2710.52,582.977 2711.51,579.099 2712.5,576.876 2713.48,575.564 2714.47,570.261 2717.44,561.651 
  2718.42,555.835 2719.41,544.716 2720.4,539.128 2721.39,551.958 2724.35,548.821 2725.34,542.663 2727.32,536.22 2728.3,574.082 2731.27,583.49 2732.26,580.696 
  2733.24,574.994 2734.23,572.542 2735.22,588.394 2738.18,583.946 2739.17,582.349 2740.16,590.731 2741.15,583.889 2742.13,580.297 2745.1,583.832 2746.09,580.867 
  2747.07,615.992 2748.06,612 2749.05,608.921 2752.01,603.675 2753,598.714 2753.99,597.688 2754.98,594.951 2755.97,616.904 2758.93,616.277 2759.92,613.312 
  2760.91,618.215 2761.89,613.369 2762.88,605.329 2765.85,598.144 2766.83,595.065 2767.82,588.565 2768.81,584.117 2769.8,603.846 2772.76,604.302 2773.75,602.478 
  2774.74,598.657 2775.72,596.034 2776.71,609.662 2779.68,619.242 2780.66,616.676 2781.65,625.742 2782.64,623.005 2783.63,617.189 2787.58,614.281 2788.57,609.092 
  2789.56,604.644 2790.54,600.026 2793.51,599.399 2794.5,595.692 2795.48,594.894 2796.47,594.552 2797.46,602.421 2800.42,597.118 2801.41,592.442 2802.4,602.364 
  2803.39,598.201 2804.38,600.653 2807.34,595.35 2808.33,591.074 2809.32,588.223 2810.3,585.486 2811.29,584.288 2814.25,582.464 2815.24,580.582 2816.23,574.253 
  2817.22,568.722 2818.21,562.62 2821.17,553.497 2822.16,548.365 2823.15,536.277 2824.13,518.03 2825.12,531.088 2828.09,519.684 2829.07,512.271 2830.06,539.47 
  2831.05,531.601 2832.04,523.39 2835,514.267 2835.99,505.429 2836.98,485.928 2837.97,480.682 2838.95,466.598 2841.92,453.426 2842.91,443.961 2843.89,487.582 
  2844.88,481.195 2845.87,479.257 2848.83,474.809 2849.82,462.664 2850.81,531.316 2851.8,526.013 2852.78,521.167 2855.75,510.333 2856.74,501.323 2857.72,488.779 
  2858.71,480.283 2859.7,499.955 2862.66,491.06 2863.65,482.564 2864.64,483.02 2866.62,473.155 2869.58,494.766 2870.57,490.204 2871.56,553.725 2872.54,546.997 
  2873.53,544.83 2876.5,562.278 2877.48,557.146 2879.46,550.247 2880.45,539.413 2883.41,525.329 2884.4,515.293 2885.39,520.482 2886.38,515.008 2887.36,505.771 
  2890.33,489.805 2891.31,480.967 2892.3,471.217 2893.29,459.299 2894.28,446.071 2897.24,433.412 2899.22,487.239 2900.21,476.52 2901.19,475.436 2904.16,476.976 
  2906.13,466.883 2907.12,455.764 2908.11,509.762 2911.07,512.1 2912.06,506.227 2913.05,520.71 2914.04,516.092 2915.03,517.118 2917.99,509.934 2918.98,506.854 
  2919.97,523.219 2920.95,518.201 2921.94,563.647 2925.89,558.8 2926.88,554.238 2927.87,551.045 2928.86,572.485 2931.82,565.072 2932.81,558.116 2933.8,593.126 
  2934.78,586.569 2935.77,593.754 2938.74,598.942 2939.72,595.293 2940.71,596.377 2941.7,591.416 2942.69,587.937 2945.65,584.63 2946.64,581.437 2947.63,604.188 
  2948.62,600.083 2949.6,625.4 2953.56,624.545 2954.54,621.123 2955.53,617.36 2956.52,626.54 2959.48,623.119 2960.47,619.983 2961.46,610.86 2962.45,605.614 
  2963.44,623.689 2966.4,618.729 2967.39,614.281 2968.37,608.123 2969.36,602.022 2970.35,595.578 2973.31,612.057 2974.3,606.469 2975.29,629.334 2976.28,627.681 
  2977.27,627.453 2980.23,626.426 2981.22,622.435 2982.21,616.676 2983.19,611.088 2984.18,602.022 2987.15,593.24 2988.13,588.394 2989.12,577.389 2990.11,572.485 
  2991.1,600.881 2994.06,614.908 2995.05,612.456 2996.04,609.947 2997.03,604.816 2998.01,623.062 3000.98,619.071 3001.96,616.22 3002.95,616.22 3003.94,612.741 
  3004.93,630.247 3007.89,625.571 3008.88,621.465 3009.87,618.9 3010.86,617.873 3014.81,614.737 3015.8,612.741 3016.78,616.106 3017.77,612.513 3018.76,625.172 
  3021.72,623.119 3022.71,617.987 3023.7,611.43 3024.69,606.298 3025.68,631.273 3028.64,629.848 3029.63,619.983 3030.62,604.93 3031.6,591.758 3032.59,594.894 
  3035.56,587.139 3036.54,580.069 3037.53,595.293 3038.52,589.192 3039.51,589.705 3042.47,580.126 3043.46,575.279 3044.45,576.99 3045.43,570.489 3046.42,567.581 
  3050.37,559.655 3051.36,549.449 3052.35,543.005 3053.34,534.908 3056.3,523.333 3057.29,518.373 3058.28,570.432 3059.27,567.923 3060.25,598.6 3063.22,596.548 
  3064.21,592.043 3065.19,585.771 3066.18,580.069 3067.17,580.582 3070.13,573.397 3071.12,566.156 3072.11,583.262 3073.1,581.095 3074.09,583.148 3077.05,576.933 
  3078.04,573.226 3079.02,564.787 3080.01,557.26 3081,572.029 3083.96,581.38 3084.95,577.332 3085.94,605.272 3087.92,603.219 3090.88,598.657 3091.87,593.868 
  3092.86,606.64 3093.84,603.846 3094.83,620.667 3097.8,617.303 3098.78,615.136 3099.77,609.035 3100.76,605.329 3101.75,600.938 3104.71,600.824 3105.7,597.688 
  3106.69,620.838 3107.68,617.417 3108.66,629.277 3111.63,622.093 3112.62,614.965 3113.6,604.53 3114.59,597.688 3115.58,589.648 3118.54,576.191 3119.53,569.463 
  3120.52,580.924 3121.51,575.678 3122.49,588.565 3125.46,577.503 3126.45,571.402 3127.43,556.975 3128.42,547.624 3129.41,592.499 3132.37,602.877 3133.36,597.175 
  3134.35,603.447 3135.34,597.631 3136.33,583.889 3139.29,591.017 3140.28,584.63 3141.27,587.139 3142.25,580.468 3143.24,589.591 3147.19,584.06 3148.18,593.411 
  3149.17,589.819 3150.16,608.066 3153.12,603.846 3154.11,601.28 3155.1,614.338 3156.08,608.921 3157.07,614.794 3160.04,606.013 3161.02,600.14 3162.01,600.767 
  3163,599.228 3163.99,593.982 3166.95,587.538 3167.94,581.209 3168.93,582.692 3169.92,577.446 3170.9,569.292 3173.87,571.23 3174.86,565.357 3175.84,556.234 
  3176.83,547.111 3177.82,601.166 3180.78,593.126 3181.77,587.082 3182.76,589.477 3183.75,578.472 3184.74,617.702 3187.7,611.43 3188.69,606.925 3189.68,612.741 
  3190.66,608.066 3191.65,602.535 3194.61,608.465 3195.6,604.816 3196.59,604.017 3197.58,601.736 3198.57,613.426 3201.53,618.9 3202.52,613.654 3203.51,616.676 
  3204.49,611.259 3205.48,637.773 3208.45,640.282 3209.43,637.26 3210.42,632.87 3211.41,628.365 3212.4,641.993 3215.36,637.089 3216.35,633.953 3217.34,631.501 
  3218.33,627.624 3219.31,653.967 3222.28,649.406 3223.27,646.726 3224.25,641.879 3225.24,636.69 3226.23,638.23 3229.19,648.379 3230.18,644.046 3231.17,659.498 
  3236.11,654.423 3237.1,649.748 3238.08,654.48 3239.07,650.09 3240.06,682.192 3243.02,676.604 3244.01,670.959 3245,671.872 3245.99,665.998 3246.98,677.517 
  3249.94,684.188 3250.93,680.995 3251.92,680.311 3252.9,679.455 3253.89,681.451 3256.86,682.477 3257.84,678.942 3259.82,675.92 3260.81,683.96 3263.77,678.714 
  3264.76,675.806 3266.74,672.784 3267.72,667.823 3270.69,673.354 3271.67,670.788 3272.66,673.525 3273.65,669.021 3274.64,671.643 3277.6,680.368 3278.59,675.179 
  3279.58,672.955 3280.57,669.933 3281.55,695.193 3285.51,691.144 3286.49,686.754 3287.48,681.793 3288.47,676.376 3291.43,663.433 3292.42,656.305 3293.41,667.823 
  3294.4,659.156 3295.39,646.84 3298.35,647.125 3299.34,639.37 3300.33,704.658 3301.31,699.755 3302.3,693.254 3305.27,702.263 3306.25,696.048 3307.24,717.26 
  3308.23,712.869 3309.22,709.163 3313.17,705.799 3314.16,707.908 3315.14,703.575 3316.13,693.995 3319.1,677.802 3320.08,662.52 3321.07,643.475 3322.06,630.418 
  3323.05,587.766 3326.01,660.81 3327,639.256 3327.99,718.001 3328.98,701.579 3329.96,678.372 3332.93,635.093 3333.92,613.255 3334.9,576.191 3335.89,534.11 
  3336.88,611.658 3339.84,545.514 3340.83,519.171 3341.82,471.559 3342.81,448.637 3343.8,409.292 3346.76,370.348 3347.75,338.074 3348.73,457.133 3349.72,431.473 
  3350.71,440.426 3353.67,472.357 3354.66,457.988 3355.65,432.557 3356.64,414.481 3357.63,407.354 3360.59,482.222 3361.58,465.914 3362.57,553.839 3363.55,557.032 
  3367.51,536.904 3368.49,522.706 3369.48,514.381 3370.47,500.981 3371.46,577.788 3374.42,561.366 3375.41,544.83 3376.4,561.936 3377.39,551.672 3378.37,584.459 
  3381.34,594.381 3382.32,580.981 3383.31,639.541 3384.3,628.308 3385.29,615.82 3388.25,607.153 3389.24,596.833 3390.23,583.661 3391.22,575.165 3392.2,630.304 
  3395.17,620.097 3396.16,613.654 3397.14,597.916 3398.13,587.424 3399.12,609.605 3402.08,647.923 3403.07,637.83 3404.06,664.174 3405.05,657.845 3406.04,649.463 
  3409.99,659.441 3410.98,672.898 3411.96,660.182 3412.95,653.397 3415.92,647.98 3416.9,640.453 3417.89,693.539 3418.88,687.21 3419.87,761.451 3422.83,773.14 
  3423.82,764.416 3424.81,750.047 3425.79,732.028 3426.78,732.484 3429.75,729.234 3430.73,715.207 3431.72,726.668 3432.71,721.593 3433.7,713.553 3436.66,707.395 
  3437.65,697.702 3438.64,676.319 3439.63,658.073 3440.61,641.195 3443.58,658.358 3444.57,666.968 3445.55,673.24 3446.54,667.424 3450.49,684.131 3451.48,675.92 
  3452.47,675.122 3453.46,657.788 3454.45,690.346 3457.41,681.622 3458.4,673.126 3459.38,703.917 3460.37,698.329 
  "/>
<path clip-path="url(#clip090)" d="
M396.556 323.724 L920.004 323.724 L920.004 202.764 L396.556 202.764  Z
  " fill="#ffffff" fill-rule="evenodd" fill-opacity="1"/>
<polyline clip-path="url(#clip090)" style="stroke:#000000; stroke-width:4; stroke-opacity:1; fill:none" points="
  396.556,323.724 920.004,323.724 920.004,202.764 396.556,202.764 396.556,323.724 
  "/>
<polyline clip-path="url(#clip090)" style="stroke:#009af9; stroke-width:4; stroke-opacity:1; fill:none" points="
  432.556,263.244 648.556,263.244 
  "/>
<path clip-path="url(#clip090)" d="M 0 0 M712.426 248.626 L712.426 253.557 Q710.065 251.358 707.38 250.27 Q704.718 249.182 701.708 249.182 Q695.783 249.182 692.634 252.816 Q689.486 256.427 689.486 263.279 Q689.486 270.107 692.634 273.742 Q695.783 277.353 701.708 277.353 Q704.718 277.353 707.38 276.265 Q710.065 275.177 712.426 272.978 L712.426 277.862 Q709.972 279.529 707.218 280.362 Q704.486 281.195 701.431 281.195 Q693.584 281.195 689.07 276.404 Q684.556 271.589 684.556 263.279 Q684.556 254.946 689.07 250.154 Q693.584 245.339 701.431 245.339 Q704.533 245.339 707.264 246.172 Q710.019 246.983 712.426 248.626 Z" fill="#000000" fill-rule="evenodd" fill-opacity="1" /><path clip-path="url(#clip090)" d="M 0 0 M728.676 267.492 Q723.514 267.492 721.523 268.672 Q719.532 269.853 719.532 272.7 Q719.532 274.969 721.014 276.311 Q722.519 277.631 725.088 277.631 Q728.63 277.631 730.759 275.131 Q732.912 272.607 732.912 268.441 L732.912 267.492 L728.676 267.492 M737.171 265.733 L737.171 280.524 L732.912 280.524 L732.912 276.589 Q731.454 278.95 729.278 280.084 Q727.102 281.195 723.954 281.195 Q719.972 281.195 717.611 278.973 Q715.273 276.728 715.273 272.978 Q715.273 268.603 718.19 266.381 Q721.13 264.158 726.94 264.158 L732.912 264.158 L732.912 263.742 Q732.912 260.802 730.968 259.205 Q729.046 257.584 725.551 257.584 Q723.329 257.584 721.222 258.117 Q719.116 258.649 717.171 259.714 L717.171 255.779 Q719.509 254.876 721.708 254.436 Q723.907 253.973 725.991 253.973 Q731.616 253.973 734.393 256.89 Q737.171 259.807 737.171 265.733 Z" fill="#000000" fill-rule="evenodd" fill-opacity="1" /><path clip-path="url(#clip090)" d="M 0 0 M741.639 244.506 L745.898 244.506 L745.898 280.524 L741.639 280.524 L741.639 244.506 Z" fill="#000000" fill-rule="evenodd" fill-opacity="1" /><path clip-path="url(#clip090)" d="M 0 0 M750.366 244.506 L754.625 244.506 L754.625 280.524 L750.366 280.524 L750.366 244.506 Z" fill="#000000" fill-rule="evenodd" fill-opacity="1" /><path clip-path="url(#clip090)" d="M 0 0 M779.023 249.807 L779.023 262.793 L784.902 262.793 Q788.166 262.793 789.949 261.103 Q791.731 259.413 791.731 256.288 Q791.731 253.186 789.949 251.496 Q788.166 249.807 784.902 249.807 L779.023 249.807 M774.347 245.964 L784.902 245.964 Q790.713 245.964 793.676 248.603 Q796.662 251.219 796.662 256.288 Q796.662 261.404 793.676 264.02 Q790.713 266.635 784.902 266.635 L779.023 266.635 L779.023 280.524 L774.347 280.524 L774.347 245.964 Z" fill="#000000" fill-rule="evenodd" fill-opacity="1" /><path clip-path="url(#clip090)" d="M 0 0 M821.847 264.876 L821.847 280.524 L817.587 280.524 L817.587 265.015 Q817.587 261.334 816.152 259.506 Q814.717 257.677 811.847 257.677 Q808.398 257.677 806.407 259.876 Q804.416 262.075 804.416 265.871 L804.416 280.524 L800.134 280.524 L800.134 254.598 L804.416 254.598 L804.416 258.626 Q805.944 256.288 808.004 255.131 Q810.088 253.973 812.796 253.973 Q817.263 253.973 819.555 256.751 Q821.847 259.506 821.847 264.876 Z" fill="#000000" fill-rule="evenodd" fill-opacity="1" /><path clip-path="url(#clip090)" d="M 0 0 M826.499 245.964 L831.175 245.964 L831.175 276.589 L848.004 276.589 L848.004 280.524 L826.499 280.524 L826.499 245.964 Z" fill="#000000" fill-rule="evenodd" fill-opacity="1" /></svg>
