<?xml version="1.0" encoding="utf-8"?>
<svg xmlns="http://www.w3.org/2000/svg" xmlns:xlink="http://www.w3.org/1999/xlink" width="600" height="400" viewBox="0 0 2400 1600">
<defs>
  <clipPath id="clip870">
    <rect x="0" y="0" width="2400" height="1600"/>
  </clipPath>
</defs>
<path clip-path="url(#clip870)" d="
M0 1600 L2400 1600 L2400 0 L0 0  Z
  " fill="#ffffff" fill-rule="evenodd" fill-opacity="1"/>
<defs>
  <clipPath id="clip871">
    <rect x="480" y="0" width="1681" height="1600"/>
  </clipPath>
</defs>
<path clip-path="url(#clip870)" d="
M148.01 1423.18 L2352.76 1423.18 L2352.76 47.2441 L148.01 47.2441  Z
  " fill="#ffffff" fill-rule="evenodd" fill-opacity="1"/>
<defs>
  <clipPath id="clip872">
    <rect x="148" y="47" width="2206" height="1377"/>
  </clipPath>
</defs>
<polyline clip-path="url(#clip872)" style="stroke:#000000; stroke-width:2; stroke-opacity:0.1; fill:none" points="
  176.861,1423.18 176.861,47.2441 
  "/>
<polyline clip-path="url(#clip872)" style="stroke:#000000; stroke-width:2; stroke-opacity:0.1; fill:none" points="
  512.337,1423.18 512.337,47.2441 
  "/>
<polyline clip-path="url(#clip872)" style="stroke:#000000; stroke-width:2; stroke-opacity:0.1; fill:none" points="
  847.812,1423.18 847.812,47.2441 
  "/>
<polyline clip-path="url(#clip872)" style="stroke:#000000; stroke-width:2; stroke-opacity:0.1; fill:none" points="
  1183.29,1423.18 1183.29,47.2441 
  "/>
<polyline clip-path="url(#clip872)" style="stroke:#000000; stroke-width:2; stroke-opacity:0.1; fill:none" points="
  1518.76,1423.18 1518.76,47.2441 
  "/>
<polyline clip-path="url(#clip872)" style="stroke:#000000; stroke-width:2; stroke-opacity:0.1; fill:none" points="
  1854.24,1423.18 1854.24,47.2441 
  "/>
<polyline clip-path="url(#clip872)" style="stroke:#000000; stroke-width:2; stroke-opacity:0.1; fill:none" points="
  2189.71,1423.18 2189.71,47.2441 
  "/>
<polyline clip-path="url(#clip872)" style="stroke:#000000; stroke-width:2; stroke-opacity:0.1; fill:none" points="
  148.01,1384.24 2352.76,1384.24 
  "/>
<polyline clip-path="url(#clip872)" style="stroke:#000000; stroke-width:2; stroke-opacity:0.1; fill:none" points="
  148.01,1116.25 2352.76,1116.25 
  "/>
<polyline clip-path="url(#clip872)" style="stroke:#000000; stroke-width:2; stroke-opacity:0.1; fill:none" points="
  148.01,848.268 2352.76,848.268 
  "/>
<polyline clip-path="url(#clip872)" style="stroke:#000000; stroke-width:2; stroke-opacity:0.1; fill:none" points="
  148.01,580.283 2352.76,580.283 
  "/>
<polyline clip-path="url(#clip872)" style="stroke:#000000; stroke-width:2; stroke-opacity:0.1; fill:none" points="
  148.01,312.298 2352.76,312.298 
  "/>
<polyline clip-path="url(#clip870)" style="stroke:#000000; stroke-width:4; stroke-opacity:1; fill:none" points="
  148.01,1423.18 2352.76,1423.18 
  "/>
<polyline clip-path="url(#clip870)" style="stroke:#000000; stroke-width:4; stroke-opacity:1; fill:none" points="
  148.01,1423.18 148.01,47.2441 
  "/>
<polyline clip-path="url(#clip870)" style="stroke:#000000; stroke-width:4; stroke-opacity:1; fill:none" points="
  176.861,1423.18 176.861,1406.67 
  "/>
<polyline clip-path="url(#clip870)" style="stroke:#000000; stroke-width:4; stroke-opacity:1; fill:none" points="
  512.337,1423.18 512.337,1406.67 
  "/>
<polyline clip-path="url(#clip870)" style="stroke:#000000; stroke-width:4; stroke-opacity:1; fill:none" points="
  847.812,1423.18 847.812,1406.67 
  "/>
<polyline clip-path="url(#clip870)" style="stroke:#000000; stroke-width:4; stroke-opacity:1; fill:none" points="
  1183.29,1423.18 1183.29,1406.67 
  "/>
<polyline clip-path="url(#clip870)" style="stroke:#000000; stroke-width:4; stroke-opacity:1; fill:none" points="
  1518.76,1423.18 1518.76,1406.67 
  "/>
<polyline clip-path="url(#clip870)" style="stroke:#000000; stroke-width:4; stroke-opacity:1; fill:none" points="
  1854.24,1423.18 1854.24,1406.67 
  "/>
<polyline clip-path="url(#clip870)" style="stroke:#000000; stroke-width:4; stroke-opacity:1; fill:none" points="
  2189.71,1423.18 2189.71,1406.67 
  "/>
<polyline clip-path="url(#clip870)" style="stroke:#000000; stroke-width:4; stroke-opacity:1; fill:none" points="
  148.01,1384.24 174.467,1384.24 
  "/>
<polyline clip-path="url(#clip870)" style="stroke:#000000; stroke-width:4; stroke-opacity:1; fill:none" points="
  148.01,1116.25 174.467,1116.25 
  "/>
<polyline clip-path="url(#clip870)" style="stroke:#000000; stroke-width:4; stroke-opacity:1; fill:none" points="
  148.01,848.268 174.467,848.268 
  "/>
<polyline clip-path="url(#clip870)" style="stroke:#000000; stroke-width:4; stroke-opacity:1; fill:none" points="
  148.01,580.283 174.467,580.283 
  "/>
<polyline clip-path="url(#clip870)" style="stroke:#000000; stroke-width:4; stroke-opacity:1; fill:none" points="
  148.01,312.298 174.467,312.298 
  "/>
<path clip-path="url(#clip870)" d="M 0 0 M176.861 1445.17 Q173.25 1445.17 171.421 1448.74 Q169.616 1452.28 169.616 1459.41 Q169.616 1466.51 171.421 1470.08 Q173.25 1473.62 176.861 1473.62 Q180.495 1473.62 182.301 1470.08 Q184.13 1466.51 184.13 1459.41 Q184.13 1452.28 182.301 1448.74 Q180.495 1445.17 176.861 1445.17 M176.861 1441.47 Q182.671 1441.47 185.727 1446.07 Q188.806 1450.66 188.806 1459.41 Q188.806 1468.13 185.727 1472.74 Q182.671 1477.32 176.861 1477.32 Q171.051 1477.32 167.972 1472.74 Q164.917 1468.13 164.917 1459.41 Q164.917 1450.66 167.972 1446.07 Q171.051 1441.47 176.861 1441.47 Z" fill="#000000" fill-rule="evenodd" fill-opacity="1" /><path clip-path="url(#clip870)" d="M 0 0 M489.212 1472.72 L496.851 1472.72 L496.851 1446.35 L488.541 1448.02 L488.541 1443.76 L496.804 1442.09 L501.48 1442.09 L501.48 1472.72 L509.119 1472.72 L509.119 1476.65 L489.212 1476.65 L489.212 1472.72 Z" fill="#000000" fill-rule="evenodd" fill-opacity="1" /><path clip-path="url(#clip870)" d="M 0 0 M524.189 1445.17 Q520.578 1445.17 518.749 1448.74 Q516.943 1452.28 516.943 1459.41 Q516.943 1466.51 518.749 1470.08 Q520.578 1473.62 524.189 1473.62 Q527.823 1473.62 529.628 1470.08 Q531.457 1466.51 531.457 1459.41 Q531.457 1452.28 529.628 1448.74 Q527.823 1445.17 524.189 1445.17 M524.189 1441.47 Q529.999 1441.47 533.054 1446.07 Q536.133 1450.66 536.133 1459.41 Q536.133 1468.13 533.054 1472.74 Q529.999 1477.32 524.189 1477.32 Q518.378 1477.32 515.3 1472.74 Q512.244 1468.13 512.244 1459.41 Q512.244 1450.66 515.3 1446.07 Q518.378 1441.47 524.189 1441.47 Z" fill="#000000" fill-rule="evenodd" fill-opacity="1" /><path clip-path="url(#clip870)" d="M 0 0 M828.958 1472.72 L845.278 1472.72 L845.278 1476.65 L823.333 1476.65 L823.333 1472.72 Q825.995 1469.96 830.579 1465.33 Q835.185 1460.68 836.366 1459.34 Q838.611 1456.81 839.491 1455.08 Q840.393 1453.32 840.393 1451.63 Q840.393 1448.87 838.449 1447.14 Q836.528 1445.4 833.426 1445.4 Q831.227 1445.4 828.773 1446.17 Q826.343 1446.93 823.565 1448.48 L823.565 1443.76 Q826.389 1442.62 828.843 1442.05 Q831.296 1441.47 833.333 1441.47 Q838.704 1441.47 841.898 1444.15 Q845.093 1446.84 845.093 1451.33 Q845.093 1453.46 844.282 1455.38 Q843.495 1457.28 841.389 1459.87 Q840.81 1460.54 837.708 1463.76 Q834.606 1466.95 828.958 1472.72 Z" fill="#000000" fill-rule="evenodd" fill-opacity="1" /><path clip-path="url(#clip870)" d="M 0 0 M860.347 1445.17 Q856.736 1445.17 854.907 1448.74 Q853.102 1452.28 853.102 1459.41 Q853.102 1466.51 854.907 1470.08 Q856.736 1473.62 860.347 1473.62 Q863.981 1473.62 865.787 1470.08 Q867.616 1466.51 867.616 1459.41 Q867.616 1452.28 865.787 1448.74 Q863.981 1445.17 860.347 1445.17 M860.347 1441.47 Q866.157 1441.47 869.213 1446.07 Q872.291 1450.66 872.291 1459.41 Q872.291 1468.13 869.213 1472.74 Q866.157 1477.32 860.347 1477.32 Q854.537 1477.32 851.458 1472.74 Q848.403 1468.13 848.403 1459.41 Q848.403 1450.66 851.458 1446.07 Q854.537 1441.47 860.347 1441.47 Z" fill="#000000" fill-rule="evenodd" fill-opacity="1" /><path clip-path="url(#clip870)" d="M 0 0 M1174.03 1458.02 Q1177.39 1458.74 1179.26 1461 Q1181.16 1463.27 1181.16 1466.61 Q1181.16 1471.72 1177.64 1474.52 Q1174.12 1477.32 1167.64 1477.32 Q1165.46 1477.32 1163.15 1476.88 Q1160.86 1476.47 1158.4 1475.61 L1158.4 1471.1 Q1160.35 1472.23 1162.66 1472.81 Q1164.98 1473.39 1167.5 1473.39 Q1171.9 1473.39 1174.19 1471.65 Q1176.51 1469.92 1176.51 1466.61 Q1176.51 1463.55 1174.35 1461.84 Q1172.22 1460.1 1168.4 1460.1 L1164.38 1460.1 L1164.38 1456.26 L1168.59 1456.26 Q1172.04 1456.26 1173.87 1454.89 Q1175.7 1453.5 1175.7 1450.91 Q1175.7 1448.25 1173.8 1446.84 Q1171.92 1445.4 1168.4 1445.4 Q1166.48 1445.4 1164.28 1445.82 Q1162.08 1446.24 1159.45 1447.11 L1159.45 1442.95 Q1162.11 1442.21 1164.42 1441.84 Q1166.76 1441.47 1168.82 1441.47 Q1174.14 1441.47 1177.25 1443.9 Q1180.35 1446.3 1180.35 1450.43 Q1180.35 1453.3 1178.7 1455.29 Q1177.06 1457.25 1174.03 1458.02 Z" fill="#000000" fill-rule="evenodd" fill-opacity="1" /><path clip-path="url(#clip870)" d="M 0 0 M1196.23 1445.17 Q1192.62 1445.17 1190.79 1448.74 Q1188.98 1452.28 1188.98 1459.41 Q1188.98 1466.51 1190.79 1470.08 Q1192.62 1473.62 1196.23 1473.62 Q1199.86 1473.62 1201.67 1470.08 Q1203.5 1466.51 1203.5 1459.41 Q1203.5 1452.28 1201.67 1448.74 Q1199.86 1445.17 1196.23 1445.17 M1196.23 1441.47 Q1202.04 1441.47 1205.09 1446.07 Q1208.17 1450.66 1208.17 1459.41 Q1208.17 1468.13 1205.09 1472.74 Q1202.04 1477.32 1196.23 1477.32 Q1190.42 1477.32 1187.34 1472.74 Q1184.28 1468.13 1184.28 1459.41 Q1184.28 1450.66 1187.34 1446.07 Q1190.42 1441.47 1196.23 1441.47 Z" fill="#000000" fill-rule="evenodd" fill-opacity="1" /><path clip-path="url(#clip870)" d="M 0 0 M1508.27 1446.17 L1496.46 1464.61 L1508.27 1464.61 L1508.27 1446.17 M1507.04 1442.09 L1512.92 1442.09 L1512.92 1464.61 L1517.85 1464.61 L1517.85 1468.5 L1512.92 1468.5 L1512.92 1476.65 L1508.27 1476.65 L1508.27 1468.5 L1492.66 1468.5 L1492.66 1463.99 L1507.04 1442.09 Z" fill="#000000" fill-rule="evenodd" fill-opacity="1" /><path clip-path="url(#clip870)" d="M 0 0 M1532.92 1445.17 Q1529.31 1445.17 1527.48 1448.74 Q1525.67 1452.28 1525.67 1459.41 Q1525.67 1466.51 1527.48 1470.08 Q1529.31 1473.62 1532.92 1473.62 Q1536.55 1473.62 1538.36 1470.08 Q1540.19 1466.51 1540.19 1459.41 Q1540.19 1452.28 1538.36 1448.74 Q1536.55 1445.17 1532.92 1445.17 M1532.92 1441.47 Q1538.73 1441.47 1541.78 1446.07 Q1544.86 1450.66 1544.86 1459.41 Q1544.86 1468.13 1541.78 1472.74 Q1538.73 1477.32 1532.92 1477.32 Q1527.11 1477.32 1524.03 1472.74 Q1520.97 1468.13 1520.97 1459.41 Q1520.97 1450.66 1524.03 1446.07 Q1527.11 1441.47 1532.92 1441.47 Z" fill="#000000" fill-rule="evenodd" fill-opacity="1" /><path clip-path="url(#clip870)" d="M 0 0 M1831.01 1442.09 L1849.37 1442.09 L1849.37 1446.03 L1835.29 1446.03 L1835.29 1454.5 Q1836.31 1454.15 1837.33 1453.99 Q1838.35 1453.8 1839.37 1453.8 Q1845.15 1453.8 1848.53 1456.98 Q1851.91 1460.15 1851.91 1465.56 Q1851.91 1471.14 1848.44 1474.24 Q1844.97 1477.32 1838.65 1477.32 Q1836.47 1477.32 1834.2 1476.95 Q1831.96 1476.58 1829.55 1475.84 L1829.55 1471.14 Q1831.64 1472.28 1833.86 1472.83 Q1836.08 1473.39 1838.56 1473.39 Q1842.56 1473.39 1844.9 1471.28 Q1847.24 1469.18 1847.24 1465.56 Q1847.24 1461.95 1844.9 1459.85 Q1842.56 1457.74 1838.56 1457.74 Q1836.68 1457.74 1834.81 1458.16 Q1832.95 1458.57 1831.01 1459.45 L1831.01 1442.09 Z" fill="#000000" fill-rule="evenodd" fill-opacity="1" /><path clip-path="url(#clip870)" d="M 0 0 M1866.98 1445.17 Q1863.37 1445.17 1861.54 1448.74 Q1859.74 1452.28 1859.74 1459.41 Q1859.74 1466.51 1861.54 1470.08 Q1863.37 1473.62 1866.98 1473.62 Q1870.62 1473.62 1872.42 1470.08 Q1874.25 1466.51 1874.25 1459.41 Q1874.25 1452.28 1872.42 1448.74 Q1870.62 1445.17 1866.98 1445.17 M1866.98 1441.47 Q1872.79 1441.47 1875.85 1446.07 Q1878.93 1450.66 1878.93 1459.41 Q1878.93 1468.13 1875.85 1472.74 Q1872.79 1477.32 1866.98 1477.32 Q1861.17 1477.32 1858.09 1472.74 Q1855.04 1468.13 1855.04 1459.41 Q1855.04 1450.66 1858.09 1446.07 Q1861.17 1441.47 1866.98 1441.47 Z" fill="#000000" fill-rule="evenodd" fill-opacity="1" /><path clip-path="url(#clip870)" d="M 0 0 M2176.61 1457.51 Q2173.46 1457.51 2171.61 1459.66 Q2169.78 1461.81 2169.78 1465.56 Q2169.78 1469.29 2171.61 1471.47 Q2173.46 1473.62 2176.61 1473.62 Q2179.76 1473.62 2181.59 1471.47 Q2183.44 1469.29 2183.44 1465.56 Q2183.44 1461.81 2181.59 1459.66 Q2179.76 1457.51 2176.61 1457.51 M2185.9 1442.86 L2185.9 1447.11 Q2184.14 1446.28 2182.33 1445.84 Q2180.55 1445.4 2178.79 1445.4 Q2174.16 1445.4 2171.71 1448.53 Q2169.28 1451.65 2168.93 1457.97 Q2170.29 1455.96 2172.35 1454.89 Q2174.41 1453.8 2176.89 1453.8 Q2182.1 1453.8 2185.11 1456.98 Q2188.14 1460.12 2188.14 1465.56 Q2188.14 1470.89 2184.99 1474.11 Q2181.84 1477.32 2176.61 1477.32 Q2170.62 1477.32 2167.45 1472.74 Q2164.28 1468.13 2164.28 1459.41 Q2164.28 1451.21 2168.16 1446.35 Q2172.05 1441.47 2178.6 1441.47 Q2180.36 1441.47 2182.15 1441.81 Q2183.95 1442.16 2185.9 1442.86 Z" fill="#000000" fill-rule="evenodd" fill-opacity="1" /><path clip-path="url(#clip870)" d="M 0 0 M2203.21 1445.17 Q2199.6 1445.17 2197.77 1448.74 Q2195.96 1452.28 2195.96 1459.41 Q2195.96 1466.51 2197.77 1470.08 Q2199.6 1473.62 2203.21 1473.62 Q2206.84 1473.62 2208.65 1470.08 Q2210.48 1466.51 2210.48 1459.41 Q2210.48 1452.28 2208.65 1448.74 Q2206.84 1445.17 2203.21 1445.17 M2203.21 1441.47 Q2209.02 1441.47 2212.08 1446.07 Q2215.15 1450.66 2215.15 1459.41 Q2215.15 1468.13 2212.08 1472.74 Q2209.02 1477.32 2203.21 1477.32 Q2197.4 1477.32 2194.32 1472.74 Q2191.27 1468.13 2191.27 1459.41 Q2191.27 1450.66 2194.32 1446.07 Q2197.4 1441.47 2203.21 1441.47 Z" fill="#000000" fill-rule="evenodd" fill-opacity="1" /><path clip-path="url(#clip870)" d="M 0 0 M76.0939 1370.04 Q72.4828 1370.04 70.6541 1373.6 Q68.8486 1377.14 68.8486 1384.27 Q68.8486 1391.38 70.6541 1394.94 Q72.4828 1398.49 76.0939 1398.49 Q79.7281 1398.49 81.5337 1394.94 Q83.3624 1391.38 83.3624 1384.27 Q83.3624 1377.14 81.5337 1373.6 Q79.7281 1370.04 76.0939 1370.04 M76.0939 1366.33 Q81.9041 1366.33 84.9596 1370.94 Q88.0383 1375.52 88.0383 1384.27 Q88.0383 1393 84.9596 1397.61 Q81.9041 1402.19 76.0939 1402.19 Q70.2838 1402.19 67.2051 1397.61 Q64.1495 1393 64.1495 1384.27 Q64.1495 1375.52 67.2051 1370.94 Q70.2838 1366.33 76.0939 1366.33 Z" fill="#000000" fill-rule="evenodd" fill-opacity="1" /><path clip-path="url(#clip870)" d="M 0 0 M93.1077 1395.64 L97.9919 1395.64 L97.9919 1401.52 L93.1077 1401.52 L93.1077 1395.64 Z" fill="#000000" fill-rule="evenodd" fill-opacity="1" /><path clip-path="url(#clip870)" d="M 0 0 M103.108 1366.96 L121.464 1366.96 L121.464 1370.89 L107.39 1370.89 L107.39 1379.37 Q108.409 1379.02 109.427 1378.86 Q110.446 1378.67 111.464 1378.67 Q117.251 1378.67 120.631 1381.84 Q124.01 1385.01 124.01 1390.43 Q124.01 1396.01 120.538 1399.11 Q117.066 1402.19 110.746 1402.19 Q108.571 1402.19 106.302 1401.82 Q104.057 1401.45 101.649 1400.71 L101.649 1396.01 Q103.733 1397.14 105.955 1397.7 Q108.177 1398.25 110.654 1398.25 Q114.659 1398.25 116.996 1396.15 Q119.334 1394.04 119.334 1390.43 Q119.334 1386.82 116.996 1384.71 Q114.659 1382.61 110.654 1382.61 Q108.779 1382.61 106.904 1383.02 Q105.052 1383.44 103.108 1384.32 L103.108 1366.96 Z" fill="#000000" fill-rule="evenodd" fill-opacity="1" /><path clip-path="url(#clip870)" d="M 0 0 M74.9365 1102.05 Q71.3254 1102.05 69.4967 1105.62 Q67.6912 1109.16 67.6912 1116.29 Q67.6912 1123.39 69.4967 1126.96 Q71.3254 1130.5 74.9365 1130.5 Q78.5707 1130.5 80.3763 1126.96 Q82.205 1123.39 82.205 1116.29 Q82.205 1109.16 80.3763 1105.62 Q78.5707 1102.05 74.9365 1102.05 M74.9365 1098.35 Q80.7467 1098.35 83.8022 1102.95 Q86.8809 1107.54 86.8809 1116.29 Q86.8809 1125.01 83.8022 1129.62 Q80.7467 1134.2 74.9365 1134.2 Q69.1264 1134.2 66.0477 1129.62 Q62.9921 1125.01 62.9921 1116.29 Q62.9921 1107.54 66.0477 1102.95 Q69.1264 1098.35 74.9365 1098.35 Z" fill="#000000" fill-rule="evenodd" fill-opacity="1" /><path clip-path="url(#clip870)" d="M 0 0 M91.9503 1127.65 L96.8345 1127.65 L96.8345 1133.53 L91.9503 1133.53 L91.9503 1127.65 Z" fill="#000000" fill-rule="evenodd" fill-opacity="1" /><path clip-path="url(#clip870)" d="M 0 0 M112.483 1114.39 Q109.334 1114.39 107.483 1116.54 Q105.654 1118.7 105.654 1122.45 Q105.654 1126.17 107.483 1128.35 Q109.334 1130.5 112.483 1130.5 Q115.631 1130.5 117.459 1128.35 Q119.311 1126.17 119.311 1122.45 Q119.311 1118.7 117.459 1116.54 Q115.631 1114.39 112.483 1114.39 M121.765 1099.74 L121.765 1104 Q120.006 1103.16 118.2 1102.72 Q116.418 1102.28 114.659 1102.28 Q110.029 1102.28 107.575 1105.41 Q105.145 1108.53 104.797 1114.85 Q106.163 1112.84 108.223 1111.77 Q110.284 1110.69 112.76 1110.69 Q117.969 1110.69 120.978 1113.86 Q124.01 1117.01 124.01 1122.45 Q124.01 1127.77 120.862 1130.99 Q117.714 1134.2 112.483 1134.2 Q106.487 1134.2 103.316 1129.62 Q100.145 1125.01 100.145 1116.29 Q100.145 1108.09 104.034 1103.23 Q107.922 1098.35 114.473 1098.35 Q116.233 1098.35 118.015 1098.7 Q119.821 1099.04 121.765 1099.74 Z" fill="#000000" fill-rule="evenodd" fill-opacity="1" /><path clip-path="url(#clip870)" d="M 0 0 M76.0013 834.067 Q72.3902 834.067 70.5615 837.632 Q68.756 841.173 68.756 848.303 Q68.756 855.409 70.5615 858.974 Q72.3902 862.516 76.0013 862.516 Q79.6356 862.516 81.4411 858.974 Q83.2698 855.409 83.2698 848.303 Q83.2698 841.173 81.4411 837.632 Q79.6356 834.067 76.0013 834.067 M76.0013 830.363 Q81.8115 830.363 84.867 834.97 Q87.9457 839.553 87.9457 848.303 Q87.9457 857.03 84.867 861.636 Q81.8115 866.219 76.0013 866.219 Q70.1912 866.219 67.1125 861.636 Q64.0569 857.03 64.0569 848.303 Q64.0569 839.553 67.1125 834.97 Q70.1912 830.363 76.0013 830.363 Z" fill="#000000" fill-rule="evenodd" fill-opacity="1" /><path clip-path="url(#clip870)" d="M 0 0 M93.0151 859.669 L97.8993 859.669 L97.8993 865.548 L93.0151 865.548 L93.0151 859.669 Z" fill="#000000" fill-rule="evenodd" fill-opacity="1" /><path clip-path="url(#clip870)" d="M 0 0 M101.788 830.988 L124.01 830.988 L124.01 832.979 L111.464 865.548 L106.58 865.548 L118.385 834.923 L101.788 834.923 L101.788 830.988 Z" fill="#000000" fill-rule="evenodd" fill-opacity="1" /><path clip-path="url(#clip870)" d="M 0 0 M75.1911 566.082 Q71.58 566.082 69.7513 569.647 Q67.9458 573.188 67.9458 580.318 Q67.9458 587.424 69.7513 590.989 Q71.58 594.531 75.1911 594.531 Q78.8254 594.531 80.6309 590.989 Q82.4596 587.424 82.4596 580.318 Q82.4596 573.188 80.6309 569.647 Q78.8254 566.082 75.1911 566.082 M75.1911 562.378 Q81.0013 562.378 84.0568 566.985 Q87.1355 571.568 87.1355 580.318 Q87.1355 589.045 84.0568 593.651 Q81.0013 598.234 75.1911 598.234 Q69.381 598.234 66.3023 593.651 Q63.2468 589.045 63.2468 580.318 Q63.2468 571.568 66.3023 566.985 Q69.381 562.378 75.1911 562.378 Z" fill="#000000" fill-rule="evenodd" fill-opacity="1" /><path clip-path="url(#clip870)" d="M 0 0 M92.2049 591.684 L97.0892 591.684 L97.0892 597.563 L92.2049 597.563 L92.2049 591.684 Z" fill="#000000" fill-rule="evenodd" fill-opacity="1" /><path clip-path="url(#clip870)" d="M 0 0 M112.159 581.151 Q108.825 581.151 106.904 582.934 Q105.006 584.716 105.006 587.841 Q105.006 590.966 106.904 592.748 Q108.825 594.531 112.159 594.531 Q115.492 594.531 117.413 592.748 Q119.334 590.943 119.334 587.841 Q119.334 584.716 117.413 582.934 Q115.515 581.151 112.159 581.151 M107.483 579.16 Q104.473 578.42 102.784 576.36 Q101.117 574.299 101.117 571.336 Q101.117 567.193 104.057 564.786 Q107.02 562.378 112.159 562.378 Q117.321 562.378 120.26 564.786 Q123.2 567.193 123.2 571.336 Q123.2 574.299 121.51 576.36 Q119.844 578.42 116.858 579.16 Q120.237 579.947 122.112 582.239 Q124.01 584.531 124.01 587.841 Q124.01 592.864 120.932 595.549 Q117.876 598.234 112.159 598.234 Q106.441 598.234 103.362 595.549 Q100.307 592.864 100.307 587.841 Q100.307 584.531 102.205 582.239 Q104.103 579.947 107.483 579.16 M105.77 571.776 Q105.77 574.461 107.436 575.966 Q109.126 577.471 112.159 577.471 Q115.168 577.471 116.858 575.966 Q118.571 574.461 118.571 571.776 Q118.571 569.091 116.858 567.586 Q115.168 566.082 112.159 566.082 Q109.126 566.082 107.436 567.586 Q105.77 569.091 105.77 571.776 Z" fill="#000000" fill-rule="evenodd" fill-opacity="1" /><path clip-path="url(#clip870)" d="M 0 0 M75.2837 298.097 Q71.6726 298.097 69.8439 301.662 Q68.0384 305.203 68.0384 312.333 Q68.0384 319.439 69.8439 323.004 Q71.6726 326.546 75.2837 326.546 Q78.918 326.546 80.7235 323.004 Q82.5522 319.439 82.5522 312.333 Q82.5522 305.203 80.7235 301.662 Q78.918 298.097 75.2837 298.097 M75.2837 294.393 Q81.0939 294.393 84.1494 299 Q87.2281 303.583 87.2281 312.333 Q87.2281 321.06 84.1494 325.666 Q81.0939 330.249 75.2837 330.249 Q69.4736 330.249 66.3949 325.666 Q63.3393 321.06 63.3393 312.333 Q63.3393 303.583 66.3949 299 Q69.4736 294.393 75.2837 294.393 Z" fill="#000000" fill-rule="evenodd" fill-opacity="1" /><path clip-path="url(#clip870)" d="M 0 0 M92.2975 323.698 L97.1818 323.698 L97.1818 329.578 L92.2975 329.578 L92.2975 323.698 Z" fill="#000000" fill-rule="evenodd" fill-opacity="1" /><path clip-path="url(#clip870)" d="M 0 0 M102.39 328.86 L102.39 324.601 Q104.149 325.435 105.955 325.874 Q107.76 326.314 109.497 326.314 Q114.126 326.314 116.557 323.212 Q119.01 320.087 119.358 313.745 Q118.015 315.736 115.955 316.8 Q113.895 317.865 111.395 317.865 Q106.209 317.865 103.177 314.74 Q100.168 311.592 100.168 306.152 Q100.168 300.828 103.316 297.611 Q106.464 294.393 111.696 294.393 Q117.691 294.393 120.839 299 Q124.01 303.583 124.01 312.333 Q124.01 320.504 120.121 325.388 Q116.256 330.249 109.705 330.249 Q107.946 330.249 106.14 329.902 Q104.334 329.555 102.39 328.86 M111.696 314.208 Q114.844 314.208 116.672 312.055 Q118.524 309.902 118.524 306.152 Q118.524 302.425 116.672 300.273 Q114.844 298.097 111.696 298.097 Q108.547 298.097 106.696 300.273 Q104.867 302.425 104.867 306.152 Q104.867 309.902 106.696 312.055 Q108.547 314.208 111.696 314.208 Z" fill="#000000" fill-rule="evenodd" fill-opacity="1" /><path clip-path="url(#clip870)" d="M 0 0 M1163.73 1538.25 Q1163.73 1531.79 1161.06 1528.13 Q1158.41 1524.44 1153.77 1524.44 Q1149.12 1524.44 1146.45 1528.13 Q1143.81 1531.79 1143.81 1538.25 Q1143.81 1544.71 1146.45 1548.4 Q1149.12 1552.07 1153.77 1552.07 Q1158.41 1552.07 1161.06 1548.4 Q1163.73 1544.71 1163.73 1538.25 M1143.81 1525.81 Q1145.65 1522.62 1148.45 1521.1 Q1151.28 1519.54 1155.2 1519.54 Q1161.69 1519.54 1165.74 1524.69 Q1169.81 1529.85 1169.81 1538.25 Q1169.81 1546.65 1165.74 1551.81 Q1161.69 1556.97 1155.2 1556.97 Q1151.28 1556.97 1148.45 1555.44 Q1145.65 1553.88 1143.81 1550.7 L1143.81 1556.04 L1137.92 1556.04 L1137.92 1506.52 L1143.81 1506.52 L1143.81 1525.81 Z" fill="#000000" fill-rule="evenodd" fill-opacity="1" /><path clip-path="url(#clip870)" d="M 0 0 M1192.15 1538.12 Q1185.06 1538.12 1182.32 1539.75 Q1179.58 1541.37 1179.58 1545.29 Q1179.58 1548.4 1181.62 1550.25 Q1183.69 1552.07 1187.22 1552.07 Q1192.09 1552.07 1195.02 1548.63 Q1197.98 1545.16 1197.98 1539.43 L1197.98 1538.12 L1192.15 1538.12 M1203.83 1535.71 L1203.83 1556.04 L1197.98 1556.04 L1197.98 1550.63 Q1195.97 1553.88 1192.98 1555.44 Q1189.99 1556.97 1185.66 1556.97 Q1180.19 1556.97 1176.94 1553.91 Q1173.72 1550.82 1173.72 1545.67 Q1173.72 1539.65 1177.73 1536.6 Q1181.78 1533.54 1189.77 1533.54 L1197.98 1533.54 L1197.98 1532.97 Q1197.98 1528.93 1195.3 1526.73 Q1192.66 1524.5 1187.86 1524.5 Q1184.8 1524.5 1181.9 1525.23 Q1179.01 1525.97 1176.33 1527.43 L1176.33 1522.02 Q1179.55 1520.78 1182.57 1520.17 Q1185.6 1519.54 1188.46 1519.54 Q1196.2 1519.54 1200.01 1523.55 Q1203.83 1527.56 1203.83 1535.71 Z" fill="#000000" fill-rule="evenodd" fill-opacity="1" /><path clip-path="url(#clip870)" d="M 0 0 M1239.61 1534.53 L1239.61 1556.04 L1233.75 1556.04 L1233.75 1534.72 Q1233.75 1529.66 1231.78 1527.14 Q1229.81 1524.63 1225.86 1524.63 Q1221.12 1524.63 1218.38 1527.65 Q1215.64 1530.68 1215.64 1535.9 L1215.64 1556.04 L1209.75 1556.04 L1209.75 1520.4 L1215.64 1520.4 L1215.64 1525.93 Q1217.74 1522.72 1220.58 1521.13 Q1223.44 1519.54 1227.16 1519.54 Q1233.31 1519.54 1236.46 1523.36 Q1239.61 1527.14 1239.61 1534.53 Z" fill="#000000" fill-rule="evenodd" fill-opacity="1" /><path clip-path="url(#clip870)" d="M 0 0 M1245.53 1506.52 L1251.42 1506.52 L1251.42 1535.77 L1268.89 1520.4 L1276.37 1520.4 L1257.46 1537.07 L1277.17 1556.04 L1269.53 1556.04 L1251.42 1538.63 L1251.42 1556.04 L1245.53 1556.04 L1245.53 1506.52 Z" fill="#000000" fill-rule="evenodd" fill-opacity="1" /><path clip-path="url(#clip870)" d="M 0 0 M1303.97 1525.87 Q1302.98 1525.3 1301.8 1525.04 Q1300.66 1524.76 1299.26 1524.76 Q1294.29 1524.76 1291.62 1528 Q1288.98 1531.22 1288.98 1537.27 L1288.98 1556.04 L1283.09 1556.04 L1283.09 1520.4 L1288.98 1520.4 L1288.98 1525.93 Q1290.82 1522.69 1293.78 1521.13 Q1296.74 1519.54 1300.97 1519.54 Q1301.58 1519.54 1302.31 1519.63 Q1303.04 1519.7 1303.93 1519.85 L1303.97 1525.87 Z" fill="#000000" fill-rule="evenodd" fill-opacity="1" /><path clip-path="url(#clip870)" d="M 0 0 M1322.49 1524.5 Q1317.78 1524.5 1315.04 1528.19 Q1312.31 1531.85 1312.31 1538.25 Q1312.31 1544.65 1315.01 1548.34 Q1317.75 1552 1322.49 1552 Q1327.17 1552 1329.91 1548.31 Q1332.64 1544.62 1332.64 1538.25 Q1332.64 1531.92 1329.91 1528.23 Q1327.17 1524.5 1322.49 1524.5 M1322.49 1519.54 Q1330.13 1519.54 1334.49 1524.5 Q1338.85 1529.47 1338.85 1538.25 Q1338.85 1547 1334.49 1552 Q1330.13 1556.97 1322.49 1556.97 Q1314.82 1556.97 1310.46 1552 Q1306.13 1547 1306.13 1538.25 Q1306.13 1529.47 1310.46 1524.5 Q1314.82 1519.54 1322.49 1519.54 Z" fill="#000000" fill-rule="evenodd" fill-opacity="1" /><path clip-path="url(#clip870)" d="M 0 0 M1344.99 1506.52 L1350.85 1506.52 L1350.85 1556.04 L1344.99 1556.04 L1344.99 1506.52 Z" fill="#000000" fill-rule="evenodd" fill-opacity="1" /><path clip-path="url(#clip870)" d="M 0 0 M1356.99 1506.52 L1362.85 1506.52 L1362.85 1556.04 L1356.99 1556.04 L1356.99 1506.52 Z" fill="#000000" fill-rule="evenodd" fill-opacity="1" /><polyline clip-path="url(#clip872)" style="stroke:#009af9; stroke-width:4; stroke-opacity:1; fill:none" points="
  210.409,1384.24 243.956,937.597 277.504,714.276 311.051,580.283 344.599,490.955 378.147,427.149 411.694,379.294 445.242,342.074 478.789,312.298 512.337,287.936 
  545.884,267.634 579.432,250.455 612.979,235.731 646.527,222.97 680.075,211.804 713.622,201.951 747.17,193.194 780.717,185.358 814.265,178.306 847.812,171.925 
  881.36,166.124 914.908,160.828 948.455,155.973 982.003,151.507 1015.55,147.384 1049.1,143.567 1082.65,140.022 1116.19,136.722 1149.74,133.641 1183.29,130.76 
  1216.84,128.058 1250.38,125.521 1283.93,123.132 1317.48,120.88 1351.03,118.753 1384.57,116.741 1418.12,114.835 1451.67,113.027 1485.22,111.309 1518.76,109.675 
  1552.31,108.119 1585.86,106.635 1619.41,105.219 1652.95,103.865 1686.5,102.571 1720.05,101.331 1753.6,100.143 1787.14,99.0038 1820.69,97.91 1854.24,96.8591 
  1887.79,95.8486 1921.33,94.8762 1954.88,93.9399 1988.43,93.0376 2021.98,92.1675 2055.52,91.3279 2089.07,90.5173 2122.62,89.7342 2156.17,88.9772 2189.71,88.245 
  2223.26,87.5364 2256.81,86.8503 2290.36,86.1857 
  "/>
<path clip-path="url(#clip870)" d="
M1831.24 251.724 L2280.76 251.724 L2280.76 130.764 L1831.24 130.764  Z
  " fill="#ffffff" fill-rule="evenodd" fill-opacity="1"/>
<polyline clip-path="url(#clip870)" style="stroke:#000000; stroke-width:4; stroke-opacity:1; fill:none" points="
  1831.24,251.724 2280.76,251.724 2280.76,130.764 1831.24,130.764 1831.24,251.724 
  "/>
<polyline clip-path="url(#clip870)" style="stroke:#009af9; stroke-width:4; stroke-opacity:1; fill:none" points="
  1855.24,191.244 1999.24,191.244 
  "/>
<path clip-path="url(#clip870)" d="M 0 0 M2027.92 177.807 L2027.92 190.793 L2033.8 190.793 Q2037.06 190.793 2038.84 189.103 Q2040.63 187.413 2040.63 184.288 Q2040.63 181.186 2038.84 179.496 Q2037.06 177.807 2033.8 177.807 L2027.92 177.807 M2023.24 173.964 L2033.8 173.964 Q2039.61 173.964 2042.57 176.603 Q2045.56 179.219 2045.56 184.288 Q2045.56 189.404 2042.57 192.02 Q2039.61 194.635 2033.8 194.635 L2027.92 194.635 L2027.92 208.524 L2023.24 208.524 L2023.24 173.964 Z" fill="#000000" fill-rule="evenodd" fill-opacity="1" /><path clip-path="url(#clip870)" d="M 0 0 M2060.26 172.552 Q2057.15 177.876 2055.65 183.084 Q2054.15 188.293 2054.15 193.64 Q2054.15 198.987 2055.65 204.242 Q2057.18 209.473 2060.26 214.774 L2056.55 214.774 Q2053.08 209.334 2051.34 204.08 Q2049.63 198.825 2049.63 193.64 Q2049.63 188.478 2051.34 183.246 Q2053.06 178.015 2056.55 172.552 L2060.26 172.552 Z" fill="#000000" fill-rule="evenodd" fill-opacity="1" /><path clip-path="url(#clip870)" d="M 0 0 M2062.25 182.598 L2066.51 182.598 L2071.83 202.83 L2077.13 182.598 L2082.15 182.598 L2087.48 202.83 L2092.78 182.598 L2097.04 182.598 L2090.26 208.524 L2085.23 208.524 L2079.65 187.274 L2074.05 208.524 L2069.03 208.524 L2062.25 182.598 Z" fill="#000000" fill-rule="evenodd" fill-opacity="1" /><path clip-path="url(#clip870)" d="M 0 0 M2101.51 182.598 L2105.77 182.598 L2105.77 208.524 L2101.51 208.524 L2101.51 182.598 M2101.51 172.506 L2105.77 172.506 L2105.77 177.899 L2101.51 177.899 L2101.51 172.506 Z" fill="#000000" fill-rule="evenodd" fill-opacity="1" /><path clip-path="url(#clip870)" d="M 0 0 M2131.78 192.876 L2131.78 208.524 L2127.52 208.524 L2127.52 193.015 Q2127.52 189.334 2126.09 187.506 Q2124.65 185.677 2121.78 185.677 Q2118.34 185.677 2116.34 187.876 Q2114.35 190.075 2114.35 193.871 L2114.35 208.524 L2110.07 208.524 L2110.07 182.598 L2114.35 182.598 L2114.35 186.626 Q2115.88 184.288 2117.94 183.131 Q2120.03 181.973 2122.73 181.973 Q2127.2 181.973 2129.49 184.751 Q2131.78 187.506 2131.78 192.876 Z" fill="#000000" fill-rule="evenodd" fill-opacity="1" /><path clip-path="url(#clip870)" d="M 0 0 M2157.8 192.876 L2157.8 208.524 L2153.54 208.524 L2153.54 193.015 Q2153.54 189.334 2152.11 187.506 Q2150.67 185.677 2147.8 185.677 Q2144.35 185.677 2142.36 187.876 Q2140.37 190.075 2140.37 193.871 L2140.37 208.524 L2136.09 208.524 L2136.09 182.598 L2140.37 182.598 L2140.37 186.626 Q2141.9 184.288 2143.96 183.131 Q2146.04 181.973 2148.75 181.973 Q2153.22 181.973 2155.51 184.751 Q2157.8 187.506 2157.8 192.876 Z" fill="#000000" fill-rule="evenodd" fill-opacity="1" /><path clip-path="url(#clip870)" d="M 0 0 M2162.27 182.598 L2166.53 182.598 L2166.53 208.524 L2162.27 208.524 L2162.27 182.598 M2162.27 172.506 L2166.53 172.506 L2166.53 177.899 L2162.27 177.899 L2162.27 172.506 Z" fill="#000000" fill-rule="evenodd" fill-opacity="1" /><path clip-path="url(#clip870)" d="M 0 0 M2192.55 192.876 L2192.55 208.524 L2188.29 208.524 L2188.29 193.015 Q2188.29 189.334 2186.85 187.506 Q2185.42 185.677 2182.55 185.677 Q2179.1 185.677 2177.11 187.876 Q2175.12 190.075 2175.12 193.871 L2175.12 208.524 L2170.83 208.524 L2170.83 182.598 L2175.12 182.598 L2175.12 186.626 Q2176.65 184.288 2178.71 183.131 Q2180.79 181.973 2183.5 181.973 Q2187.96 181.973 2190.26 184.751 Q2192.55 187.506 2192.55 192.876 Z" fill="#000000" fill-rule="evenodd" fill-opacity="1" /><path clip-path="url(#clip870)" d="M 0 0 M2214.08 195.26 Q2214.08 190.631 2212.15 188.084 Q2210.26 185.538 2206.81 185.538 Q2203.38 185.538 2201.46 188.084 Q2199.56 190.631 2199.56 195.26 Q2199.56 199.867 2201.46 202.413 Q2203.38 204.959 2206.81 204.959 Q2210.26 204.959 2212.15 202.413 Q2214.08 199.867 2214.08 195.26 M2218.33 205.307 Q2218.33 211.927 2215.39 215.144 Q2212.46 218.385 2206.39 218.385 Q2204.14 218.385 2202.15 218.038 Q2200.16 217.714 2198.29 217.019 L2198.29 212.876 Q2200.16 213.894 2201.99 214.381 Q2203.82 214.867 2205.72 214.867 Q2209.91 214.867 2211.99 212.668 Q2214.08 210.492 2214.08 206.07 L2214.08 203.964 Q2212.76 206.256 2210.7 207.39 Q2208.64 208.524 2205.77 208.524 Q2201 208.524 2198.08 204.89 Q2195.16 201.256 2195.16 195.26 Q2195.16 189.242 2198.08 185.608 Q2201 181.973 2205.77 181.973 Q2208.64 181.973 2210.7 183.108 Q2212.76 184.242 2214.08 186.533 L2214.08 182.598 L2218.33 182.598 L2218.33 205.307 Z" fill="#000000" fill-rule="evenodd" fill-opacity="1" /><path clip-path="url(#clip870)" d="M 0 0 M2222.13 172.552 L2225.83 172.552 Q2229.31 178.015 2231.02 183.246 Q2232.76 188.478 2232.76 193.64 Q2232.76 198.825 2231.02 204.08 Q2229.31 209.334 2225.83 214.774 L2222.13 214.774 Q2225.21 209.473 2226.71 204.242 Q2228.24 198.987 2228.24 193.64 Q2228.24 188.293 2226.71 183.084 Q2225.21 177.876 2222.13 172.552 Z" fill="#000000" fill-rule="evenodd" fill-opacity="1" /></svg>
