<?xml version="1.0" encoding="utf-8"?>
<svg xmlns="http://www.w3.org/2000/svg" xmlns:xlink="http://www.w3.org/1999/xlink" width="600" height="400" viewBox="0 0 2400 1600">
<defs>
  <clipPath id="clip840">
    <rect x="0" y="0" width="2400" height="1600"/>
  </clipPath>
</defs>
<path clip-path="url(#clip840)" d="
M0 1600 L2400 1600 L2400 0 L0 0  Z
  " fill="#ffffff" fill-rule="evenodd" fill-opacity="1"/>
<defs>
  <clipPath id="clip841">
    <rect x="480" y="0" width="1681" height="1600"/>
  </clipPath>
</defs>
<path clip-path="url(#clip840)" d="
M148.01 1486.45 L2352.76 1486.45 L2352.76 47.2441 L148.01 47.2441  Z
  " fill="#ffffff" fill-rule="evenodd" fill-opacity="1"/>
<defs>
  <clipPath id="clip842">
    <rect x="148" y="47" width="2206" height="1440"/>
  </clipPath>
</defs>
<polyline clip-path="url(#clip842)" style="stroke:#000000; stroke-width:2; stroke-opacity:0.1; fill:none" points="
  441.514,1486.45 441.514,47.2441 
  "/>
<polyline clip-path="url(#clip842)" style="stroke:#000000; stroke-width:2; stroke-opacity:0.1; fill:none" points="
  903.725,1486.45 903.725,47.2441 
  "/>
<polyline clip-path="url(#clip842)" style="stroke:#000000; stroke-width:2; stroke-opacity:0.1; fill:none" points="
  1365.94,1486.45 1365.94,47.2441 
  "/>
<polyline clip-path="url(#clip842)" style="stroke:#000000; stroke-width:2; stroke-opacity:0.1; fill:none" points="
  1828.15,1486.45 1828.15,47.2441 
  "/>
<polyline clip-path="url(#clip842)" style="stroke:#000000; stroke-width:2; stroke-opacity:0.1; fill:none" points="
  2290.36,1486.45 2290.36,47.2441 
  "/>
<polyline clip-path="url(#clip842)" style="stroke:#000000; stroke-width:2; stroke-opacity:0.1; fill:none" points="
  148.01,1445.72 2352.76,1445.72 
  "/>
<polyline clip-path="url(#clip842)" style="stroke:#000000; stroke-width:2; stroke-opacity:0.1; fill:none" points="
  148.01,1173.64 2352.76,1173.64 
  "/>
<polyline clip-path="url(#clip842)" style="stroke:#000000; stroke-width:2; stroke-opacity:0.1; fill:none" points="
  148.01,901.557 2352.76,901.557 
  "/>
<polyline clip-path="url(#clip842)" style="stroke:#000000; stroke-width:2; stroke-opacity:0.1; fill:none" points="
  148.01,629.478 2352.76,629.478 
  "/>
<polyline clip-path="url(#clip842)" style="stroke:#000000; stroke-width:2; stroke-opacity:0.1; fill:none" points="
  148.01,357.399 2352.76,357.399 
  "/>
<polyline clip-path="url(#clip842)" style="stroke:#000000; stroke-width:2; stroke-opacity:0.1; fill:none" points="
  148.01,85.3193 2352.76,85.3193 
  "/>
<polyline clip-path="url(#clip840)" style="stroke:#000000; stroke-width:4; stroke-opacity:1; fill:none" points="
  148.01,1486.45 2352.76,1486.45 
  "/>
<polyline clip-path="url(#clip840)" style="stroke:#000000; stroke-width:4; stroke-opacity:1; fill:none" points="
  148.01,1486.45 148.01,47.2441 
  "/>
<polyline clip-path="url(#clip840)" style="stroke:#000000; stroke-width:4; stroke-opacity:1; fill:none" points="
  441.514,1486.45 441.514,1469.18 
  "/>
<polyline clip-path="url(#clip840)" style="stroke:#000000; stroke-width:4; stroke-opacity:1; fill:none" points="
  903.725,1486.45 903.725,1469.18 
  "/>
<polyline clip-path="url(#clip840)" style="stroke:#000000; stroke-width:4; stroke-opacity:1; fill:none" points="
  1365.94,1486.45 1365.94,1469.18 
  "/>
<polyline clip-path="url(#clip840)" style="stroke:#000000; stroke-width:4; stroke-opacity:1; fill:none" points="
  1828.15,1486.45 1828.15,1469.18 
  "/>
<polyline clip-path="url(#clip840)" style="stroke:#000000; stroke-width:4; stroke-opacity:1; fill:none" points="
  2290.36,1486.45 2290.36,1469.18 
  "/>
<polyline clip-path="url(#clip840)" style="stroke:#000000; stroke-width:4; stroke-opacity:1; fill:none" points="
  148.01,1445.72 174.467,1445.72 
  "/>
<polyline clip-path="url(#clip840)" style="stroke:#000000; stroke-width:4; stroke-opacity:1; fill:none" points="
  148.01,1173.64 174.467,1173.64 
  "/>
<polyline clip-path="url(#clip840)" style="stroke:#000000; stroke-width:4; stroke-opacity:1; fill:none" points="
  148.01,901.557 174.467,901.557 
  "/>
<polyline clip-path="url(#clip840)" style="stroke:#000000; stroke-width:4; stroke-opacity:1; fill:none" points="
  148.01,629.478 174.467,629.478 
  "/>
<polyline clip-path="url(#clip840)" style="stroke:#000000; stroke-width:4; stroke-opacity:1; fill:none" points="
  148.01,357.399 174.467,357.399 
  "/>
<polyline clip-path="url(#clip840)" style="stroke:#000000; stroke-width:4; stroke-opacity:1; fill:none" points="
  148.01,85.3193 174.467,85.3193 
  "/>
<path clip-path="url(#clip840)" d="M 0 0 M436.167 1535.98 L452.486 1535.98 L452.486 1539.92 L430.542 1539.92 L430.542 1535.98 Q433.204 1533.23 437.787 1528.6 Q442.394 1523.95 443.574 1522.61 Q445.82 1520.08 446.699 1518.35 Q447.602 1516.59 447.602 1514.9 Q447.602 1512.14 445.658 1510.41 Q443.736 1508.67 440.635 1508.67 Q438.435 1508.67 435.982 1509.43 Q433.551 1510.2 430.774 1511.75 L430.774 1507.03 Q433.598 1505.89 436.051 1505.31 Q438.505 1504.73 440.542 1504.73 Q445.912 1504.73 449.107 1507.42 Q452.301 1510.11 452.301 1514.6 Q452.301 1516.73 451.491 1518.65 Q450.704 1520.54 448.597 1523.14 Q448.019 1523.81 444.917 1527.03 Q441.815 1530.22 436.167 1535.98 Z" fill="#000000" fill-rule="evenodd" fill-opacity="1" /><path clip-path="url(#clip840)" d="M 0 0 M906.734 1509.43 L894.929 1527.88 L906.734 1527.88 L906.734 1509.43 M905.507 1505.36 L911.387 1505.36 L911.387 1527.88 L916.318 1527.88 L916.318 1531.77 L911.387 1531.77 L911.387 1539.92 L906.734 1539.92 L906.734 1531.77 L891.132 1531.77 L891.132 1527.26 L905.507 1505.36 Z" fill="#000000" fill-rule="evenodd" fill-opacity="1" /><path clip-path="url(#clip840)" d="M 0 0 M1366.34 1520.78 Q1363.19 1520.78 1361.34 1522.93 Q1359.51 1525.08 1359.51 1528.83 Q1359.51 1532.56 1361.34 1534.73 Q1363.19 1536.89 1366.34 1536.89 Q1369.49 1536.89 1371.32 1534.73 Q1373.17 1532.56 1373.17 1528.83 Q1373.17 1525.08 1371.32 1522.93 Q1369.49 1520.78 1366.34 1520.78 M1375.62 1506.12 L1375.62 1510.38 Q1373.86 1509.55 1372.06 1509.11 Q1370.28 1508.67 1368.52 1508.67 Q1363.89 1508.67 1361.43 1511.8 Q1359 1514.92 1358.66 1521.24 Q1360.02 1519.23 1362.08 1518.16 Q1364.14 1517.07 1366.62 1517.07 Q1371.83 1517.07 1374.84 1520.24 Q1377.87 1523.39 1377.87 1528.83 Q1377.87 1534.16 1374.72 1537.37 Q1371.57 1540.59 1366.34 1540.59 Q1360.35 1540.59 1357.17 1536.01 Q1354 1531.4 1354 1522.67 Q1354 1514.48 1357.89 1509.62 Q1361.78 1504.73 1368.33 1504.73 Q1370.09 1504.73 1371.87 1505.08 Q1373.68 1505.43 1375.62 1506.12 Z" fill="#000000" fill-rule="evenodd" fill-opacity="1" /><path clip-path="url(#clip840)" d="M 0 0 M1828.15 1523.51 Q1824.81 1523.51 1822.89 1525.29 Q1820.99 1527.07 1820.99 1530.2 Q1820.99 1533.32 1822.89 1535.11 Q1824.81 1536.89 1828.15 1536.89 Q1831.48 1536.89 1833.4 1535.11 Q1835.32 1533.3 1835.32 1530.2 Q1835.32 1527.07 1833.4 1525.29 Q1831.5 1523.51 1828.15 1523.51 M1823.47 1521.52 Q1820.46 1520.78 1818.77 1518.72 Q1817.11 1516.66 1817.11 1513.69 Q1817.11 1509.55 1820.04 1507.14 Q1823.01 1504.73 1828.15 1504.73 Q1833.31 1504.73 1836.25 1507.14 Q1839.19 1509.55 1839.19 1513.69 Q1839.19 1516.66 1837.5 1518.72 Q1835.83 1520.78 1832.85 1521.52 Q1836.23 1522.3 1838.1 1524.6 Q1840 1526.89 1840 1530.2 Q1840 1535.22 1836.92 1537.91 Q1833.86 1540.59 1828.15 1540.59 Q1822.43 1540.59 1819.35 1537.91 Q1816.29 1535.22 1816.29 1530.2 Q1816.29 1526.89 1818.19 1524.6 Q1820.09 1522.3 1823.47 1521.52 M1821.76 1514.13 Q1821.76 1516.82 1823.42 1518.32 Q1825.11 1519.83 1828.15 1519.83 Q1831.16 1519.83 1832.85 1518.32 Q1834.56 1516.82 1834.56 1514.13 Q1834.56 1511.45 1832.85 1509.94 Q1831.16 1508.44 1828.15 1508.44 Q1825.11 1508.44 1823.42 1509.94 Q1821.76 1511.45 1821.76 1514.13 Z" fill="#000000" fill-rule="evenodd" fill-opacity="1" /><path clip-path="url(#clip840)" d="M 0 0 M2267.23 1535.98 L2274.87 1535.98 L2274.87 1509.62 L2266.56 1511.29 L2266.56 1507.03 L2274.83 1505.36 L2279.5 1505.36 L2279.5 1535.98 L2287.14 1535.98 L2287.14 1539.92 L2267.23 1539.92 L2267.23 1535.98 Z" fill="#000000" fill-rule="evenodd" fill-opacity="1" /><path clip-path="url(#clip840)" d="M 0 0 M2302.21 1508.44 Q2298.6 1508.44 2296.77 1512 Q2294.96 1515.55 2294.96 1522.67 Q2294.96 1529.78 2296.77 1533.35 Q2298.6 1536.89 2302.21 1536.89 Q2305.84 1536.89 2307.65 1533.35 Q2309.48 1529.78 2309.48 1522.67 Q2309.48 1515.55 2307.65 1512 Q2305.84 1508.44 2302.21 1508.44 M2302.21 1504.73 Q2308.02 1504.73 2311.07 1509.34 Q2314.15 1513.92 2314.15 1522.67 Q2314.15 1531.4 2311.07 1536.01 Q2308.02 1540.59 2302.21 1540.59 Q2296.4 1540.59 2293.32 1536.01 Q2290.26 1531.4 2290.26 1522.67 Q2290.26 1513.92 2293.32 1509.34 Q2296.4 1504.73 2302.21 1504.73 Z" fill="#000000" fill-rule="evenodd" fill-opacity="1" /><path clip-path="url(#clip840)" d="M 0 0 M76.0939 1431.51 Q72.4828 1431.51 70.6541 1435.08 Q68.8486 1438.62 68.8486 1445.75 Q68.8486 1452.86 70.6541 1456.42 Q72.4828 1459.96 76.0939 1459.96 Q79.7281 1459.96 81.5337 1456.42 Q83.3624 1452.86 83.3624 1445.75 Q83.3624 1438.62 81.5337 1435.08 Q79.7281 1431.51 76.0939 1431.51 M76.0939 1427.81 Q81.9041 1427.81 84.9596 1432.42 Q88.0383 1437 88.0383 1445.75 Q88.0383 1454.48 84.9596 1459.08 Q81.9041 1463.67 76.0939 1463.67 Q70.2838 1463.67 67.2051 1459.08 Q64.1495 1454.48 64.1495 1445.75 Q64.1495 1437 67.2051 1432.42 Q70.2838 1427.81 76.0939 1427.81 Z" fill="#000000" fill-rule="evenodd" fill-opacity="1" /><path clip-path="url(#clip840)" d="M 0 0 M93.1077 1457.12 L97.9919 1457.12 L97.9919 1463 L93.1077 1463 L93.1077 1457.12 Z" fill="#000000" fill-rule="evenodd" fill-opacity="1" /><path clip-path="url(#clip840)" d="M 0 0 M103.108 1428.44 L121.464 1428.44 L121.464 1432.37 L107.39 1432.37 L107.39 1440.84 Q108.409 1440.5 109.427 1440.33 Q110.446 1440.15 111.464 1440.15 Q117.251 1440.15 120.631 1443.32 Q124.01 1446.49 124.01 1451.91 Q124.01 1457.49 120.538 1460.59 Q117.066 1463.67 110.746 1463.67 Q108.571 1463.67 106.302 1463.3 Q104.057 1462.93 101.649 1462.19 L101.649 1457.49 Q103.733 1458.62 105.955 1459.18 Q108.177 1459.73 110.654 1459.73 Q114.659 1459.73 116.996 1457.63 Q119.334 1455.52 119.334 1451.91 Q119.334 1448.3 116.996 1446.19 Q114.659 1444.08 110.654 1444.08 Q108.779 1444.08 106.904 1444.5 Q105.052 1444.92 103.108 1445.8 L103.108 1428.44 Z" fill="#000000" fill-rule="evenodd" fill-opacity="1" /><path clip-path="url(#clip840)" d="M 0 0 M74.9365 1159.44 Q71.3254 1159.44 69.4967 1163 Q67.6912 1166.54 67.6912 1173.67 Q67.6912 1180.78 69.4967 1184.34 Q71.3254 1187.88 74.9365 1187.88 Q78.5707 1187.88 80.3763 1184.34 Q82.205 1180.78 82.205 1173.67 Q82.205 1166.54 80.3763 1163 Q78.5707 1159.44 74.9365 1159.44 M74.9365 1155.73 Q80.7467 1155.73 83.8022 1160.34 Q86.8809 1164.92 86.8809 1173.67 Q86.8809 1182.4 83.8022 1187 Q80.7467 1191.59 74.9365 1191.59 Q69.1264 1191.59 66.0477 1187 Q62.9921 1182.4 62.9921 1173.67 Q62.9921 1164.92 66.0477 1160.34 Q69.1264 1155.73 74.9365 1155.73 Z" fill="#000000" fill-rule="evenodd" fill-opacity="1" /><path clip-path="url(#clip840)" d="M 0 0 M91.9503 1185.04 L96.8345 1185.04 L96.8345 1190.92 L91.9503 1190.92 L91.9503 1185.04 Z" fill="#000000" fill-rule="evenodd" fill-opacity="1" /><path clip-path="url(#clip840)" d="M 0 0 M112.483 1171.77 Q109.334 1171.77 107.483 1173.93 Q105.654 1176.08 105.654 1179.83 Q105.654 1183.56 107.483 1185.73 Q109.334 1187.88 112.483 1187.88 Q115.631 1187.88 117.459 1185.73 Q119.311 1183.56 119.311 1179.83 Q119.311 1176.08 117.459 1173.93 Q115.631 1171.77 112.483 1171.77 M121.765 1157.12 L121.765 1161.38 Q120.006 1160.55 118.2 1160.11 Q116.418 1159.67 114.659 1159.67 Q110.029 1159.67 107.575 1162.79 Q105.145 1165.92 104.797 1172.24 Q106.163 1170.22 108.223 1169.16 Q110.284 1168.07 112.76 1168.07 Q117.969 1168.07 120.978 1171.24 Q124.01 1174.39 124.01 1179.83 Q124.01 1185.15 120.862 1188.37 Q117.714 1191.59 112.483 1191.59 Q106.487 1191.59 103.316 1187 Q100.145 1182.4 100.145 1173.67 Q100.145 1165.48 104.034 1160.62 Q107.922 1155.73 114.473 1155.73 Q116.233 1155.73 118.015 1156.08 Q119.821 1156.43 121.765 1157.12 Z" fill="#000000" fill-rule="evenodd" fill-opacity="1" /><path clip-path="url(#clip840)" d="M 0 0 M76.0013 887.356 Q72.3902 887.356 70.5615 890.921 Q68.756 894.462 68.756 901.592 Q68.756 908.698 70.5615 912.263 Q72.3902 915.805 76.0013 915.805 Q79.6356 915.805 81.4411 912.263 Q83.2698 908.698 83.2698 901.592 Q83.2698 894.462 81.4411 890.921 Q79.6356 887.356 76.0013 887.356 M76.0013 883.652 Q81.8115 883.652 84.867 888.259 Q87.9457 892.842 87.9457 901.592 Q87.9457 910.319 84.867 914.925 Q81.8115 919.508 76.0013 919.508 Q70.1912 919.508 67.1125 914.925 Q64.0569 910.319 64.0569 901.592 Q64.0569 892.842 67.1125 888.259 Q70.1912 883.652 76.0013 883.652 Z" fill="#000000" fill-rule="evenodd" fill-opacity="1" /><path clip-path="url(#clip840)" d="M 0 0 M93.0151 912.958 L97.8993 912.958 L97.8993 918.837 L93.0151 918.837 L93.0151 912.958 Z" fill="#000000" fill-rule="evenodd" fill-opacity="1" /><path clip-path="url(#clip840)" d="M 0 0 M101.788 884.277 L124.01 884.277 L124.01 886.268 L111.464 918.837 L106.58 918.837 L118.385 888.212 L101.788 888.212 L101.788 884.277 Z" fill="#000000" fill-rule="evenodd" fill-opacity="1" /><path clip-path="url(#clip840)" d="M 0 0 M75.1911 615.277 Q71.58 615.277 69.7513 618.841 Q67.9458 622.383 67.9458 629.513 Q67.9458 636.619 69.7513 640.184 Q71.58 643.725 75.1911 643.725 Q78.8254 643.725 80.6309 640.184 Q82.4596 636.619 82.4596 629.513 Q82.4596 622.383 80.6309 618.841 Q78.8254 615.277 75.1911 615.277 M75.1911 611.573 Q81.0013 611.573 84.0568 616.179 Q87.1355 620.763 87.1355 629.513 Q87.1355 638.239 84.0568 642.846 Q81.0013 647.429 75.1911 647.429 Q69.381 647.429 66.3023 642.846 Q63.2468 638.239 63.2468 629.513 Q63.2468 620.763 66.3023 616.179 Q69.381 611.573 75.1911 611.573 Z" fill="#000000" fill-rule="evenodd" fill-opacity="1" /><path clip-path="url(#clip840)" d="M 0 0 M92.2049 640.878 L97.0892 640.878 L97.0892 646.758 L92.2049 646.758 L92.2049 640.878 Z" fill="#000000" fill-rule="evenodd" fill-opacity="1" /><path clip-path="url(#clip840)" d="M 0 0 M112.159 630.346 Q108.825 630.346 106.904 632.128 Q105.006 633.911 105.006 637.036 Q105.006 640.161 106.904 641.943 Q108.825 643.725 112.159 643.725 Q115.492 643.725 117.413 641.943 Q119.334 640.137 119.334 637.036 Q119.334 633.911 117.413 632.128 Q115.515 630.346 112.159 630.346 M107.483 628.355 Q104.473 627.614 102.784 625.554 Q101.117 623.494 101.117 620.531 Q101.117 616.388 104.057 613.98 Q107.02 611.573 112.159 611.573 Q117.321 611.573 120.26 613.98 Q123.2 616.388 123.2 620.531 Q123.2 623.494 121.51 625.554 Q119.844 627.614 116.858 628.355 Q120.237 629.142 122.112 631.434 Q124.01 633.725 124.01 637.036 Q124.01 642.059 120.932 644.744 Q117.876 647.429 112.159 647.429 Q106.441 647.429 103.362 644.744 Q100.307 642.059 100.307 637.036 Q100.307 633.725 102.205 631.434 Q104.103 629.142 107.483 628.355 M105.77 620.971 Q105.77 623.656 107.436 625.161 Q109.126 626.665 112.159 626.665 Q115.168 626.665 116.858 625.161 Q118.571 623.656 118.571 620.971 Q118.571 618.286 116.858 616.781 Q115.168 615.277 112.159 615.277 Q109.126 615.277 107.436 616.781 Q105.77 618.286 105.77 620.971 Z" fill="#000000" fill-rule="evenodd" fill-opacity="1" /><path clip-path="url(#clip840)" d="M 0 0 M75.2837 343.197 Q71.6726 343.197 69.8439 346.762 Q68.0384 350.304 68.0384 357.433 Q68.0384 364.54 69.8439 368.105 Q71.6726 371.646 75.2837 371.646 Q78.918 371.646 80.7235 368.105 Q82.5522 364.54 82.5522 357.433 Q82.5522 350.304 80.7235 346.762 Q78.918 343.197 75.2837 343.197 M75.2837 339.494 Q81.0939 339.494 84.1494 344.1 Q87.2281 348.683 87.2281 357.433 Q87.2281 366.16 84.1494 370.767 Q81.0939 375.35 75.2837 375.35 Q69.4736 375.35 66.3949 370.767 Q63.3393 366.16 63.3393 357.433 Q63.3393 348.683 66.3949 344.1 Q69.4736 339.494 75.2837 339.494 Z" fill="#000000" fill-rule="evenodd" fill-opacity="1" /><path clip-path="url(#clip840)" d="M 0 0 M92.2975 368.799 L97.1818 368.799 L97.1818 374.679 L92.2975 374.679 L92.2975 368.799 Z" fill="#000000" fill-rule="evenodd" fill-opacity="1" /><path clip-path="url(#clip840)" d="M 0 0 M102.39 373.961 L102.39 369.702 Q104.149 370.535 105.955 370.975 Q107.76 371.415 109.497 371.415 Q114.126 371.415 116.557 368.313 Q119.01 365.188 119.358 358.845 Q118.015 360.836 115.955 361.901 Q113.895 362.966 111.395 362.966 Q106.209 362.966 103.177 359.841 Q100.168 356.693 100.168 351.253 Q100.168 345.929 103.316 342.711 Q106.464 339.494 111.696 339.494 Q117.691 339.494 120.839 344.1 Q124.01 348.683 124.01 357.433 Q124.01 365.605 120.121 370.489 Q116.256 375.35 109.705 375.35 Q107.946 375.35 106.14 375.003 Q104.334 374.655 102.39 373.961 M111.696 359.308 Q114.844 359.308 116.672 357.155 Q118.524 355.003 118.524 351.253 Q118.524 347.526 116.672 345.373 Q114.844 343.197 111.696 343.197 Q108.547 343.197 106.696 345.373 Q104.867 347.526 104.867 351.253 Q104.867 355.003 106.696 357.155 Q108.547 359.308 111.696 359.308 Z" fill="#000000" fill-rule="evenodd" fill-opacity="1" /><path clip-path="url(#clip840)" d="M 0 0 M67.1356 98.6641 L74.7745 98.6641 L74.7745 72.2985 L66.4643 73.9651 L66.4643 69.7059 L74.7282 68.0393 L79.4041 68.0393 L79.4041 98.6641 L87.0429 98.6641 L87.0429 102.599 L67.1356 102.599 L67.1356 98.6641 Z" fill="#000000" fill-rule="evenodd" fill-opacity="1" /><path clip-path="url(#clip840)" d="M 0 0 M92.1123 96.7197 L96.9966 96.7197 L96.9966 102.599 L92.1123 102.599 L92.1123 96.7197 Z" fill="#000000" fill-rule="evenodd" fill-opacity="1" /><path clip-path="url(#clip840)" d="M 0 0 M112.066 71.1179 Q108.455 71.1179 106.626 74.6827 Q104.821 78.2244 104.821 85.354 Q104.821 92.4604 106.626 96.0252 Q108.455 99.5669 112.066 99.5669 Q115.7 99.5669 117.506 96.0252 Q119.334 92.4604 119.334 85.354 Q119.334 78.2244 117.506 74.6827 Q115.7 71.1179 112.066 71.1179 M112.066 67.4143 Q117.876 67.4143 120.932 72.0207 Q124.01 76.604 124.01 85.354 Q124.01 94.0808 120.932 98.6872 Q117.876 103.271 112.066 103.271 Q106.256 103.271 103.177 98.6872 Q100.122 94.0808 100.122 85.354 Q100.122 76.604 103.177 72.0207 Q106.256 67.4143 112.066 67.4143 Z" fill="#000000" fill-rule="evenodd" fill-opacity="1" /><polyline clip-path="url(#clip842)" style="stroke:#009af9; stroke-width:4; stroke-opacity:1; fill:none" points="
  210.409,1445.72 441.514,765.517 672.62,425.418 903.725,255.369 1134.83,170.344 1365.94,127.832 1597.04,106.575 1828.15,95.9473 2059.25,90.6333 2290.36,87.9763 
  
  "/>
<path clip-path="url(#clip840)" d="
M1954.67 251.724 L2280.76 251.724 L2280.76 130.764 L1954.67 130.764  Z
  " fill="#ffffff" fill-rule="evenodd" fill-opacity="1"/>
<polyline clip-path="url(#clip840)" style="stroke:#000000; stroke-width:4; stroke-opacity:1; fill:none" points="
  1954.67,251.724 2280.76,251.724 2280.76,130.764 1954.67,130.764 1954.67,251.724 
  "/>
<polyline clip-path="url(#clip840)" style="stroke:#009af9; stroke-width:4; stroke-opacity:1; fill:none" points="
  1978.67,191.244 2122.67,191.244 
  "/>
<path clip-path="url(#clip840)" d="M 0 0 M2174.54 176.626 L2174.54 181.557 Q2172.18 179.358 2169.49 178.27 Q2166.83 177.182 2163.82 177.182 Q2157.9 177.182 2154.75 180.816 Q2151.6 184.427 2151.6 191.279 Q2151.6 198.107 2154.75 201.742 Q2157.9 205.353 2163.82 205.353 Q2166.83 205.353 2169.49 204.265 Q2172.18 203.177 2174.54 200.978 L2174.54 205.862 Q2172.08 207.529 2169.33 208.362 Q2166.6 209.195 2163.54 209.195 Q2155.7 209.195 2151.18 204.404 Q2146.67 199.589 2146.67 191.279 Q2146.67 182.946 2151.18 178.154 Q2155.7 173.339 2163.54 173.339 Q2166.65 173.339 2169.38 174.172 Q2172.13 174.983 2174.54 176.626 Z" fill="#000000" fill-rule="evenodd" fill-opacity="1" /><path clip-path="url(#clip840)" d="M 0 0 M2183.87 177.807 L2183.87 204.682 L2189.52 204.682 Q2196.67 204.682 2199.98 201.441 Q2203.31 198.2 2203.31 191.209 Q2203.31 184.265 2199.98 181.047 Q2196.67 177.807 2189.52 177.807 L2183.87 177.807 M2179.19 173.964 L2188.8 173.964 Q2198.84 173.964 2203.54 178.154 Q2208.24 182.321 2208.24 191.209 Q2208.24 200.145 2203.52 204.334 Q2198.8 208.524 2188.8 208.524 L2179.19 208.524 L2179.19 173.964 Z" fill="#000000" fill-rule="evenodd" fill-opacity="1" /><path clip-path="url(#clip840)" d="M 0 0 M2212.89 173.964 L2232.76 173.964 L2232.76 177.899 L2217.57 177.899 L2217.57 188.084 L2231.27 188.084 L2231.27 192.02 L2217.57 192.02 L2217.57 208.524 L2212.89 208.524 L2212.89 173.964 Z" fill="#000000" fill-rule="evenodd" fill-opacity="1" /></svg>
