<?xml version="1.0" encoding="utf-8"?>
<svg xmlns="http://www.w3.org/2000/svg" xmlns:xlink="http://www.w3.org/1999/xlink" width="900" height="600" viewBox="0 0 3600 2400">
<defs>
  <clipPath id="clip060">
    <rect x="0" y="0" width="3600" height="2400"/>
  </clipPath>
</defs>
<path clip-path="url(#clip060)" d="
M0 2400 L3600 2400 L3600 0 L0 0  Z
  " fill="#ffffff" fill-rule="evenodd" fill-opacity="1"/>
<defs>
  <clipPath id="clip061">
    <rect x="720" y="0" width="2521" height="2400"/>
  </clipPath>
</defs>
<path clip-path="url(#clip060)" d="
M287.792 2278.45 L3552.76 2278.45 L3552.76 47.2441 L287.792 47.2441  Z
  " fill="#ffffff" fill-rule="evenodd" fill-opacity="1"/>
<defs>
  <clipPath id="clip062">
    <rect x="287" y="47" width="3266" height="2232"/>
  </clipPath>
</defs>
<polyline clip-path="url(#clip062)" style="stroke:#000000; stroke-width:2; stroke-opacity:0.1; fill:none" points="
  378.22,2278.45 378.22,47.2441 
  "/>
<polyline clip-path="url(#clip062)" style="stroke:#000000; stroke-width:2; stroke-opacity:0.1; fill:none" points="
  1100.81,2278.45 1100.81,47.2441 
  "/>
<polyline clip-path="url(#clip062)" style="stroke:#000000; stroke-width:2; stroke-opacity:0.1; fill:none" points="
  1822.41,2278.45 1822.41,47.2441 
  "/>
<polyline clip-path="url(#clip062)" style="stroke:#000000; stroke-width:2; stroke-opacity:0.1; fill:none" points="
  2545,2278.45 2545,47.2441 
  "/>
<polyline clip-path="url(#clip062)" style="stroke:#000000; stroke-width:2; stroke-opacity:0.1; fill:none" points="
  3266.61,2278.45 3266.61,47.2441 
  "/>
<polyline clip-path="url(#clip062)" style="stroke:#000000; stroke-width:2; stroke-opacity:0.1; fill:none" points="
  287.792,2215.5 3552.76,2215.5 
  "/>
<polyline clip-path="url(#clip062)" style="stroke:#000000; stroke-width:2; stroke-opacity:0.1; fill:none" points="
  287.792,1606.46 3552.76,1606.46 
  "/>
<polyline clip-path="url(#clip062)" style="stroke:#000000; stroke-width:2; stroke-opacity:0.1; fill:none" points="
  287.792,997.425 3552.76,997.425 
  "/>
<polyline clip-path="url(#clip062)" style="stroke:#000000; stroke-width:2; stroke-opacity:0.1; fill:none" points="
  287.792,388.387 3552.76,388.387 
  "/>
<polyline clip-path="url(#clip060)" style="stroke:#000000; stroke-width:4; stroke-opacity:1; fill:none" points="
  287.792,2278.45 3552.76,2278.45 
  "/>
<polyline clip-path="url(#clip060)" style="stroke:#000000; stroke-width:4; stroke-opacity:1; fill:none" points="
  287.792,2278.45 287.792,47.2441 
  "/>
<polyline clip-path="url(#clip060)" style="stroke:#000000; stroke-width:4; stroke-opacity:1; fill:none" points="
  378.22,2278.45 378.22,2251.67 
  "/>
<polyline clip-path="url(#clip060)" style="stroke:#000000; stroke-width:4; stroke-opacity:1; fill:none" points="
  1100.81,2278.45 1100.81,2251.67 
  "/>
<polyline clip-path="url(#clip060)" style="stroke:#000000; stroke-width:4; stroke-opacity:1; fill:none" points="
  1822.41,2278.45 1822.41,2251.67 
  "/>
<polyline clip-path="url(#clip060)" style="stroke:#000000; stroke-width:4; stroke-opacity:1; fill:none" points="
  2545,2278.45 2545,2251.67 
  "/>
<polyline clip-path="url(#clip060)" style="stroke:#000000; stroke-width:4; stroke-opacity:1; fill:none" points="
  3266.61,2278.45 3266.61,2251.67 
  "/>
<polyline clip-path="url(#clip060)" style="stroke:#000000; stroke-width:4; stroke-opacity:1; fill:none" points="
  287.792,2215.5 326.971,2215.5 
  "/>
<polyline clip-path="url(#clip060)" style="stroke:#000000; stroke-width:4; stroke-opacity:1; fill:none" points="
  287.792,1606.46 326.971,1606.46 
  "/>
<polyline clip-path="url(#clip060)" style="stroke:#000000; stroke-width:4; stroke-opacity:1; fill:none" points="
  287.792,997.425 326.971,997.425 
  "/>
<polyline clip-path="url(#clip060)" style="stroke:#000000; stroke-width:4; stroke-opacity:1; fill:none" points="
  287.792,388.387 326.971,388.387 
  "/>
<path clip-path="url(#clip060)" d="M 0 0 M266.172 2333.98 L282.491 2333.98 L282.491 2337.92 L260.547 2337.92 L260.547 2333.98 Q263.209 2331.23 267.792 2326.6 Q272.398 2321.95 273.579 2320.61 Q275.824 2318.08 276.704 2316.35 Q277.607 2314.59 277.607 2312.9 Q277.607 2310.14 275.662 2308.41 Q273.741 2306.67 270.639 2306.67 Q268.44 2306.67 265.986 2307.43 Q263.556 2308.2 260.778 2309.75 L260.778 2305.03 Q263.602 2303.89 266.056 2303.31 Q268.509 2302.73 270.547 2302.73 Q275.917 2302.73 279.111 2305.42 Q282.306 2308.11 282.306 2312.6 Q282.306 2314.73 281.496 2316.65 Q280.708 2318.54 278.602 2321.14 Q278.023 2321.81 274.921 2325.03 Q271.82 2328.22 266.172 2333.98 Z" fill="#000000" fill-rule="evenodd" fill-opacity="1" /><path clip-path="url(#clip060)" d="M 0 0 M297.56 2306.44 Q293.949 2306.44 292.12 2310 Q290.315 2313.55 290.315 2320.67 Q290.315 2327.78 292.12 2331.35 Q293.949 2334.89 297.56 2334.89 Q301.194 2334.89 303 2331.35 Q304.829 2327.78 304.829 2320.67 Q304.829 2313.55 303 2310 Q301.194 2306.44 297.56 2306.44 M297.56 2302.73 Q303.37 2302.73 306.426 2307.34 Q309.505 2311.92 309.505 2320.67 Q309.505 2329.4 306.426 2334.01 Q303.37 2338.59 297.56 2338.59 Q291.75 2338.59 288.671 2334.01 Q285.616 2329.4 285.616 2320.67 Q285.616 2311.92 288.671 2307.34 Q291.75 2302.73 297.56 2302.73 Z" fill="#000000" fill-rule="evenodd" fill-opacity="1" /><path clip-path="url(#clip060)" d="M 0 0 M315.384 2333.98 L323.023 2333.98 L323.023 2307.62 L314.713 2309.29 L314.713 2305.03 L322.977 2303.36 L327.653 2303.36 L327.653 2333.98 L335.292 2333.98 L335.292 2337.92 L315.384 2337.92 L315.384 2333.98 Z" fill="#000000" fill-rule="evenodd" fill-opacity="1" /><path clip-path="url(#clip060)" d="M 0 0 M344.389 2333.98 L360.708 2333.98 L360.708 2337.92 L338.764 2337.92 L338.764 2333.98 Q341.426 2331.23 346.009 2326.6 Q350.616 2321.95 351.796 2320.61 Q354.041 2318.08 354.921 2316.35 Q355.824 2314.59 355.824 2312.9 Q355.824 2310.14 353.879 2308.41 Q351.958 2306.67 348.856 2306.67 Q346.657 2306.67 344.204 2307.43 Q341.773 2308.2 338.995 2309.75 L338.995 2305.03 Q341.819 2303.89 344.273 2303.31 Q346.727 2302.73 348.764 2302.73 Q354.134 2302.73 357.328 2305.42 Q360.523 2308.11 360.523 2312.6 Q360.523 2314.73 359.713 2316.65 Q358.926 2318.54 356.819 2321.14 Q356.24 2321.81 353.139 2325.03 Q350.037 2328.22 344.389 2333.98 Z" fill="#000000" fill-rule="evenodd" fill-opacity="1" /><path clip-path="url(#clip060)" d="M 0 0 M363.023 2323.04 L375.5 2323.04 L375.5 2326.83 L363.023 2326.83 L363.023 2323.04 Z" fill="#000000" fill-rule="evenodd" fill-opacity="1" /><path clip-path="url(#clip060)" d="M 0 0 M390.569 2306.44 Q386.958 2306.44 385.129 2310 Q383.324 2313.55 383.324 2320.67 Q383.324 2327.78 385.129 2331.35 Q386.958 2334.89 390.569 2334.89 Q394.203 2334.89 396.009 2331.35 Q397.837 2327.78 397.837 2320.67 Q397.837 2313.55 396.009 2310 Q394.203 2306.44 390.569 2306.44 M390.569 2302.73 Q396.379 2302.73 399.435 2307.34 Q402.513 2311.92 402.513 2320.67 Q402.513 2329.4 399.435 2334.01 Q396.379 2338.59 390.569 2338.59 Q384.759 2338.59 381.68 2334.01 Q378.625 2329.4 378.625 2320.67 Q378.625 2311.92 381.68 2307.34 Q384.759 2302.73 390.569 2302.73 Z" fill="#000000" fill-rule="evenodd" fill-opacity="1" /><path clip-path="url(#clip060)" d="M 0 0 M408.393 2333.98 L416.032 2333.98 L416.032 2307.62 L407.722 2309.29 L407.722 2305.03 L415.986 2303.36 L420.661 2303.36 L420.661 2333.98 L428.3 2333.98 L428.3 2337.92 L408.393 2337.92 L408.393 2333.98 Z" fill="#000000" fill-rule="evenodd" fill-opacity="1" /><path clip-path="url(#clip060)" d="M 0 0 M430.615 2323.04 L443.092 2323.04 L443.092 2326.83 L430.615 2326.83 L430.615 2323.04 Z" fill="#000000" fill-rule="evenodd" fill-opacity="1" /><path clip-path="url(#clip060)" d="M 0 0 M458.161 2306.44 Q454.55 2306.44 452.721 2310 Q450.916 2313.55 450.916 2320.67 Q450.916 2327.78 452.721 2331.35 Q454.55 2334.89 458.161 2334.89 Q461.795 2334.89 463.601 2331.35 Q465.43 2327.78 465.43 2320.67 Q465.43 2313.55 463.601 2310 Q461.795 2306.44 458.161 2306.44 M458.161 2302.73 Q463.971 2302.73 467.027 2307.34 Q470.106 2311.92 470.106 2320.67 Q470.106 2329.4 467.027 2334.01 Q463.971 2338.59 458.161 2338.59 Q452.351 2338.59 449.272 2334.01 Q446.217 2329.4 446.217 2320.67 Q446.217 2311.92 449.272 2307.34 Q452.351 2302.73 458.161 2302.73 Z" fill="#000000" fill-rule="evenodd" fill-opacity="1" /><path clip-path="url(#clip060)" d="M 0 0 M475.985 2333.98 L483.624 2333.98 L483.624 2307.62 L475.314 2309.29 L475.314 2305.03 L483.578 2303.36 L488.254 2303.36 L488.254 2333.98 L495.893 2333.98 L495.893 2337.92 L475.985 2337.92 L475.985 2333.98 Z" fill="#000000" fill-rule="evenodd" fill-opacity="1" /><path clip-path="url(#clip060)" d="M 0 0 M987.721 2333.98 L1004.04 2333.98 L1004.04 2337.92 L982.096 2337.92 L982.096 2333.98 Q984.758 2331.23 989.341 2326.6 Q993.948 2321.95 995.128 2320.61 Q997.373 2318.08 998.253 2316.35 Q999.156 2314.59 999.156 2312.9 Q999.156 2310.14 997.211 2308.41 Q995.29 2306.67 992.188 2306.67 Q989.989 2306.67 987.536 2307.43 Q985.105 2308.2 982.327 2309.75 L982.327 2305.03 Q985.151 2303.89 987.605 2303.31 Q990.059 2302.73 992.096 2302.73 Q997.466 2302.73 1000.66 2305.42 Q1003.85 2308.11 1003.85 2312.6 Q1003.85 2314.73 1003.04 2316.65 Q1002.26 2318.54 1000.15 2321.14 Q999.573 2321.81 996.471 2325.03 Q993.369 2328.22 987.721 2333.98 Z" fill="#000000" fill-rule="evenodd" fill-opacity="1" /><path clip-path="url(#clip060)" d="M 0 0 M1019.11 2306.44 Q1015.5 2306.44 1013.67 2310 Q1011.86 2313.55 1011.86 2320.67 Q1011.86 2327.78 1013.67 2331.35 Q1015.5 2334.89 1019.11 2334.89 Q1022.74 2334.89 1024.55 2331.35 Q1026.38 2327.78 1026.38 2320.67 Q1026.38 2313.55 1024.55 2310 Q1022.74 2306.44 1019.11 2306.44 M1019.11 2302.73 Q1024.92 2302.73 1027.98 2307.34 Q1031.05 2311.92 1031.05 2320.67 Q1031.05 2329.4 1027.98 2334.01 Q1024.92 2338.59 1019.11 2338.59 Q1013.3 2338.59 1010.22 2334.01 Q1007.17 2329.4 1007.17 2320.67 Q1007.17 2311.92 1010.22 2307.34 Q1013.3 2302.73 1019.11 2302.73 Z" fill="#000000" fill-rule="evenodd" fill-opacity="1" /><path clip-path="url(#clip060)" d="M 0 0 M1036.93 2333.98 L1044.57 2333.98 L1044.57 2307.62 L1036.26 2309.29 L1036.26 2305.03 L1044.53 2303.36 L1049.2 2303.36 L1049.2 2333.98 L1056.84 2333.98 L1056.84 2337.92 L1036.93 2337.92 L1036.93 2333.98 Z" fill="#000000" fill-rule="evenodd" fill-opacity="1" /><path clip-path="url(#clip060)" d="M 0 0 M1074.76 2307.43 L1062.95 2325.88 L1074.76 2325.88 L1074.76 2307.43 M1073.53 2303.36 L1079.41 2303.36 L1079.41 2325.88 L1084.34 2325.88 L1084.34 2329.77 L1079.41 2329.77 L1079.41 2337.92 L1074.76 2337.92 L1074.76 2329.77 L1059.16 2329.77 L1059.16 2325.26 L1073.53 2303.36 Z" fill="#000000" fill-rule="evenodd" fill-opacity="1" /><path clip-path="url(#clip060)" d="M 0 0 M1086.66 2323.04 L1099.13 2323.04 L1099.13 2326.83 L1086.66 2326.83 L1086.66 2323.04 Z" fill="#000000" fill-rule="evenodd" fill-opacity="1" /><path clip-path="url(#clip060)" d="M 0 0 M1114.2 2306.44 Q1110.59 2306.44 1108.76 2310 Q1106.96 2313.55 1106.96 2320.67 Q1106.96 2327.78 1108.76 2331.35 Q1110.59 2334.89 1114.2 2334.89 Q1117.84 2334.89 1119.64 2331.35 Q1121.47 2327.78 1121.47 2320.67 Q1121.47 2313.55 1119.64 2310 Q1117.84 2306.44 1114.2 2306.44 M1114.2 2302.73 Q1120.01 2302.73 1123.07 2307.34 Q1126.15 2311.92 1126.15 2320.67 Q1126.15 2329.4 1123.07 2334.01 Q1120.01 2338.59 1114.2 2338.59 Q1108.39 2338.59 1105.31 2334.01 Q1102.26 2329.4 1102.26 2320.67 Q1102.26 2311.92 1105.31 2307.34 Q1108.39 2302.73 1114.2 2302.73 Z" fill="#000000" fill-rule="evenodd" fill-opacity="1" /><path clip-path="url(#clip060)" d="M 0 0 M1132.03 2333.98 L1139.66 2333.98 L1139.66 2307.62 L1131.35 2309.29 L1131.35 2305.03 L1139.62 2303.36 L1144.29 2303.36 L1144.29 2333.98 L1151.93 2333.98 L1151.93 2337.92 L1132.03 2337.92 L1132.03 2333.98 Z" fill="#000000" fill-rule="evenodd" fill-opacity="1" /><path clip-path="url(#clip060)" d="M 0 0 M1154.25 2323.04 L1166.72 2323.04 L1166.72 2326.83 L1154.25 2326.83 L1154.25 2323.04 Z" fill="#000000" fill-rule="evenodd" fill-opacity="1" /><path clip-path="url(#clip060)" d="M 0 0 M1181.79 2306.44 Q1178.18 2306.44 1176.35 2310 Q1174.55 2313.55 1174.55 2320.67 Q1174.55 2327.78 1176.35 2331.35 Q1178.18 2334.89 1181.79 2334.89 Q1185.43 2334.89 1187.23 2331.35 Q1189.06 2327.78 1189.06 2320.67 Q1189.06 2313.55 1187.23 2310 Q1185.43 2306.44 1181.79 2306.44 M1181.79 2302.73 Q1187.6 2302.73 1190.66 2307.34 Q1193.74 2311.92 1193.74 2320.67 Q1193.74 2329.4 1190.66 2334.01 Q1187.6 2338.59 1181.79 2338.59 Q1175.98 2338.59 1172.9 2334.01 Q1169.85 2329.4 1169.85 2320.67 Q1169.85 2311.92 1172.9 2307.34 Q1175.98 2302.73 1181.79 2302.73 Z" fill="#000000" fill-rule="evenodd" fill-opacity="1" /><path clip-path="url(#clip060)" d="M 0 0 M1199.62 2333.98 L1207.26 2333.98 L1207.26 2307.62 L1198.95 2309.29 L1198.95 2305.03 L1207.21 2303.36 L1211.89 2303.36 L1211.89 2333.98 L1219.53 2333.98 L1219.53 2337.92 L1199.62 2337.92 L1199.62 2333.98 Z" fill="#000000" fill-rule="evenodd" fill-opacity="1" /><path clip-path="url(#clip060)" d="M 0 0 M1709.49 2333.98 L1725.8 2333.98 L1725.8 2337.92 L1703.86 2337.92 L1703.86 2333.98 Q1706.52 2331.23 1711.11 2326.6 Q1715.71 2321.95 1716.89 2320.61 Q1719.14 2318.08 1720.02 2316.35 Q1720.92 2314.59 1720.92 2312.9 Q1720.92 2310.14 1718.98 2308.41 Q1717.05 2306.67 1713.95 2306.67 Q1711.75 2306.67 1709.3 2307.43 Q1706.87 2308.2 1704.09 2309.75 L1704.09 2305.03 Q1706.92 2303.89 1709.37 2303.31 Q1711.82 2302.73 1713.86 2302.73 Q1719.23 2302.73 1722.42 2305.42 Q1725.62 2308.11 1725.62 2312.6 Q1725.62 2314.73 1724.81 2316.65 Q1724.02 2318.54 1721.92 2321.14 Q1721.34 2321.81 1718.24 2325.03 Q1715.13 2328.22 1709.49 2333.98 Z" fill="#000000" fill-rule="evenodd" fill-opacity="1" /><path clip-path="url(#clip060)" d="M 0 0 M1740.87 2306.44 Q1737.26 2306.44 1735.43 2310 Q1733.63 2313.55 1733.63 2320.67 Q1733.63 2327.78 1735.43 2331.35 Q1737.26 2334.89 1740.87 2334.89 Q1744.51 2334.89 1746.31 2331.35 Q1748.14 2327.78 1748.14 2320.67 Q1748.14 2313.55 1746.31 2310 Q1744.51 2306.44 1740.87 2306.44 M1740.87 2302.73 Q1746.68 2302.73 1749.74 2307.34 Q1752.82 2311.92 1752.82 2320.67 Q1752.82 2329.4 1749.74 2334.01 Q1746.68 2338.59 1740.87 2338.59 Q1735.06 2338.59 1731.99 2334.01 Q1728.93 2329.4 1728.93 2320.67 Q1728.93 2311.92 1731.99 2307.34 Q1735.06 2302.73 1740.87 2302.73 Z" fill="#000000" fill-rule="evenodd" fill-opacity="1" /><path clip-path="url(#clip060)" d="M 0 0 M1758.7 2333.98 L1766.34 2333.98 L1766.34 2307.62 L1758.03 2309.29 L1758.03 2305.03 L1766.29 2303.36 L1770.97 2303.36 L1770.97 2333.98 L1778.61 2333.98 L1778.61 2337.92 L1758.7 2337.92 L1758.7 2333.98 Z" fill="#000000" fill-rule="evenodd" fill-opacity="1" /><path clip-path="url(#clip060)" d="M 0 0 M1794.25 2318.78 Q1791.11 2318.78 1789.25 2320.93 Q1787.42 2323.08 1787.42 2326.83 Q1787.42 2330.56 1789.25 2332.73 Q1791.11 2334.89 1794.25 2334.89 Q1797.4 2334.89 1799.23 2332.73 Q1801.08 2330.56 1801.08 2326.83 Q1801.08 2323.08 1799.23 2320.93 Q1797.4 2318.78 1794.25 2318.78 M1803.54 2304.12 L1803.54 2308.38 Q1801.78 2307.55 1799.97 2307.11 Q1798.19 2306.67 1796.43 2306.67 Q1791.8 2306.67 1789.35 2309.8 Q1786.92 2312.92 1786.57 2319.24 Q1787.93 2317.23 1789.99 2316.16 Q1792.05 2315.07 1794.53 2315.07 Q1799.74 2315.07 1802.75 2318.24 Q1805.78 2321.39 1805.78 2326.83 Q1805.78 2332.16 1802.63 2335.37 Q1799.48 2338.59 1794.25 2338.59 Q1788.26 2338.59 1785.09 2334.01 Q1781.92 2329.4 1781.92 2320.67 Q1781.92 2312.48 1785.8 2307.62 Q1789.69 2302.73 1796.24 2302.73 Q1798 2302.73 1799.79 2303.08 Q1801.59 2303.43 1803.54 2304.12 Z" fill="#000000" fill-rule="evenodd" fill-opacity="1" /><path clip-path="url(#clip060)" d="M 0 0 M1808.1 2323.04 L1820.57 2323.04 L1820.57 2326.83 L1808.1 2326.83 L1808.1 2323.04 Z" fill="#000000" fill-rule="evenodd" fill-opacity="1" /><path clip-path="url(#clip060)" d="M 0 0 M1835.64 2306.44 Q1832.03 2306.44 1830.2 2310 Q1828.4 2313.55 1828.4 2320.67 Q1828.4 2327.78 1830.2 2331.35 Q1832.03 2334.89 1835.64 2334.89 Q1839.28 2334.89 1841.08 2331.35 Q1842.91 2327.78 1842.91 2320.67 Q1842.91 2313.55 1841.08 2310 Q1839.28 2306.44 1835.64 2306.44 M1835.64 2302.73 Q1841.45 2302.73 1844.51 2307.34 Q1847.59 2311.92 1847.59 2320.67 Q1847.59 2329.4 1844.51 2334.01 Q1841.45 2338.59 1835.64 2338.59 Q1829.83 2338.59 1826.75 2334.01 Q1823.7 2329.4 1823.7 2320.67 Q1823.7 2311.92 1826.75 2307.34 Q1829.83 2302.73 1835.64 2302.73 Z" fill="#000000" fill-rule="evenodd" fill-opacity="1" /><path clip-path="url(#clip060)" d="M 0 0 M1853.47 2333.98 L1861.1 2333.98 L1861.1 2307.62 L1852.79 2309.29 L1852.79 2305.03 L1861.06 2303.36 L1865.73 2303.36 L1865.73 2333.98 L1873.37 2333.98 L1873.37 2337.92 L1853.47 2337.92 L1853.47 2333.98 Z" fill="#000000" fill-rule="evenodd" fill-opacity="1" /><path clip-path="url(#clip060)" d="M 0 0 M1875.69 2323.04 L1888.16 2323.04 L1888.16 2326.83 L1875.69 2326.83 L1875.69 2323.04 Z" fill="#000000" fill-rule="evenodd" fill-opacity="1" /><path clip-path="url(#clip060)" d="M 0 0 M1903.23 2306.44 Q1899.62 2306.44 1897.79 2310 Q1895.99 2313.55 1895.99 2320.67 Q1895.99 2327.78 1897.79 2331.35 Q1899.62 2334.89 1903.23 2334.89 Q1906.87 2334.89 1908.67 2331.35 Q1910.5 2327.78 1910.5 2320.67 Q1910.5 2313.55 1908.67 2310 Q1906.87 2306.44 1903.23 2306.44 M1903.23 2302.73 Q1909.04 2302.73 1912.1 2307.34 Q1915.18 2311.92 1915.18 2320.67 Q1915.18 2329.4 1912.1 2334.01 Q1909.04 2338.59 1903.23 2338.59 Q1897.42 2338.59 1894.35 2334.01 Q1891.29 2329.4 1891.29 2320.67 Q1891.29 2311.92 1894.35 2307.34 Q1897.42 2302.73 1903.23 2302.73 Z" fill="#000000" fill-rule="evenodd" fill-opacity="1" /><path clip-path="url(#clip060)" d="M 0 0 M1921.06 2333.98 L1928.7 2333.98 L1928.7 2307.62 L1920.39 2309.29 L1920.39 2305.03 L1928.65 2303.36 L1933.33 2303.36 L1933.33 2333.98 L1940.97 2333.98 L1940.97 2337.92 L1921.06 2337.92 L1921.06 2333.98 Z" fill="#000000" fill-rule="evenodd" fill-opacity="1" /><path clip-path="url(#clip060)" d="M 0 0 M2432.2 2333.98 L2448.52 2333.98 L2448.52 2337.92 L2426.58 2337.92 L2426.58 2333.98 Q2429.24 2331.23 2433.82 2326.6 Q2438.43 2321.95 2439.61 2320.61 Q2441.86 2318.08 2442.74 2316.35 Q2443.64 2314.59 2443.64 2312.9 Q2443.64 2310.14 2441.69 2308.41 Q2439.77 2306.67 2436.67 2306.67 Q2434.47 2306.67 2432.02 2307.43 Q2429.59 2308.2 2426.81 2309.75 L2426.81 2305.03 Q2429.63 2303.89 2432.09 2303.31 Q2434.54 2302.73 2436.58 2302.73 Q2441.95 2302.73 2445.14 2305.42 Q2448.34 2308.11 2448.34 2312.6 Q2448.34 2314.73 2447.53 2316.65 Q2446.74 2318.54 2444.63 2321.14 Q2444.06 2321.81 2440.95 2325.03 Q2437.85 2328.22 2432.2 2333.98 Z" fill="#000000" fill-rule="evenodd" fill-opacity="1" /><path clip-path="url(#clip060)" d="M 0 0 M2463.59 2306.44 Q2459.98 2306.44 2458.15 2310 Q2456.35 2313.55 2456.35 2320.67 Q2456.35 2327.78 2458.15 2331.35 Q2459.98 2334.89 2463.59 2334.89 Q2467.23 2334.89 2469.03 2331.35 Q2470.86 2327.78 2470.86 2320.67 Q2470.86 2313.55 2469.03 2310 Q2467.23 2306.44 2463.59 2306.44 M2463.59 2302.73 Q2469.4 2302.73 2472.46 2307.34 Q2475.54 2311.92 2475.54 2320.67 Q2475.54 2329.4 2472.46 2334.01 Q2469.4 2338.59 2463.59 2338.59 Q2457.78 2338.59 2454.7 2334.01 Q2451.65 2329.4 2451.65 2320.67 Q2451.65 2311.92 2454.7 2307.34 Q2457.78 2302.73 2463.59 2302.73 Z" fill="#000000" fill-rule="evenodd" fill-opacity="1" /><path clip-path="url(#clip060)" d="M 0 0 M2481.42 2333.98 L2489.05 2333.98 L2489.05 2307.62 L2480.74 2309.29 L2480.74 2305.03 L2489.01 2303.36 L2493.68 2303.36 L2493.68 2333.98 L2501.32 2333.98 L2501.32 2337.92 L2481.42 2337.92 L2481.42 2333.98 Z" fill="#000000" fill-rule="evenodd" fill-opacity="1" /><path clip-path="url(#clip060)" d="M 0 0 M2516.39 2321.51 Q2513.06 2321.51 2511.14 2323.29 Q2509.24 2325.07 2509.24 2328.2 Q2509.24 2331.32 2511.14 2333.11 Q2513.06 2334.89 2516.39 2334.89 Q2519.73 2334.89 2521.65 2333.11 Q2523.57 2331.3 2523.57 2328.2 Q2523.57 2325.07 2521.65 2323.29 Q2519.75 2321.51 2516.39 2321.51 M2511.72 2319.52 Q2508.71 2318.78 2507.02 2316.72 Q2505.35 2314.66 2505.35 2311.69 Q2505.35 2307.55 2508.29 2305.14 Q2511.25 2302.73 2516.39 2302.73 Q2521.55 2302.73 2524.49 2305.14 Q2527.43 2307.55 2527.43 2311.69 Q2527.43 2314.66 2525.74 2316.72 Q2524.08 2318.78 2521.09 2319.52 Q2524.47 2320.3 2526.35 2322.6 Q2528.24 2324.89 2528.24 2328.2 Q2528.24 2333.22 2525.17 2335.91 Q2522.11 2338.59 2516.39 2338.59 Q2510.68 2338.59 2507.6 2335.91 Q2504.54 2333.22 2504.54 2328.2 Q2504.54 2324.89 2506.44 2322.6 Q2508.34 2320.3 2511.72 2319.52 M2510 2312.13 Q2510 2314.82 2511.67 2316.32 Q2513.36 2317.83 2516.39 2317.83 Q2519.4 2317.83 2521.09 2316.32 Q2522.8 2314.82 2522.8 2312.13 Q2522.8 2309.45 2521.09 2307.94 Q2519.4 2306.44 2516.39 2306.44 Q2513.36 2306.44 2511.67 2307.94 Q2510 2309.45 2510 2312.13 Z" fill="#000000" fill-rule="evenodd" fill-opacity="1" /><path clip-path="url(#clip060)" d="M 0 0 M2530.56 2323.04 L2543.04 2323.04 L2543.04 2326.83 L2530.56 2326.83 L2530.56 2323.04 Z" fill="#000000" fill-rule="evenodd" fill-opacity="1" /><path clip-path="url(#clip060)" d="M 0 0 M2558.11 2306.44 Q2554.49 2306.44 2552.67 2310 Q2550.86 2313.55 2550.86 2320.67 Q2550.86 2327.78 2552.67 2331.35 Q2554.49 2334.89 2558.11 2334.89 Q2561.74 2334.89 2563.55 2331.35 Q2565.37 2327.78 2565.37 2320.67 Q2565.37 2313.55 2563.55 2310 Q2561.74 2306.44 2558.11 2306.44 M2558.11 2302.73 Q2563.92 2302.73 2566.97 2307.34 Q2570.05 2311.92 2570.05 2320.67 Q2570.05 2329.4 2566.97 2334.01 Q2563.92 2338.59 2558.11 2338.59 Q2552.3 2338.59 2549.22 2334.01 Q2546.16 2329.4 2546.16 2320.67 Q2546.16 2311.92 2549.22 2307.34 Q2552.3 2302.73 2558.11 2302.73 Z" fill="#000000" fill-rule="evenodd" fill-opacity="1" /><path clip-path="url(#clip060)" d="M 0 0 M2575.93 2333.98 L2583.57 2333.98 L2583.57 2307.62 L2575.26 2309.29 L2575.26 2305.03 L2583.52 2303.36 L2588.2 2303.36 L2588.2 2333.98 L2595.84 2333.98 L2595.84 2337.92 L2575.93 2337.92 L2575.93 2333.98 Z" fill="#000000" fill-rule="evenodd" fill-opacity="1" /><path clip-path="url(#clip060)" d="M 0 0 M2598.15 2323.04 L2610.63 2323.04 L2610.63 2326.83 L2598.15 2326.83 L2598.15 2323.04 Z" fill="#000000" fill-rule="evenodd" fill-opacity="1" /><path clip-path="url(#clip060)" d="M 0 0 M2625.7 2306.44 Q2622.09 2306.44 2620.26 2310 Q2618.45 2313.55 2618.45 2320.67 Q2618.45 2327.78 2620.26 2331.35 Q2622.09 2334.89 2625.7 2334.89 Q2629.33 2334.89 2631.14 2331.35 Q2632.97 2327.78 2632.97 2320.67 Q2632.97 2313.55 2631.14 2310 Q2629.33 2306.44 2625.7 2306.44 M2625.7 2302.73 Q2631.51 2302.73 2634.56 2307.34 Q2637.64 2311.92 2637.64 2320.67 Q2637.64 2329.4 2634.56 2334.01 Q2631.51 2338.59 2625.7 2338.59 Q2619.89 2338.59 2616.81 2334.01 Q2613.75 2329.4 2613.75 2320.67 Q2613.75 2311.92 2616.81 2307.34 Q2619.89 2302.73 2625.7 2302.73 Z" fill="#000000" fill-rule="evenodd" fill-opacity="1" /><path clip-path="url(#clip060)" d="M 0 0 M2643.52 2333.98 L2651.16 2333.98 L2651.16 2307.62 L2642.85 2309.29 L2642.85 2305.03 L2651.11 2303.36 L2655.79 2303.36 L2655.79 2333.98 L2663.43 2333.98 L2663.43 2337.92 L2643.52 2337.92 L2643.52 2333.98 Z" fill="#000000" fill-rule="evenodd" fill-opacity="1" /><path clip-path="url(#clip060)" d="M 0 0 M3153.94 2333.98 L3170.26 2333.98 L3170.26 2337.92 L3148.32 2337.92 L3148.32 2333.98 Q3150.98 2331.23 3155.56 2326.6 Q3160.17 2321.95 3161.35 2320.61 Q3163.6 2318.08 3164.48 2316.35 Q3165.38 2314.59 3165.38 2312.9 Q3165.38 2310.14 3163.44 2308.41 Q3161.51 2306.67 3158.41 2306.67 Q3156.21 2306.67 3153.76 2307.43 Q3151.33 2308.2 3148.55 2309.75 L3148.55 2305.03 Q3151.38 2303.89 3153.83 2303.31 Q3156.28 2302.73 3158.32 2302.73 Q3163.69 2302.73 3166.88 2305.42 Q3170.08 2308.11 3170.08 2312.6 Q3170.08 2314.73 3169.27 2316.65 Q3168.48 2318.54 3166.38 2321.14 Q3165.8 2321.81 3162.69 2325.03 Q3159.59 2328.22 3153.94 2333.98 Z" fill="#000000" fill-rule="evenodd" fill-opacity="1" /><path clip-path="url(#clip060)" d="M 0 0 M3185.33 2306.44 Q3181.72 2306.44 3179.89 2310 Q3178.09 2313.55 3178.09 2320.67 Q3178.09 2327.78 3179.89 2331.35 Q3181.72 2334.89 3185.33 2334.89 Q3188.97 2334.89 3190.77 2331.35 Q3192.6 2327.78 3192.6 2320.67 Q3192.6 2313.55 3190.77 2310 Q3188.97 2306.44 3185.33 2306.44 M3185.33 2302.73 Q3191.14 2302.73 3194.2 2307.34 Q3197.28 2311.92 3197.28 2320.67 Q3197.28 2329.4 3194.2 2334.01 Q3191.14 2338.59 3185.33 2338.59 Q3179.52 2338.59 3176.44 2334.01 Q3173.39 2329.4 3173.39 2320.67 Q3173.39 2311.92 3176.44 2307.34 Q3179.52 2302.73 3185.33 2302.73 Z" fill="#000000" fill-rule="evenodd" fill-opacity="1" /><path clip-path="url(#clip060)" d="M 0 0 M3206.37 2333.98 L3222.69 2333.98 L3222.69 2337.92 L3200.75 2337.92 L3200.75 2333.98 Q3203.41 2331.23 3208 2326.6 Q3212.6 2321.95 3213.78 2320.61 Q3216.03 2318.08 3216.91 2316.35 Q3217.81 2314.59 3217.81 2312.9 Q3217.81 2310.14 3215.87 2308.41 Q3213.94 2306.67 3210.84 2306.67 Q3208.64 2306.67 3206.19 2307.43 Q3203.76 2308.2 3200.98 2309.75 L3200.98 2305.03 Q3203.81 2303.89 3206.26 2303.31 Q3208.71 2302.73 3210.75 2302.73 Q3216.12 2302.73 3219.31 2305.42 Q3222.51 2308.11 3222.51 2312.6 Q3222.51 2314.73 3221.7 2316.65 Q3220.91 2318.54 3218.81 2321.14 Q3218.23 2321.81 3215.12 2325.03 Q3212.02 2328.22 3206.37 2333.98 Z" fill="#000000" fill-rule="evenodd" fill-opacity="1" /><path clip-path="url(#clip060)" d="M 0 0 M3237.76 2306.44 Q3234.15 2306.44 3232.32 2310 Q3230.52 2313.55 3230.52 2320.67 Q3230.52 2327.78 3232.32 2331.35 Q3234.15 2334.89 3237.76 2334.89 Q3241.4 2334.89 3243.2 2331.35 Q3245.03 2327.78 3245.03 2320.67 Q3245.03 2313.55 3243.2 2310 Q3241.4 2306.44 3237.76 2306.44 M3237.76 2302.73 Q3243.57 2302.73 3246.63 2307.34 Q3249.71 2311.92 3249.71 2320.67 Q3249.71 2329.4 3246.63 2334.01 Q3243.57 2338.59 3237.76 2338.59 Q3231.95 2338.59 3228.87 2334.01 Q3225.82 2329.4 3225.82 2320.67 Q3225.82 2311.92 3228.87 2307.34 Q3231.95 2302.73 3237.76 2302.73 Z" fill="#000000" fill-rule="evenodd" fill-opacity="1" /><path clip-path="url(#clip060)" d="M 0 0 M3252.02 2323.04 L3264.5 2323.04 L3264.5 2326.83 L3252.02 2326.83 L3252.02 2323.04 Z" fill="#000000" fill-rule="evenodd" fill-opacity="1" /><path clip-path="url(#clip060)" d="M 0 0 M3279.57 2306.44 Q3275.96 2306.44 3274.13 2310 Q3272.32 2313.55 3272.32 2320.67 Q3272.32 2327.78 3274.13 2331.35 Q3275.96 2334.89 3279.57 2334.89 Q3283.2 2334.89 3285.01 2331.35 Q3286.84 2327.78 3286.84 2320.67 Q3286.84 2313.55 3285.01 2310 Q3283.2 2306.44 3279.57 2306.44 M3279.57 2302.73 Q3285.38 2302.73 3288.43 2307.34 Q3291.51 2311.92 3291.51 2320.67 Q3291.51 2329.4 3288.43 2334.01 Q3285.38 2338.59 3279.57 2338.59 Q3273.76 2338.59 3270.68 2334.01 Q3267.62 2329.4 3267.62 2320.67 Q3267.62 2311.92 3270.68 2307.34 Q3273.76 2302.73 3279.57 2302.73 Z" fill="#000000" fill-rule="evenodd" fill-opacity="1" /><path clip-path="url(#clip060)" d="M 0 0 M3297.39 2333.98 L3305.03 2333.98 L3305.03 2307.62 L3296.72 2309.29 L3296.72 2305.03 L3304.99 2303.36 L3309.66 2303.36 L3309.66 2333.98 L3317.3 2333.98 L3317.3 2337.92 L3297.39 2337.92 L3297.39 2333.98 Z" fill="#000000" fill-rule="evenodd" fill-opacity="1" /><path clip-path="url(#clip060)" d="M 0 0 M3319.61 2323.04 L3332.09 2323.04 L3332.09 2326.83 L3319.61 2326.83 L3319.61 2323.04 Z" fill="#000000" fill-rule="evenodd" fill-opacity="1" /><path clip-path="url(#clip060)" d="M 0 0 M3347.16 2306.44 Q3343.55 2306.44 3341.72 2310 Q3339.92 2313.55 3339.92 2320.67 Q3339.92 2327.78 3341.72 2331.35 Q3343.55 2334.89 3347.16 2334.89 Q3350.8 2334.89 3352.6 2331.35 Q3354.43 2327.78 3354.43 2320.67 Q3354.43 2313.55 3352.6 2310 Q3350.8 2306.44 3347.16 2306.44 M3347.16 2302.73 Q3352.97 2302.73 3356.03 2307.34 Q3359.11 2311.92 3359.11 2320.67 Q3359.11 2329.4 3356.03 2334.01 Q3352.97 2338.59 3347.16 2338.59 Q3341.35 2338.59 3338.27 2334.01 Q3335.22 2329.4 3335.22 2320.67 Q3335.22 2311.92 3338.27 2307.34 Q3341.35 2302.73 3347.16 2302.73 Z" fill="#000000" fill-rule="evenodd" fill-opacity="1" /><path clip-path="url(#clip060)" d="M 0 0 M3364.99 2333.98 L3372.62 2333.98 L3372.62 2307.62 L3364.31 2309.29 L3364.31 2305.03 L3372.58 2303.36 L3377.25 2303.36 L3377.25 2333.98 L3384.89 2333.98 L3384.89 2337.92 L3364.99 2337.92 L3364.99 2333.98 Z" fill="#000000" fill-rule="evenodd" fill-opacity="1" /><path clip-path="url(#clip060)" d="M 0 0 M239.848 2201.3 Q236.236 2201.3 234.408 2204.87 Q232.602 2208.41 232.602 2215.54 Q232.602 2222.64 234.408 2226.21 Q236.236 2229.75 239.848 2229.75 Q243.482 2229.75 245.287 2226.21 Q247.116 2222.64 247.116 2215.54 Q247.116 2208.41 245.287 2204.87 Q243.482 2201.3 239.848 2201.3 M239.848 2197.6 Q245.658 2197.6 248.713 2202.2 Q251.792 2206.79 251.792 2215.54 Q251.792 2224.26 248.713 2228.87 Q245.658 2233.45 239.848 2233.45 Q234.037 2233.45 230.959 2228.87 Q227.903 2224.26 227.903 2215.54 Q227.903 2206.79 230.959 2202.2 Q234.037 2197.6 239.848 2197.6 Z" fill="#000000" fill-rule="evenodd" fill-opacity="1" /><path clip-path="url(#clip060)" d="M 0 0 M127.675 1626.26 L135.314 1626.26 L135.314 1599.89 L127.004 1601.56 L127.004 1597.3 L135.268 1595.63 L139.944 1595.63 L139.944 1626.26 L147.582 1626.26 L147.582 1630.19 L127.675 1630.19 L127.675 1626.26 Z" fill="#000000" fill-rule="evenodd" fill-opacity="1" /><path clip-path="url(#clip060)" d="M 0 0 M180.823 1604.73 L170.244 1615.35 L180.823 1625.93 L178.068 1628.73 L167.443 1618.11 L156.818 1628.73 L154.087 1625.93 L164.642 1615.35 L154.087 1604.73 L156.818 1601.93 L167.443 1612.55 L178.068 1601.93 L180.823 1604.73 Z" fill="#000000" fill-rule="evenodd" fill-opacity="1" /><path clip-path="url(#clip060)" d="M 0 0 M186.703 1626.26 L194.341 1626.26 L194.341 1599.89 L186.031 1601.56 L186.031 1597.3 L194.295 1595.63 L198.971 1595.63 L198.971 1626.26 L206.61 1626.26 L206.61 1630.19 L186.703 1630.19 L186.703 1626.26 Z" fill="#000000" fill-rule="evenodd" fill-opacity="1" /><path clip-path="url(#clip060)" d="M 0 0 M221.679 1598.71 Q218.068 1598.71 216.239 1602.27 Q214.434 1605.82 214.434 1612.95 Q214.434 1620.05 216.239 1623.62 Q218.068 1627.16 221.679 1627.16 Q225.313 1627.16 227.119 1623.62 Q228.948 1620.05 228.948 1612.95 Q228.948 1605.82 227.119 1602.27 Q225.313 1598.71 221.679 1598.71 M221.679 1595.01 Q227.489 1595.01 230.545 1599.61 Q233.624 1604.2 233.624 1612.95 Q233.624 1621.67 230.545 1626.28 Q227.489 1630.86 221.679 1630.86 Q215.869 1630.86 212.79 1626.28 Q209.735 1621.67 209.735 1612.95 Q209.735 1604.2 212.79 1599.61 Q215.869 1595.01 221.679 1595.01 Z" fill="#000000" fill-rule="evenodd" fill-opacity="1" /><path clip-path="url(#clip060)" d="M 0 0 M234.808 1574.7 L249.723 1574.7 L249.723 1577.9 L238.288 1577.9 L238.288 1584.78 Q239.115 1584.5 239.943 1584.37 Q240.771 1584.22 241.598 1584.22 Q246.3 1584.22 249.046 1586.79 Q251.792 1589.37 251.792 1593.77 Q251.792 1598.3 248.971 1600.82 Q246.15 1603.33 241.015 1603.33 Q239.247 1603.33 237.404 1603.03 Q235.58 1602.72 233.624 1602.12 L233.624 1598.3 Q235.316 1599.23 237.122 1599.68 Q238.927 1600.13 240.94 1600.13 Q244.194 1600.13 246.093 1598.42 Q247.993 1596.71 247.993 1593.77 Q247.993 1590.84 246.093 1589.13 Q244.194 1587.41 240.94 1587.41 Q239.416 1587.41 237.893 1587.75 Q236.388 1588.09 234.808 1588.81 L234.808 1574.7 Z" fill="#000000" fill-rule="evenodd" fill-opacity="1" /><path clip-path="url(#clip060)" d="M 0 0 M131.263 1017.22 L147.582 1017.22 L147.582 1021.15 L125.638 1021.15 L125.638 1017.22 Q128.3 1014.46 132.883 1009.83 Q137.49 1005.18 138.67 1003.84 Q140.916 1001.31 141.795 999.579 Q142.698 997.82 142.698 996.13 Q142.698 993.375 140.754 991.639 Q138.832 989.903 135.731 989.903 Q133.532 989.903 131.078 990.667 Q128.647 991.431 125.87 992.982 L125.87 988.259 Q128.694 987.125 131.147 986.546 Q133.601 985.968 135.638 985.968 Q141.008 985.968 144.203 988.653 Q147.397 991.338 147.397 995.829 Q147.397 997.958 146.587 999.88 Q145.8 1001.78 143.694 1004.37 Q143.115 1005.04 140.013 1008.26 Q136.911 1011.45 131.263 1017.22 Z" fill="#000000" fill-rule="evenodd" fill-opacity="1" /><path clip-path="url(#clip060)" d="M 0 0 M180.823 995.69 L170.244 1006.31 L180.823 1016.89 L178.068 1019.69 L167.443 1009.07 L156.818 1019.69 L154.087 1016.89 L164.642 1006.31 L154.087 995.69 L156.818 992.889 L167.443 1003.51 L178.068 992.889 L180.823 995.69 Z" fill="#000000" fill-rule="evenodd" fill-opacity="1" /><path clip-path="url(#clip060)" d="M 0 0 M186.703 1017.22 L194.341 1017.22 L194.341 990.852 L186.031 992.519 L186.031 988.259 L194.295 986.593 L198.971 986.593 L198.971 1017.22 L206.61 1017.22 L206.61 1021.15 L186.703 1021.15 L186.703 1017.22 Z" fill="#000000" fill-rule="evenodd" fill-opacity="1" /><path clip-path="url(#clip060)" d="M 0 0 M221.679 989.671 Q218.068 989.671 216.239 993.236 Q214.434 996.778 214.434 1003.91 Q214.434 1011.01 216.239 1014.58 Q218.068 1018.12 221.679 1018.12 Q225.313 1018.12 227.119 1014.58 Q228.948 1011.01 228.948 1003.91 Q228.948 996.778 227.119 993.236 Q225.313 989.671 221.679 989.671 M221.679 985.968 Q227.489 985.968 230.545 990.574 Q233.624 995.157 233.624 1003.91 Q233.624 1012.63 230.545 1017.24 Q227.489 1021.82 221.679 1021.82 Q215.869 1021.82 212.79 1017.24 Q209.735 1012.63 209.735 1003.91 Q209.735 995.157 212.79 990.574 Q215.869 985.968 221.679 985.968 Z" fill="#000000" fill-rule="evenodd" fill-opacity="1" /><path clip-path="url(#clip060)" d="M 0 0 M234.808 965.662 L249.723 965.662 L249.723 968.86 L238.288 968.86 L238.288 975.743 Q239.115 975.461 239.943 975.33 Q240.771 975.179 241.598 975.179 Q246.3 975.179 249.046 977.756 Q251.792 980.332 251.792 984.733 Q251.792 989.266 248.971 991.786 Q246.15 994.288 241.015 994.288 Q239.247 994.288 237.404 993.987 Q235.58 993.686 233.624 993.084 L233.624 989.266 Q235.316 990.188 237.122 990.639 Q238.927 991.09 240.94 991.09 Q244.194 991.09 246.093 989.379 Q247.993 987.667 247.993 984.733 Q247.993 981.799 246.093 980.088 Q244.194 978.376 240.94 978.376 Q239.416 978.376 237.893 978.715 Q236.388 979.053 234.808 979.768 L234.808 965.662 Z" fill="#000000" fill-rule="evenodd" fill-opacity="1" /><path clip-path="url(#clip060)" d="M 0 0 M140.453 393.48 Q143.809 394.198 145.684 396.466 Q147.582 398.735 147.582 402.068 Q147.582 407.184 144.064 409.985 Q140.545 412.786 134.064 412.786 Q131.888 412.786 129.573 412.346 Q127.282 411.929 124.828 411.073 L124.828 406.559 Q126.772 407.693 129.087 408.272 Q131.402 408.851 133.925 408.851 Q138.323 408.851 140.615 407.115 Q142.93 405.378 142.93 402.068 Q142.93 399.013 140.777 397.3 Q138.647 395.564 134.828 395.564 L130.8 395.564 L130.8 391.721 L135.013 391.721 Q138.462 391.721 140.291 390.355 Q142.119 388.966 142.119 386.374 Q142.119 383.712 140.221 382.3 Q138.346 380.865 134.828 380.865 Q132.907 380.865 130.707 381.281 Q128.508 381.698 125.87 382.578 L125.87 378.411 Q128.532 377.67 130.846 377.3 Q133.184 376.929 135.244 376.929 Q140.569 376.929 143.67 379.36 Q146.772 381.767 146.772 385.888 Q146.772 388.758 145.129 390.749 Q143.485 392.716 140.453 393.48 Z" fill="#000000" fill-rule="evenodd" fill-opacity="1" /><path clip-path="url(#clip060)" d="M 0 0 M180.823 386.652 L170.244 397.277 L180.823 407.855 L178.068 410.656 L167.443 400.031 L156.818 410.656 L154.087 407.855 L164.642 397.277 L154.087 386.652 L156.818 383.851 L167.443 394.476 L178.068 383.851 L180.823 386.652 Z" fill="#000000" fill-rule="evenodd" fill-opacity="1" /><path clip-path="url(#clip060)" d="M 0 0 M186.703 408.179 L194.341 408.179 L194.341 381.814 L186.031 383.48 L186.031 379.221 L194.295 377.554 L198.971 377.554 L198.971 408.179 L206.61 408.179 L206.61 412.114 L186.703 412.114 L186.703 408.179 Z" fill="#000000" fill-rule="evenodd" fill-opacity="1" /><path clip-path="url(#clip060)" d="M 0 0 M221.679 380.633 Q218.068 380.633 216.239 384.198 Q214.434 387.74 214.434 394.869 Q214.434 401.976 216.239 405.54 Q218.068 409.082 221.679 409.082 Q225.313 409.082 227.119 405.54 Q228.948 401.976 228.948 394.869 Q228.948 387.74 227.119 384.198 Q225.313 380.633 221.679 380.633 M221.679 376.929 Q227.489 376.929 230.545 381.536 Q233.624 386.119 233.624 394.869 Q233.624 403.596 230.545 408.202 Q227.489 412.786 221.679 412.786 Q215.869 412.786 212.79 408.202 Q209.735 403.596 209.735 394.869 Q209.735 386.119 212.79 381.536 Q215.869 376.929 221.679 376.929 Z" fill="#000000" fill-rule="evenodd" fill-opacity="1" /><path clip-path="url(#clip060)" d="M 0 0 M234.808 356.624 L249.723 356.624 L249.723 359.821 L238.288 359.821 L238.288 366.705 Q239.115 366.423 239.943 366.291 Q240.771 366.141 241.598 366.141 Q246.3 366.141 249.046 368.717 Q251.792 371.294 251.792 375.695 Q251.792 380.228 248.971 382.748 Q246.15 385.249 241.015 385.249 Q239.247 385.249 237.404 384.949 Q235.58 384.648 233.624 384.046 L233.624 380.228 Q235.316 381.149 237.122 381.601 Q238.927 382.052 240.94 382.052 Q244.194 382.052 246.093 380.341 Q247.993 378.629 247.993 375.695 Q247.993 372.761 246.093 371.05 Q244.194 369.338 240.94 369.338 Q239.416 369.338 237.893 369.677 Q236.388 370.015 234.808 370.73 L234.808 356.624 Z" fill="#000000" fill-rule="evenodd" fill-opacity="1" /><path clip-path="url(#clip060)" d="M 0 0 M32.1444 1374.97 L38.9239 1374.97 Q35.9002 1378.21 34.4043 1381.91 Q32.9083 1385.57 32.9083 1389.7 Q32.9083 1397.85 37.9054 1402.18 Q42.8707 1406.51 52.2919 1406.51 Q61.6813 1406.51 66.6784 1402.18 Q71.6436 1397.85 71.6436 1389.7 Q71.6436 1385.57 70.1477 1381.91 Q68.6518 1378.21 65.6281 1374.97 L72.3439 1374.97 Q74.6355 1378.34 75.7814 1382.13 Q76.9272 1385.88 76.9272 1390.09 Q76.9272 1400.88 70.3387 1407.08 Q63.7183 1413.29 52.2919 1413.29 Q40.8336 1413.29 34.2451 1407.08 Q27.6248 1400.88 27.6248 1390.09 Q27.6248 1385.82 28.7706 1382.07 Q29.8846 1378.28 32.1444 1374.97 Z" fill="#000000" fill-rule="evenodd" fill-opacity="1" /><path clip-path="url(#clip060)" d="M 0 0 M61.9359 1369.43 L40.3562 1369.43 L40.3562 1363.57 L61.7131 1363.57 Q66.7739 1363.57 69.3202 1361.6 Q71.8346 1359.63 71.8346 1355.68 Q71.8346 1350.94 68.8109 1348.2 Q65.7872 1345.43 60.5673 1345.43 L40.3562 1345.43 L40.3562 1339.57 L76.0042 1339.57 L76.0042 1345.43 L70.5296 1345.43 Q73.7762 1347.56 75.3676 1350.4 Q76.9272 1353.2 76.9272 1356.92 Q76.9272 1363.06 73.1078 1366.25 Q69.2883 1369.43 61.9359 1369.43 M39.4968 1354.69 L39.4968 1354.69 Z" fill="#000000" fill-rule="evenodd" fill-opacity="1" /><path clip-path="url(#clip060)" d="M 0 0 M47.1993 1305.68 Q43.2526 1303.48 41.3747 1300.42 Q39.4968 1297.37 39.4968 1293.23 Q39.4968 1287.66 43.4117 1284.64 Q47.2948 1281.61 54.4881 1281.61 L76.0042 1281.61 L76.0042 1287.5 L54.679 1287.5 Q49.5546 1287.5 47.072 1289.32 Q44.5894 1291.13 44.5894 1294.85 Q44.5894 1299.41 47.6131 1302.05 Q50.6368 1304.69 55.8567 1304.69 L76.0042 1304.69 L76.0042 1310.58 L54.679 1310.58 Q49.5228 1310.58 47.072 1312.39 Q44.5894 1314.21 44.5894 1317.99 Q44.5894 1322.48 47.6449 1325.12 Q50.6686 1327.77 55.8567 1327.77 L76.0042 1327.77 L76.0042 1333.65 L40.3562 1333.65 L40.3562 1327.77 L45.8944 1327.77 Q42.616 1325.76 41.0564 1322.96 Q39.4968 1320.16 39.4968 1316.31 Q39.4968 1312.42 41.4702 1309.72 Q43.4436 1306.98 47.1993 1305.68 Z" fill="#000000" fill-rule="evenodd" fill-opacity="1" /><path clip-path="url(#clip060)" d="M 0 0 M61.9359 1276.08 L40.3562 1276.08 L40.3562 1270.22 L61.7131 1270.22 Q66.7739 1270.22 69.3202 1268.25 Q71.8346 1266.27 71.8346 1262.33 Q71.8346 1257.58 68.8109 1254.85 Q65.7872 1252.08 60.5673 1252.08 L40.3562 1252.08 L40.3562 1246.22 L76.0042 1246.22 L76.0042 1252.08 L70.5296 1252.08 Q73.7762 1254.21 75.3676 1257.04 Q76.9272 1259.84 76.9272 1263.57 Q76.9272 1269.71 73.1078 1272.89 Q69.2883 1276.08 61.9359 1276.08 M39.4968 1261.34 L39.4968 1261.34 Z" fill="#000000" fill-rule="evenodd" fill-opacity="1" /><path clip-path="url(#clip060)" d="M 0 0 M26.479 1240.08 L26.479 1234.22 L76.0042 1234.22 L76.0042 1240.08 L26.479 1240.08 Z" fill="#000000" fill-rule="evenodd" fill-opacity="1" /><path clip-path="url(#clip060)" d="M 0 0 M58.0847 1211.88 Q58.0847 1218.98 59.7079 1221.71 Q61.3312 1224.45 65.2461 1224.45 Q68.3653 1224.45 70.2114 1222.41 Q72.0256 1220.34 72.0256 1216.81 Q72.0256 1211.94 68.5881 1209.01 Q65.1188 1206.05 59.3897 1206.05 L58.0847 1206.05 L58.0847 1211.88 M55.6657 1200.2 L76.0042 1200.2 L76.0042 1206.05 L70.5933 1206.05 Q73.8398 1208.06 75.3994 1211.05 Q76.9272 1214.04 76.9272 1218.37 Q76.9272 1223.85 73.8716 1227.09 Q70.7843 1230.31 65.6281 1230.31 Q59.6125 1230.31 56.5569 1226.3 Q53.5014 1222.25 53.5014 1214.26 L53.5014 1206.05 L52.9285 1206.05 Q48.8862 1206.05 46.6901 1208.73 Q44.4621 1211.37 44.4621 1216.17 Q44.4621 1219.23 45.1941 1222.13 Q45.9262 1225.02 47.3903 1227.7 L41.9795 1227.7 Q40.7381 1224.48 40.1334 1221.46 Q39.4968 1218.43 39.4968 1215.57 Q39.4968 1207.84 43.5072 1204.02 Q47.5176 1200.2 55.6657 1200.2 Z" fill="#000000" fill-rule="evenodd" fill-opacity="1" /><path clip-path="url(#clip060)" d="M 0 0 M30.2347 1188.26 L40.3562 1188.26 L40.3562 1176.2 L44.9077 1176.2 L44.9077 1188.26 L64.2594 1188.26 Q68.6199 1188.26 69.8613 1187.08 Q71.1026 1185.87 71.1026 1182.21 L71.1026 1176.2 L76.0042 1176.2 L76.0042 1182.21 Q76.0042 1188.99 73.4897 1191.57 Q70.9434 1194.15 64.2594 1194.15 L44.9077 1194.15 L44.9077 1198.45 L40.3562 1198.45 L40.3562 1194.15 L30.2347 1194.15 L30.2347 1188.26 Z" fill="#000000" fill-rule="evenodd" fill-opacity="1" /><path clip-path="url(#clip060)" d="M 0 0 M40.3562 1170.06 L40.3562 1164.2 L76.0042 1164.2 L76.0042 1170.06 L40.3562 1170.06 M26.479 1170.06 L26.479 1164.2 L33.895 1164.2 L33.895 1170.06 L26.479 1170.06 Z" fill="#000000" fill-rule="evenodd" fill-opacity="1" /><path clip-path="url(#clip060)" d="M 0 0 M40.3562 1162.26 L40.3562 1156.05 L70.275 1144.91 L40.3562 1133.77 L40.3562 1127.56 L76.0042 1140.93 L76.0042 1148.89 L40.3562 1162.26 Z" fill="#000000" fill-rule="evenodd" fill-opacity="1" /><path clip-path="url(#clip060)" d="M 0 0 M56.7161 1090.93 L59.5806 1090.93 L59.5806 1117.86 Q65.6281 1117.47 68.8109 1114.23 Q71.9619 1110.95 71.9619 1105.12 Q71.9619 1101.75 71.1344 1098.6 Q70.3069 1095.42 68.6518 1092.3 L74.1899 1092.3 Q75.5267 1095.45 76.227 1098.76 Q76.9272 1102.07 76.9272 1105.48 Q76.9272 1114.01 71.9619 1119 Q66.9967 1123.97 58.5303 1123.97 Q49.7774 1123.97 44.6531 1119.26 Q39.4968 1114.51 39.4968 1106.49 Q39.4968 1099.3 44.1438 1095.13 Q48.7589 1090.93 56.7161 1090.93 M54.9973 1096.79 Q50.1912 1096.85 47.3266 1099.49 Q44.4621 1102.1 44.4621 1106.43 Q44.4621 1111.33 47.2312 1114.29 Q50.0002 1117.22 55.0292 1117.67 L54.9973 1096.79 Z" fill="#000000" fill-rule="evenodd" fill-opacity="1" /><path clip-path="url(#clip060)" d="M 0 0 M33.7677 1057.38 L51.6235 1057.38 L51.6235 1049.3 Q51.6235 1044.81 49.3 1042.36 Q46.9765 1039.91 42.6797 1039.91 Q38.4147 1039.91 36.0912 1042.36 Q33.7677 1044.81 33.7677 1049.3 L33.7677 1057.38 M28.4842 1063.81 L28.4842 1049.3 Q28.4842 1041.31 32.1126 1037.23 Q35.7092 1033.13 42.6797 1033.13 Q49.7138 1033.13 53.3104 1037.23 Q56.907 1041.31 56.907 1049.3 L56.907 1057.38 L76.0042 1057.38 L76.0042 1063.81 L28.4842 1063.81 Z" fill="#000000" fill-rule="evenodd" fill-opacity="1" /><path clip-path="url(#clip060)" d="M 0 0 M45.8307 1007.47 Q45.2578 1008.46 45.0032 1009.64 Q44.7167 1010.79 44.7167 1012.19 Q44.7167 1017.15 47.9632 1019.82 Q51.1779 1022.47 57.2253 1022.47 L76.0042 1022.47 L76.0042 1028.35 L40.3562 1028.35 L40.3562 1022.47 L45.8944 1022.47 Q42.6479 1020.62 41.0883 1017.66 Q39.4968 1014.7 39.4968 1010.47 Q39.4968 1009.86 39.5923 1009.13 Q39.656 1008.4 39.8151 1007.51 L45.8307 1007.47 Z" fill="#000000" fill-rule="evenodd" fill-opacity="1" /><path clip-path="url(#clip060)" d="M 0 0 M44.4621 988.951 Q44.4621 993.661 48.1542 996.399 Q51.8145 999.136 58.212 999.136 Q64.6095 999.136 68.3017 996.43 Q71.9619 993.693 71.9619 988.951 Q71.9619 984.272 68.2698 981.535 Q64.5777 978.797 58.212 978.797 Q51.8781 978.797 48.186 981.535 Q44.4621 984.272 44.4621 988.951 M39.4968 988.951 Q39.4968 981.312 44.4621 976.951 Q49.4273 972.591 58.212 972.591 Q66.9649 972.591 71.9619 976.951 Q76.9272 981.312 76.9272 988.951 Q76.9272 996.621 71.9619 1000.98 Q66.9649 1005.31 58.212 1005.31 Q49.4273 1005.31 44.4621 1000.98 Q39.4968 996.621 39.4968 988.951 Z" fill="#000000" fill-rule="evenodd" fill-opacity="1" /><path clip-path="url(#clip060)" d="M 0 0 M26.479 948.401 L31.3487 948.401 L31.3487 954.003 Q31.3487 957.154 32.6219 958.395 Q33.895 959.605 37.2052 959.605 L40.3562 959.605 L40.3562 949.961 L44.9077 949.961 L44.9077 959.605 L76.0042 959.605 L76.0042 965.493 L44.9077 965.493 L44.9077 971.095 L40.3562 971.095 L40.3562 965.493 L37.8736 965.493 Q31.9216 965.493 29.2162 962.724 Q26.479 959.955 26.479 953.939 L26.479 948.401 Z" fill="#000000" fill-rule="evenodd" fill-opacity="1" /><path clip-path="url(#clip060)" d="M 0 0 M40.3562 942.258 L40.3562 936.402 L76.0042 936.402 L76.0042 942.258 L40.3562 942.258 M26.479 942.258 L26.479 936.402 L33.895 936.402 L33.895 942.258 L26.479 942.258 Z" fill="#000000" fill-rule="evenodd" fill-opacity="1" /><path clip-path="url(#clip060)" d="M 0 0 M30.2347 924.466 L40.3562 924.466 L40.3562 912.403 L44.9077 912.403 L44.9077 924.466 L64.2594 924.466 Q68.6199 924.466 69.8613 923.289 Q71.1026 922.079 71.1026 918.419 L71.1026 912.403 L76.0042 912.403 L76.0042 918.419 Q76.0042 925.198 73.4897 927.776 Q70.9434 930.354 64.2594 930.354 L44.9077 930.354 L44.9077 934.651 L40.3562 934.651 L40.3562 930.354 L30.2347 930.354 L30.2347 924.466 Z" fill="#000000" fill-rule="evenodd" fill-opacity="1" /><polyline clip-path="url(#clip062)" style="stroke:#009af9; stroke-width:4; stroke-opacity:1; fill:none" points="
  380.197,2215.3 381.185,2215.2 382.174,2215.15 383.162,2214.86 386.128,2214.02 387.116,2213.58 388.105,2213.56 389.093,2213.2 390.081,2214.08 394.035,2213.93 
  395.024,2213.92 396.012,2213.89 397.001,2212.55 399.966,2212.16 400.955,2212.1 401.943,2212.05 402.932,2211.98 403.92,2211.15 406.886,2210.67 407.874,2209.47 
  408.863,2209.41 409.851,2208.91 410.84,2207.74 414.794,2206.65 415.782,2206.32 416.771,2206.31 417.759,2207.22 420.725,2206.98 421.713,2206.93 422.702,2206.92 
  423.69,2205.73 424.679,2204.93 428.633,2203.97 429.621,2203.81 430.61,2203.8 431.598,2203.03 434.564,2201.3 435.552,2200.98 436.541,2200.86 437.529,2200.85 
  438.518,2203.07 441.483,2202.57 442.472,2201.6 443.46,2201.38 444.449,2201.07 445.437,2199.77 448.403,2199.34 449.391,2199.24 450.38,2198.64 451.368,2197.46 
  452.357,2197.45 455.322,2197.2 456.311,2196.9 457.299,2196.31 458.288,2196.12 459.276,2197.13 462.242,2197.09 463.23,2195.87 464.219,2195.84 465.207,2195.82 
  466.196,2196.84 469.161,2196.83 470.15,2196.3 471.138,2196.01 472.127,2196.51 476.081,2195.6 477.069,2195.3 478.058,2194.89 479.046,2194.64 480.035,2198.2 
  483,2198.02 483.989,2197.1 484.977,2196.43 485.966,2196.03 486.954,2189.46 489.92,2188.75 490.908,2188.73 491.897,2188.59 492.885,2188.58 493.874,2188.25 
  496.839,2187.71 497.828,2187.11 498.816,2186.55 499.805,2184.26 500.793,2192.58 503.759,2191.32 504.747,2190.58 505.736,2189.58 506.724,2189.54 507.713,2192.81 
  510.678,2192.29 511.667,2191.73 512.655,2191.17 513.644,2191.13 514.632,2190.35 517.598,2189.64 518.586,2188.32 519.575,2187.82 520.563,2187.49 521.552,2188.17 
  525.506,2187.84 526.494,2187.34 527.482,2186.23 528.471,2195.15 531.436,2193.19 532.425,2192.24 533.413,2192.13 534.402,2192.02 535.39,2190.95 538.356,2190.09 
  539.344,2189.68 540.333,2189 541.321,2188.97 542.31,2183.8 545.275,2183.75 546.264,2183.6 547.252,2183.53 548.241,2183.01 549.229,2181.24 552.195,2180.29 
  553.183,2179.03 554.172,2178.62 555.16,2178.22 556.149,2178.03 559.114,2176.94 560.103,2176.93 562.08,2176.5 563.068,2178.56 566.034,2177.88 567.022,2176.66 
  568.011,2176.49 568.999,2175.57 569.988,2174.47 572.953,2172.83 573.942,2172.66 574.93,2172.51 575.919,2172.21 576.907,2164.06 579.873,2163.45 580.861,2162.73 
  581.85,2162.3 582.838,2162.2 583.827,2161.87 586.792,2159.2 587.781,2159.02 588.769,2158.5 589.758,2157.71 590.746,2159.69 593.712,2159.08 594.7,2158.89 
  595.689,2158.67 596.677,2158.65 597.666,2158.1 600.631,2157.62 601.62,2157.16 602.608,2156.83 603.597,2156.63 604.585,2147.07 607.551,2146.7 608.539,2146.28 
  609.528,2146.15 610.516,2146.04 611.505,2146.59 614.47,2146.51 615.459,2145.5 616.447,2145.25 617.436,2144.24 618.424,2145.05 622.378,2144.35 623.367,2144.12 
  624.355,2144.07 625.344,2143.53 628.309,2142.86 629.298,2142.33 630.286,2142 631.275,2141.47 632.263,2140.88 635.229,2140.24 636.217,2139.82 637.206,2139.29 
  638.194,2138.62 639.183,2137.92 642.148,2137.42 643.137,2137.08 644.125,2136 645.114,2135.96 646.102,2137.39 649.068,2136.66 650.056,2136.38 651.045,2136.02 
  652.033,2135.16 653.022,2135.55 655.987,2135.11 656.976,2134.71 657.964,2134.26 658.953,2133.82 659.941,2138.44 662.906,2137.99 663.895,2137.85 664.883,2137.77 
  665.872,2137.73 666.86,2137.46 669.826,2136.48 670.814,2135.49 671.803,2135.43 672.791,2134.76 673.78,2137.67 678.722,2137.05 679.711,2136.58 680.699,2136.7 
  683.665,2135.83 684.653,2135.15 685.642,2134.68 686.63,2134.38 687.619,2141.79 690.584,2140.87 691.573,2140.53 692.561,2140.04 693.55,2139.81 694.538,2134.83 
  697.504,2134.47 698.492,2133.9 699.481,2133.72 701.458,2133.13 704.423,2132.61 705.412,2132.12 706.4,2131.83 707.389,2131.76 708.377,2131.26 711.343,2130.8 
  712.331,2130.36 713.32,2130.24 714.308,2129.96 715.297,2129.59 718.262,2129.13 719.251,2128.85 720.239,2128.28 721.228,2127.35 722.216,2129.18 725.182,2129.01 
  726.17,2128.62 727.159,2127.99 728.147,2126.92 729.136,2120.95 732.101,2120.32 734.078,2119.55 735.067,2119.46 736.055,2121.64 739.021,2121.03 740.998,2120.91 
  741.986,2120.8 742.975,2120.21 745.94,2119.79 746.929,2119.49 747.917,2119.45 748.906,2119.41 749.894,2118.94 752.86,2118.45 753.848,2118.06 754.837,2117.33 
  755.825,2117.07 756.814,2107.61 760.768,2107.2 761.756,2107.12 762.745,2107.02 763.733,2106.37 766.699,2105.93 767.687,2105.59 768.676,2105.29 769.664,2105.06 
  770.653,2104.74 773.618,2104.68 774.607,2104.39 775.595,2103.97 776.584,2103.84 777.572,2103.28 780.538,2102.8 781.526,2102.68 782.515,2102.45 783.503,2102.3 
  784.492,2099.21 788.446,2098.82 789.434,2098.33 790.423,2098.18 791.411,2098.47 794.377,2097.78 795.365,2097.08 796.354,2096.37 797.342,2095.95 798.331,2095.8 
  801.296,2095.48 802.284,2094.99 803.273,2094.77 804.261,2094.43 805.25,2094.1 808.215,2093.77 809.204,2093.58 810.192,2093.51 811.181,2091.12 812.169,2090.92 
  815.135,2090.83 816.123,2090.4 817.112,2089.81 818.1,2089.66 819.089,2089.07 822.054,2088.8 823.043,2088.24 824.031,2088.22 825.02,2087.84 828.974,2087.49 
  829.962,2087.29 830.951,2087.21 831.939,2087.02 832.928,2087.77 835.893,2087.38 836.882,2087.15 837.87,2086.88 838.859,2086.8 839.847,2086.17 842.813,2084.89 
  843.801,2084.36 844.79,2083.36 845.778,2082.93 846.767,2076.85 849.732,2076.17 850.721,2075.56 851.709,2075.03 852.698,2074.81 853.686,2074.58 856.652,2074.37 
  857.64,2073.99 858.629,2073.4 859.617,2073.1 860.606,2072.89 863.571,2072.63 864.56,2072.44 865.548,2072.29 866.537,2072.19 867.525,2071.78 870.491,2071.42 
  871.479,2071.32 872.468,2071.01 873.456,2070.67 874.445,2070.61 877.41,2070.04 878.399,2069.53 879.387,2069.06 880.376,2068.94 881.364,2070.92 885.318,2069.86 
  886.307,2069.81 887.295,2069.67 888.284,2073.18 891.249,2072.38 892.238,2071.77 893.226,2070.81 894.215,2070.15 895.203,2069.31 898.169,2068.66 899.157,2068.13 
  900.146,2067.7 901.134,2067.44 902.123,2068.5 905.088,2067.82 906.077,2066.73 907.065,2066 908.054,2065.59 909.042,2065.23 912.008,2064.15 912.996,2064.05 
  913.985,2063.55 914.973,2063.35 915.962,2062.68 918.927,2062.37 919.916,2062.07 920.904,2061.71 922.881,2061.22 925.847,2060.54 926.835,2059.91 927.824,2059.45 
  928.812,2058.97 929.801,2058.85 932.766,2058.67 933.755,2058.17 934.743,2058.07 935.732,2057.64 936.72,2049.46 939.685,2049.14 940.674,2048.68 941.662,2048.6 
  942.651,2048.57 943.639,2048.34 946.605,2048.01 947.593,2047.56 948.582,2047.2 949.57,2046.54 950.559,2046.16 953.524,2045.49 954.513,2045.07 955.501,2044.67 
  956.49,2044.51 957.478,2047.43 960.444,2046.99 961.432,2046.91 962.421,2046.69 963.409,2046.21 964.398,2045.99 967.363,2045.04 968.352,2044.9 969.34,2043.52 
  970.329,2043.5 971.317,2042.87 974.283,2041.99 975.271,2041.62 976.26,2041.35 977.248,2041.14 978.237,2044.63 982.191,2044.2 983.179,2043.88 984.168,2043.51 
  985.156,2043.03 988.122,2042.59 989.11,2042.33 990.099,2041.84 991.087,2041.77 992.076,2041.77 995.041,2041.04 996.03,2040.03 997.018,2039.28 998.007,2038.71 
  998.995,2038.54 1001.96,2038.09 1002.95,2037.72 1003.94,2037.39 1004.93,2037.22 1005.91,2038.01 1008.88,2037.75 1009.87,2037.26 1010.86,2037.19 1011.85,2034.76 
  1012.83,2036.54 1015.8,2035.88 1016.79,2035.17 1017.78,2034.62 1018.77,2034.36 1019.75,2033.76 1022.72,2033.2 1023.71,2032.35 1024.7,2031.85 1025.68,2031.82 
  1026.67,2030.39 1029.64,2030.34 1030.63,2030.02 1031.62,2029.73 1032.6,2029.64 1033.59,2028.54 1036.56,2028.16 1037.55,2027.64 1038.54,2027.31 1039.52,2027.16 
  1040.51,2028.28 1043.48,2027.74 1044.47,2027.18 1045.45,2026.68 1046.44,2026.55 1047.43,2026.31 1050.4,2025.95 1051.39,2025.6 1052.37,2025.38 1053.36,2025.37 
  1054.35,2025.29 1057.32,2024.77 1058.31,2024.2 1059.29,2024.04 1060.28,2023.89 1061.27,2023.32 1064.24,2023.02 1065.22,2022.45 1066.21,2022.41 1068.19,2022.27 
  1071.16,2021.83 1072.14,2021.45 1073.13,2021.04 1074.12,2020.58 1075.11,2020.12 1078.07,2019.63 1079.06,2019.31 1080.05,2018.89 1081.04,2018.79 1082.03,2023.64 
  1084.99,2022.42 1085.98,2021.16 1086.97,2020.97 1087.96,2020.36 1088.95,2010.21 1091.91,2009.96 1092.9,2009.7 1094.88,2009.45 1095.87,2009.2 1098.83,2008.92 
  1099.82,2008.87 1101.8,2008.71 1102.79,2008.21 1105.75,2007.67 1106.74,2007.01 1107.73,2006.65 1108.72,2006.03 1109.71,2005.24 1112.67,2004.76 1113.66,2004.56 
  1114.65,2004.23 1115.64,2003.6 1116.63,1984.66 1120.58,1984.31 1121.57,1984.08 1122.56,1983.99 1123.55,1990.96 1126.51,1990.07 1127.5,1989.34 1128.49,1988.78 
  1129.48,1988.08 1130.47,1989.55 1133.43,1987.83 1134.42,1986.89 1135.41,1985.63 1136.4,1985.02 1137.38,1984.32 1140.35,1983.82 1141.34,1983.28 1142.33,1983.13 
  1143.32,1982.66 1144.3,1982.1 1148.26,1981.56 1149.25,1981.45 1150.24,1981.41 1151.22,1980.91 1154.19,1980.38 1155.18,1979.96 1156.17,1979.45 1157.15,1979.16 
  1158.14,1978.21 1161.11,1977.57 1162.1,1977.08 1163.09,1976.59 1164.07,1976.48 1165.06,1975.62 1168.03,1975.33 1169.02,1974.93 1170.01,1974.49 1170.99,1974.26 
  1171.98,1979.83 1174.95,1978.84 1175.94,1978.22 1176.92,1977.47 1177.91,1977.02 1178.9,1969.9 1181.87,1968.77 1182.86,1968.65 1183.84,1967.28 1184.83,1966.4 
  1185.82,1968.47 1188.79,1967.48 1189.78,1966.76 1190.76,1966.29 1191.75,1966.08 1192.74,1970.78 1195.71,1970.22 1196.69,1969.76 1197.68,1968.25 1198.67,1967.85 
  1199.66,1977.74 1202.63,1976.94 1203.61,1976.61 1204.6,1976.08 1205.59,1975.86 1209.54,1975.19 1210.53,1974.86 1211.52,1974.68 1212.51,1973.94 1213.5,1976.59 
  1216.46,1976.13 1217.45,1975.6 1218.44,1975.11 1219.43,1974.32 1220.42,1975.21 1223.38,1974.7 1224.37,1973.63 1225.36,1973.2 1226.35,1972.68 1227.34,1973.24 
  1230.3,1972.12 1231.29,1971.8 1232.28,1971.44 1233.27,1970.84 1234.26,1970.83 1237.22,1970.3 1238.21,1969 1239.2,1968.69 1240.19,1968.48 1241.18,1967.56 
  1245.13,1967.02 1246.12,1966.89 1247.11,1966.88 1248.1,1966.1 1251.06,1965.39 1252.05,1964.69 1253.04,1963.94 1254.03,1963.62 1255.02,1963.24 1257.98,1962.95 
  1258.97,1962.48 1259.96,1962.45 1260.95,1962.23 1261.94,1963.57 1264.9,1962.65 1265.89,1962.42 1266.88,1961.69 1267.87,1960.55 1268.85,1959.59 1271.82,1959 
  1272.81,1958.63 1273.8,1958.49 1274.79,1958.04 1275.77,1958.54 1278.74,1958.26 1279.73,1957.98 1280.72,1957.79 1281.71,1956.91 1285.66,1956.52 1286.65,1956.29 
  1287.64,1956.19 1288.62,1955.98 1289.61,1957.94 1292.58,1957.51 1293.57,1957.4 1294.56,1957.08 1295.54,1956.69 1296.53,1956.5 1299.5,1955.75 1300.49,1955.03 
  1301.48,1954.86 1302.46,1954.68 1303.45,1955.53 1306.42,1955.22 1307.41,1955.02 1308.39,1954.24 1309.38,1953.8 1310.37,1963.76 1313.34,1963.01 1314.33,1960.82 
  1315.31,1960.14 1316.3,1960.03 1317.29,1960.33 1320.26,1959.31 1321.25,1958.96 1322.23,1958.24 1323.22,1958.23 1324.21,1950.38 1327.18,1949.28 1328.16,1948.66 
  1329.15,1948.63 1330.14,1948.6 1331.13,1948.03 1334.1,1947.6 1335.08,1947.36 1336.07,1947.15 1337.06,1947.02 1338.05,1946.77 1342,1946.56 1342.99,1946.25 
  1343.98,1945.91 1344.97,1945.17 1347.93,1944.86 1348.92,1944.64 1349.91,1944.55 1350.9,1944.4 1351.89,1945.18 1354.85,1944.19 1355.84,1943.16 1356.83,1942.96 
  1357.82,1941.11 1358.81,1939.17 1361.77,1938.83 1362.76,1938.21 1363.75,1937.72 1364.74,1937.4 1365.73,1938.47 1368.69,1938.01 1369.68,1937.43 1370.67,1936.39 
  1371.66,1935.78 1372.65,1936.3 1375.61,1935.91 1376.6,1935.5 1377.59,1935.16 1378.58,1934.53 1379.57,1944.55 1382.53,1943.22 1383.52,1942.66 1384.51,1941.09 
  1385.5,1940.57 1386.49,1940.55 1389.45,1939.75 1390.44,1939.19 1391.43,1938.71 1392.42,1938.43 1393.41,1937.17 1396.37,1935.86 1397.36,1934.77 1398.35,1934.19 
  1399.34,1934.17 1400.32,1933.19 1403.29,1932.87 1404.28,1932.18 1405.27,1932.1 1406.26,1931.97 1407.24,1931.24 1410.21,1930.74 1411.2,1930.35 1412.19,1929.97 
  1413.18,1929.77 1414.16,1929.23 1417.13,1928.83 1418.12,1928.32 1419.11,1928.03 1420.09,1927.85 1421.08,1927.84 1424.05,1927.41 1425.04,1927.32 1426.03,1927.05 
  1428,1927.06 1430.97,1926.4 1431.96,1926.26 1432.95,1925.6 1433.93,1925.35 1434.92,1925.36 1437.89,1924.45 1438.88,1923.84 1439.86,1923.3 1440.85,1922.32 
  1441.84,1934.97 1444.81,1933.5 1445.8,1932.16 1446.78,1931.46 1447.77,1930.72 1448.76,1929.83 1451.73,1929.43 1452.72,1929.11 1453.7,1928.88 1455.68,1928.64 
  1458.65,1927.81 1459.63,1927.67 1460.62,1931.7 1462.6,1930.81 1465.57,1929.85 1466.55,1928.77 1467.54,1928.02 1468.53,1927.49 1469.52,1928.46 1472.49,1927.55 
  1473.47,1926.49 1474.46,1925.7 1475.45,1924.89 1476.44,1913.85 1480.39,1912.81 1481.38,1911.68 1482.37,1911.34 1483.36,1911.12 1486.32,1910.67 1487.31,1909.94 
  1488.3,1908.87 1489.29,1908.67 1490.28,1917.42 1493.24,1916.59 1494.23,1915.45 1495.22,1915.03 1496.21,1914.47 1497.2,1914.45 1500.16,1913.63 1501.15,1912.86 
  1502.14,1912.33 1503.13,1912.02 1504.12,1911.13 1508.07,1910.26 1509.06,1909.83 1510.05,1909.76 1511.04,1908.66 1514,1908.13 1514.99,1907.63 1515.98,1907.08 
  1516.97,1906.88 1517.96,1909.29 1520.92,1908.78 1521.91,1908.26 1522.9,1907.82 1523.89,1907.57 1524.88,1917.08 1527.84,1916.32 1528.83,1915.71 1529.82,1915.23 
  1530.81,1914.9 1531.79,1916.85 1534.76,1915.7 1535.75,1915.06 1536.74,1914.1 1537.73,1913.64 1538.71,1913.17 1541.68,1912.86 1542.67,1912.3 1543.66,1911.7 
  1544.65,1911.37 1545.63,1918.15 1548.6,1918.05 1549.59,1918.21 1550.58,1918.08 1551.56,1917.2 1555.52,1916.26 1556.51,1915.26 1557.5,1915.01 1558.48,1914.76 
  1559.47,1914.57 1562.44,1913.84 1563.43,1913.21 1564.42,1912.46 1565.4,1912.35 1566.39,1916.85 1569.36,1916.15 1570.35,1915.67 1571.33,1915.4 1572.32,1914.82 
  1573.31,1914.95 1576.28,1914.41 1577.27,1913.91 1578.25,1913.39 1579.24,1913.11 1580.23,1913 1583.2,1912.39 1584.19,1911.75 1585.17,1911.07 1586.16,1910.64 
  1587.15,1909.92 1590.12,1909.06 1591.1,1908.52 1592.09,1908.41 1593.08,1908.17 1594.07,1908.11 1597.04,1907.8 1598.02,1907.52 1599.01,1907.07 1600,1906.97 
  1600.99,1906.92 1604.94,1906.63 1605.93,1906.31 1606.92,1906.16 1607.91,1906.6 1610.87,1905.84 1611.86,1905.08 1612.85,1904.61 1613.84,1904.3 1614.83,1907.77 
  1617.79,1906.85 1618.78,1906.23 1619.77,1905.88 1620.76,1905.63 1621.75,1906.32 1624.71,1905.09 1625.7,1904.08 1626.69,1902.91 1627.68,1901.88 1628.67,1902.38 
  1631.63,1901.52 1632.62,1901.23 1633.61,1900.75 1634.6,1900.39 1635.59,1902.94 1638.55,1902.75 1639.54,1905.3 1640.53,1904.93 1641.52,1903.72 1645.47,1903.06 
  1646.46,1902.25 1647.45,1901.33 1648.44,1900.79 1649.43,1899.92 1652.39,1899.43 1653.38,1898.83 1654.37,1898.4 1655.36,1898.07 1656.35,1898.02 1659.31,1897.48 
  1660.3,1897.16 1661.29,1896.79 1662.28,1896.52 1663.26,1904.44 1666.23,1903.63 1667.22,1902.91 1668.21,1902.57 1669.2,1902.49 1670.18,1901.77 1673.15,1900.96 
  1674.14,1900.39 1675.13,1899.61 1676.12,1899.47 1677.1,1904.57 1680.07,1904.15 1681.06,1903.54 1682.05,1903.13 1683.03,1902.82 1684.02,1902.62 1686.99,1901.97 
  1687.98,1901.29 1688.97,1900.38 1689.95,1899.76 1690.94,1930.61 1693.91,1930.32 1694.9,1928.66 1695.89,1927.24 1696.87,1927.02 1697.86,1925.44 1700.83,1923.97 
  1701.82,1922.54 1702.8,1921.44 1703.79,1920.48 1704.78,1930.19 1708.74,1929.82 1709.72,1928.97 1710.71,1928.27 1711.7,1926.54 1714.67,1925.16 1715.66,1923.83 
  1716.64,1922.35 1717.63,1918.06 1718.62,1929.66 1721.59,1928.79 1722.57,1927.94 1723.56,1927.23 1724.55,1926.51 1725.54,1929.03 1728.51,1927.73 1729.49,1927.5 
  1730.48,1926.78 1731.47,1926.58 1732.46,1925.56 1735.43,1924.28 1736.41,1923.65 1737.4,1923.27 1738.39,1923.22 1739.38,1922.89 1742.34,1922.15 1743.33,1921.34 
  1744.32,1920.99 1745.31,1920.65 1746.3,1919.98 1749.26,1918.85 1750.25,1918.44 1751.24,1917.7 1752.23,1917.48 1753.22,1916.49 1756.18,1915.73 1757.17,1915.04 
  1758.16,1914.58 1759.15,1914.56 1760.14,1914.6 1763.1,1914.15 1764.09,1913.47 1765.08,1913.08 1766.07,1912.46 1767.06,1912.69 1770.02,1911.9 1771.01,1911.31 
  1772,1910.93 1772.99,1910.52 1773.98,1924.4 1776.94,1923.77 1777.93,1923.03 1778.92,1922.69 1779.91,1922.48 1780.9,1921.96 1783.86,1921.9 1784.85,1921.38 
  1785.84,1921.12 1787.82,1920.26 1790.78,1919.47 1791.77,1918.85 1792.76,1918.2 1793.75,1917.63 1794.73,1917.26 1797.7,1916.73 1798.69,1915.83 1799.68,1914.8 
  1800.67,1914.28 1801.65,1929 1804.62,1927.02 1805.61,1925.77 1806.6,1924.47 1807.59,1923.55 1808.57,1923.53 1811.54,1922.86 1812.53,1922.46 1813.52,1922.07 
  1814.5,1921.54 1818.46,1921.15 1819.45,1920.96 1820.44,1920.51 1821.42,1922.88 1825.38,1921.92 1826.37,1921.22 1827.36,1920.34 1828.34,1919.72 1829.33,1941.12 
  1832.3,1939.86 1833.29,1938.69 1834.27,1937.56 1835.26,1937.04 1836.25,1945.08 1840.21,1942.49 1841.19,1941.67 1842.18,1940.44 1843.17,1939.66 1846.14,1938.26 
  1847.13,1937.32 1848.11,1936.26 1849.1,1935.7 1850.09,1934.63 1853.06,1933.67 1854.04,1932.61 1855.03,1931.78 1856.02,1931.27 1857.01,1941.5 1859.98,1940.31 
  1860.96,1939.14 1861.95,1937.93 1862.94,1937.21 1863.93,1936.07 1867.88,1935.62 1868.87,1935.33 1869.86,1934.75 1870.85,1934.14 1873.81,1932.91 1874.8,1931.98 
  1875.79,1931.54 1876.78,1931.47 1877.77,1930.77 1880.73,1930.11 1881.72,1929.34 1882.71,1928.76 1883.7,1928.18 1884.69,1927.12 1887.65,1926.42 1888.64,1925.87 
  1889.63,1925.16 1890.62,1924.75 1891.61,1923.8 1894.57,1922.45 1895.56,1921.36 1896.55,1920.96 1897.54,1920.31 1898.53,1919.87 1901.49,1919.26 1902.48,1918.99 
  1903.47,1918.76 1904.46,1920.08 1908.41,1919.31 1909.4,1919.14 1910.39,1919.13 1911.38,1918.87 1912.37,1918.06 1915.33,1917.5 1916.32,1916.83 1917.31,1916.49 
  1918.3,1915.93 1919.29,1918.77 1922.25,1917.64 1923.24,1917.37 1924.23,1916.96 1925.22,1916.9 1926.2,1916.15 1929.17,1915.6 1930.16,1915.14 1931.15,1914.77 
  1932.14,1914.47 1933.12,1914.8 1936.09,1914.27 1937.08,1913.8 1938.07,1913.32 1939.06,1912.63 1940.04,1918.86 1943.01,1918.14 1944,1917.33 1944.99,1916.62 
  1945.97,1916.23 1946.96,1917.43 1949.93,1916.84 1950.92,1916.76 1951.91,1916.2 1952.89,1916.01 1953.88,1917.33 1956.85,1915.85 1957.84,1915.15 1958.83,1914.48 
  1959.81,1914.43 1960.8,1916.18 1963.77,1915.64 1964.76,1915.35 1965.74,1914.89 1966.73,1914.76 1967.72,1914.14 1971.68,1913.48 1972.66,1912.98 1973.65,1912.61 
  1974.64,1912.95 1977.61,1912.4 1978.6,1911.98 1979.58,1910.95 1980.57,1910.51 1981.56,1914.87 1984.53,1913.84 1985.51,1913.14 1986.5,1912.17 1987.49,1910.91 
  1988.48,1915.56 1991.45,1914.23 1992.43,1913.08 1993.42,1911.81 1994.41,1910.67 1995.4,1925.8 1998.37,1924.61 1999.35,1924.16 2000.34,1923.74 2001.33,1923.61 
  2002.32,1922.93 2006.27,1922.86 2007.26,1922.31 2008.25,1922.04 2009.24,1921.34 2012.2,1920.74 2013.19,1920.05 2014.18,1919.46 2015.17,1919.09 2016.16,1918.73 
  2019.12,1918.39 2020.11,1918.07 2021.1,1917.39 2022.09,1917.31 2023.08,1917.05 2026.04,1916.17 2027.03,1915.65 2028.02,1915.16 2029.01,1914.81 2030,1914.75 
  2032.96,1914.14 2033.95,1913.32 2034.94,1912.92 2035.93,1912.15 2036.92,1911.65 2039.88,1911.18 2040.87,1910.82 2041.86,1910.4 2042.85,1910.21 2043.84,1909.68 
  2046.8,1909.11 2047.79,1908.56 2048.78,1908.38 2049.77,1907.89 2050.76,1908.56 2053.72,1907.58 2054.71,1907.09 2055.7,1906.41 2056.69,1906.16 2057.67,1909.53 
  2060.64,1908.66 2061.63,1908.37 2062.62,1908.08 2063.61,1906.96 2064.59,1907.74 2068.55,1907.52 2069.54,1907.07 2070.53,1906.9 2071.51,1912.11 2074.48,1911.91 
  2075.47,1911.59 2076.46,1912.5 2077.44,1911.74 2078.43,1912.24 2081.4,1911.42 2082.39,1910.7 2083.38,1910.69 2084.36,1910.11 2085.35,1910.74 2088.32,1910.14 
  2089.31,1909.71 2090.3,1909.39 2091.28,1908.96 2092.27,1908.28 2095.24,1907.98 2096.23,1907.62 2097.21,1907.72 2098.2,1907.37 2099.19,1907.66 2102.16,1907.63 
  2103.15,1907.41 2104.13,1907.68 2105.12,1907.14 2106.11,1906.45 2109.08,1905.99 2110.07,1905.71 2111.05,1905.3 2112.04,1905.13 2113.03,1904.76 2116,1904.37 
  2116.98,1904.03 2117.97,1905.37 2118.96,1905.07 2119.95,1904.97 2122.92,1904.52 2123.9,1904.09 2124.89,1907.75 2125.88,1907.61 2126.87,1906.29 2129.84,1905.14 
  2130.82,1903.73 2131.81,1897.4 2132.8,1897.16 2133.79,1904.32 2136.75,1903.87 2137.74,1903.59 2138.73,1903.52 2139.72,1903.25 2140.71,1903.21 2143.67,1902.84 
  2144.66,1902.49 2145.65,1902.32 2147.63,1901.94 2150.59,1901.56 2151.58,1901.23 2152.57,1902.08 2153.56,1901.71 2154.55,1901.72 2157.51,1901.07 2158.5,1900.74 
  2159.49,1900.12 2160.48,1899.59 2161.47,1898.86 2164.43,1898.42 2165.42,1897.62 2166.41,1897.66 2167.4,1896.73 2168.39,1898.64 2171.35,1898.2 2172.34,1897.9 
  2173.33,1898.37 2174.32,1898.3 2175.31,1898.03 2179.26,1897.79 2180.25,1899.11 2181.24,1898.92 2182.23,1898.77 2186.18,1898.42 2187.17,1898.31 2188.16,1898.06 
  2189.14,1897.68 2192.11,1897.41 2193.1,1897.19 2194.09,1896.89 2195.08,1896.45 2196.06,1896.19 2200.02,1896.04 2201.01,1895.72 2202,1895.51 2202.98,1895.32 
  2205.95,1894.94 2206.94,1894.76 2207.93,1894.56 2208.91,1894.44 2209.9,1894.14 2212.87,1893.48 2213.86,1893.27 2214.85,1893.98 2215.83,1893.93 2216.82,1893.62 
  2219.79,1893.42 2220.78,1893.24 2221.77,1893 2222.75,1892.92 2223.74,1892.5 2226.71,1892.33 2227.7,1892.21 2228.68,1891.86 2229.67,1891.68 2230.66,1891.43 
  2234.62,1891.26 2235.6,1890.87 2236.59,1890.5 2237.58,1890.36 2240.55,1890.17 2241.54,1889.92 2242.52,1889.2 2243.51,1888.95 2244.5,1889.85 2247.47,1889.64 
  2248.45,1889.4 2249.44,1891.23 2250.43,1890.9 2251.42,1889.84 2254.39,1889.23 2255.37,1889.04 2256.36,1888.37 2257.35,1887.22 2258.34,1889.45 2261.31,1889.22 
  2262.29,1888.67 2263.28,1889.99 2264.27,1888.58 2265.26,1889.28 2268.22,1889.01 2269.21,1888.77 2270.2,1888.82 2271.19,1888.76 2272.18,1888.49 2275.14,1888 
  2276.13,1887.64 2277.12,1888.74 2278.11,1888.19 2279.1,1888.19 2282.06,1887.86 2283.05,1887.74 2284.04,1889.15 2285.03,1888.41 2288.98,1887.47 2289.97,1887.16 
  2290.96,1888.8 2291.95,1888.55 2292.94,1888.14 2295.9,1888.12 2296.89,1887.49 2297.88,1887.6 2298.87,1887.29 2299.86,1888.07 2302.82,1887.96 2303.81,1887.88 
  2304.8,1887.67 2305.79,1887.56 2306.78,1887.28 2309.74,1886.92 2310.73,1886.55 2311.72,1885.63 2312.71,1885.49 2313.7,1886.35 2316.66,1886.1 2317.65,1885.91 
  2318.64,1892.97 2319.63,1892.47 2320.61,1892.08 2323.58,1891.82 2324.57,1891.63 2325.56,1890.75 2326.55,1890.45 2327.53,1890.62 2331.49,1890.51 2332.48,1890.27 
  2333.47,1890.04 2334.45,1889.39 2337.42,1888.64 2338.41,1888.6 2339.4,1889.32 2340.38,1889.26 2341.37,1889.58 2344.34,1889.24 2345.33,1889.08 2346.32,1888.36 
  2347.3,1887.6 2348.29,1889.04 2351.26,1888.93 2352.25,1888.87 2353.24,1888.97 2354.22,1888.8 2355.21,1888.75 2358.18,1888.52 2359.17,1888.42 2360.15,1887.95 
  2361.14,1887.72 2362.13,1888.91 2365.1,1888.48 2367.07,1887.99 2368.06,1887.64 2369.05,1887.75 2372.02,1887.57 2373.01,1887.48 2373.99,1887.42 2374.98,1887 
  2375.97,1886.88 2378.94,1886.83 2379.92,1886.68 2380.91,1886.38 2381.9,1886.16 2382.89,1885.93 2385.86,1885.4 2386.84,1885.15 2387.83,1885.1 2388.82,1884.98 
  2389.81,1884.79 2392.78,1884.68 2393.76,1884.62 2394.75,1884.31 2395.74,1884.19 2396.73,1881.99 2399.69,1881.88 2400.68,1881.8 2401.67,1883.74 2402.66,1883.08 
  2403.65,1884.52 2406.61,1884.09 2407.6,1883.84 2408.59,1883.45 2409.58,1882.93 2410.57,1885.43 2413.53,1885.1 2414.52,1884.99 2415.51,1884.65 2416.5,1884.56 
  2417.49,1884.26 2420.45,1883.67 2421.44,1883.44 2422.43,1883.07 2423.42,1882.78 2424.41,1882.39 2428.36,1882.39 2429.35,1882.81 2430.34,1882.63 2431.33,1882.1 
  2434.29,1881.87 2435.28,1881.77 2436.27,1881.05 2437.26,1880.35 2438.25,1880.7 2441.21,1880.34 2442.2,1880.1 2443.19,1879.79 2444.18,1879.61 2445.17,1879.61 
  2448.13,1879.38 2449.12,1879.21 2450.11,1879.1 2451.1,1879.06 2452.08,1878.86 2455.05,1878.69 2456.04,1878.61 2457.03,1878.48 2458.02,1878.33 2459,1878.13 
  2461.97,1877.88 2462.96,1877.73 2463.95,1877.07 2464.94,1876.99 2465.92,1877.3 2468.89,1877.15 2469.88,1877.06 2470.87,1876.94 2471.85,1876.82 2472.84,1876.51 
  2475.81,1876.18 2476.8,1875.99 2477.79,1877.86 2478.77,1877.6 2479.76,1877.26 2482.73,1876.96 2483.72,1876.61 2484.71,1876.29 2485.69,1876.13 2486.68,1875.31 
  2489.65,1875.24 2490.64,1874.73 2491.62,1875.09 2492.61,1874.9 2493.6,1874.47 2496.57,1874.23 2497.56,1874.06 2498.54,1875.46 2499.53,1875.34 2500.52,1874.81 
  2503.49,1874.5 2504.48,1874.28 2505.46,1874.34 2507.44,1874.04 2510.41,1874.02 2511.39,1874.01 2512.38,1873.76 2513.37,1872.67 2514.36,1873.1 2517.33,1872.69 
  2518.31,1872.44 2519.3,1873.04 2520.29,1873 2521.28,1872.52 2524.25,1872.17 2525.23,1871.42 2526.22,1870.76 2527.21,1869.85 2528.2,1870.3 2531.16,1870.06 
  2532.15,1869.8 2533.14,1870.06 2534.13,1869.84 2535.12,1869.6 2539.07,1869.47 2540.06,1869.29 2541.05,1869.2 2542.04,1868.9 2545.99,1868.54 2546.98,1867.98 
  2547.97,1867.64 2548.96,1867.33 2551.92,1867.15 2552.91,1866.91 2553.9,1866.56 2554.89,1866.24 2555.88,1865.88 2559.83,1865.69 2560.82,1865.15 2561.81,1864.71 
  2562.8,1864.03 2565.76,1863.08 2566.75,1862.42 2567.74,1863.15 2568.73,1862.56 2569.72,1861.44 2572.68,1860.85 2573.67,1860.14 2574.66,1864.63 2575.65,1863.98 
  2576.64,1871.42 2579.6,1868.5 2580.59,1867.44 2581.58,1868.68 2582.57,1867.59 2583.55,1869.98 2586.52,1869.18 2587.51,1868.58 2588.5,1867.65 2589.49,1867.13 
  2590.47,1866 2594.43,1865.21 2595.42,1867.86 2596.41,1867.45 2597.39,1867.14 2600.36,1866.4 2601.35,1865.72 2602.34,1871.26 2603.32,1870.47 2604.31,1870.95 
  2607.28,1870.18 2608.27,1869.65 2609.26,1868.68 2610.24,1868.19 2611.23,1867.83 2614.2,1867.48 2615.19,1867.14 2616.18,1867.72 2617.16,1867.25 2618.15,1868.1 
  2621.12,1868.48 2622.11,1867.91 2623.09,1867.92 2624.08,1866.8 2625.07,1876.75 2628.04,1875.78 2629.03,1874.79 2630.01,1877.47 2631,1876.33 2634.96,1879.49 
  2635.95,1878.59 2636.93,1877.92 2637.92,1877.19 2638.91,1880.96 2641.88,1879.82 2642.86,1879.02 2643.85,1878.87 2644.84,1878.2 2645.83,1878.01 2648.8,1877.64 
  2649.78,1876.94 2650.77,1876.71 2651.76,1876.02 2652.75,1879.51 2655.72,1879.09 2656.7,1878.49 2657.69,1879.07 2658.68,1878.81 2659.67,1877.28 2662.63,1876.54 
  2663.62,1876.15 2664.61,1876.83 2665.6,1876.42 2666.59,1876.11 2669.55,1876.11 2670.54,1875.66 2671.53,1875.23 2672.52,1874.76 2673.51,1874.49 2676.47,1874 
  2677.46,1872.74 2678.45,1873.19 2679.44,1872.78 2680.43,1873.18 2683.39,1872.97 2684.38,1872.79 2685.37,1872.25 2686.36,1871.9 2687.35,1872.82 2691.3,1874.31 
  2692.29,1873.79 2693.28,1872.93 2694.27,1872.76 2697.23,1872.1 2698.22,1871.76 2699.21,1871.34 2700.2,1871.02 2701.19,1870.7 2704.15,1870 2705.14,1869.53 
  2706.13,1869.62 2707.12,1868.97 2708.11,1870.12 2711.07,1869.74 2712.06,1869.43 2713.05,1869.48 2714.04,1869.06 2715.02,1868.79 2717.99,1870.56 2718.98,1870.08 
  2719.97,1871.83 2720.96,1871.69 2721.94,1871.05 2724.91,1870.81 2725.9,1870.41 2727.88,1869.96 2728.86,1869.63 2731.83,1869.29 2732.82,1869.06 2733.81,1869.86 
  2734.79,1869.71 2735.78,1869.61 2738.75,1868.61 2739.74,1868.31 2740.73,1867.75 2741.71,1867.45 2742.7,1868.4 2745.67,1867.87 2746.66,1867.68 2747.65,1867.02 
  2748.63,1866.58 2749.62,1869.55 2752.59,1869.04 2753.58,1868.9 2754.56,1868.28 2755.55,1867.81 2756.54,1867.53 2759.51,1867.05 2760.5,1866.65 2761.48,1866.64 
  2762.47,1866.38 2763.46,1868.28 2766.43,1867.86 2767.42,1867.6 2768.4,1869.2 2769.39,1869.01 2770.38,1868.78 2773.35,1868.62 2774.33,1868.3 2775.32,1867.08 
  2776.31,1865.73 2777.3,1865.69 2780.27,1865.37 2781.25,1865.16 2782.24,1864.74 2784.22,1865.15 2788.17,1865.36 2789.16,1865.22 2790.15,1814.95 2791.14,1815.22 
  2794.1,1814.78 2795.09,1758.98 2796.08,1754.61 2797.07,1754.27 2798.06,1754.21 2801.02,1754.13 2802.01,1753.83 2803,1741.74 2803.99,1741.06 2804.98,1741.75 
  2807.94,1741.47 2808.93,1741.27 2809.92,1741.68 2810.91,1741.43 2811.9,1741.15 2814.86,1751.92 2815.85,1751.65 2817.83,1751.43 2821.78,1750.8 2822.77,1745.15 
  2823.76,1746.05 2824.75,1745.05 2825.74,1748.86 2828.7,1743.67 2829.69,1733.84 2830.68,1654.16 2831.67,1654.03 2832.66,1645.95 2835.62,1645.51 2836.61,1639.91 
  2837.6,1651.79 2838.59,1635.65 2839.58,1633.19 2842.54,1607.89 2843.53,1603.22 2844.52,1618.29 2845.51,1610.65 2846.5,1632.78 2849.46,1629.77 2850.45,1626.23 
  2851.44,1623.39 2852.43,1622.59 2853.41,1622.51 2856.38,1620.54 2857.37,1618.83 2858.36,1619.19 2859.35,1618.82 2860.33,1617.89 2863.3,1616.96 2864.29,1616.11 
  2865.28,1618.45 2867.25,1628.52 2870.22,1627.75 2871.21,1625.54 2872.2,1610.02 2873.18,1610 2874.17,1623.6 2877.14,1627.39 2878.13,1548.29 2880.1,1542.04 
  2881.09,1529.52 2884.06,1509.19 2885.05,1490.01 2886.03,1489.91 2887.02,1489.09 2888.01,1501.57 2890.98,1503.37 2891.97,1501.33 2892.95,1504.06 2893.94,1503.37 
  2894.93,1679.54 2897.9,1718.51 2899.87,1737.14 2900.86,1736.13 2901.85,1658.27 2904.82,1681.97 2906.79,1678.52 2907.78,1663.2 2908.77,1703.48 2911.74,1702.48 
  2912.72,1685.26 2913.71,1659.49 2914.7,1658.7 2915.69,1657.64 2918.66,1657.6 2919.64,1655.27 2920.63,1633.25 2921.62,1568.18 2922.61,1620.95 2926.56,1614.97 
  2927.55,1613.94 2928.54,1613.05 2929.53,1608.42 2932.49,1602.85 2933.48,1602.05 2934.47,1601.21 2935.46,1601.15 2936.45,1593.73 2939.41,1593.13 2940.4,1585.74 
  2941.39,1552.13 2942.38,1550.82 2943.37,1547.68 2946.33,1540.63 2947.32,1539.93 2948.31,1533.17 2949.3,1531.98 2950.29,1524.25 2954.24,1520.84 2955.23,1522.63 
  2956.22,1519.49 2957.21,1519.32 2960.17,1517.77 2961.16,1516.29 2962.15,1519.14 2963.14,1519.01 2964.13,1510.73 2967.09,1503.04 2968.08,1501.52 2969.07,1484.12 
  2970.06,1482.91 2971.05,1484.43 2974.01,1476.93 2975,1476.51 2975.99,1482.08 2976.98,1479.63 2980.93,1428.56 2981.92,1422.22 2982.91,1420.37 2984.88,1417.94 
  2987.85,1412.13 2988.84,1411.75 2989.83,1411.65 2990.82,1411.59 2991.8,1370.95 2994.77,1370.35 2995.76,1366.49 2996.75,1366.21 2997.73,1366.17 2998.72,1377.34 
  3001.69,1340.9 3002.68,1317.96 3003.67,1315.53 3005.64,1314.98 3008.61,1314.73 3009.6,1313.78 3010.59,1310.95 3011.57,1311.13 3015.53,1313.69 3016.52,1312.6 
  3017.5,1310.99 3018.49,1309.6 3019.48,1308.89 3022.45,1308.03 3023.44,1307.97 3024.42,1299.93 3025.41,1299.76 3026.4,1305.87 3029.37,1305.74 3030.36,1304.87 
  3031.34,1307.55 3032.33,1307.39 3033.32,1304.6 3036.29,1303.14 3037.27,1271.71 3038.26,1270.81 3039.25,1269.1 3040.24,1292.2 3043.21,1261.02 3044.19,1259.18 
  3045.18,1261.47 3046.17,1257.25 3047.16,1260.5 3051.11,1247.75 3052.1,1246.79 3053.09,1245.53 3054.08,1246.8 3057.04,1246.24 3058.03,1245.89 3059.02,1247.57 
  3060.01,1246.87 3061,1246.22 3063.96,1244.24 3064.95,1244.23 3065.94,1206.11 3066.93,1193.08 3067.92,1143.61 3070.88,1127.41 3071.87,1091.72 3072.86,1084.4 
  3074.84,1459.49 3077.8,1462.19 3078.79,1462.08 3079.78,1395.47 3080.77,1390.71 3084.72,1390.69 3086.7,1360.42 3088.68,1292.3 3091.64,1241.7 3092.63,1241.37 
  3093.62,1191.95 3094.61,1142.94 3098.56,1070.41 3099.55,997.267 3100.54,922.842 3101.53,920.278 3102.52,915.991 3105.48,919.572 3106.47,909.584 3107.46,880.088 
  3108.45,825.287 3109.44,822.997 3113.39,820.646 3114.38,758.213 3115.37,741.343 3116.35,736.805 3119.32,698.686 3120.31,683.679 3121.3,681.724 3122.29,679.123 
  3123.27,606.965 3126.24,596.861 3127.23,596.751 3128.22,525.469 3129.2,524.032 3130.19,535.963 3133.16,554.24 3134.15,537.693 3135.14,552.224 3136.12,550.519 
  3137.11,560.422 3140.08,559.393 3141.07,550.062 3142.06,530.701 3143.04,525.579 3144.03,521.523 3147.99,528.326 3148.97,513.727 3149.96,498.105 3150.95,497.995 
  3153.92,497.581 3154.91,497.234 3155.89,484.651 3157.87,484 3160.84,481.058 3161.83,473.573 3162.81,455.338 3163.8,448.481 3164.79,689.769 3168.74,689.319 
  3169.73,699.654 3170.72,698.984 3171.71,698.923 3175.66,698.667 3176.65,718.346 3177.64,717.45 3178.63,717.828 3181.6,716.561 3182.58,708.315 3183.57,663.483 
  3184.56,604.827 3185.55,584.759 3188.51,583.37 3189.5,549.234 3190.49,475.321 3192.47,627.635 3195.43,626.228 3196.42,613.408 3197.41,612.543 3198.4,606.794 
  3199.39,594.333 3202.35,568.571 3203.34,562.005 3204.33,530.944 3205.32,508.629 3206.31,500.164 3209.27,465.716 3210.26,457.166 3211.25,455.259 3212.24,454.784 
  3216.19,411.957 3217.18,411.871 3218.17,389.715 3219.16,340.37 3220.15,337.739 3223.11,330.498 3224.1,330.181 3225.09,311.898 3226.08,296.355 3227.07,282.767 
  3230.03,282.767 3231.02,282.688 3232.01,264.356 3236.95,261.695 3237.94,247.315 3238.93,226.103 3239.92,225.981 3240.91,226.821 3243.87,210.067 3244.86,195.882 
  3245.85,184.542 3246.84,169.834 3247.82,153.852 3250.79,128.614 3251.78,117.103 3252.77,119.813 3253.76,110.391 3254.74,306.672 3257.71,346.668 3260.67,346.528 
  3261.66,389.325 3264.63,347.514 3267.59,311.015 3268.58,270.045 3271.55,268.674 3272.54,254.472 3274.51,235.403 3275.5,227.777 3280.44,227.059 3281.43,227.022 
  3282.42,624.809 3287.36,624.188 3288.35,589.96 3289.34,569.582 3292.31,568.687 3293.3,568.644 3294.28,545.287 3295.27,537.906 3296.26,533.21 3299.23,541.408 
  3300.21,503.154 3301.2,467.038 3302.19,429.101 3306.15,391.663 3307.13,355.103 3308.12,307.75 3309.11,257.163 3310.1,256.512 3314.05,255.543 3315.04,211.607 
  3316.03,187.916 3317.02,283.931 3319.98,282.573 3320.97,278.784 3321.96,310.241 3322.95,291.458 3323.94,320.01 3326.9,351.778 3327.89,336.655 3328.88,342.709 
  3329.87,329.931 3330.86,348.367 3333.82,357.265 3334.81,331.844 3335.8,334.231 3336.79,284.302 3337.78,371.912 3340.74,373.338 3341.73,344.871 3342.72,398.083 
  3343.71,372.558 3344.7,781.344 3347.66,915.388 3348.65,911.149 3349.64,884.668 3350.63,881.702 3351.62,899.967 3354.58,872.785 3355.57,912.568 3356.56,947.612 
  3357.55,933.714 3358.54,966.62 3361.5,963.733 3362.49,963.581 3363.48,886.842 3364.47,886.617 3368.42,833.308 3369.41,832.826 3370.4,832.187 3375.34,784.712 
  3377.32,698.497 3378.31,698.454 3379.29,696.292 3382.26,679.276 3383.25,594.638 3384.24,517.558 3385.23,515.712 3386.21,539.794 3389.18,539.124 3390.17,538.539 
  3391.16,517.101 3392.15,516.76 3393.13,507.643 3396.1,506.041 3397.09,435.922 3398.08,396.621 3399.06,396.201 3400.05,725.697 3403.02,664.19 3404.01,663.636 
  3405,660.426 3405.98,626.496 3406.97,629.036 3410.93,627.593 3412.9,625.114 3416.86,624.773 3417.85,623.354 3418.83,557.115 3419.82,556.944 3420.81,559.874 
  3423.78,550.665 3424.77,549.471 3425.75,542.486 3426.74,540.494 3427.73,556.713 3430.7,550.507 3431.68,548.875 3432.67,541.718 3433.66,536.298 3434.65,765.053 
  3437.62,764.523 3438.6,764.255 3439.59,763.835 3440.58,762.69 3444.54,761.179 3446.51,710.349 3447.5,710.324 3451.45,744.674 3453.43,742.421 3454.42,740.381 
  3455.41,739.887 3458.37,739.126 3459.36,730.38 3460.35,736.233 
  "/>
<path clip-path="url(#clip060)" d="
M395.792 323.724 L913.847 323.724 L913.847 202.764 L395.792 202.764  Z
  " fill="#ffffff" fill-rule="evenodd" fill-opacity="1"/>
<polyline clip-path="url(#clip060)" style="stroke:#000000; stroke-width:4; stroke-opacity:1; fill:none" points="
  395.792,323.724 913.847,323.724 913.847,202.764 395.792,202.764 395.792,323.724 
  "/>
<polyline clip-path="url(#clip060)" style="stroke:#009af9; stroke-width:4; stroke-opacity:1; fill:none" points="
  431.792,263.244 647.792,263.244 
  "/>
<path clip-path="url(#clip060)" d="M 0 0 M688.468 249.807 L688.468 262.793 L694.347 262.793 Q697.611 262.793 699.394 261.103 Q701.176 259.413 701.176 256.288 Q701.176 253.186 699.394 251.496 Q697.611 249.807 694.347 249.807 L688.468 249.807 M683.792 245.964 L694.347 245.964 Q700.158 245.964 703.12 248.603 Q706.107 251.219 706.107 256.288 Q706.107 261.404 703.12 264.02 Q700.158 266.635 694.347 266.635 L688.468 266.635 L688.468 280.524 L683.792 280.524 L683.792 245.964 Z" fill="#000000" fill-rule="evenodd" fill-opacity="1" /><path clip-path="url(#clip060)" d="M 0 0 M709.301 270.293 L709.301 254.598 L713.56 254.598 L713.56 270.131 Q713.56 273.811 714.995 275.663 Q716.431 277.492 719.301 277.492 Q722.75 277.492 724.741 275.293 Q726.755 273.094 726.755 269.297 L726.755 254.598 L731.014 254.598 L731.014 280.524 L726.755 280.524 L726.755 276.543 Q725.204 278.904 723.144 280.061 Q721.107 281.195 718.398 281.195 Q713.931 281.195 711.616 278.418 Q709.301 275.64 709.301 270.293 M720.019 253.973 L720.019 253.973 Z" fill="#000000" fill-rule="evenodd" fill-opacity="1" /><path clip-path="url(#clip060)" d="M 0 0 M739.694 247.237 L739.694 254.598 L748.467 254.598 L748.467 257.908 L739.694 257.908 L739.694 271.982 Q739.694 275.154 740.551 276.057 Q741.43 276.959 744.092 276.959 L748.467 276.959 L748.467 280.524 L744.092 280.524 Q739.162 280.524 737.287 278.695 Q735.412 276.844 735.412 271.982 L735.412 257.908 L732.287 257.908 L732.287 254.598 L735.412 254.598 L735.412 247.237 L739.694 247.237 Z" fill="#000000" fill-rule="evenodd" fill-opacity="1" /><path clip-path="url(#clip060)" d="M 0 0 M772.865 249.807 L772.865 262.793 L778.745 262.793 Q782.009 262.793 783.791 261.103 Q785.574 259.413 785.574 256.288 Q785.574 253.186 783.791 251.496 Q782.009 249.807 778.745 249.807 L772.865 249.807 M768.19 245.964 L778.745 245.964 Q784.555 245.964 787.518 248.603 Q790.504 251.219 790.504 256.288 Q790.504 261.404 787.518 264.02 Q784.555 266.635 778.745 266.635 L772.865 266.635 L772.865 280.524 L768.19 280.524 L768.19 245.964 Z" fill="#000000" fill-rule="evenodd" fill-opacity="1" /><path clip-path="url(#clip060)" d="M 0 0 M815.689 264.876 L815.689 280.524 L811.43 280.524 L811.43 265.015 Q811.43 261.334 809.995 259.506 Q808.56 257.677 805.689 257.677 Q802.24 257.677 800.25 259.876 Q798.259 262.075 798.259 265.871 L798.259 280.524 L793.976 280.524 L793.976 254.598 L798.259 254.598 L798.259 258.626 Q799.787 256.288 801.847 255.131 Q803.93 253.973 806.638 253.973 Q811.106 253.973 813.398 256.751 Q815.689 259.506 815.689 264.876 Z" fill="#000000" fill-rule="evenodd" fill-opacity="1" /><path clip-path="url(#clip060)" d="M 0 0 M820.342 245.964 L825.018 245.964 L825.018 276.589 L841.847 276.589 L841.847 280.524 L820.342 280.524 L820.342 245.964 Z" fill="#000000" fill-rule="evenodd" fill-opacity="1" /></svg>
