<?xml version="1.0" encoding="utf-8"?>
<svg xmlns="http://www.w3.org/2000/svg" xmlns:xlink="http://www.w3.org/1999/xlink" width="600" height="400" viewBox="0 0 2400 1600">
<defs>
  <clipPath id="clip560">
    <rect x="0" y="0" width="2400" height="1600"/>
  </clipPath>
</defs>
<path clip-path="url(#clip560)" d="
M0 1600 L2400 1600 L2400 0 L0 0  Z
  " fill="#ffffff" fill-rule="evenodd" fill-opacity="1"/>
<defs>
  <clipPath id="clip561">
    <rect x="480" y="0" width="1681" height="1600"/>
  </clipPath>
</defs>
<path clip-path="url(#clip560)" d="
M147.756 1486.45 L2352.76 1486.45 L2352.76 47.2441 L147.756 47.2441  Z
  " fill="#ffffff" fill-rule="evenodd" fill-opacity="1"/>
<defs>
  <clipPath id="clip562">
    <rect x="147" y="47" width="2206" height="1440"/>
  </clipPath>
</defs>
<polyline clip-path="url(#clip562)" style="stroke:#000000; stroke-width:2; stroke-opacity:0.1; fill:none" points="
  207.49,1486.45 207.49,47.2441 
  "/>
<polyline clip-path="url(#clip562)" style="stroke:#000000; stroke-width:2; stroke-opacity:0.1; fill:none" points="
  695.65,1486.45 695.65,47.2441 
  "/>
<polyline clip-path="url(#clip562)" style="stroke:#000000; stroke-width:2; stroke-opacity:0.1; fill:none" points="
  1183.14,1486.45 1183.14,47.2441 
  "/>
<polyline clip-path="url(#clip562)" style="stroke:#000000; stroke-width:2; stroke-opacity:0.1; fill:none" points="
  1671.3,1486.45 1671.3,47.2441 
  "/>
<polyline clip-path="url(#clip562)" style="stroke:#000000; stroke-width:2; stroke-opacity:0.1; fill:none" points="
  2158.79,1486.45 2158.79,47.2441 
  "/>
<polyline clip-path="url(#clip562)" style="stroke:#000000; stroke-width:2; stroke-opacity:0.1; fill:none" points="
  147.756,1331.61 2352.76,1331.61 
  "/>
<polyline clip-path="url(#clip562)" style="stroke:#000000; stroke-width:2; stroke-opacity:0.1; fill:none" points="
  147.756,1009.79 2352.76,1009.79 
  "/>
<polyline clip-path="url(#clip562)" style="stroke:#000000; stroke-width:2; stroke-opacity:0.1; fill:none" points="
  147.756,687.962 2352.76,687.962 
  "/>
<polyline clip-path="url(#clip562)" style="stroke:#000000; stroke-width:2; stroke-opacity:0.1; fill:none" points="
  147.756,366.137 2352.76,366.137 
  "/>
<polyline clip-path="url(#clip560)" style="stroke:#000000; stroke-width:4; stroke-opacity:1; fill:none" points="
  147.756,1486.45 2352.76,1486.45 
  "/>
<polyline clip-path="url(#clip560)" style="stroke:#000000; stroke-width:4; stroke-opacity:1; fill:none" points="
  147.756,1486.45 147.756,47.2441 
  "/>
<polyline clip-path="url(#clip560)" style="stroke:#000000; stroke-width:4; stroke-opacity:1; fill:none" points="
  207.49,1486.45 207.49,1469.18 
  "/>
<polyline clip-path="url(#clip560)" style="stroke:#000000; stroke-width:4; stroke-opacity:1; fill:none" points="
  695.65,1486.45 695.65,1469.18 
  "/>
<polyline clip-path="url(#clip560)" style="stroke:#000000; stroke-width:4; stroke-opacity:1; fill:none" points="
  1183.14,1486.45 1183.14,1469.18 
  "/>
<polyline clip-path="url(#clip560)" style="stroke:#000000; stroke-width:4; stroke-opacity:1; fill:none" points="
  1671.3,1486.45 1671.3,1469.18 
  "/>
<polyline clip-path="url(#clip560)" style="stroke:#000000; stroke-width:4; stroke-opacity:1; fill:none" points="
  2158.79,1486.45 2158.79,1469.18 
  "/>
<polyline clip-path="url(#clip560)" style="stroke:#000000; stroke-width:4; stroke-opacity:1; fill:none" points="
  147.756,1331.61 174.216,1331.61 
  "/>
<polyline clip-path="url(#clip560)" style="stroke:#000000; stroke-width:4; stroke-opacity:1; fill:none" points="
  147.756,1009.79 174.216,1009.79 
  "/>
<polyline clip-path="url(#clip560)" style="stroke:#000000; stroke-width:4; stroke-opacity:1; fill:none" points="
  147.756,687.962 174.216,687.962 
  "/>
<polyline clip-path="url(#clip560)" style="stroke:#000000; stroke-width:4; stroke-opacity:1; fill:none" points="
  147.756,366.137 174.216,366.137 
  "/>
<path clip-path="url(#clip560)" d="M 0 0 M95.4422 1535.98 L111.762 1535.98 L111.762 1539.92 L89.8172 1539.92 L89.8172 1535.98 Q92.4792 1533.23 97.0625 1528.6 Q101.669 1523.95 102.85 1522.61 Q105.095 1520.08 105.975 1518.35 Q106.877 1516.59 106.877 1514.9 Q106.877 1512.14 104.933 1510.41 Q103.012 1508.67 99.9097 1508.67 Q97.7107 1508.67 95.257 1509.43 Q92.8264 1510.2 90.0487 1511.75 L90.0487 1507.03 Q92.8727 1505.89 95.3264 1505.31 Q97.7801 1504.73 99.8171 1504.73 Q105.187 1504.73 108.382 1507.42 Q111.576 1510.11 111.576 1514.6 Q111.576 1516.73 110.766 1518.65 Q109.979 1520.54 107.873 1523.14 Q107.294 1523.81 104.192 1527.03 Q101.09 1530.22 95.4422 1535.98 Z" fill="#000000" fill-rule="evenodd" fill-opacity="1" /><path clip-path="url(#clip560)" d="M 0 0 M126.831 1508.44 Q123.22 1508.44 121.391 1512 Q119.586 1515.55 119.586 1522.67 Q119.586 1529.78 121.391 1533.35 Q123.22 1536.89 126.831 1536.89 Q130.465 1536.89 132.271 1533.35 Q134.099 1529.78 134.099 1522.67 Q134.099 1515.55 132.271 1512 Q130.465 1508.44 126.831 1508.44 M126.831 1504.73 Q132.641 1504.73 135.697 1509.34 Q138.775 1513.92 138.775 1522.67 Q138.775 1531.4 135.697 1536.01 Q132.641 1540.59 126.831 1540.59 Q121.021 1540.59 117.942 1536.01 Q114.886 1531.4 114.886 1522.67 Q114.886 1513.92 117.942 1509.34 Q121.021 1504.73 126.831 1504.73 Z" fill="#000000" fill-rule="evenodd" fill-opacity="1" /><path clip-path="url(#clip560)" d="M 0 0 M144.655 1535.98 L152.294 1535.98 L152.294 1509.62 L143.984 1511.29 L143.984 1507.03 L152.247 1505.36 L156.923 1505.36 L156.923 1535.98 L164.562 1535.98 L164.562 1539.92 L144.655 1539.92 L144.655 1535.98 Z" fill="#000000" fill-rule="evenodd" fill-opacity="1" /><path clip-path="url(#clip560)" d="M 0 0 M173.659 1535.98 L189.979 1535.98 L189.979 1539.92 L168.034 1539.92 L168.034 1535.98 Q170.696 1533.23 175.28 1528.6 Q179.886 1523.95 181.067 1522.61 Q183.312 1520.08 184.192 1518.35 Q185.094 1516.59 185.094 1514.9 Q185.094 1512.14 183.15 1510.41 Q181.229 1508.67 178.127 1508.67 Q175.928 1508.67 173.474 1509.43 Q171.044 1510.2 168.266 1511.75 L168.266 1507.03 Q171.09 1505.89 173.544 1505.31 Q175.997 1504.73 178.034 1504.73 Q183.405 1504.73 186.599 1507.42 Q189.794 1510.11 189.794 1514.6 Q189.794 1516.73 188.983 1518.65 Q188.196 1520.54 186.09 1523.14 Q185.511 1523.81 182.409 1527.03 Q179.307 1530.22 173.659 1535.98 Z" fill="#000000" fill-rule="evenodd" fill-opacity="1" /><path clip-path="url(#clip560)" d="M 0 0 M192.293 1525.04 L204.77 1525.04 L204.77 1528.83 L192.293 1528.83 L192.293 1525.04 Z" fill="#000000" fill-rule="evenodd" fill-opacity="1" /><path clip-path="url(#clip560)" d="M 0 0 M219.84 1508.44 Q216.229 1508.44 214.4 1512 Q212.594 1515.55 212.594 1522.67 Q212.594 1529.78 214.4 1533.35 Q216.229 1536.89 219.84 1536.89 Q223.474 1536.89 225.279 1533.35 Q227.108 1529.78 227.108 1522.67 Q227.108 1515.55 225.279 1512 Q223.474 1508.44 219.84 1508.44 M219.84 1504.73 Q225.65 1504.73 228.705 1509.34 Q231.784 1513.92 231.784 1522.67 Q231.784 1531.4 228.705 1536.01 Q225.65 1540.59 219.84 1540.59 Q214.029 1540.59 210.951 1536.01 Q207.895 1531.4 207.895 1522.67 Q207.895 1513.92 210.951 1509.34 Q214.029 1504.73 219.84 1504.73 Z" fill="#000000" fill-rule="evenodd" fill-opacity="1" /><path clip-path="url(#clip560)" d="M 0 0 M237.664 1535.98 L245.302 1535.98 L245.302 1509.62 L236.992 1511.29 L236.992 1507.03 L245.256 1505.36 L249.932 1505.36 L249.932 1535.98 L257.571 1535.98 L257.571 1539.92 L237.664 1539.92 L237.664 1535.98 Z" fill="#000000" fill-rule="evenodd" fill-opacity="1" /><path clip-path="url(#clip560)" d="M 0 0 M259.886 1525.04 L272.363 1525.04 L272.363 1528.83 L259.886 1528.83 L259.886 1525.04 Z" fill="#000000" fill-rule="evenodd" fill-opacity="1" /><path clip-path="url(#clip560)" d="M 0 0 M287.432 1508.44 Q283.821 1508.44 281.992 1512 Q280.187 1515.55 280.187 1522.67 Q280.187 1529.78 281.992 1533.35 Q283.821 1536.89 287.432 1536.89 Q291.066 1536.89 292.872 1533.35 Q294.7 1529.78 294.7 1522.67 Q294.7 1515.55 292.872 1512 Q291.066 1508.44 287.432 1508.44 M287.432 1504.73 Q293.242 1504.73 296.298 1509.34 Q299.376 1513.92 299.376 1522.67 Q299.376 1531.4 296.298 1536.01 Q293.242 1540.59 287.432 1540.59 Q281.622 1540.59 278.543 1536.01 Q275.487 1531.4 275.487 1522.67 Q275.487 1513.92 278.543 1509.34 Q281.622 1504.73 287.432 1504.73 Z" fill="#000000" fill-rule="evenodd" fill-opacity="1" /><path clip-path="url(#clip560)" d="M 0 0 M305.256 1535.98 L312.895 1535.98 L312.895 1509.62 L304.585 1511.29 L304.585 1507.03 L312.848 1505.36 L317.524 1505.36 L317.524 1535.98 L325.163 1535.98 L325.163 1539.92 L305.256 1539.92 L305.256 1535.98 Z" fill="#000000" fill-rule="evenodd" fill-opacity="1" /><path clip-path="url(#clip560)" d="M 0 0 M582.56 1535.98 L598.88 1535.98 L598.88 1539.92 L576.935 1539.92 L576.935 1535.98 Q579.597 1533.23 584.181 1528.6 Q588.787 1523.95 589.968 1522.61 Q592.213 1520.08 593.093 1518.35 Q593.996 1516.59 593.996 1514.9 Q593.996 1512.14 592.051 1510.41 Q590.13 1508.67 587.028 1508.67 Q584.829 1508.67 582.375 1509.43 Q579.945 1510.2 577.167 1511.75 L577.167 1507.03 Q579.991 1505.89 582.445 1505.31 Q584.898 1504.73 586.935 1504.73 Q592.306 1504.73 595.5 1507.42 Q598.695 1510.11 598.695 1514.6 Q598.695 1516.73 597.884 1518.65 Q597.097 1520.54 594.991 1523.14 Q594.412 1523.81 591.31 1527.03 Q588.209 1530.22 582.56 1535.98 Z" fill="#000000" fill-rule="evenodd" fill-opacity="1" /><path clip-path="url(#clip560)" d="M 0 0 M613.949 1508.44 Q610.338 1508.44 608.509 1512 Q606.704 1515.55 606.704 1522.67 Q606.704 1529.78 608.509 1533.35 Q610.338 1536.89 613.949 1536.89 Q617.583 1536.89 619.389 1533.35 Q621.218 1529.78 621.218 1522.67 Q621.218 1515.55 619.389 1512 Q617.583 1508.44 613.949 1508.44 M613.949 1504.73 Q619.759 1504.73 622.815 1509.34 Q625.893 1513.92 625.893 1522.67 Q625.893 1531.4 622.815 1536.01 Q619.759 1540.59 613.949 1540.59 Q608.139 1540.59 605.06 1536.01 Q602.005 1531.4 602.005 1522.67 Q602.005 1513.92 605.06 1509.34 Q608.139 1504.73 613.949 1504.73 Z" fill="#000000" fill-rule="evenodd" fill-opacity="1" /><path clip-path="url(#clip560)" d="M 0 0 M631.773 1535.98 L639.412 1535.98 L639.412 1509.62 L631.102 1511.29 L631.102 1507.03 L639.366 1505.36 L644.042 1505.36 L644.042 1535.98 L651.68 1535.98 L651.68 1539.92 L631.773 1539.92 L631.773 1535.98 Z" fill="#000000" fill-rule="evenodd" fill-opacity="1" /><path clip-path="url(#clip560)" d="M 0 0 M669.597 1509.43 L657.791 1527.88 L669.597 1527.88 L669.597 1509.43 M668.37 1505.36 L674.25 1505.36 L674.25 1527.88 L679.18 1527.88 L679.18 1531.77 L674.25 1531.77 L674.25 1539.92 L669.597 1539.92 L669.597 1531.77 L653.995 1531.77 L653.995 1527.26 L668.37 1505.36 Z" fill="#000000" fill-rule="evenodd" fill-opacity="1" /><path clip-path="url(#clip560)" d="M 0 0 M681.495 1525.04 L693.972 1525.04 L693.972 1528.83 L681.495 1528.83 L681.495 1525.04 Z" fill="#000000" fill-rule="evenodd" fill-opacity="1" /><path clip-path="url(#clip560)" d="M 0 0 M709.041 1508.44 Q705.43 1508.44 703.601 1512 Q701.796 1515.55 701.796 1522.67 Q701.796 1529.78 703.601 1533.35 Q705.43 1536.89 709.041 1536.89 Q712.675 1536.89 714.481 1533.35 Q716.31 1529.78 716.31 1522.67 Q716.31 1515.55 714.481 1512 Q712.675 1508.44 709.041 1508.44 M709.041 1504.73 Q714.851 1504.73 717.907 1509.34 Q720.986 1513.92 720.986 1522.67 Q720.986 1531.4 717.907 1536.01 Q714.851 1540.59 709.041 1540.59 Q703.231 1540.59 700.152 1536.01 Q697.097 1531.4 697.097 1522.67 Q697.097 1513.92 700.152 1509.34 Q703.231 1504.73 709.041 1504.73 Z" fill="#000000" fill-rule="evenodd" fill-opacity="1" /><path clip-path="url(#clip560)" d="M 0 0 M726.865 1535.98 L734.504 1535.98 L734.504 1509.62 L726.194 1511.29 L726.194 1507.03 L734.458 1505.36 L739.134 1505.36 L739.134 1535.98 L746.772 1535.98 L746.772 1539.92 L726.865 1539.92 L726.865 1535.98 Z" fill="#000000" fill-rule="evenodd" fill-opacity="1" /><path clip-path="url(#clip560)" d="M 0 0 M749.087 1525.04 L761.564 1525.04 L761.564 1528.83 L749.087 1528.83 L749.087 1525.04 Z" fill="#000000" fill-rule="evenodd" fill-opacity="1" /><path clip-path="url(#clip560)" d="M 0 0 M776.633 1508.44 Q773.022 1508.44 771.194 1512 Q769.388 1515.55 769.388 1522.67 Q769.388 1529.78 771.194 1533.35 Q773.022 1536.89 776.633 1536.89 Q780.268 1536.89 782.073 1533.35 Q783.902 1529.78 783.902 1522.67 Q783.902 1515.55 782.073 1512 Q780.268 1508.44 776.633 1508.44 M776.633 1504.73 Q782.444 1504.73 785.499 1509.34 Q788.578 1513.92 788.578 1522.67 Q788.578 1531.4 785.499 1536.01 Q782.444 1540.59 776.633 1540.59 Q770.823 1540.59 767.745 1536.01 Q764.689 1531.4 764.689 1522.67 Q764.689 1513.92 767.745 1509.34 Q770.823 1504.73 776.633 1504.73 Z" fill="#000000" fill-rule="evenodd" fill-opacity="1" /><path clip-path="url(#clip560)" d="M 0 0 M794.457 1535.98 L802.096 1535.98 L802.096 1509.62 L793.786 1511.29 L793.786 1507.03 L802.05 1505.36 L806.726 1505.36 L806.726 1535.98 L814.365 1535.98 L814.365 1539.92 L794.457 1539.92 L794.457 1535.98 Z" fill="#000000" fill-rule="evenodd" fill-opacity="1" /><path clip-path="url(#clip560)" d="M 0 0 M1070.21 1535.98 L1086.53 1535.98 L1086.53 1539.92 L1064.59 1539.92 L1064.59 1535.98 Q1067.25 1533.23 1071.83 1528.6 Q1076.44 1523.95 1077.62 1522.61 Q1079.87 1520.08 1080.75 1518.35 Q1081.65 1516.59 1081.65 1514.9 Q1081.65 1512.14 1079.71 1510.41 Q1077.78 1508.67 1074.68 1508.67 Q1072.48 1508.67 1070.03 1509.43 Q1067.6 1510.2 1064.82 1511.75 L1064.82 1507.03 Q1067.65 1505.89 1070.1 1505.31 Q1072.55 1504.73 1074.59 1504.73 Q1079.96 1504.73 1083.15 1507.42 Q1086.35 1510.11 1086.35 1514.6 Q1086.35 1516.73 1085.54 1518.65 Q1084.75 1520.54 1082.65 1523.14 Q1082.07 1523.81 1078.96 1527.03 Q1075.86 1530.22 1070.21 1535.98 Z" fill="#000000" fill-rule="evenodd" fill-opacity="1" /><path clip-path="url(#clip560)" d="M 0 0 M1101.6 1508.44 Q1097.99 1508.44 1096.16 1512 Q1094.36 1515.55 1094.36 1522.67 Q1094.36 1529.78 1096.16 1533.35 Q1097.99 1536.89 1101.6 1536.89 Q1105.24 1536.89 1107.04 1533.35 Q1108.87 1529.78 1108.87 1522.67 Q1108.87 1515.55 1107.04 1512 Q1105.24 1508.44 1101.6 1508.44 M1101.6 1504.73 Q1107.41 1504.73 1110.47 1509.34 Q1113.55 1513.92 1113.55 1522.67 Q1113.55 1531.4 1110.47 1536.01 Q1107.41 1540.59 1101.6 1540.59 Q1095.79 1540.59 1092.71 1536.01 Q1089.66 1531.4 1089.66 1522.67 Q1089.66 1513.92 1092.71 1509.34 Q1095.79 1504.73 1101.6 1504.73 Z" fill="#000000" fill-rule="evenodd" fill-opacity="1" /><path clip-path="url(#clip560)" d="M 0 0 M1119.43 1535.98 L1127.07 1535.98 L1127.07 1509.62 L1118.76 1511.29 L1118.76 1507.03 L1127.02 1505.36 L1131.7 1505.36 L1131.7 1535.98 L1139.33 1535.98 L1139.33 1539.92 L1119.43 1539.92 L1119.43 1535.98 Z" fill="#000000" fill-rule="evenodd" fill-opacity="1" /><path clip-path="url(#clip560)" d="M 0 0 M1154.98 1520.78 Q1151.83 1520.78 1149.98 1522.93 Q1148.15 1525.08 1148.15 1528.83 Q1148.15 1532.56 1149.98 1534.73 Q1151.83 1536.89 1154.98 1536.89 Q1158.13 1536.89 1159.96 1534.73 Q1161.81 1532.56 1161.81 1528.83 Q1161.81 1525.08 1159.96 1522.93 Q1158.13 1520.78 1154.98 1520.78 M1164.26 1506.12 L1164.26 1510.38 Q1162.51 1509.55 1160.7 1509.11 Q1158.92 1508.67 1157.16 1508.67 Q1152.53 1508.67 1150.08 1511.8 Q1147.64 1514.92 1147.3 1521.24 Q1148.66 1519.23 1150.72 1518.16 Q1152.78 1517.07 1155.26 1517.07 Q1160.47 1517.07 1163.48 1520.24 Q1166.51 1523.39 1166.51 1528.83 Q1166.51 1534.16 1163.36 1537.37 Q1160.21 1540.59 1154.98 1540.59 Q1148.99 1540.59 1145.82 1536.01 Q1142.64 1531.4 1142.64 1522.67 Q1142.64 1514.48 1146.53 1509.62 Q1150.42 1504.73 1156.97 1504.73 Q1158.73 1504.73 1160.51 1505.08 Q1162.32 1505.43 1164.26 1506.12 Z" fill="#000000" fill-rule="evenodd" fill-opacity="1" /><path clip-path="url(#clip560)" d="M 0 0 M1168.83 1525.04 L1181.3 1525.04 L1181.3 1528.83 L1168.83 1528.83 L1168.83 1525.04 Z" fill="#000000" fill-rule="evenodd" fill-opacity="1" /><path clip-path="url(#clip560)" d="M 0 0 M1196.37 1508.44 Q1192.76 1508.44 1190.93 1512 Q1189.13 1515.55 1189.13 1522.67 Q1189.13 1529.78 1190.93 1533.35 Q1192.76 1536.89 1196.37 1536.89 Q1200.01 1536.89 1201.81 1533.35 Q1203.64 1529.78 1203.64 1522.67 Q1203.64 1515.55 1201.81 1512 Q1200.01 1508.44 1196.37 1508.44 M1196.37 1504.73 Q1202.18 1504.73 1205.24 1509.34 Q1208.32 1513.92 1208.32 1522.67 Q1208.32 1531.4 1205.24 1536.01 Q1202.18 1540.59 1196.37 1540.59 Q1190.56 1540.59 1187.48 1536.01 Q1184.43 1531.4 1184.43 1522.67 Q1184.43 1513.92 1187.48 1509.34 Q1190.56 1504.73 1196.37 1504.73 Z" fill="#000000" fill-rule="evenodd" fill-opacity="1" /><path clip-path="url(#clip560)" d="M 0 0 M1214.2 1535.98 L1221.83 1535.98 L1221.83 1509.62 L1213.52 1511.29 L1213.52 1507.03 L1221.79 1505.36 L1226.46 1505.36 L1226.46 1535.98 L1234.1 1535.98 L1234.1 1539.92 L1214.2 1539.92 L1214.2 1535.98 Z" fill="#000000" fill-rule="evenodd" fill-opacity="1" /><path clip-path="url(#clip560)" d="M 0 0 M1236.42 1525.04 L1248.89 1525.04 L1248.89 1528.83 L1236.42 1528.83 L1236.42 1525.04 Z" fill="#000000" fill-rule="evenodd" fill-opacity="1" /><path clip-path="url(#clip560)" d="M 0 0 M1263.96 1508.44 Q1260.35 1508.44 1258.52 1512 Q1256.72 1515.55 1256.72 1522.67 Q1256.72 1529.78 1258.52 1533.35 Q1260.35 1536.89 1263.96 1536.89 Q1267.6 1536.89 1269.4 1533.35 Q1271.23 1529.78 1271.23 1522.67 Q1271.23 1515.55 1269.4 1512 Q1267.6 1508.44 1263.96 1508.44 M1263.96 1504.73 Q1269.77 1504.73 1272.83 1509.34 Q1275.91 1513.92 1275.91 1522.67 Q1275.91 1531.4 1272.83 1536.01 Q1269.77 1540.59 1263.96 1540.59 Q1258.15 1540.59 1255.07 1536.01 Q1252.02 1531.4 1252.02 1522.67 Q1252.02 1513.92 1255.07 1509.34 Q1258.15 1504.73 1263.96 1504.73 Z" fill="#000000" fill-rule="evenodd" fill-opacity="1" /><path clip-path="url(#clip560)" d="M 0 0 M1281.79 1535.98 L1289.43 1535.98 L1289.43 1509.62 L1281.12 1511.29 L1281.12 1507.03 L1289.38 1505.36 L1294.06 1505.36 L1294.06 1535.98 L1301.69 1535.98 L1301.69 1539.92 L1281.79 1539.92 L1281.79 1535.98 Z" fill="#000000" fill-rule="evenodd" fill-opacity="1" /><path clip-path="url(#clip560)" d="M 0 0 M1558.5 1535.98 L1574.82 1535.98 L1574.82 1539.92 L1552.88 1539.92 L1552.88 1535.98 Q1555.54 1533.23 1560.12 1528.6 Q1564.73 1523.95 1565.91 1522.61 Q1568.15 1520.08 1569.03 1518.35 Q1569.94 1516.59 1569.94 1514.9 Q1569.94 1512.14 1567.99 1510.41 Q1566.07 1508.67 1562.97 1508.67 Q1560.77 1508.67 1558.32 1509.43 Q1555.89 1510.2 1553.11 1511.75 L1553.11 1507.03 Q1555.93 1505.89 1558.39 1505.31 Q1560.84 1504.73 1562.88 1504.73 Q1568.25 1504.73 1571.44 1507.42 Q1574.64 1510.11 1574.64 1514.6 Q1574.64 1516.73 1573.83 1518.65 Q1573.04 1520.54 1570.93 1523.14 Q1570.35 1523.81 1567.25 1527.03 Q1564.15 1530.22 1558.5 1535.98 Z" fill="#000000" fill-rule="evenodd" fill-opacity="1" /><path clip-path="url(#clip560)" d="M 0 0 M1589.89 1508.44 Q1586.28 1508.44 1584.45 1512 Q1582.65 1515.55 1582.65 1522.67 Q1582.65 1529.78 1584.45 1533.35 Q1586.28 1536.89 1589.89 1536.89 Q1593.52 1536.89 1595.33 1533.35 Q1597.16 1529.78 1597.16 1522.67 Q1597.16 1515.55 1595.33 1512 Q1593.52 1508.44 1589.89 1508.44 M1589.89 1504.73 Q1595.7 1504.73 1598.76 1509.34 Q1601.83 1513.92 1601.83 1522.67 Q1601.83 1531.4 1598.76 1536.01 Q1595.7 1540.59 1589.89 1540.59 Q1584.08 1540.59 1581 1536.01 Q1577.95 1531.4 1577.95 1522.67 Q1577.95 1513.92 1581 1509.34 Q1584.08 1504.73 1589.89 1504.73 Z" fill="#000000" fill-rule="evenodd" fill-opacity="1" /><path clip-path="url(#clip560)" d="M 0 0 M1607.71 1535.98 L1615.35 1535.98 L1615.35 1509.62 L1607.04 1511.29 L1607.04 1507.03 L1615.31 1505.36 L1619.98 1505.36 L1619.98 1535.98 L1627.62 1535.98 L1627.62 1539.92 L1607.71 1539.92 L1607.71 1535.98 Z" fill="#000000" fill-rule="evenodd" fill-opacity="1" /><path clip-path="url(#clip560)" d="M 0 0 M1642.69 1523.51 Q1639.36 1523.51 1637.44 1525.29 Q1635.54 1527.07 1635.54 1530.2 Q1635.54 1533.32 1637.44 1535.11 Q1639.36 1536.89 1642.69 1536.89 Q1646.02 1536.89 1647.95 1535.11 Q1649.87 1533.3 1649.87 1530.2 Q1649.87 1527.07 1647.95 1525.29 Q1646.05 1523.51 1642.69 1523.51 M1638.02 1521.52 Q1635.01 1520.78 1633.32 1518.72 Q1631.65 1516.66 1631.65 1513.69 Q1631.65 1509.55 1634.59 1507.14 Q1637.55 1504.73 1642.69 1504.73 Q1647.85 1504.73 1650.79 1507.14 Q1653.73 1509.55 1653.73 1513.69 Q1653.73 1516.66 1652.04 1518.72 Q1650.38 1520.78 1647.39 1521.52 Q1650.77 1522.3 1652.64 1524.6 Q1654.54 1526.89 1654.54 1530.2 Q1654.54 1535.22 1651.46 1537.91 Q1648.41 1540.59 1642.69 1540.59 Q1636.97 1540.59 1633.89 1537.91 Q1630.84 1535.22 1630.84 1530.2 Q1630.84 1526.89 1632.74 1524.6 Q1634.64 1522.3 1638.02 1521.52 M1636.3 1514.13 Q1636.3 1516.82 1637.97 1518.32 Q1639.66 1519.83 1642.69 1519.83 Q1645.7 1519.83 1647.39 1518.32 Q1649.1 1516.82 1649.1 1514.13 Q1649.1 1511.45 1647.39 1509.94 Q1645.7 1508.44 1642.69 1508.44 Q1639.66 1508.44 1637.97 1509.94 Q1636.3 1511.45 1636.3 1514.13 Z" fill="#000000" fill-rule="evenodd" fill-opacity="1" /><path clip-path="url(#clip560)" d="M 0 0 M1656.86 1525.04 L1669.33 1525.04 L1669.33 1528.83 L1656.86 1528.83 L1656.86 1525.04 Z" fill="#000000" fill-rule="evenodd" fill-opacity="1" /><path clip-path="url(#clip560)" d="M 0 0 M1684.4 1508.44 Q1680.79 1508.44 1678.96 1512 Q1677.16 1515.55 1677.16 1522.67 Q1677.16 1529.78 1678.96 1533.35 Q1680.79 1536.89 1684.4 1536.89 Q1688.04 1536.89 1689.84 1533.35 Q1691.67 1529.78 1691.67 1522.67 Q1691.67 1515.55 1689.84 1512 Q1688.04 1508.44 1684.4 1508.44 M1684.4 1504.73 Q1690.21 1504.73 1693.27 1509.34 Q1696.35 1513.92 1696.35 1522.67 Q1696.35 1531.4 1693.27 1536.01 Q1690.21 1540.59 1684.4 1540.59 Q1678.59 1540.59 1675.51 1536.01 Q1672.46 1531.4 1672.46 1522.67 Q1672.46 1513.92 1675.51 1509.34 Q1678.59 1504.73 1684.4 1504.73 Z" fill="#000000" fill-rule="evenodd" fill-opacity="1" /><path clip-path="url(#clip560)" d="M 0 0 M1702.23 1535.98 L1709.87 1535.98 L1709.87 1509.62 L1701.56 1511.29 L1701.56 1507.03 L1709.82 1505.36 L1714.5 1505.36 L1714.5 1535.98 L1722.14 1535.98 L1722.14 1539.92 L1702.23 1539.92 L1702.23 1535.98 Z" fill="#000000" fill-rule="evenodd" fill-opacity="1" /><path clip-path="url(#clip560)" d="M 0 0 M1724.45 1525.04 L1736.93 1525.04 L1736.93 1528.83 L1724.45 1528.83 L1724.45 1525.04 Z" fill="#000000" fill-rule="evenodd" fill-opacity="1" /><path clip-path="url(#clip560)" d="M 0 0 M1752 1508.44 Q1748.38 1508.44 1746.56 1512 Q1744.75 1515.55 1744.75 1522.67 Q1744.75 1529.78 1746.56 1533.35 Q1748.38 1536.89 1752 1536.89 Q1755.63 1536.89 1757.44 1533.35 Q1759.26 1529.78 1759.26 1522.67 Q1759.26 1515.55 1757.44 1512 Q1755.63 1508.44 1752 1508.44 M1752 1504.73 Q1757.81 1504.73 1760.86 1509.34 Q1763.94 1513.92 1763.94 1522.67 Q1763.94 1531.4 1760.86 1536.01 Q1757.81 1540.59 1752 1540.59 Q1746.19 1540.59 1743.11 1536.01 Q1740.05 1531.4 1740.05 1522.67 Q1740.05 1513.92 1743.11 1509.34 Q1746.19 1504.73 1752 1504.73 Z" fill="#000000" fill-rule="evenodd" fill-opacity="1" /><path clip-path="url(#clip560)" d="M 0 0 M1769.82 1535.98 L1777.46 1535.98 L1777.46 1509.62 L1769.15 1511.29 L1769.15 1507.03 L1777.41 1505.36 L1782.09 1505.36 L1782.09 1535.98 L1789.73 1535.98 L1789.73 1539.92 L1769.82 1539.92 L1769.82 1535.98 Z" fill="#000000" fill-rule="evenodd" fill-opacity="1" /><path clip-path="url(#clip560)" d="M 0 0 M2046.13 1535.98 L2062.45 1535.98 L2062.45 1539.92 L2040.51 1539.92 L2040.51 1535.98 Q2043.17 1533.23 2047.75 1528.6 Q2052.36 1523.95 2053.54 1522.61 Q2055.79 1520.08 2056.67 1518.35 Q2057.57 1516.59 2057.57 1514.9 Q2057.57 1512.14 2055.62 1510.41 Q2053.7 1508.67 2050.6 1508.67 Q2048.4 1508.67 2045.95 1509.43 Q2043.52 1510.2 2040.74 1511.75 L2040.74 1507.03 Q2043.56 1505.89 2046.02 1505.31 Q2048.47 1504.73 2050.51 1504.73 Q2055.88 1504.73 2059.07 1507.42 Q2062.27 1510.11 2062.27 1514.6 Q2062.27 1516.73 2061.46 1518.65 Q2060.67 1520.54 2058.56 1523.14 Q2057.98 1523.81 2054.88 1527.03 Q2051.78 1530.22 2046.13 1535.98 Z" fill="#000000" fill-rule="evenodd" fill-opacity="1" /><path clip-path="url(#clip560)" d="M 0 0 M2077.52 1508.44 Q2073.91 1508.44 2072.08 1512 Q2070.28 1515.55 2070.28 1522.67 Q2070.28 1529.78 2072.08 1533.35 Q2073.91 1536.89 2077.52 1536.89 Q2081.16 1536.89 2082.96 1533.35 Q2084.79 1529.78 2084.79 1522.67 Q2084.79 1515.55 2082.96 1512 Q2081.16 1508.44 2077.52 1508.44 M2077.52 1504.73 Q2083.33 1504.73 2086.39 1509.34 Q2089.47 1513.92 2089.47 1522.67 Q2089.47 1531.4 2086.39 1536.01 Q2083.33 1540.59 2077.52 1540.59 Q2071.71 1540.59 2068.63 1536.01 Q2065.58 1531.4 2065.58 1522.67 Q2065.58 1513.92 2068.63 1509.34 Q2071.71 1504.73 2077.52 1504.73 Z" fill="#000000" fill-rule="evenodd" fill-opacity="1" /><path clip-path="url(#clip560)" d="M 0 0 M2098.56 1535.98 L2114.88 1535.98 L2114.88 1539.92 L2092.94 1539.92 L2092.94 1535.98 Q2095.6 1533.23 2100.18 1528.6 Q2104.79 1523.95 2105.97 1522.61 Q2108.22 1520.08 2109.1 1518.35 Q2110 1516.59 2110 1514.9 Q2110 1512.14 2108.05 1510.41 Q2106.13 1508.67 2103.03 1508.67 Q2100.83 1508.67 2098.38 1509.43 Q2095.95 1510.2 2093.17 1511.75 L2093.17 1507.03 Q2095.99 1505.89 2098.45 1505.31 Q2100.9 1504.73 2102.94 1504.73 Q2108.31 1504.73 2111.5 1507.42 Q2114.7 1510.11 2114.7 1514.6 Q2114.7 1516.73 2113.89 1518.65 Q2113.1 1520.54 2110.99 1523.14 Q2110.41 1523.81 2107.31 1527.03 Q2104.21 1530.22 2098.56 1535.98 Z" fill="#000000" fill-rule="evenodd" fill-opacity="1" /><path clip-path="url(#clip560)" d="M 0 0 M2129.95 1508.44 Q2126.34 1508.44 2124.51 1512 Q2122.71 1515.55 2122.71 1522.67 Q2122.71 1529.78 2124.51 1533.35 Q2126.34 1536.89 2129.95 1536.89 Q2133.59 1536.89 2135.39 1533.35 Q2137.22 1529.78 2137.22 1522.67 Q2137.22 1515.55 2135.39 1512 Q2133.59 1508.44 2129.95 1508.44 M2129.95 1504.73 Q2135.76 1504.73 2138.82 1509.34 Q2141.9 1513.92 2141.9 1522.67 Q2141.9 1531.4 2138.82 1536.01 Q2135.76 1540.59 2129.95 1540.59 Q2124.14 1540.59 2121.06 1536.01 Q2118.01 1531.4 2118.01 1522.67 Q2118.01 1513.92 2121.06 1509.34 Q2124.14 1504.73 2129.95 1504.73 Z" fill="#000000" fill-rule="evenodd" fill-opacity="1" /><path clip-path="url(#clip560)" d="M 0 0 M2144.21 1525.04 L2156.69 1525.04 L2156.69 1528.83 L2144.21 1528.83 L2144.21 1525.04 Z" fill="#000000" fill-rule="evenodd" fill-opacity="1" /><path clip-path="url(#clip560)" d="M 0 0 M2171.76 1508.44 Q2168.15 1508.44 2166.32 1512 Q2164.51 1515.55 2164.51 1522.67 Q2164.51 1529.78 2166.32 1533.35 Q2168.15 1536.89 2171.76 1536.89 Q2175.39 1536.89 2177.2 1533.35 Q2179.03 1529.78 2179.03 1522.67 Q2179.03 1515.55 2177.2 1512 Q2175.39 1508.44 2171.76 1508.44 M2171.76 1504.73 Q2177.57 1504.73 2180.62 1509.34 Q2183.7 1513.92 2183.7 1522.67 Q2183.7 1531.4 2180.62 1536.01 Q2177.57 1540.59 2171.76 1540.59 Q2165.95 1540.59 2162.87 1536.01 Q2159.81 1531.4 2159.81 1522.67 Q2159.81 1513.92 2162.87 1509.34 Q2165.95 1504.73 2171.76 1504.73 Z" fill="#000000" fill-rule="evenodd" fill-opacity="1" /><path clip-path="url(#clip560)" d="M 0 0 M2189.58 1535.98 L2197.22 1535.98 L2197.22 1509.62 L2188.91 1511.29 L2188.91 1507.03 L2197.17 1505.36 L2201.85 1505.36 L2201.85 1535.98 L2209.49 1535.98 L2209.49 1539.92 L2189.58 1539.92 L2189.58 1535.98 Z" fill="#000000" fill-rule="evenodd" fill-opacity="1" /><path clip-path="url(#clip560)" d="M 0 0 M2211.8 1525.04 L2224.28 1525.04 L2224.28 1528.83 L2211.8 1528.83 L2211.8 1525.04 Z" fill="#000000" fill-rule="evenodd" fill-opacity="1" /><path clip-path="url(#clip560)" d="M 0 0 M2239.35 1508.44 Q2235.74 1508.44 2233.91 1512 Q2232.1 1515.55 2232.1 1522.67 Q2232.1 1529.78 2233.91 1533.35 Q2235.74 1536.89 2239.35 1536.89 Q2242.98 1536.89 2244.79 1533.35 Q2246.62 1529.78 2246.62 1522.67 Q2246.62 1515.55 2244.79 1512 Q2242.98 1508.44 2239.35 1508.44 M2239.35 1504.73 Q2245.16 1504.73 2248.21 1509.34 Q2251.29 1513.92 2251.29 1522.67 Q2251.29 1531.4 2248.21 1536.01 Q2245.16 1540.59 2239.35 1540.59 Q2233.54 1540.59 2230.46 1536.01 Q2227.4 1531.4 2227.4 1522.67 Q2227.4 1513.92 2230.46 1509.34 Q2233.54 1504.73 2239.35 1504.73 Z" fill="#000000" fill-rule="evenodd" fill-opacity="1" /><path clip-path="url(#clip560)" d="M 0 0 M2257.17 1535.98 L2264.81 1535.98 L2264.81 1509.62 L2256.5 1511.29 L2256.5 1507.03 L2264.77 1505.36 L2269.44 1505.36 L2269.44 1535.98 L2277.08 1535.98 L2277.08 1539.92 L2257.17 1539.92 L2257.17 1535.98 Z" fill="#000000" fill-rule="evenodd" fill-opacity="1" /><path clip-path="url(#clip560)" d="M 0 0 M74.9365 1317.41 Q71.3254 1317.41 69.4967 1320.98 Q67.6912 1324.52 67.6912 1331.65 Q67.6912 1338.75 69.4967 1342.32 Q71.3254 1345.86 74.9365 1345.86 Q78.5707 1345.86 80.3763 1342.32 Q82.205 1338.75 82.205 1331.65 Q82.205 1324.52 80.3763 1320.98 Q78.5707 1317.41 74.9365 1317.41 M74.9365 1313.71 Q80.7467 1313.71 83.8022 1318.32 Q86.8809 1322.9 86.8809 1331.65 Q86.8809 1340.38 83.8022 1344.98 Q80.7467 1349.56 74.9365 1349.56 Q69.1264 1349.56 66.0477 1344.98 Q62.9921 1340.38 62.9921 1331.65 Q62.9921 1322.9 66.0477 1318.32 Q69.1264 1313.71 74.9365 1313.71 Z" fill="#000000" fill-rule="evenodd" fill-opacity="1" /><path clip-path="url(#clip560)" d="M 0 0 M91.9503 1343.01 L96.8345 1343.01 L96.8345 1348.89 L91.9503 1348.89 L91.9503 1343.01 Z" fill="#000000" fill-rule="evenodd" fill-opacity="1" /><path clip-path="url(#clip560)" d="M 0 0 M111.904 1332.48 Q108.571 1332.48 106.649 1334.26 Q104.751 1336.05 104.751 1339.17 Q104.751 1342.3 106.649 1344.08 Q108.571 1345.86 111.904 1345.86 Q115.237 1345.86 117.159 1344.08 Q119.08 1342.27 119.08 1339.17 Q119.08 1336.05 117.159 1334.26 Q115.26 1332.48 111.904 1332.48 M107.228 1330.49 Q104.219 1329.75 102.529 1327.69 Q100.862 1325.63 100.862 1322.67 Q100.862 1318.52 103.802 1316.12 Q106.765 1313.71 111.904 1313.71 Q117.066 1313.71 120.006 1316.12 Q122.946 1318.52 122.946 1322.67 Q122.946 1325.63 121.256 1327.69 Q119.589 1329.75 116.603 1330.49 Q119.983 1331.28 121.858 1333.57 Q123.756 1335.86 123.756 1339.17 Q123.756 1344.19 120.677 1346.88 Q117.621 1349.56 111.904 1349.56 Q106.186 1349.56 103.108 1346.88 Q100.052 1344.19 100.052 1339.17 Q100.052 1335.86 101.95 1333.57 Q103.848 1331.28 107.228 1330.49 M105.515 1323.11 Q105.515 1325.79 107.182 1327.3 Q108.872 1328.8 111.904 1328.8 Q114.913 1328.8 116.603 1327.3 Q118.316 1325.79 118.316 1323.11 Q118.316 1320.42 116.603 1318.92 Q114.913 1317.41 111.904 1317.41 Q108.872 1317.41 107.182 1318.92 Q105.515 1320.42 105.515 1323.11 Z" fill="#000000" fill-rule="evenodd" fill-opacity="1" /><path clip-path="url(#clip560)" d="M 0 0 M75.0291 995.587 Q71.418 995.587 69.5893 999.151 Q67.7838 1002.69 67.7838 1009.82 Q67.7838 1016.93 69.5893 1020.49 Q71.418 1024.04 75.0291 1024.04 Q78.6633 1024.04 80.4689 1020.49 Q82.2976 1016.93 82.2976 1009.82 Q82.2976 1002.69 80.4689 999.151 Q78.6633 995.587 75.0291 995.587 M75.0291 991.883 Q80.8393 991.883 83.8948 996.489 Q86.9735 1001.07 86.9735 1009.82 Q86.9735 1018.55 83.8948 1023.16 Q80.8393 1027.74 75.0291 1027.74 Q69.2189 1027.74 66.1403 1023.16 Q63.0847 1018.55 63.0847 1009.82 Q63.0847 1001.07 66.1403 996.489 Q69.2189 991.883 75.0291 991.883 Z" fill="#000000" fill-rule="evenodd" fill-opacity="1" /><path clip-path="url(#clip560)" d="M 0 0 M92.0429 1021.19 L96.9271 1021.19 L96.9271 1027.07 L92.0429 1027.07 L92.0429 1021.19 Z" fill="#000000" fill-rule="evenodd" fill-opacity="1" /><path clip-path="url(#clip560)" d="M 0 0 M102.135 1026.35 L102.135 1022.09 Q103.895 1022.92 105.7 1023.36 Q107.506 1023.8 109.242 1023.8 Q113.871 1023.8 116.302 1020.7 Q118.756 1017.58 119.103 1011.23 Q117.76 1013.23 115.7 1014.29 Q113.64 1015.36 111.14 1015.36 Q105.955 1015.36 102.922 1012.23 Q99.9132 1009.08 99.9132 1003.64 Q99.9132 998.318 103.061 995.101 Q106.209 991.883 111.441 991.883 Q117.436 991.883 120.584 996.489 Q123.756 1001.07 123.756 1009.82 Q123.756 1017.99 119.867 1022.88 Q116.001 1027.74 109.45 1027.74 Q107.691 1027.74 105.885 1027.39 Q104.08 1027.04 102.135 1026.35 M111.441 1011.7 Q114.589 1011.7 116.418 1009.54 Q118.27 1007.39 118.27 1003.64 Q118.27 999.915 116.418 997.763 Q114.589 995.587 111.441 995.587 Q108.293 995.587 106.441 997.763 Q104.612 999.915 104.612 1003.64 Q104.612 1007.39 106.441 1009.54 Q108.293 1011.7 111.441 1011.7 Z" fill="#000000" fill-rule="evenodd" fill-opacity="1" /><path clip-path="url(#clip560)" d="M 0 0 M66.881 701.307 L74.5198 701.307 L74.5198 674.941 L66.2097 676.608 L66.2097 672.349 L74.4735 670.682 L79.1494 670.682 L79.1494 701.307 L86.7883 701.307 L86.7883 705.242 L66.881 705.242 L66.881 701.307 Z" fill="#000000" fill-rule="evenodd" fill-opacity="1" /><path clip-path="url(#clip560)" d="M 0 0 M91.8577 699.363 L96.7419 699.363 L96.7419 705.242 L91.8577 705.242 L91.8577 699.363 Z" fill="#000000" fill-rule="evenodd" fill-opacity="1" /><path clip-path="url(#clip560)" d="M 0 0 M111.811 673.761 Q108.2 673.761 106.372 677.326 Q104.566 680.867 104.566 687.997 Q104.566 695.103 106.372 698.668 Q108.2 702.21 111.811 702.21 Q115.446 702.21 117.251 698.668 Q119.08 695.103 119.08 687.997 Q119.08 680.867 117.251 677.326 Q115.446 673.761 111.811 673.761 M111.811 670.057 Q117.621 670.057 120.677 674.664 Q123.756 679.247 123.756 687.997 Q123.756 696.724 120.677 701.33 Q117.621 705.914 111.811 705.914 Q106.001 705.914 102.922 701.33 Q99.8669 696.724 99.8669 687.997 Q99.8669 679.247 102.922 674.664 Q106.001 670.057 111.811 670.057 Z" fill="#000000" fill-rule="evenodd" fill-opacity="1" /><path clip-path="url(#clip560)" d="M 0 0 M68.1078 379.481 L75.7467 379.481 L75.7467 353.116 L67.4365 354.782 L67.4365 350.523 L75.7004 348.857 L80.3763 348.857 L80.3763 379.481 L88.0151 379.481 L88.0151 383.417 L68.1078 383.417 L68.1078 379.481 Z" fill="#000000" fill-rule="evenodd" fill-opacity="1" /><path clip-path="url(#clip560)" d="M 0 0 M93.0846 377.537 L97.9688 377.537 L97.9688 383.417 L93.0846 383.417 L93.0846 377.537 Z" fill="#000000" fill-rule="evenodd" fill-opacity="1" /><path clip-path="url(#clip560)" d="M 0 0 M103.848 379.481 L111.487 379.481 L111.487 353.116 L103.177 354.782 L103.177 350.523 L111.441 348.857 L116.117 348.857 L116.117 379.481 L123.756 379.481 L123.756 383.417 L103.848 383.417 L103.848 379.481 Z" fill="#000000" fill-rule="evenodd" fill-opacity="1" /><polyline clip-path="url(#clip562)" style="stroke:#009af9; stroke-width:4; stroke-opacity:1; fill:none" points="
  210.161,697.544 210.829,669.355 212.833,674.662 213.5,703.96 214.168,705.944 214.836,713.114 215.504,676.672 218.175,686.194 218.843,722.296 219.511,739.345 
  220.178,740.791 222.182,716.179 222.85,712.784 223.517,739.745 224.185,723.271 224.853,692.906 226.856,684.378 227.524,681.433 228.192,711.163 228.86,716.472 
  229.527,728.861 231.531,726.499 232.199,734.321 232.866,742.547 233.534,747.7 234.202,715.866 236.205,738.641 236.873,736.299 237.541,720.601 238.209,755.876 
  238.877,763.971 241.548,752.789 242.216,742.373 242.883,756.581 243.551,736.47 245.555,742.03 246.222,752.406 246.89,736.809 247.558,756.485 248.226,728.536 
  250.229,716.034 250.897,667.748 251.565,692.053 252.233,722.825 252.9,699.067 254.904,699.287 255.572,757.562 256.239,754.202 256.907,771.33 257.575,776.549 
  259.578,778.575 260.246,769.258 260.914,764.572 261.582,741.256 262.25,736.845 264.253,780.408 264.921,771.145 265.589,756.023 266.256,750.425 266.924,739.983 
  268.928,764.267 269.595,752.764 270.263,721.508 270.931,717.944 273.602,682.347 274.27,626.625 274.938,652.934 275.606,697.839 276.273,698.79 278.277,695.473 
  278.944,744.746 279.612,734.066 280.28,714.034 280.948,718.325 282.951,662.265 283.619,675.55 284.287,719.299 284.955,741.273 285.622,726.54 287.626,712.743 
  288.294,733.298 288.961,724.711 289.629,701.147 290.297,691.134 292.3,693.719 292.968,679.662 293.636,660.968 294.304,668.141 294.972,637.045 296.975,602.346 
  297.643,582.864 298.311,570.423 298.978,519.961 299.646,493.546 301.65,519.787 302.317,522.102 302.985,526.726 303.653,533.104 304.321,491.847 306.992,531.876 
  307.66,483.932 308.328,477.176 308.995,448.802 310.999,447.98 311.667,470.362 312.334,550.001 313.002,550.001 313.67,543.52 315.673,502.599 316.341,540.918 
  317.009,519.648 317.677,555.007 318.345,588.282 320.348,550.285 321.016,582.477 321.684,577.081 322.351,502.885 323.019,574.415 325.023,519.991 325.69,537.793 
  326.358,568.649 327.026,558.891 327.694,613.378 329.697,618.704 330.365,642.299 331.7,627.707 332.368,619.241 334.372,614.151 335.039,586.412 335.707,586.643 
  336.375,572.049 337.043,565.26 339.046,558.371 339.714,582.609 340.382,605.988 341.05,614.39 341.717,584.517 343.721,526.095 344.389,497.342 345.056,496.838 
  345.724,551.52 346.392,584.392 348.395,583.694 349.063,566.907 349.731,558.922 350.399,535.107 351.067,590.823 353.07,597.979 353.738,613.612 354.406,617.606 
  355.073,620.171 355.741,602.619 357.745,601.197 358.412,600.95 359.08,604.482 359.748,629.804 360.416,634.189 362.419,618.75 363.087,609.047 363.755,609.508 
  364.423,583.92 365.09,590.051 367.094,590.051 367.762,587.238 368.429,589.837 369.097,565.467 369.765,580.316 372.436,575.344 373.104,574.408 373.772,641.087 
  374.44,631.775 376.443,613.631 377.111,621.654 377.779,631.687 378.446,684.563 379.114,665.391 381.117,655.716 381.785,652.385 382.453,654.17 383.121,654.61 
  383.789,653.266 385.792,632.624 386.46,599.595 387.128,580.55 387.795,612.113 388.463,614.865 390.467,624.466 391.134,627.894 391.802,641.946 392.47,666.939 
  393.138,647.536 395.141,636.159 395.809,603.822 396.477,583.666 397.145,585.978 397.812,623.893 399.816,651.463 400.484,684.885 401.151,698.614 401.819,691.591 
  402.487,636.061 404.49,616.61 405.158,569.829 405.826,560.853 406.494,570.592 407.162,593.652 410.501,592.239 411.168,630.708 411.836,560.626 413.84,568.904 
  414.507,593.616 415.175,519.683 415.843,478.485 416.511,539.063 418.514,540.277 419.182,529.325 419.85,482.274 420.518,476.489 421.185,494.693 423.189,541.993 
  423.857,542.975 424.524,551.915 425.86,570.499 427.863,564.587 428.531,548.96 429.199,573.578 429.867,589.586 430.534,560.708 432.538,547.052 433.206,541.104 
  433.873,547.791 434.541,559.186 435.209,544.741 437.212,547.588 437.88,569.26 438.548,571.122 439.216,552.069 439.884,499.083 441.887,539.118 442.555,575.886 
  443.223,551.363 443.89,569.968 444.558,517.303 446.562,479.366 447.897,463.483 448.565,459.342 449.233,443.293 451.236,478.747 452.572,565.853 453.24,554.636 
  453.907,548.659 455.911,538.341 456.579,528.869 457.246,538.152 457.914,563.761 458.582,544.766 460.585,541.559 461.253,543.391 461.921,543.391 462.589,563.759 
  463.257,572.798 465.928,577.642 466.596,583.674 467.263,584.345 467.931,581.094 469.935,577.552 470.602,591.984 471.27,579.002 471.938,572.576 472.606,590.227 
  474.609,553.382 475.277,587.233 475.945,589.883 476.613,585.482 477.28,579.144 479.284,579.017 479.952,584.076 480.619,587.777 481.287,590.609 481.955,587.579 
  484.626,594.583 485.294,552.833 485.962,532.891 486.629,577.096 488.633,515.713 489.301,538.007 489.968,580.892 490.636,574.318 491.304,555.811 493.307,571.874 
  493.975,603.29 494.643,607.758 495.311,613.748 495.979,597.018 497.982,609.387 498.65,602.624 499.318,606.634 499.985,624.626 500.653,620.499 502.657,577.825 
  503.324,570.758 503.992,592.772 504.66,565.099 505.328,560.507 507.331,549.331 507.999,574.458 508.667,573.818 509.335,558.185 512.006,547.496 512.674,562.974 
  513.341,530.357 514.009,543.184 514.677,550.92 516.68,572.561 517.348,584.289 518.016,625.835 518.684,636.383 519.352,601.674 521.355,524.899 522.023,574.147 
  522.691,525.042 523.358,505.633 524.026,533.873 526.03,526.498 526.697,561.746 527.365,562.823 528.033,577.223 528.701,546.635 530.704,569.356 531.372,577.311 
  532.04,548.336 532.707,578.261 533.375,587.798 535.379,596.416 536.046,612.594 536.714,627.983 537.382,618.738 538.05,608.34 540.053,610.18 540.721,645.032 
  541.389,661.228 542.057,645.981 542.724,678.515 544.728,654.134 545.396,659.015 546.063,633.184 546.731,624.504 547.399,640.54 550.07,660.107 550.738,638.813 
  551.406,650.89 552.074,620.814 554.077,639.704 554.745,622.222 555.413,577.423 556.08,606.948 556.748,614.282 558.752,613.683 559.419,580.694 560.087,552.969 
  560.755,603.776 561.423,576.527 563.426,602.439 564.094,628.369 564.762,583.139 565.43,500.522 566.097,509.847 568.101,426.295 568.769,460.651 569.436,493.787 
  570.104,515.62 570.772,459.208 572.775,483.944 573.443,479.925 574.111,484.173 575.447,498.117 577.45,516.94 578.118,541.351 578.786,542.568 579.453,588.996 
  580.121,560.055 582.125,569.84 582.792,556.741 583.46,565.144 584.128,584.037 584.796,589.752 586.799,577.136 587.467,571.835 588.135,558.237 588.802,566.586 
  589.47,549.012 591.474,537.683 592.141,538.187 592.809,538.899 593.477,579.628 594.145,561.443 596.148,557.533 596.816,538.32 597.484,527.406 598.152,539.171 
  598.819,548.984 600.823,545.022 601.491,554.974 602.158,537.774 602.826,490.069 603.494,480.612 605.497,434.77 606.165,451.827 606.833,430.983 607.501,460.737 
  608.169,450.855 610.172,437.993 610.84,382.607 611.508,395.565 612.175,401.123 612.843,435.013 615.514,452.194 616.182,480.982 616.85,484.494 617.518,454.951 
  619.521,489.458 620.189,514.948 620.857,525.187 621.525,516.202 622.192,484.433 624.196,504.041 624.864,518.631 625.531,559.435 626.199,553.818 626.867,529.424 
  628.87,488.443 629.538,480.008 630.206,470.284 630.874,482.897 631.542,482.661 633.545,462.521 634.213,489.788 634.88,486.168 635.548,456.245 636.216,451.574 
  638.219,422.118 638.887,381.145 639.555,383.482 640.223,459.851 640.891,450.966 642.894,465.578 643.562,440.027 644.23,488.439 644.897,511.275 645.565,533.807 
  647.569,504.52 648.236,524.604 648.904,508.986 649.572,519.502 650.24,493.117 652.243,498.749 652.911,518.085 653.579,501.261 654.247,489.301 654.914,491.508 
  656.918,504.49 657.586,494.882 658.253,510.934 658.921,468.376 659.589,487.51 661.592,488.679 662.26,482.687 662.928,509.392 663.596,527.282 664.264,541.604 
  666.267,507.715 666.935,499.751 667.603,488.726 668.27,515.908 668.938,507.622 670.942,505.838 671.609,506.311 672.277,514.956 673.613,486.759 675.616,479.782 
  676.284,467.635 676.952,463.9 677.62,450.48 678.287,462.295 680.291,470.67 680.959,459.132 681.626,419.47 682.294,409.324 682.962,423.5 684.965,445.198 
  685.633,433.81 686.301,493.68 686.969,490.203 687.636,509.236 689.64,515.646 690.308,524.94 691.643,541.766 692.311,526.161 694.314,525.618 694.982,525.948 
  696.318,496.449 696.986,514.628 698.989,507.373 699.657,526.944 700.325,528.598 700.992,530.083 701.66,509.831 703.664,466.46 704.331,503.574 704.999,521.914 
  705.667,517.331 706.335,502.439 709.006,498.016 709.674,500.792 710.342,471.983 711.009,487.567 713.013,470.732 713.681,491.2 714.348,458.011 715.016,496.913 
  715.684,453.781 717.687,377.611 718.355,402.112 719.023,397.32 719.691,443.207 720.359,456.473 722.362,462.626 723.03,499.743 723.698,502.169 724.365,520.402 
  725.033,513.758 727.704,517.991 728.372,495.938 729.04,517.348 729.708,512.204 731.711,509.373 732.379,505.887 733.047,506.264 733.715,524.831 734.382,504.121 
  736.386,478.572 737.053,529.726 737.721,530.626 738.389,538.536 739.057,501.828 741.06,501.478 741.728,483.73 742.396,485.019 743.064,446.832 743.731,494.436 
  745.735,526.407 746.403,550.714 747.07,532.648 747.738,552.347 748.406,539.333 750.409,490.762 751.077,507.333 751.745,482.355 752.413,475.861 753.081,493.449 
  755.084,485.879 755.752,508.376 756.42,519.753 757.087,515.086 757.755,473.909 759.759,435.607 760.426,450.587 761.094,488.192 761.762,415.677 762.43,480.259 
  764.433,508.01 765.101,531.784 765.769,566.233 766.437,570.905 769.108,560.12 769.776,574.614 770.443,567.53 771.111,573.939 771.779,535.909 773.782,546.391 
  774.45,561.853 775.118,573.263 775.786,572.202 776.454,535.568 778.457,542.201 779.125,513.271 779.793,532.714 780.46,529.3 781.128,521.842 783.132,553.334 
  783.799,556.513 784.467,540.647 785.135,510.912 785.803,523.604 787.806,517.941 788.474,495.859 789.142,524.776 789.809,533.355 790.477,528.785 793.148,549.364 
  793.816,546.21 794.484,564.293 795.152,540.723 797.155,544.914 797.823,543.337 798.491,549.791 799.159,572.05 799.826,571.409 801.83,575.002 802.498,575.349 
  803.165,563.941 803.833,539.939 804.501,536.158 806.504,539.105 807.172,548.283 807.84,572.761 808.508,576.836 809.176,583.931 811.179,568.625 811.847,548.494 
  812.515,563.314 813.182,561.427 813.85,562.446 815.854,548.576 816.521,571.743 817.189,574.792 817.857,574.699 820.528,562.586 821.196,541.234 821.864,556.006 
  822.532,542.588 823.199,561.69 825.203,578.377 825.871,572.307 826.538,584.815 827.206,546.891 827.874,581.225 829.877,554.029 830.545,568.972 831.213,576.387 
  831.881,576.557 832.549,534.24 834.552,535.393 835.22,521.074 835.888,521.945 836.555,454.246 837.223,541.54 839.227,566.011 839.894,533.104 840.562,534.351 
  841.23,516.258 841.898,516.315 843.901,526.155 844.569,521.794 845.237,545.565 845.904,559.878 846.572,559.878 848.576,564.316 849.243,581.766 849.911,590.636 
  850.579,600.153 851.247,570.53 853.25,587.601 853.918,590.421 854.586,589.265 855.254,586.952 855.921,585.591 858.593,583.765 859.26,582.441 859.928,577.643 
  860.596,572.761 862.599,563.82 863.267,542.82 863.935,555.457 864.603,558.815 865.271,539.068 867.274,536.706 867.942,562.089 868.61,565.941 869.277,583.24 
  869.945,581.737 871.949,532.809 872.616,513.325 873.284,540.22 873.952,485.575 874.62,520.983 876.623,513.986 877.291,487.714 877.959,441.555 878.627,442.094 
  879.294,484.691 881.298,480.183 881.966,427.623 882.633,488.298 883.301,419.454 883.969,497.136 885.972,440.412 886.64,447.629 887.308,420.184 887.976,419.618 
  888.644,463.062 890.647,456.166 891.315,523.402 891.982,499.873 892.65,539.823 893.318,528.787 895.321,524.314 895.989,563.113 896.657,559.41 897.325,581.356 
  897.993,583.477 899.996,584.622 900.664,574.083 901.332,595.128 901.999,608.389 902.667,580.455 904.671,590.263 905.338,593.525 906.006,590.433 906.674,593.531 
  907.342,571.802 909.345,573.925 910.013,593.172 910.681,587.372 911.349,593.827 912.016,611.238 914.02,602.667 914.688,601.076 915.355,608.57 916.691,581.374 
  918.694,558.746 919.362,579.569 920.03,593.058 920.698,588.914 921.366,568.786 923.369,546.322 924.037,543.897 924.705,491.282 925.372,506.917 926.04,569.276 
  928.044,546.518 928.711,520.068 929.379,588.844 930.047,668.528 930.715,682.306 932.718,676.431 933.386,681.1 934.054,681.723 935.389,672.274 937.393,677.239 
  938.061,659.906 938.728,670.854 940.064,626.905 942.067,569.431 942.735,536.857 943.403,579.002 944.071,637.889 944.738,601.279 946.742,575.872 947.41,566.655 
  948.077,547.326 948.745,516.215 949.413,559.32 952.084,522.669 952.752,540.087 953.42,589.813 954.088,525.427 956.091,534.015 956.759,489.37 957.427,444.034 
  958.094,477.084 958.762,526.072 960.766,566.921 961.433,615.389 962.101,603.815 962.769,637.968 963.437,590.829 965.44,576.153 966.108,612.117 966.776,614.017 
  967.444,645.377 968.111,627.08 970.783,632.551 971.45,632.551 972.118,630.363 972.786,618.443 974.789,617.68 975.457,627.487 976.125,623.76 976.793,620.665 
  977.461,609.213 979.464,629.87 980.132,616.345 980.8,602.395 981.467,606.021 982.135,601.818 984.139,616.146 984.806,562.459 985.474,554.639 986.142,597.577 
  986.81,560.583 988.813,606.081 989.481,595.642 990.149,634.54 990.817,619.876 991.484,621.757 993.488,615.365 994.155,596.252 994.823,547.902 995.491,540.221 
  996.159,644.916 998.162,685.333 998.83,633.739 999.498,622.496 1000.17,596.851 1002.84,620.274 1003.5,611.096 1004.17,622.867 1004.84,637.707 1005.51,625.079 
  1007.51,610.08 1008.18,616.38 1008.85,631.772 1009.51,630.062 1010.18,624.605 1012.19,654.91 1012.85,651.333 1013.52,667.482 1014.19,675.639 1014.86,657.034 
  1016.86,643.386 1017.53,653.438 1018.2,640.818 1018.86,607.792 1019.53,629.271 1021.54,639.525 1022.2,601.509 1022.87,588.059 1023.54,601.3 1024.21,614.361 
  1026.21,598.495 1026.88,588.68 1027.55,589.715 1028.21,623.977 1028.88,599.968 1030.88,609.467 1031.55,608.231 1032.22,606.066 1032.89,615.513 1033.56,584.944 
  1036.23,549.86 1036.89,581.062 1037.56,577.938 1038.23,570.624 1040.23,578.042 1040.9,574.585 1041.57,583.736 1042.24,556.609 1042.9,548.098 1044.91,527.239 
  1045.58,526.772 1046.24,567.151 1046.91,577.429 1047.58,498.5 1049.58,483.731 1050.25,502.716 1050.92,508.538 1051.59,542.917 1052.25,475.291 1054.26,498.609 
  1054.93,500.847 1055.59,475.958 1056.26,465.194 1056.93,451.236 1058.93,378.783 1059.6,496.648 1060.27,523.811 1060.94,462.069 1063.61,451.939 1064.27,473.499 
  1064.94,415.73 1065.61,422.385 1066.28,413.82 1068.28,452.53 1068.95,467.515 1069.62,466.541 1070.28,493.148 1070.95,472.311 1072.96,475.043 1073.62,461.015 
  1074.29,454.347 1074.96,435.387 1075.63,492.985 1077.63,473.117 1078.3,515.299 1078.97,538.777 1079.63,539.43 1080.3,512.469 1082.3,501.337 1082.97,494.524 
  1083.64,506.584 1084.31,480.525 1084.98,490.72 1086.98,534.248 1087.65,503.189 1088.31,507.422 1088.98,503.199 1089.65,482.885 1091.65,502.008 1092.32,492.151 
  1092.99,465.479 1093.66,393.141 1094.33,519.814 1096.33,381.301 1097,339.63 1097.66,479.269 1098.33,562.396 1099,494.471 1101,466.901 1101.67,361.034 
  1102.34,431.994 1103.01,433.604 1103.67,503.13 1106.35,590.244 1107.01,544.086 1107.68,563.765 1108.35,504.476 1110.35,490.994 1111.02,534.571 1111.69,563.617 
  1112.36,556.442 1113.02,476.82 1115.03,494.733 1115.69,450.445 1116.36,444.746 1117.03,432.76 1117.7,452.574 1119.7,364.466 1120.37,369.167 1121.04,425.004 
  1121.7,433.346 1122.37,439.421 1124.38,502.178 1125.04,490.005 1125.71,518.17 1126.38,548.226 1127.05,514.131 1129.05,517.833 1129.72,494.821 1130.39,478.795 
  1131.05,531.087 1131.72,515.497 1133.73,518.505 1134.39,514.001 1135.06,493.46 1135.73,550.782 1136.4,551.078 1138.4,542.196 1139.07,535.855 1139.74,574.686 
  1140.4,573.407 1141.07,519.575 1143.07,560.304 1143.74,570.004 1144.41,560.516 1145.08,556.689 1145.75,522.186 1147.75,490.934 1148.42,497.987 1149.08,484.91 
  1149.75,438.465 1150.42,548.934 1152.42,599.657 1153.09,595.964 1153.76,649.467 1154.43,646.655 1155.09,633.414 1157.1,628.724 1157.77,633.892 1158.43,633.102 
  1159.77,600.323 1161.77,586.766 1162.44,619.523 1163.11,584.75 1163.78,538.555 1164.44,565.548 1166.45,544.359 1167.12,523.059 1167.78,496.566 1168.45,504.703 
  1169.12,559.678 1171.12,578.423 1171.79,612.847 1172.46,658.936 1173.13,611.305 1173.79,551.161 1175.8,550.715 1176.46,581.157 1177.13,622.169 1177.8,573.594 
  1180.47,567.273 1181.14,603.729 1181.81,579.851 1182.47,560.716 1185.15,512.655 1185.81,519.737 1186.48,475.679 1187.15,393.552 1187.82,597.145 1189.82,600.234 
  1190.49,627.1 1191.16,545.804 1191.82,600.075 1192.49,567.846 1195.16,571.399 1195.83,532.374 1196.5,548.719 1197.17,558.683 1199.17,508.776 1199.84,554.577 
  1200.5,518.272 1201.17,536.468 1201.84,567.619 1203.84,566.414 1204.51,505.363 1205.18,524.511 1205.85,530.693 1206.52,553.829 1208.52,507.634 1209.19,507.634 
  1209.85,505.992 1210.52,465.256 1211.19,509.788 1213.86,565.648 1214.53,621.662 1215.2,607.023 1215.86,562.775 1217.87,610.989 1218.54,569.726 1219.2,584.638 
  1219.87,624.355 1220.54,561.068 1222.54,532.942 1223.21,614.714 1223.88,628.339 1224.55,640.844 1225.21,606.561 1227.22,610.177 1227.88,573.384 1228.55,591.186 
  1229.22,593.02 1229.89,594.151 1231.89,590.082 1232.56,584.662 1233.23,604.889 1233.89,625.172 1234.56,611.96 1236.57,615.497 1237.23,614.379 1237.9,592.819 
  1238.57,588.513 1241.24,590.483 1241.91,621.312 1242.58,636.208 1243.24,617.048 1243.91,609.309 1245.92,599.576 1246.58,566.405 1247.25,602.701 1247.92,563.185 
  1248.59,603.009 1250.59,593.969 1251.26,626.124 1251.93,659.097 1252.59,659.097 1253.26,624.775 1255.26,647.51 1255.93,657.004 1256.6,660.1 1257.27,642.804 
  1257.94,610.932 1259.94,604.934 1260.61,610.782 1261.27,616.779 1261.94,587.394 1262.61,605.124 1264.61,631.359 1265.28,602.544 1265.95,584.031 1266.62,583.802 
  1267.28,569.915 1269.29,572.682 1269.96,613.645 1270.62,584.407 1271.29,584.582 1271.96,534.287 1273.96,567.718 1274.63,537.207 1275.3,538.19 1275.97,526.314 
  1276.63,513.245 1278.64,508.131 1279.3,552.861 1279.97,575.11 1280.64,576.702 1281.31,569.64 1283.98,564.724 1284.65,570.779 1285.32,580.604 1285.98,543.786 
  1287.99,560.727 1288.65,565.647 1289.32,576.521 1289.99,571.204 1290.66,504.774 1292.66,478.556 1293.33,472.463 1294,467.029 1294.66,477.949 1295.33,491.321 
  1297.34,512.48 1298,520.811 1298.67,515.436 1299.34,560.754 1300.01,462.174 1302.01,400.653 1302.68,463.71 1303.35,522.67 1304.01,543.88 1304.68,522.052 
  1307.35,499.473 1308.02,521.048 1308.69,517.332 1309.36,537.844 1311.36,549.729 1312.03,573.96 1312.69,573.792 1313.36,591.325 1314.03,556.93 1316.03,566.074 
  1316.7,562.069 1317.37,576.604 1318.04,563.72 1318.71,547.821 1320.71,539.013 1321.38,539.937 1322.04,536.982 1322.71,540.884 1323.38,533.656 1325.38,529.928 
  1326.05,509.228 1326.72,519.485 1327.39,522.601 1328.05,528.535 1330.06,526.376 1330.73,528.387 1331.39,520.335 1332.06,536.212 1332.73,508.736 1334.73,519.313 
  1335.4,501.7 1336.07,507.779 1336.74,515.72 1337.4,489.077 1339.41,487.996 1340.07,494.71 1340.74,478.049 1341.41,473.949 1342.08,465.728 1344.08,483.311 
  1344.75,477.193 1345.42,467.924 1346.08,468.386 1346.75,464.947 1349.42,475.816 1350.09,455.906 1350.76,447.563 1351.43,485.149 1353.43,534.069 1354.1,485.753 
  1354.77,440.031 1355.43,474.982 1356.1,418.655 1358.11,419.481 1358.77,420.132 1359.44,444.619 1360.11,466.757 1360.78,421.605 1362.78,393.213 1363.45,415.016 
  1364.12,408.249 1364.78,376.124 1365.45,392.329 1367.45,381.445 1368.12,365.589 1368.79,385.632 1369.46,388.565 1370.13,362.722 1372.13,380.038 1372.8,336.634 
  1373.46,353.452 1374.13,341.973 1374.8,322.579 1376.8,310.983 1377.47,332.65 1378.14,317.125 1378.81,311.269 1379.47,301.952 1381.48,317.464 1382.15,306.092 
  1382.81,289.541 1383.48,279.895 1384.15,263.524 1386.15,263.192 1386.82,237.634 1387.49,266.1 1388.16,251.181 1388.82,192.169 1390.83,273.749 1391.49,290.287 
  1392.16,303.951 1392.83,311.937 1393.5,272.544 1395.5,273.898 1396.17,302.243 1396.84,276.341 1397.51,293.164 1398.17,269.435 1400.18,296.057 1400.84,302.955 
  1401.51,296.906 1402.85,292.769 1404.85,276.47 1405.52,282.383 1406.19,286.314 1406.85,273.166 1407.52,272.063 1409.53,293.079 1410.19,305.34 1410.86,330.648 
  1411.53,339.571 1412.2,335.253 1414.2,330.996 1414.87,354.711 1415.54,311.035 1416.2,325.517 1416.87,310.948 1418.87,317.832 1419.54,331.667 1420.21,304.398 
  1420.88,298.018 1421.55,298.418 1424.22,307.221 1424.88,294.203 1425.55,293.239 1426.22,259.994 1428.89,286.418 1429.56,291.181 1430.23,288.638 1430.89,285.008 
  1432.9,273.386 1433.57,272.58 1434.23,268.606 1434.9,260.588 1435.57,255.562 1438.24,243.817 1438.91,242.503 1439.58,229.734 1440.24,225.68 1442.25,217.398 
  1442.92,240.402 1443.58,247.172 1444.25,244.222 1444.92,247.12 1446.92,225.384 1447.59,224.26 1448.26,248.191 1448.93,250.443 1449.59,262.056 1451.6,255.549 
  1452.26,255.617 1452.93,249.017 1453.6,270.067 1454.27,264.496 1456.27,284.163 1456.94,299.575 1457.61,301.271 1458.27,299.432 1458.94,287.678 1461.61,309.078 
  1462.28,288.586 1462.95,290.878 1463.62,277.673 1465.62,283.032 1466.29,273.408 1466.96,289.82 1467.62,268.464 1468.29,310.969 1470.3,300.103 1470.96,289.334 
  1471.63,323.408 1472.3,326.889 1472.97,314.504 1474.97,316.314 1475.64,303.946 1476.31,291.421 1476.97,285.677 1477.64,319.015 1479.64,314.021 1480.31,269.109 
  1480.98,319.402 1481.65,315.588 1482.32,295.011 1484.32,290.08 1484.99,316.091 1485.65,298.352 1486.32,308.754 1486.99,284.552 1488.99,279.17 1489.66,281.172 
  1490.33,274.777 1491,284.378 1491.66,258.092 1493.67,260.57 1494.34,256.232 1495,257.44 1495.67,241.055 1498.34,272.738 1499.01,261.901 1499.68,233.361 
  1500.35,261.835 1501.01,206.714 1503.02,246.288 1503.68,268.36 1504.35,248.28 1505.02,250.893 1505.69,239.205 1507.69,247.519 1508.36,249.526 1509.03,230.028 
  1509.7,233.425 1510.36,235.011 1512.37,234.244 1513.03,231.194 1513.7,220.048 1514.37,213.437 1515.04,228.008 1517.04,246.718 1517.71,244.496 1518.38,210.672 
  1519.04,223.518 1519.71,225.361 1521.72,244.357 1522.38,251.844 1523.05,247.666 1523.72,264.683 1524.39,252.868 1527.06,249.537 1527.73,238.267 1528.39,267.288 
  1529.06,264.453 1531.06,261.992 1531.73,251.32 1532.4,248.607 1533.07,250.254 1533.74,228.093 1535.74,226.276 1536.41,244.277 1537.07,206.011 1537.74,198.898 
  1538.41,224.388 1540.41,255.051 1541.08,231.173 1541.75,213.375 1542.42,211.555 1543.08,207.453 1545.09,209.274 1545.76,180.097 1546.42,202.527 1547.09,171.047 
  1547.76,190.371 1549.76,199.132 1551.1,182.494 1551.77,148.901 1552.43,177.918 1554.44,181.769 1555.11,179.001 1555.77,190.606 1556.44,197.158 1557.11,190.265 
  1559.11,189.655 1559.78,192.542 1560.45,198.126 1561.12,199.637 1561.78,182.086 1563.79,181.031 1564.45,189.779 1565.12,174.075 1565.79,170.607 1566.46,166.066 
  1568.46,163.642 1569.13,172.288 1569.8,159.019 1570.46,151.911 1571.13,133.465 1573.14,140.316 1573.8,131.961 1574.47,140.224 1575.14,87.9763 1575.81,142.934 
  1577.81,180.079 1578.48,180.079 1579.15,167.604 1579.81,109.916 1580.48,202.009 1582.49,205.437 1583.15,243.226 1583.82,208.041 1584.49,200.477 1585.16,187.334 
  1587.16,188.107 1587.83,192.054 1588.5,192.71 1589.16,213.547 1589.83,202.198 1592.5,175.441 1593.17,203.33 1593.84,203.028 1594.51,185.13 1596.51,224.981 
  1597.18,237.988 1597.84,205.655 1598.51,204.479 1599.18,218.164 1601.18,224.825 1601.85,228.805 1602.52,215.723 1603.19,205.547 1603.85,204.103 1605.86,196.826 
  1606.53,198.617 1607.19,197.847 1607.86,202.601 1608.53,195.933 1610.53,211.724 1611.2,220.077 1611.87,215.221 1612.54,236.787 1613.2,213.308 1615.21,206.773 
  1615.87,216.25 1616.54,209.905 1617.21,204.25 1617.88,194.547 1619.88,200.089 1620.55,202.416 1621.22,190.794 1621.89,192.541 1622.55,196.187 1624.56,182.494 
  1625.22,188.441 1625.89,204.325 1626.56,208.376 1627.23,222.808 1629.23,210.089 1629.9,214.55 1630.57,199.762 1631.23,201.204 1631.9,192.862 1633.91,198.316 
  1634.57,196.322 1635.24,173.579 1635.91,160.321 1636.58,189.44 1638.58,193.175 1639.25,184.568 1639.92,185.902 1640.58,217.52 1641.25,185.644 1643.25,191.561 
  1643.92,215.564 1644.59,198.676 1645.93,192.751 1647.93,191.457 1648.6,228.432 1649.26,210.59 1649.93,240.829 1650.6,210.557 1652.6,206.357 1653.27,193.199 
  1653.94,199.897 1654.61,211.863 1655.27,209.248 1657.28,220.935 1657.95,227.31 1658.61,193.869 1659.28,179.106 1659.95,194.648 1661.95,217.48 1662.62,202.762 
  1663.29,185.808 1663.96,193.334 1664.62,164.555 1667.3,159.933 1667.96,173.621 1668.63,180.871 1669.3,142.172 1671.97,168.964 1672.64,174.56 1673.31,190.552 
  1673.97,194.652 1675.98,201.986 1676.64,209.972 1677.31,191.243 1677.98,218.213 1678.65,220.378 1681.32,207.65 1681.99,216.907 1682.65,211.371 1683.32,195.224 
  1685.33,225.407 1685.99,233.22 1686.66,210.15 1687.33,211.711 1688,225.561 1690,201.418 1690.67,161.79 1691.34,272.862 1692,268.738 1692.67,332.836 
  1694.67,185.886 1695.34,256.438 1696.01,363.385 1696.68,231.949 1697.35,371.405 1699.35,419.892 1700.02,429.611 1700.69,436.842 1701.35,479.415 1702.02,442.53 
  1704.69,421.603 1705.36,441.184 1706.03,445.546 1706.7,477.601 1708.7,490.957 1709.37,447.705 1710.03,553.488 1710.7,508.888 1711.37,547.77 1713.37,552.945 
  1714.04,561.447 1714.71,518.237 1715.38,534.261 1716.04,564.899 1718.05,538.112 1718.72,516.342 1719.38,545.988 1720.05,542.684 1720.72,567.937 1722.72,584.041 
  1723.39,589.327 1724.06,550.898 1724.73,467.4 1725.39,693.475 1727.4,742.941 1728.06,687.921 1728.73,774.944 1729.4,785.776 1732.07,801.759 1732.74,840.814 
  1733.41,833.667 1734.08,854.742 1734.74,857.361 1736.75,823.951 1737.41,875.374 1738.08,814.555 1738.75,839.821 1739.42,802.891 1741.42,806.804 1742.09,839.62 
  1742.76,818.078 1743.42,800.834 1744.09,849.76 1746.1,822.561 1746.76,781.494 1747.43,822.885 1748.1,854.932 1748.77,841.775 1750.77,835.941 1751.44,842.212 
  1752.11,817.03 1752.77,809.992 1753.44,833.425 1755.44,817.998 1756.11,817.768 1756.78,825.37 1757.45,854.348 1758.12,850.909 1760.12,834.672 1760.79,813.741 
  1761.45,826.367 1762.12,824.098 1762.79,816.267 1764.79,818.338 1765.46,809.309 1766.13,800.12 1766.8,794.326 1767.46,803.168 1770.14,824.197 1770.8,843.884 
  1771.47,823.214 1772.14,842.485 1774.14,836.74 1774.81,840.088 1775.48,849.488 1776.15,847.394 1776.81,844.202 1778.82,826.563 1779.49,831.091 1780.15,787.698 
  1780.82,796.784 1781.49,802.635 1783.49,791.059 1784.16,779.109 1784.83,777.973 1785.5,758.249 1786.16,782.377 1788.17,795.419 1788.83,801.735 1789.5,785.267 
  1790.17,804.737 1790.84,782.439 1792.84,776.434 1793.51,754.402 1794.84,780.705 1795.51,789.053 1797.52,799.413 1798.18,809.926 1798.85,792.646 1799.52,819.639 
  1800.19,804.593 1802.19,799.493 1802.86,812.506 1803.53,802.349 1804.19,790.863 1804.86,805.605 1806.86,800.33 1807.53,814.843 1808.2,816.875 1808.87,807.748 
  1809.54,832.109 1811.54,827.219 1812.21,841.853 1812.88,814.036 1813.54,829.664 1814.21,832.897 1816.21,830.604 1816.88,839.785 1817.55,825.379 1818.22,821.382 
  1818.89,831.569 1820.89,819.817 1821.56,839.621 1822.22,797.793 1822.89,823.6 1823.56,820.789 1825.56,808.726 1826.23,814.691 1826.9,796.476 1827.57,791.797 
  1828.23,798.866 1830.24,804.972 1830.91,806.575 1831.57,807.241 1832.24,794.059 1832.91,810.169 1835.58,810.352 1836.25,803.901 1836.92,794.668 1837.58,807.073 
  1839.59,795.536 1840.25,806.553 1840.92,790.447 1841.59,808.334 1842.26,796.799 1844.26,797.04 1844.93,813.806 1845.6,787.493 1846.26,812.118 1846.93,796.326 
  1848.94,792.566 1849.6,788.501 1850.27,780.61 1850.94,789.241 1851.61,777.672 1853.61,774.662 1854.28,773.584 1854.95,761.111 1855.61,736.211 1856.28,790.403 
  1858.29,768.537 1858.95,764.507 1859.62,833.709 1860.29,768.002 1860.96,821.55 1862.96,797.773 1863.63,863.913 1864.3,835.176 1864.96,792.025 1865.63,858.991 
  1867.63,831.318 1868.3,814.105 1868.97,901.076 1869.64,956.83 1870.31,863.138 1872.31,827.072 1872.98,873.758 1873.64,850.015 1874.31,881.859 1874.98,834.676 
  1876.98,803.286 1877.65,822.239 1878.32,859.784 1878.99,854.461 1879.65,875.317 1881.66,906.085 1882.33,901.138 1882.99,882.771 1883.66,915.231 1884.33,900.709 
  1886.33,919.652 1887,864.829 1887.67,945.092 1889,932.601 1891.01,939.915 1891.68,949.676 1892.34,979.482 1893.01,973.73 1893.68,946.725 1895.68,961.615 
  1896.35,869.447 1897.69,821.164 1898.35,857.083 1900.36,816.939 1901.02,817.048 1901.69,785.951 1902.36,784.308 1903.03,815.42 1905.03,828.52 1905.7,826.835 
  1906.37,788.345 1907.03,739.2 1907.7,885.397 1909.71,899.702 1911.04,989.108 1911.71,1015.51 1912.38,964.304 1914.38,956.929 1915.72,921.189 1916.38,848.07 
  1917.05,917.306 1919.05,900.933 1919.72,929.292 1920.39,900.563 1921.06,913.149 1921.73,889.803 1923.73,879.566 1924.4,913.898 1925.07,889.072 1925.73,912.544 
  1926.4,930.376 1929.07,949.092 1929.74,920.478 1930.41,923.886 1931.08,926.612 1933.08,920.473 1933.75,916.511 1934.41,931.644 1935.08,957.208 1935.75,941.593 
  1937.75,939.477 1938.42,952.457 1939.09,927.97 1939.76,900.014 1940.42,933.741 1942.43,911.143 1943.1,949.43 1943.76,931.896 1944.43,925.293 1945.1,940.303 
  1947.77,927.574 1948.44,913.615 1949.11,903.083 1949.77,907.554 1951.78,889.522 1952.44,887.045 1953.11,876.616 1953.78,869.132 1954.45,875.85 1956.45,864.294 
  1957.12,860.371 1957.79,862.905 1958.45,838.547 1959.12,888.717 1961.13,911.704 1961.79,921.81 1962.46,907.001 1963.13,905.398 1963.8,911.195 1965.8,901.206 
  1966.47,902.165 1967.14,886.624 1967.8,920.306 1968.47,897.098 1970.48,868.156 1971.14,889.815 1971.81,842.005 1972.48,853.614 1973.15,857.578 1975.15,870.978 
  1975.82,871.936 1976.49,856.526 1977.15,863.977 1977.82,864.075 1979.82,846.525 1980.49,830.531 1981.16,839.448 1981.83,838.804 1982.5,847.852 1984.5,828.561 
  1985.17,830.584 1985.83,818.087 1986.5,811.519 1989.17,794.246 1989.84,821.47 1990.51,795.651 1991.18,793.949 1991.84,793.378 1993.85,769.993 1994.52,771.7 
  1995.18,768.058 1995.85,761.919 1996.52,780.134 1998.52,737.867 1999.19,685.622 1999.86,822.454 2000.53,813.76 2001.19,796.658 2003.2,839.023 2003.87,864.79 
  2004.53,853.115 2005.2,880.646 2005.87,834.755 2007.87,830.514 2008.54,857.811 2009.21,821.453 2009.88,785.267 2010.54,831.439 2013.21,852.33 2013.88,834.719 
  2014.55,842.546 2015.22,832.095 2017.22,814.085 2017.89,880.981 2018.56,877.003 2019.22,896.702 2019.89,900.381 2021.9,888.489 2022.56,887.965 2023.23,870.571 
  2023.9,884.155 2024.57,861.786 2026.57,840.799 2027.24,870.986 2027.91,836.716 2028.57,865.829 2029.24,839.52 2031.24,825.782 2031.91,795.887 2032.58,842.77 
  2033.25,854.054 2033.92,841.365 2035.92,848.275 2036.59,857.075 2037.26,862.459 2038.59,849.541 2040.59,849.59 2041.26,853.707 2041.93,849.7 2042.6,856.757 
  2043.27,849.867 2045.27,836.255 2045.94,825.792 2046.6,861.82 2047.27,872.863 2047.94,842.623 2049.94,832.416 2050.61,853.463 2051.28,847.191 2051.95,832.873 
  2052.61,837.054 2054.62,815.716 2055.29,808.951 2055.95,825.373 2056.62,799.474 2057.29,868.429 2059.29,897.93 2059.96,937.434 2060.63,889.296 2061.3,947.223 
  2061.96,898.96 2063.97,893.754 2064.63,939.037 2065.3,888.849 2065.97,897.033 2066.64,911.214 2068.64,919.023 2069.31,894.913 2069.98,887.663 2070.64,886.42 
  2071.31,951.782 2073.32,945.833 2073.98,934.216 2074.65,914.556 2075.32,953.19 2075.99,915.806 2078.66,899.469 2079.33,902.012 2079.99,941.349 2080.66,933.149 
  2082.67,913.672 2083.33,914.173 2084,915.102 2084.67,924.865 2085.34,907.709 2087.34,889.877 2088.01,897.718 2088.68,852.152 2089.34,851.748 2090.01,876.202 
  2092.01,860.925 2092.68,836.117 2093.35,835.308 2094.02,828.802 2094.69,839.781 2096.69,834.224 2097.36,796.765 2098.02,901.758 2098.69,926.062 2099.36,946.6 
  2101.36,924.841 2102.03,878.567 2102.7,901.867 2103.37,922.709 2104.03,924.849 2106.04,910.297 2106.71,939.645 2107.37,916.843 2108.04,925.152 2108.71,897.339 
  2110.71,898.556 2111.38,888.329 2112.05,877.96 2112.72,883.712 2113.38,883.241 2115.39,874.073 2116.06,872.48 2116.72,864.561 2117.39,855.768 2118.06,870.685 
  2120.06,866.763 2120.73,863.5 2121.4,851.19 2122.07,861.935 2122.73,853.525 2124.74,845.019 2125.4,850.471 2126.07,835.466 2126.74,840.035 2127.41,844.683 
  2129.41,828.969 2130.08,827.987 2130.75,823.909 2131.41,818.955 2132.08,814.903 2134.09,820.94 2134.75,826.948 2135.42,834.495 2136.76,823.195 2138.76,764.712 
  2139.43,743.237 2140.1,745.933 2140.76,751.722 2141.43,761.433 2143.43,747.982 2144.1,744.764 2144.77,727.471 2145.44,755.072 2146.11,741.394 2148.11,750.077 
  2148.78,750.478 2149.44,712.812 2150.11,726.194 2150.78,736.728 2152.78,732.248 2153.45,719.953 2154.79,736.316 2155.46,713.699 2157.46,726.246 2158.13,710.186 
  2159.46,739.477 2160.13,697.32 2162.13,678.216 2162.8,669.239 2163.47,665.083 2164.14,687.056 2164.8,661.284 2166.81,661.456 2167.48,657.257 2168.14,645.934 
  2168.81,672.16 2169.48,662.564 2172.15,658.341 2172.82,633.346 2173.49,636.799 2174.15,644.066 2176.16,686.855 2176.82,719.479 2177.49,678.827 2178.16,689.898 
  2178.83,705.607 2180.83,679.489 2181.5,729.421 2182.17,734.389 2182.83,745.066 2183.5,723.508 2185.51,717.093 2186.17,720.664 2186.84,719.437 2187.51,716.326 
  2188.18,694.512 2190.85,695.389 2191.52,684.584 2192.18,671.826 2192.85,744.552 2194.86,829.019 2195.52,736.214 2196.19,929.344 2196.86,793.652 2197.53,991.861 
  2199.53,1014.48 2200.2,934.373 2200.87,965.122 2201.53,866.266 2202.2,1087.91 2204.2,1267.26 2204.87,1402.17 2205.54,1151.74 2206.21,887.89 2206.88,1127.43 
  2208.88,1284.19 2209.55,1445.72 2210.21,1155.95 2210.88,1157.66 2211.55,1133.83 2213.55,1037.51 2214.22,1309.28 2214.89,1204.88 2215.56,1365.14 2216.22,1183.03 
  2218.23,1194.96 2218.9,1161.42 2219.56,1186.93 2220.23,1250.13 2220.9,1147.61 2222.9,1262.92 2223.57,1255.06 2224.24,1284.7 2224.91,1256.32 2227.58,1209.17 
  2228.25,1288.35 2228.91,1159.29 2229.58,1178.07 2230.25,1192.29 2232.25,1175.5 2232.92,1092.38 2233.59,1151.68 2234.26,1150.79 2234.92,1145.36 2236.93,1135.97 
  2237.59,1123.04 2238.26,1151.89 2238.93,1126.33 2239.6,1215.61 2241.6,1162.89 2242.27,1187.26 2242.94,1107.72 2243.6,1138.04 2244.27,1162.43 2246.28,1128.72 
  2246.94,1072.33 2247.61,1187.41 2248.28,1220.03 2248.95,1176.25 2250.95,1213.01 2251.62,1185.8 2252.29,1188.51 2252.95,1168.55 2253.62,1169.78 2256.29,1182.06 
  2256.96,1172.66 2257.63,1167.97 2258.3,1154.65 2260.3,1128.4 2260.97,1151.58 2261.63,1145.21 2262.3,1137.25 2262.97,1172.16 2264.97,1159.78 2265.64,1139.05 
  2266.31,1151.68 2266.98,992.585 2267.65,1289.45 2269.65,1253.6 2270.32,1304.58 2270.98,1227.29 2271.65,1228.75 2272.32,1184.97 2274.32,1153.49 2274.99,1165.63 
  2275.66,1191.01 2276.33,1219.23 2276.99,1196.86 2279,1211.23 2279.67,1217.95 2280.33,1191.95 2281,1177.31 2283.67,1178.26 2284.34,1149.95 2285.01,1148.13 
  2285.68,1133.21 2286.34,1129.11 2288.35,1120.76 2289.01,1156.95 2289.68,1133.72 2290.35,1124.68 
  "/>
<path clip-path="url(#clip560)" d="
M1775.34 251.724 L2280.76 251.724 L2280.76 130.764 L1775.34 130.764  Z
  " fill="#ffffff" fill-rule="evenodd" fill-opacity="1"/>
<polyline clip-path="url(#clip560)" style="stroke:#000000; stroke-width:4; stroke-opacity:1; fill:none" points="
  1775.34,251.724 2280.76,251.724 2280.76,130.764 1775.34,130.764 1775.34,251.724 
  "/>
<polyline clip-path="url(#clip560)" style="stroke:#009af9; stroke-width:4; stroke-opacity:1; fill:none" points="
  1799.34,191.244 1943.34,191.244 
  "/>
<path clip-path="url(#clip560)" d="M 0 0 M1972.02 177.807 L1972.02 190.793 L1977.9 190.793 Q1981.16 190.793 1982.94 189.103 Q1984.72 187.413 1984.72 184.288 Q1984.72 181.186 1982.94 179.496 Q1981.16 177.807 1977.9 177.807 L1972.02 177.807 M1967.34 173.964 L1977.9 173.964 Q1983.71 173.964 1986.67 176.603 Q1989.66 179.219 1989.66 184.288 Q1989.66 189.404 1986.67 192.02 Q1983.71 194.635 1977.9 194.635 L1972.02 194.635 L1972.02 208.524 L1967.34 208.524 L1967.34 173.964 Z" fill="#000000" fill-rule="evenodd" fill-opacity="1" /><path clip-path="url(#clip560)" d="M 0 0 M1992.85 198.293 L1992.85 182.598 L1997.11 182.598 L1997.11 198.131 Q1997.11 201.811 1998.54 203.663 Q1999.98 205.492 2002.85 205.492 Q2006.3 205.492 2008.29 203.293 Q2010.3 201.094 2010.3 197.297 L2010.3 182.598 L2014.56 182.598 L2014.56 208.524 L2010.3 208.524 L2010.3 204.543 Q2008.75 206.904 2006.69 208.061 Q2004.66 209.195 2001.95 209.195 Q1997.48 209.195 1995.16 206.418 Q1992.85 203.64 1992.85 198.293 M2003.57 181.973 L2003.57 181.973 Z" fill="#000000" fill-rule="evenodd" fill-opacity="1" /><path clip-path="url(#clip560)" d="M 0 0 M2023.24 175.237 L2023.24 182.598 L2032.02 182.598 L2032.02 185.908 L2023.24 185.908 L2023.24 199.982 Q2023.24 203.154 2024.1 204.057 Q2024.98 204.959 2027.64 204.959 L2032.02 204.959 L2032.02 208.524 L2027.64 208.524 Q2022.71 208.524 2020.84 206.695 Q2018.96 204.844 2018.96 199.982 L2018.96 185.908 L2015.84 185.908 L2015.84 182.598 L2018.96 182.598 L2018.96 175.237 L2023.24 175.237 Z" fill="#000000" fill-rule="evenodd" fill-opacity="1" /><path clip-path="url(#clip560)" d="M 0 0 M2072.46 175.098 L2072.46 179.659 Q2069.79 178.385 2067.43 177.76 Q2065.07 177.135 2062.87 177.135 Q2059.05 177.135 2056.97 178.617 Q2054.91 180.098 2054.91 182.83 Q2054.91 185.121 2056.28 186.302 Q2057.66 187.459 2061.51 188.177 L2064.33 188.756 Q2069.56 189.751 2072.04 192.274 Q2074.54 194.774 2074.54 198.987 Q2074.54 204.01 2071.16 206.603 Q2067.8 209.195 2061.3 209.195 Q2058.84 209.195 2056.07 208.64 Q2053.31 208.084 2050.35 206.996 L2050.35 202.182 Q2053.2 203.779 2055.93 204.589 Q2058.66 205.399 2061.3 205.399 Q2065.3 205.399 2067.48 203.825 Q2069.65 202.251 2069.65 199.334 Q2069.65 196.788 2068.08 195.353 Q2066.53 193.918 2062.97 193.2 L2060.12 192.645 Q2054.89 191.603 2052.55 189.381 Q2050.21 187.158 2050.21 183.2 Q2050.21 178.617 2053.43 175.978 Q2056.67 173.339 2062.34 173.339 Q2064.77 173.339 2067.29 173.779 Q2069.82 174.219 2072.46 175.098 Z" fill="#000000" fill-rule="evenodd" fill-opacity="1" /><path clip-path="url(#clip560)" d="M 0 0 M2083.22 175.237 L2083.22 182.598 L2091.99 182.598 L2091.99 185.908 L2083.22 185.908 L2083.22 199.982 Q2083.22 203.154 2084.08 204.057 Q2084.96 204.959 2087.62 204.959 L2091.99 204.959 L2091.99 208.524 L2087.62 208.524 Q2082.69 208.524 2080.81 206.695 Q2078.94 204.844 2078.94 199.982 L2078.94 185.908 L2075.81 185.908 L2075.81 182.598 L2078.94 182.598 L2078.94 175.237 L2083.22 175.237 Z" fill="#000000" fill-rule="evenodd" fill-opacity="1" /><path clip-path="url(#clip560)" d="M 0 0 M2111.48 186.58 Q2110.77 186.163 2109.91 185.978 Q2109.08 185.77 2108.06 185.77 Q2104.45 185.77 2102.5 188.131 Q2100.58 190.469 2100.58 194.867 L2100.58 208.524 L2096.3 208.524 L2096.3 182.598 L2100.58 182.598 L2100.58 186.626 Q2101.92 184.265 2104.08 183.131 Q2106.23 181.973 2109.31 181.973 Q2109.75 181.973 2110.28 182.043 Q2110.81 182.089 2111.46 182.205 L2111.48 186.58 Z" fill="#000000" fill-rule="evenodd" fill-opacity="1" /><path clip-path="url(#clip560)" d="M 0 0 M2127.73 195.492 Q2122.57 195.492 2120.58 196.672 Q2118.59 197.853 2118.59 200.7 Q2118.59 202.969 2120.07 204.311 Q2121.58 205.631 2124.15 205.631 Q2127.69 205.631 2129.82 203.131 Q2131.97 200.607 2131.97 196.441 L2131.97 195.492 L2127.73 195.492 M2136.23 193.733 L2136.23 208.524 L2131.97 208.524 L2131.97 204.589 Q2130.51 206.95 2128.34 208.084 Q2126.16 209.195 2123.01 209.195 Q2119.03 209.195 2116.67 206.973 Q2114.33 204.728 2114.33 200.978 Q2114.33 196.603 2117.25 194.381 Q2120.19 192.158 2126 192.158 L2131.97 192.158 L2131.97 191.742 Q2131.97 188.802 2130.02 187.205 Q2128.1 185.584 2124.61 185.584 Q2122.39 185.584 2120.28 186.117 Q2118.17 186.649 2116.23 187.714 L2116.23 183.779 Q2118.57 182.876 2120.77 182.436 Q2122.96 181.973 2125.05 181.973 Q2130.67 181.973 2133.45 184.89 Q2136.23 187.807 2136.23 193.733 Z" fill="#000000" fill-rule="evenodd" fill-opacity="1" /><path clip-path="url(#clip560)" d="M 0 0 M2144.91 175.237 L2144.91 182.598 L2153.68 182.598 L2153.68 185.908 L2144.91 185.908 L2144.91 199.982 Q2144.91 203.154 2145.77 204.057 Q2146.65 204.959 2149.31 204.959 L2153.68 204.959 L2153.68 208.524 L2149.31 208.524 Q2144.38 208.524 2142.5 206.695 Q2140.63 204.844 2140.63 199.982 L2140.63 185.908 L2137.5 185.908 L2137.5 182.598 L2140.63 182.598 L2140.63 175.237 L2144.91 175.237 Z" fill="#000000" fill-rule="evenodd" fill-opacity="1" /><path clip-path="url(#clip560)" d="M 0 0 M2180.33 194.496 L2180.33 196.58 L2160.74 196.58 Q2161.02 200.978 2163.38 203.293 Q2165.77 205.584 2170 205.584 Q2172.46 205.584 2174.75 204.982 Q2177.06 204.381 2179.33 203.177 L2179.33 207.205 Q2177.04 208.177 2174.63 208.686 Q2172.22 209.195 2169.75 209.195 Q2163.54 209.195 2159.91 205.584 Q2156.3 201.973 2156.3 195.816 Q2156.3 189.45 2159.72 185.723 Q2163.17 181.973 2169.01 181.973 Q2174.24 181.973 2177.27 185.353 Q2180.33 188.709 2180.33 194.496 M2176.07 193.246 Q2176.02 189.751 2174.1 187.668 Q2172.2 185.584 2169.05 185.584 Q2165.49 185.584 2163.33 187.598 Q2161.21 189.612 2160.88 193.27 L2176.07 193.246 Z" fill="#000000" fill-rule="evenodd" fill-opacity="1" /><path clip-path="url(#clip560)" d="M 0 0 M2201.85 195.26 Q2201.85 190.631 2199.93 188.084 Q2198.03 185.538 2194.58 185.538 Q2191.16 185.538 2189.24 188.084 Q2187.34 190.631 2187.34 195.26 Q2187.34 199.867 2189.24 202.413 Q2191.16 204.959 2194.58 204.959 Q2198.03 204.959 2199.93 202.413 Q2201.85 199.867 2201.85 195.26 M2206.11 205.307 Q2206.11 211.927 2203.17 215.144 Q2200.23 218.385 2194.17 218.385 Q2191.92 218.385 2189.93 218.038 Q2187.94 217.714 2186.07 217.019 L2186.07 212.876 Q2187.94 213.894 2189.77 214.381 Q2191.6 214.867 2193.5 214.867 Q2197.69 214.867 2199.77 212.668 Q2201.85 210.492 2201.85 206.07 L2201.85 203.964 Q2200.53 206.256 2198.47 207.39 Q2196.41 208.524 2193.54 208.524 Q2188.77 208.524 2185.86 204.89 Q2182.94 201.256 2182.94 195.26 Q2182.94 189.242 2185.86 185.608 Q2188.77 181.973 2193.54 181.973 Q2196.41 181.973 2198.47 183.108 Q2200.53 184.242 2201.85 186.533 L2201.85 182.598 L2206.11 182.598 L2206.11 205.307 Z" fill="#000000" fill-rule="evenodd" fill-opacity="1" /><path clip-path="url(#clip560)" d="M 0 0 M2221.37 210.931 Q2219.56 215.561 2217.85 216.973 Q2216.14 218.385 2213.27 218.385 L2209.86 218.385 L2209.86 214.82 L2212.36 214.82 Q2214.12 214.82 2215.09 213.987 Q2216.07 213.154 2217.25 210.052 L2218.01 208.107 L2207.52 182.598 L2212.04 182.598 L2220.14 202.876 L2228.24 182.598 L2232.76 182.598 L2221.37 210.931 Z" fill="#000000" fill-rule="evenodd" fill-opacity="1" /></svg>
