<?xml version="1.0" encoding="utf-8"?>
<svg xmlns="http://www.w3.org/2000/svg" xmlns:xlink="http://www.w3.org/1999/xlink" width="600" height="400" viewBox="0 0 2400 1600">
<defs>
  <clipPath id="clip810">
    <rect x="0" y="0" width="2400" height="1600"/>
  </clipPath>
</defs>
<path clip-path="url(#clip810)" d="
M0 1600 L2400 1600 L2400 0 L0 0  Z
  " fill="#ffffff" fill-rule="evenodd" fill-opacity="1"/>
<defs>
  <clipPath id="clip811">
    <rect x="480" y="0" width="1681" height="1600"/>
  </clipPath>
</defs>
<path clip-path="url(#clip810)" d="
M148.334 1486.45 L1132.62 1486.45 L1132.62 47.2441 L148.334 47.2441  Z
  " fill="#ffffff" fill-rule="evenodd" fill-opacity="1"/>
<defs>
  <clipPath id="clip812">
    <rect x="148" y="47" width="985" height="1440"/>
  </clipPath>
</defs>
<polyline clip-path="url(#clip812)" style="stroke:#000000; stroke-width:2; stroke-opacity:0.1; fill:none" points="
  279.366,1486.45 279.366,47.2441 
  "/>
<polyline clip-path="url(#clip812)" style="stroke:#000000; stroke-width:2; stroke-opacity:0.1; fill:none" points="
  485.714,1486.45 485.714,47.2441 
  "/>
<polyline clip-path="url(#clip812)" style="stroke:#000000; stroke-width:2; stroke-opacity:0.1; fill:none" points="
  692.063,1486.45 692.063,47.2441 
  "/>
<polyline clip-path="url(#clip812)" style="stroke:#000000; stroke-width:2; stroke-opacity:0.1; fill:none" points="
  898.411,1486.45 898.411,47.2441 
  "/>
<polyline clip-path="url(#clip812)" style="stroke:#000000; stroke-width:2; stroke-opacity:0.1; fill:none" points="
  1104.76,1486.45 1104.76,47.2441 
  "/>
<polyline clip-path="url(#clip812)" style="stroke:#000000; stroke-width:2; stroke-opacity:0.1; fill:none" points="
  148.334,1448.37 1132.62,1448.37 
  "/>
<polyline clip-path="url(#clip812)" style="stroke:#000000; stroke-width:2; stroke-opacity:0.1; fill:none" points="
  148.334,1176.29 1132.62,1176.29 
  "/>
<polyline clip-path="url(#clip812)" style="stroke:#000000; stroke-width:2; stroke-opacity:0.1; fill:none" points="
  148.334,904.214 1132.62,904.214 
  "/>
<polyline clip-path="url(#clip812)" style="stroke:#000000; stroke-width:2; stroke-opacity:0.1; fill:none" points="
  148.334,632.135 1132.62,632.135 
  "/>
<polyline clip-path="url(#clip812)" style="stroke:#000000; stroke-width:2; stroke-opacity:0.1; fill:none" points="
  148.334,360.056 1132.62,360.056 
  "/>
<polyline clip-path="url(#clip812)" style="stroke:#000000; stroke-width:2; stroke-opacity:0.1; fill:none" points="
  148.334,87.9763 1132.62,87.9763 
  "/>
<polyline clip-path="url(#clip810)" style="stroke:#000000; stroke-width:4; stroke-opacity:1; fill:none" points="
  148.334,1486.45 1132.62,1486.45 
  "/>
<polyline clip-path="url(#clip810)" style="stroke:#000000; stroke-width:4; stroke-opacity:1; fill:none" points="
  148.334,1486.45 148.334,47.2441 
  "/>
<polyline clip-path="url(#clip810)" style="stroke:#000000; stroke-width:4; stroke-opacity:1; fill:none" points="
  279.366,1486.45 279.366,1469.18 
  "/>
<polyline clip-path="url(#clip810)" style="stroke:#000000; stroke-width:4; stroke-opacity:1; fill:none" points="
  485.714,1486.45 485.714,1469.18 
  "/>
<polyline clip-path="url(#clip810)" style="stroke:#000000; stroke-width:4; stroke-opacity:1; fill:none" points="
  692.063,1486.45 692.063,1469.18 
  "/>
<polyline clip-path="url(#clip810)" style="stroke:#000000; stroke-width:4; stroke-opacity:1; fill:none" points="
  898.411,1486.45 898.411,1469.18 
  "/>
<polyline clip-path="url(#clip810)" style="stroke:#000000; stroke-width:4; stroke-opacity:1; fill:none" points="
  1104.76,1486.45 1104.76,1469.18 
  "/>
<polyline clip-path="url(#clip810)" style="stroke:#000000; stroke-width:4; stroke-opacity:1; fill:none" points="
  148.334,1448.37 160.146,1448.37 
  "/>
<polyline clip-path="url(#clip810)" style="stroke:#000000; stroke-width:4; stroke-opacity:1; fill:none" points="
  148.334,1176.29 160.146,1176.29 
  "/>
<polyline clip-path="url(#clip810)" style="stroke:#000000; stroke-width:4; stroke-opacity:1; fill:none" points="
  148.334,904.214 160.146,904.214 
  "/>
<polyline clip-path="url(#clip810)" style="stroke:#000000; stroke-width:4; stroke-opacity:1; fill:none" points="
  148.334,632.135 160.146,632.135 
  "/>
<polyline clip-path="url(#clip810)" style="stroke:#000000; stroke-width:4; stroke-opacity:1; fill:none" points="
  148.334,360.056 160.146,360.056 
  "/>
<polyline clip-path="url(#clip810)" style="stroke:#000000; stroke-width:4; stroke-opacity:1; fill:none" points="
  148.334,87.9763 160.146,87.9763 
  "/>
<path clip-path="url(#clip810)" d="M 0 0 M274.019 1535.98 L290.338 1535.98 L290.338 1539.92 L268.394 1539.92 L268.394 1535.98 Q271.056 1533.23 275.639 1528.6 Q280.245 1523.95 281.426 1522.61 Q283.671 1520.08 284.551 1518.35 Q285.454 1516.59 285.454 1514.9 Q285.454 1512.14 283.509 1510.41 Q281.588 1508.67 278.486 1508.67 Q276.287 1508.67 273.833 1509.43 Q271.403 1510.2 268.625 1511.75 L268.625 1507.03 Q271.449 1505.89 273.903 1505.31 Q276.356 1504.73 278.394 1504.73 Q283.764 1504.73 286.958 1507.42 Q290.153 1510.11 290.153 1514.6 Q290.153 1516.73 289.343 1518.65 Q288.556 1520.54 286.449 1523.14 Q285.87 1523.81 282.768 1527.03 Q279.667 1530.22 274.019 1535.98 Z" fill="#000000" fill-rule="evenodd" fill-opacity="1" /><path clip-path="url(#clip810)" d="M 0 0 M488.724 1509.43 L476.918 1527.88 L488.724 1527.88 L488.724 1509.43 M487.497 1505.36 L493.376 1505.36 L493.376 1527.88 L498.307 1527.88 L498.307 1531.77 L493.376 1531.77 L493.376 1539.92 L488.724 1539.92 L488.724 1531.77 L473.122 1531.77 L473.122 1527.26 L487.497 1505.36 Z" fill="#000000" fill-rule="evenodd" fill-opacity="1" /><path clip-path="url(#clip810)" d="M 0 0 M692.468 1520.78 Q689.32 1520.78 687.468 1522.93 Q685.639 1525.08 685.639 1528.83 Q685.639 1532.56 687.468 1534.73 Q689.32 1536.89 692.468 1536.89 Q695.616 1536.89 697.445 1534.73 Q699.297 1532.56 699.297 1528.83 Q699.297 1525.08 697.445 1522.93 Q695.616 1520.78 692.468 1520.78 M701.75 1506.12 L701.75 1510.38 Q699.991 1509.55 698.186 1509.11 Q696.403 1508.67 694.644 1508.67 Q690.014 1508.67 687.561 1511.8 Q685.13 1514.92 684.783 1521.24 Q686.149 1519.23 688.209 1518.16 Q690.269 1517.07 692.746 1517.07 Q697.954 1517.07 700.963 1520.24 Q703.996 1523.39 703.996 1528.83 Q703.996 1534.16 700.848 1537.37 Q697.699 1540.59 692.468 1540.59 Q686.473 1540.59 683.301 1536.01 Q680.13 1531.4 680.13 1522.67 Q680.13 1514.48 684.019 1509.62 Q687.908 1504.73 694.459 1504.73 Q696.218 1504.73 698 1505.08 Q699.806 1505.43 701.75 1506.12 Z" fill="#000000" fill-rule="evenodd" fill-opacity="1" /><path clip-path="url(#clip810)" d="M 0 0 M898.411 1523.51 Q895.078 1523.51 893.157 1525.29 Q891.259 1527.07 891.259 1530.2 Q891.259 1533.32 893.157 1535.11 Q895.078 1536.89 898.411 1536.89 Q901.745 1536.89 903.666 1535.11 Q905.587 1533.3 905.587 1530.2 Q905.587 1527.07 903.666 1525.29 Q901.768 1523.51 898.411 1523.51 M893.736 1521.52 Q890.726 1520.78 889.037 1518.72 Q887.37 1516.66 887.37 1513.69 Q887.37 1509.55 890.31 1507.14 Q893.273 1504.73 898.411 1504.73 Q903.573 1504.73 906.513 1507.14 Q909.453 1509.55 909.453 1513.69 Q909.453 1516.66 907.763 1518.72 Q906.097 1520.78 903.111 1521.52 Q906.49 1522.3 908.365 1524.6 Q910.263 1526.89 910.263 1530.2 Q910.263 1535.22 907.185 1537.91 Q904.129 1540.59 898.411 1540.59 Q892.694 1540.59 889.615 1537.91 Q886.56 1535.22 886.56 1530.2 Q886.56 1526.89 888.458 1524.6 Q890.356 1522.3 893.736 1521.52 M892.023 1514.13 Q892.023 1516.82 893.689 1518.32 Q895.379 1519.83 898.411 1519.83 Q901.421 1519.83 903.111 1518.32 Q904.823 1516.82 904.823 1514.13 Q904.823 1511.45 903.111 1509.94 Q901.421 1508.44 898.411 1508.44 Q895.379 1508.44 893.689 1509.94 Q892.023 1511.45 892.023 1514.13 Z" fill="#000000" fill-rule="evenodd" fill-opacity="1" /><path clip-path="url(#clip810)" d="M 0 0 M1081.64 1535.98 L1089.27 1535.98 L1089.27 1509.62 L1080.96 1511.29 L1080.96 1507.03 L1089.23 1505.36 L1093.9 1505.36 L1093.9 1535.98 L1101.54 1535.98 L1101.54 1539.92 L1081.64 1539.92 L1081.64 1535.98 Z" fill="#000000" fill-rule="evenodd" fill-opacity="1" /><path clip-path="url(#clip810)" d="M 0 0 M1116.61 1508.44 Q1113 1508.44 1111.17 1512 Q1109.37 1515.55 1109.37 1522.67 Q1109.37 1529.78 1111.17 1533.35 Q1113 1536.89 1116.61 1536.89 Q1120.25 1536.89 1122.05 1533.35 Q1123.88 1529.78 1123.88 1522.67 Q1123.88 1515.55 1122.05 1512 Q1120.25 1508.44 1116.61 1508.44 M1116.61 1504.73 Q1122.42 1504.73 1125.48 1509.34 Q1128.56 1513.92 1128.56 1522.67 Q1128.56 1531.4 1125.48 1536.01 Q1122.42 1540.59 1116.61 1540.59 Q1110.8 1540.59 1107.72 1536.01 Q1104.67 1531.4 1104.67 1522.67 Q1104.67 1513.92 1107.72 1509.34 Q1110.8 1504.73 1116.61 1504.73 Z" fill="#000000" fill-rule="evenodd" fill-opacity="1" /><path clip-path="url(#clip810)" d="M 0 0 M75.4226 1434.17 Q71.8115 1434.17 69.9828 1437.74 Q68.1773 1441.28 68.1773 1448.41 Q68.1773 1455.51 69.9828 1459.08 Q71.8115 1462.62 75.4226 1462.62 Q79.0569 1462.62 80.8624 1459.08 Q82.6911 1455.51 82.6911 1448.41 Q82.6911 1441.28 80.8624 1437.74 Q79.0569 1434.17 75.4226 1434.17 M75.4226 1430.47 Q81.2328 1430.47 84.2883 1435.07 Q87.367 1439.66 87.367 1448.41 Q87.367 1457.13 84.2883 1461.74 Q81.2328 1466.32 75.4226 1466.32 Q69.6125 1466.32 66.5338 1461.74 Q63.4782 1457.13 63.4782 1448.41 Q63.4782 1439.66 66.5338 1435.07 Q69.6125 1430.47 75.4226 1430.47 Z" fill="#000000" fill-rule="evenodd" fill-opacity="1" /><path clip-path="url(#clip810)" d="M 0 0 M92.4364 1459.77 L97.3206 1459.77 L97.3206 1465.65 L92.4364 1465.65 L92.4364 1459.77 Z" fill="#000000" fill-rule="evenodd" fill-opacity="1" /><path clip-path="url(#clip810)" d="M 0 0 M112.39 1434.17 Q108.779 1434.17 106.95 1437.74 Q105.145 1441.28 105.145 1448.41 Q105.145 1455.51 106.95 1459.08 Q108.779 1462.62 112.39 1462.62 Q116.024 1462.62 117.83 1459.08 Q119.658 1455.51 119.658 1448.41 Q119.658 1441.28 117.83 1437.74 Q116.024 1434.17 112.39 1434.17 M112.39 1430.47 Q118.2 1430.47 121.256 1435.07 Q124.334 1439.66 124.334 1448.41 Q124.334 1457.13 121.256 1461.74 Q118.2 1466.32 112.39 1466.32 Q106.58 1466.32 103.501 1461.74 Q100.446 1457.13 100.446 1448.41 Q100.446 1439.66 103.501 1435.07 Q106.58 1430.47 112.39 1430.47 Z" fill="#000000" fill-rule="evenodd" fill-opacity="1" /><path clip-path="url(#clip810)" d="M 0 0 M76.6495 1162.09 Q73.0384 1162.09 71.2097 1165.66 Q69.4041 1169.2 69.4041 1176.33 Q69.4041 1183.43 71.2097 1187 Q73.0384 1190.54 76.6495 1190.54 Q80.2837 1190.54 82.0892 1187 Q83.9179 1183.43 83.9179 1176.33 Q83.9179 1169.2 82.0892 1165.66 Q80.2837 1162.09 76.6495 1162.09 M76.6495 1158.39 Q82.4596 1158.39 85.5152 1162.99 Q88.5938 1167.58 88.5938 1176.33 Q88.5938 1185.05 85.5152 1189.66 Q82.4596 1194.24 76.6495 1194.24 Q70.8393 1194.24 67.7606 1189.66 Q64.7051 1185.05 64.7051 1176.33 Q64.7051 1167.58 67.7606 1162.99 Q70.8393 1158.39 76.6495 1158.39 Z" fill="#000000" fill-rule="evenodd" fill-opacity="1" /><path clip-path="url(#clip810)" d="M 0 0 M93.6633 1187.69 L98.5475 1187.69 L98.5475 1193.57 L93.6633 1193.57 L93.6633 1187.69 Z" fill="#000000" fill-rule="evenodd" fill-opacity="1" /><path clip-path="url(#clip810)" d="M 0 0 M104.427 1189.64 L112.066 1189.64 L112.066 1163.27 L103.756 1164.94 L103.756 1160.68 L112.02 1159.01 L116.696 1159.01 L116.696 1189.64 L124.334 1189.64 L124.334 1193.57 L104.427 1193.57 L104.427 1189.64 Z" fill="#000000" fill-rule="evenodd" fill-opacity="1" /><path clip-path="url(#clip810)" d="M 0 0 M77.0198 890.013 Q73.4087 890.013 71.58 893.578 Q69.7745 897.119 69.7745 904.249 Q69.7745 911.355 71.58 914.92 Q73.4087 918.462 77.0198 918.462 Q80.6541 918.462 82.4596 914.92 Q84.2883 911.355 84.2883 904.249 Q84.2883 897.119 82.4596 893.578 Q80.6541 890.013 77.0198 890.013 M77.0198 886.309 Q82.83 886.309 85.8855 890.916 Q88.9642 895.499 88.9642 904.249 Q88.9642 912.976 85.8855 917.582 Q82.83 922.165 77.0198 922.165 Q71.2097 922.165 68.131 917.582 Q65.0754 912.976 65.0754 904.249 Q65.0754 895.499 68.131 890.916 Q71.2097 886.309 77.0198 886.309 Z" fill="#000000" fill-rule="evenodd" fill-opacity="1" /><path clip-path="url(#clip810)" d="M 0 0 M94.0336 915.615 L98.9179 915.615 L98.9179 921.494 L94.0336 921.494 L94.0336 915.615 Z" fill="#000000" fill-rule="evenodd" fill-opacity="1" /><path clip-path="url(#clip810)" d="M 0 0 M108.015 917.559 L124.334 917.559 L124.334 921.494 L102.39 921.494 L102.39 917.559 Q105.052 914.804 109.635 910.175 Q114.242 905.522 115.422 904.179 Q117.668 901.656 118.547 899.92 Q119.45 898.161 119.45 896.471 Q119.45 893.717 117.506 891.98 Q115.584 890.244 112.483 890.244 Q110.284 890.244 107.83 891.008 Q105.399 891.772 102.622 893.323 L102.622 888.601 Q105.446 887.467 107.899 886.888 Q110.353 886.309 112.39 886.309 Q117.76 886.309 120.955 888.994 Q124.149 891.679 124.149 896.17 Q124.149 898.3 123.339 900.221 Q122.552 902.119 120.446 904.712 Q119.867 905.383 116.765 908.601 Q113.663 911.795 108.015 917.559 Z" fill="#000000" fill-rule="evenodd" fill-opacity="1" /><path clip-path="url(#clip810)" d="M 0 0 M76.0708 617.934 Q72.4597 617.934 70.631 621.498 Q68.8254 625.04 68.8254 632.17 Q68.8254 639.276 70.631 642.841 Q72.4597 646.382 76.0708 646.382 Q79.705 646.382 81.5105 642.841 Q83.3392 639.276 83.3392 632.17 Q83.3392 625.04 81.5105 621.498 Q79.705 617.934 76.0708 617.934 M76.0708 614.23 Q81.8809 614.23 84.9365 618.836 Q88.0151 623.42 88.0151 632.17 Q88.0151 640.896 84.9365 645.503 Q81.8809 650.086 76.0708 650.086 Q70.2606 650.086 67.1819 645.503 Q64.1264 640.896 64.1264 632.17 Q64.1264 623.42 67.1819 618.836 Q70.2606 614.23 76.0708 614.23 Z" fill="#000000" fill-rule="evenodd" fill-opacity="1" /><path clip-path="url(#clip810)" d="M 0 0 M93.0846 643.535 L97.9688 643.535 L97.9688 649.415 L93.0846 649.415 L93.0846 643.535 Z" fill="#000000" fill-rule="evenodd" fill-opacity="1" /><path clip-path="url(#clip810)" d="M 0 0 M117.205 630.781 Q120.561 631.498 122.436 633.767 Q124.334 636.035 124.334 639.369 Q124.334 644.484 120.816 647.285 Q117.297 650.086 110.816 650.086 Q108.64 650.086 106.325 649.646 Q104.034 649.23 101.58 648.373 L101.58 643.859 Q103.524 644.994 105.839 645.572 Q108.154 646.151 110.677 646.151 Q115.075 646.151 117.367 644.415 Q119.682 642.679 119.682 639.369 Q119.682 636.313 117.529 634.6 Q115.399 632.864 111.58 632.864 L107.552 632.864 L107.552 629.021 L111.765 629.021 Q115.214 629.021 117.043 627.656 Q118.871 626.267 118.871 623.674 Q118.871 621.012 116.973 619.6 Q115.098 618.165 111.58 618.165 Q109.659 618.165 107.459 618.582 Q105.26 618.998 102.622 619.878 L102.622 615.711 Q105.284 614.971 107.598 614.6 Q109.936 614.23 111.996 614.23 Q117.321 614.23 120.422 616.66 Q123.524 619.068 123.524 623.188 Q123.524 626.058 121.881 628.049 Q120.237 630.017 117.205 630.781 Z" fill="#000000" fill-rule="evenodd" fill-opacity="1" /><path clip-path="url(#clip810)" d="M 0 0 M74.9365 345.854 Q71.3254 345.854 69.4967 349.419 Q67.6912 352.961 67.6912 360.09 Q67.6912 367.197 69.4967 370.762 Q71.3254 374.303 74.9365 374.303 Q78.5707 374.303 80.3763 370.762 Q82.205 367.197 82.205 360.09 Q82.205 352.961 80.3763 349.419 Q78.5707 345.854 74.9365 345.854 M74.9365 342.151 Q80.7467 342.151 83.8022 346.757 Q86.8809 351.34 86.8809 360.09 Q86.8809 368.817 83.8022 373.424 Q80.7467 378.007 74.9365 378.007 Q69.1264 378.007 66.0477 373.424 Q62.9921 368.817 62.9921 360.09 Q62.9921 351.34 66.0477 346.757 Q69.1264 342.151 74.9365 342.151 Z" fill="#000000" fill-rule="evenodd" fill-opacity="1" /><path clip-path="url(#clip810)" d="M 0 0 M91.9503 371.456 L96.8345 371.456 L96.8345 377.336 L91.9503 377.336 L91.9503 371.456 Z" fill="#000000" fill-rule="evenodd" fill-opacity="1" /><path clip-path="url(#clip810)" d="M 0 0 M114.751 346.85 L102.946 365.299 L114.751 365.299 L114.751 346.85 M113.524 342.776 L119.404 342.776 L119.404 365.299 L124.334 365.299 L124.334 369.187 L119.404 369.187 L119.404 377.336 L114.751 377.336 L114.751 369.187 L99.1493 369.187 L99.1493 364.674 L113.524 342.776 Z" fill="#000000" fill-rule="evenodd" fill-opacity="1" /><path clip-path="url(#clip810)" d="M 0 0 M76.418 73.775 Q72.8069 73.775 70.9782 77.3398 Q69.1726 80.8814 69.1726 88.011 Q69.1726 95.1174 70.9782 98.6822 Q72.8069 102.224 76.418 102.224 Q80.0522 102.224 81.8578 98.6822 Q83.6865 95.1174 83.6865 88.011 Q83.6865 80.8814 81.8578 77.3398 Q80.0522 73.775 76.418 73.775 M76.418 70.0713 Q82.2281 70.0713 85.2837 74.6777 Q88.3624 79.261 88.3624 88.011 Q88.3624 96.7378 85.2837 101.344 Q82.2281 105.928 76.418 105.928 Q70.6078 105.928 67.5291 101.344 Q64.4736 96.7378 64.4736 88.011 Q64.4736 79.261 67.5291 74.6777 Q70.6078 70.0713 76.418 70.0713 Z" fill="#000000" fill-rule="evenodd" fill-opacity="1" /><path clip-path="url(#clip810)" d="M 0 0 M93.4318 99.3767 L98.316 99.3767 L98.316 105.256 L93.4318 105.256 L93.4318 99.3767 Z" fill="#000000" fill-rule="evenodd" fill-opacity="1" /><path clip-path="url(#clip810)" d="M 0 0 M103.432 70.6963 L121.788 70.6963 L121.788 74.6314 L107.714 74.6314 L107.714 83.1036 Q108.733 82.7564 109.751 82.5944 Q110.77 82.4092 111.788 82.4092 Q117.575 82.4092 120.955 85.5805 Q124.334 88.7517 124.334 94.1684 Q124.334 99.747 120.862 102.849 Q117.39 105.928 111.071 105.928 Q108.895 105.928 106.626 105.557 Q104.381 105.187 101.973 104.446 L101.973 99.747 Q104.057 100.881 106.279 101.437 Q108.501 101.992 110.978 101.992 Q114.983 101.992 117.321 99.8859 Q119.658 97.7795 119.658 94.1684 Q119.658 90.5573 117.321 88.4508 Q114.983 86.3443 110.978 86.3443 Q109.103 86.3443 107.228 86.761 Q105.376 87.1777 103.432 88.0573 L103.432 70.6963 Z" fill="#000000" fill-rule="evenodd" fill-opacity="1" /><polyline clip-path="url(#clip812)" style="stroke:#009af9; stroke-width:4; stroke-opacity:1; fill:none" points="
  176.191,87.9763 279.366,768.174 382.54,1108.27 485.714,1278.32 588.889,1363.35 692.063,1405.86 795.237,1427.12 898.411,1437.74 1001.59,1443.06 1104.76,1445.72 
  
  "/>
<path clip-path="url(#clip810)" d="
M592.447 251.724 L1060.62 251.724 L1060.62 130.764 L592.447 130.764  Z
  " fill="#ffffff" fill-rule="evenodd" fill-opacity="1"/>
<polyline clip-path="url(#clip810)" style="stroke:#000000; stroke-width:4; stroke-opacity:1; fill:none" points="
  592.447,251.724 1060.62,251.724 1060.62,130.764 592.447,130.764 592.447,251.724 
  "/>
<polyline clip-path="url(#clip810)" style="stroke:#009af9; stroke-width:4; stroke-opacity:1; fill:none" points="
  616.447,191.244 760.447,191.244 
  "/>
<path clip-path="url(#clip810)" d="M 0 0 M789.123 177.807 L789.123 190.793 L795.003 190.793 Q798.266 190.793 800.049 189.103 Q801.831 187.413 801.831 184.288 Q801.831 181.186 800.049 179.496 Q798.266 177.807 795.003 177.807 L789.123 177.807 M784.447 173.964 L795.003 173.964 Q800.813 173.964 803.776 176.603 Q806.762 179.219 806.762 184.288 Q806.762 189.404 803.776 192.02 Q800.813 194.635 795.003 194.635 L789.123 194.635 L789.123 208.524 L784.447 208.524 L784.447 173.964 Z" fill="#000000" fill-rule="evenodd" fill-opacity="1" /><path clip-path="url(#clip810)" d="M 0 0 M821.461 172.552 Q818.359 177.876 816.854 183.084 Q815.35 188.293 815.35 193.64 Q815.35 198.987 816.854 204.242 Q818.382 209.473 821.461 214.774 L817.757 214.774 Q814.285 209.334 812.549 204.08 Q810.836 198.825 810.836 193.64 Q810.836 188.478 812.549 183.246 Q814.262 178.015 817.757 172.552 L821.461 172.552 Z" fill="#000000" fill-rule="evenodd" fill-opacity="1" /><path clip-path="url(#clip810)" d="M 0 0 M845.697 187.668 L838.961 187.668 L837.016 195.399 L843.799 195.399 L845.697 187.668 M842.225 174.496 L839.817 184.103 L846.576 184.103 L849.007 174.496 L852.711 174.496 L850.326 184.103 L857.549 184.103 L857.549 187.668 L849.424 187.668 L847.525 195.399 L854.886 195.399 L854.886 198.941 L846.623 198.941 L844.215 208.524 L840.512 208.524 L842.896 198.941 L836.113 198.941 L833.729 208.524 L830.002 208.524 L832.41 198.941 L825.118 198.941 L825.118 195.399 L833.266 195.399 L835.211 187.668 L827.757 187.668 L827.757 184.103 L836.113 184.103 L838.475 174.496 L842.225 174.496 Z" fill="#000000" fill-rule="evenodd" fill-opacity="1" /><path clip-path="url(#clip810)" d="M 0 0 M898.636 192.876 L898.636 208.524 L894.377 208.524 L894.377 193.015 Q894.377 189.334 892.942 187.506 Q891.507 185.677 888.636 185.677 Q885.187 185.677 883.197 187.876 Q881.206 190.075 881.206 193.871 L881.206 208.524 L876.923 208.524 L876.923 172.506 L881.206 172.506 L881.206 186.626 Q882.734 184.288 884.794 183.131 Q886.877 181.973 889.585 181.973 Q894.053 181.973 896.345 184.751 Q898.636 187.506 898.636 192.876 Z" fill="#000000" fill-rule="evenodd" fill-opacity="1" /><path clip-path="url(#clip810)" d="M 0 0 M925.28 194.496 L925.28 196.58 L905.696 196.58 Q905.974 200.978 908.335 203.293 Q910.72 205.584 914.956 205.584 Q917.409 205.584 919.701 204.982 Q922.016 204.381 924.284 203.177 L924.284 207.205 Q921.993 208.177 919.585 208.686 Q917.178 209.195 914.701 209.195 Q908.497 209.195 904.863 205.584 Q901.252 201.973 901.252 195.816 Q901.252 189.45 904.678 185.723 Q908.127 181.973 913.96 181.973 Q919.192 181.973 922.224 185.353 Q925.28 188.709 925.28 194.496 M921.02 193.246 Q920.974 189.751 919.053 187.668 Q917.155 185.584 914.007 185.584 Q910.442 185.584 908.289 187.598 Q906.159 189.612 905.835 193.27 L921.02 193.246 Z" fill="#000000" fill-rule="evenodd" fill-opacity="1" /><path clip-path="url(#clip810)" d="M 0 0 M941.53 195.492 Q936.368 195.492 934.377 196.672 Q932.386 197.853 932.386 200.7 Q932.386 202.969 933.868 204.311 Q935.372 205.631 937.942 205.631 Q941.483 205.631 943.613 203.131 Q945.766 200.607 945.766 196.441 L945.766 195.492 L941.53 195.492 M950.025 193.733 L950.025 208.524 L945.766 208.524 L945.766 204.589 Q944.307 206.95 942.131 208.084 Q939.955 209.195 936.807 209.195 Q932.826 209.195 930.465 206.973 Q928.127 204.728 928.127 200.978 Q928.127 196.603 931.043 194.381 Q933.983 192.158 939.793 192.158 L945.766 192.158 L945.766 191.742 Q945.766 188.802 943.821 187.205 Q941.9 185.584 938.405 185.584 Q936.182 185.584 934.076 186.117 Q931.969 186.649 930.025 187.714 L930.025 183.779 Q932.363 182.876 934.562 182.436 Q936.761 181.973 938.844 181.973 Q944.469 181.973 947.247 184.89 Q950.025 187.807 950.025 193.733 Z" fill="#000000" fill-rule="evenodd" fill-opacity="1" /><path clip-path="url(#clip810)" d="M 0 0 M971.553 186.533 L971.553 172.506 L975.812 172.506 L975.812 208.524 L971.553 208.524 L971.553 204.635 Q970.21 206.95 968.15 208.084 Q966.113 209.195 963.242 209.195 Q958.543 209.195 955.58 205.445 Q952.641 201.695 952.641 195.584 Q952.641 189.473 955.58 185.723 Q958.543 181.973 963.242 181.973 Q966.113 181.973 968.15 183.108 Q970.21 184.219 971.553 186.533 M957.039 195.584 Q957.039 200.283 958.96 202.969 Q960.904 205.631 964.284 205.631 Q967.664 205.631 969.608 202.969 Q971.553 200.283 971.553 195.584 Q971.553 190.885 969.608 188.223 Q967.664 185.538 964.284 185.538 Q960.904 185.538 958.96 188.223 Q957.039 190.885 957.039 195.584 Z" fill="#000000" fill-rule="evenodd" fill-opacity="1" /><path clip-path="url(#clip810)" d="M 0 0 M996.807 183.362 L996.807 187.39 Q995.001 186.464 993.057 186.001 Q991.113 185.538 989.029 185.538 Q985.858 185.538 984.261 186.51 Q982.687 187.483 982.687 189.427 Q982.687 190.908 983.821 191.765 Q984.955 192.598 988.381 193.362 L989.839 193.686 Q994.376 194.658 996.275 196.441 Q998.196 198.2 998.196 201.371 Q998.196 204.982 995.326 207.089 Q992.478 209.195 987.478 209.195 Q985.395 209.195 983.127 208.779 Q980.881 208.385 978.381 207.575 L978.381 203.177 Q980.742 204.404 983.034 205.029 Q985.326 205.631 987.571 205.631 Q990.58 205.631 992.201 204.612 Q993.821 203.57 993.821 201.695 Q993.821 199.959 992.64 199.033 Q991.483 198.107 987.525 197.251 L986.043 196.904 Q982.085 196.07 980.326 194.358 Q978.566 192.621 978.566 189.612 Q978.566 185.955 981.159 183.964 Q983.752 181.973 988.52 181.973 Q990.881 181.973 992.964 182.321 Q995.048 182.668 996.807 183.362 Z" fill="#000000" fill-rule="evenodd" fill-opacity="1" /><path clip-path="url(#clip810)" d="M 0 0 M1001.99 172.552 L1005.7 172.552 Q1009.17 178.015 1010.88 183.246 Q1012.62 188.478 1012.62 193.64 Q1012.62 198.825 1010.88 204.08 Q1009.17 209.334 1005.7 214.774 L1001.99 214.774 Q1005.07 209.473 1006.58 204.242 Q1008.1 198.987 1008.1 193.64 Q1008.1 188.293 1006.58 183.084 Q1005.07 177.876 1001.99 172.552 Z" fill="#000000" fill-rule="evenodd" fill-opacity="1" /><path clip-path="url(#clip810)" d="
M1368.47 1486.45 L2352.76 1486.45 L2352.76 47.2441 L1368.47 47.2441  Z
  " fill="#ffffff" fill-rule="evenodd" fill-opacity="1"/>
<defs>
  <clipPath id="clip813">
    <rect x="1368" y="47" width="985" height="1440"/>
  </clipPath>
</defs>
<polyline clip-path="url(#clip813)" style="stroke:#000000; stroke-width:2; stroke-opacity:0.1; fill:none" points="
  1499.5,1486.45 1499.5,47.2441 
  "/>
<polyline clip-path="url(#clip813)" style="stroke:#000000; stroke-width:2; stroke-opacity:0.1; fill:none" points="
  1705.85,1486.45 1705.85,47.2441 
  "/>
<polyline clip-path="url(#clip813)" style="stroke:#000000; stroke-width:2; stroke-opacity:0.1; fill:none" points="
  1912.2,1486.45 1912.2,47.2441 
  "/>
<polyline clip-path="url(#clip813)" style="stroke:#000000; stroke-width:2; stroke-opacity:0.1; fill:none" points="
  2118.55,1486.45 2118.55,47.2441 
  "/>
<polyline clip-path="url(#clip813)" style="stroke:#000000; stroke-width:2; stroke-opacity:0.1; fill:none" points="
  2324.9,1486.45 2324.9,47.2441 
  "/>
<polyline clip-path="url(#clip813)" style="stroke:#000000; stroke-width:2; stroke-opacity:0.1; fill:none" points="
  1368.47,1448.37 2352.76,1448.37 
  "/>
<polyline clip-path="url(#clip813)" style="stroke:#000000; stroke-width:2; stroke-opacity:0.1; fill:none" points="
  1368.47,1116.24 2352.76,1116.24 
  "/>
<polyline clip-path="url(#clip813)" style="stroke:#000000; stroke-width:2; stroke-opacity:0.1; fill:none" points="
  1368.47,784.117 2352.76,784.117 
  "/>
<polyline clip-path="url(#clip813)" style="stroke:#000000; stroke-width:2; stroke-opacity:0.1; fill:none" points="
  1368.47,451.989 2352.76,451.989 
  "/>
<polyline clip-path="url(#clip813)" style="stroke:#000000; stroke-width:2; stroke-opacity:0.1; fill:none" points="
  1368.47,119.861 2352.76,119.861 
  "/>
<polyline clip-path="url(#clip810)" style="stroke:#000000; stroke-width:4; stroke-opacity:1; fill:none" points="
  1368.47,1486.45 2352.76,1486.45 
  "/>
<polyline clip-path="url(#clip810)" style="stroke:#000000; stroke-width:4; stroke-opacity:1; fill:none" points="
  1368.47,1486.45 1368.47,47.2441 
  "/>
<polyline clip-path="url(#clip810)" style="stroke:#000000; stroke-width:4; stroke-opacity:1; fill:none" points="
  1499.5,1486.45 1499.5,1469.18 
  "/>
<polyline clip-path="url(#clip810)" style="stroke:#000000; stroke-width:4; stroke-opacity:1; fill:none" points="
  1705.85,1486.45 1705.85,1469.18 
  "/>
<polyline clip-path="url(#clip810)" style="stroke:#000000; stroke-width:4; stroke-opacity:1; fill:none" points="
  1912.2,1486.45 1912.2,1469.18 
  "/>
<polyline clip-path="url(#clip810)" style="stroke:#000000; stroke-width:4; stroke-opacity:1; fill:none" points="
  2118.55,1486.45 2118.55,1469.18 
  "/>
<polyline clip-path="url(#clip810)" style="stroke:#000000; stroke-width:4; stroke-opacity:1; fill:none" points="
  2324.9,1486.45 2324.9,1469.18 
  "/>
<polyline clip-path="url(#clip810)" style="stroke:#000000; stroke-width:4; stroke-opacity:1; fill:none" points="
  1368.47,1448.37 1380.28,1448.37 
  "/>
<polyline clip-path="url(#clip810)" style="stroke:#000000; stroke-width:4; stroke-opacity:1; fill:none" points="
  1368.47,1116.24 1380.28,1116.24 
  "/>
<polyline clip-path="url(#clip810)" style="stroke:#000000; stroke-width:4; stroke-opacity:1; fill:none" points="
  1368.47,784.117 1380.28,784.117 
  "/>
<polyline clip-path="url(#clip810)" style="stroke:#000000; stroke-width:4; stroke-opacity:1; fill:none" points="
  1368.47,451.989 1380.28,451.989 
  "/>
<polyline clip-path="url(#clip810)" style="stroke:#000000; stroke-width:4; stroke-opacity:1; fill:none" points="
  1368.47,119.861 1380.28,119.861 
  "/>
<path clip-path="url(#clip810)" d="M 0 0 M1494.16 1535.98 L1510.48 1535.98 L1510.48 1539.92 L1488.53 1539.92 L1488.53 1535.98 Q1491.19 1533.23 1495.78 1528.6 Q1500.38 1523.95 1501.56 1522.61 Q1503.81 1520.08 1504.69 1518.35 Q1505.59 1516.59 1505.59 1514.9 Q1505.59 1512.14 1503.65 1510.41 Q1501.73 1508.67 1498.62 1508.67 Q1496.43 1508.67 1493.97 1509.43 Q1491.54 1510.2 1488.76 1511.75 L1488.76 1507.03 Q1491.59 1505.89 1494.04 1505.31 Q1496.5 1504.73 1498.53 1504.73 Q1503.9 1504.73 1507.1 1507.42 Q1510.29 1510.11 1510.29 1514.6 Q1510.29 1516.73 1509.48 1518.65 Q1508.69 1520.54 1506.59 1523.14 Q1506.01 1523.81 1502.91 1527.03 Q1499.81 1530.22 1494.16 1535.98 Z" fill="#000000" fill-rule="evenodd" fill-opacity="1" /><path clip-path="url(#clip810)" d="M 0 0 M1708.86 1509.43 L1697.06 1527.88 L1708.86 1527.88 L1708.86 1509.43 M1707.64 1505.36 L1713.52 1505.36 L1713.52 1527.88 L1718.45 1527.88 L1718.45 1531.77 L1713.52 1531.77 L1713.52 1539.92 L1708.86 1539.92 L1708.86 1531.77 L1693.26 1531.77 L1693.26 1527.26 L1707.64 1505.36 Z" fill="#000000" fill-rule="evenodd" fill-opacity="1" /><path clip-path="url(#clip810)" d="M 0 0 M1912.61 1520.78 Q1909.46 1520.78 1907.61 1522.93 Q1905.78 1525.08 1905.78 1528.83 Q1905.78 1532.56 1907.61 1534.73 Q1909.46 1536.89 1912.61 1536.89 Q1915.75 1536.89 1917.58 1534.73 Q1919.44 1532.56 1919.44 1528.83 Q1919.44 1525.08 1917.58 1522.93 Q1915.75 1520.78 1912.61 1520.78 M1921.89 1506.12 L1921.89 1510.38 Q1920.13 1509.55 1918.32 1509.11 Q1916.54 1508.67 1914.78 1508.67 Q1910.15 1508.67 1907.7 1511.8 Q1905.27 1514.92 1904.92 1521.24 Q1906.29 1519.23 1908.35 1518.16 Q1910.41 1517.07 1912.88 1517.07 Q1918.09 1517.07 1921.1 1520.24 Q1924.13 1523.39 1924.13 1528.83 Q1924.13 1534.16 1920.99 1537.37 Q1917.84 1540.59 1912.61 1540.59 Q1906.61 1540.59 1903.44 1536.01 Q1900.27 1531.4 1900.27 1522.67 Q1900.27 1514.48 1904.16 1509.62 Q1908.05 1504.73 1914.6 1504.73 Q1916.36 1504.73 1918.14 1505.08 Q1919.94 1505.43 1921.89 1506.12 Z" fill="#000000" fill-rule="evenodd" fill-opacity="1" /><path clip-path="url(#clip810)" d="M 0 0 M2118.55 1523.51 Q2115.22 1523.51 2113.3 1525.29 Q2111.4 1527.07 2111.4 1530.2 Q2111.4 1533.32 2113.3 1535.11 Q2115.22 1536.89 2118.55 1536.89 Q2121.88 1536.89 2123.8 1535.11 Q2125.73 1533.3 2125.73 1530.2 Q2125.73 1527.07 2123.8 1525.29 Q2121.91 1523.51 2118.55 1523.51 M2113.87 1521.52 Q2110.87 1520.78 2109.18 1518.72 Q2107.51 1516.66 2107.51 1513.69 Q2107.51 1509.55 2110.45 1507.14 Q2113.41 1504.73 2118.55 1504.73 Q2123.71 1504.73 2126.65 1507.14 Q2129.59 1509.55 2129.59 1513.69 Q2129.59 1516.66 2127.9 1518.72 Q2126.24 1520.78 2123.25 1521.52 Q2126.63 1522.3 2128.5 1524.6 Q2130.4 1526.89 2130.4 1530.2 Q2130.4 1535.22 2127.32 1537.91 Q2124.27 1540.59 2118.55 1540.59 Q2112.83 1540.59 2109.75 1537.91 Q2106.7 1535.22 2106.7 1530.2 Q2106.7 1526.89 2108.6 1524.6 Q2110.49 1522.3 2113.87 1521.52 M2112.16 1514.13 Q2112.16 1516.82 2113.83 1518.32 Q2115.52 1519.83 2118.55 1519.83 Q2121.56 1519.83 2123.25 1518.32 Q2124.96 1516.82 2124.96 1514.13 Q2124.96 1511.45 2123.25 1509.94 Q2121.56 1508.44 2118.55 1508.44 Q2115.52 1508.44 2113.83 1509.94 Q2112.16 1511.45 2112.16 1514.13 Z" fill="#000000" fill-rule="evenodd" fill-opacity="1" /><path clip-path="url(#clip810)" d="M 0 0 M2301.77 1535.98 L2309.41 1535.98 L2309.41 1509.62 L2301.1 1511.29 L2301.1 1507.03 L2309.37 1505.36 L2314.04 1505.36 L2314.04 1535.98 L2321.68 1535.98 L2321.68 1539.92 L2301.77 1539.92 L2301.77 1535.98 Z" fill="#000000" fill-rule="evenodd" fill-opacity="1" /><path clip-path="url(#clip810)" d="M 0 0 M2336.75 1508.44 Q2333.14 1508.44 2331.31 1512 Q2329.51 1515.55 2329.51 1522.67 Q2329.51 1529.78 2331.31 1533.35 Q2333.14 1536.89 2336.75 1536.89 Q2340.38 1536.89 2342.19 1533.35 Q2344.02 1529.78 2344.02 1522.67 Q2344.02 1515.55 2342.19 1512 Q2340.38 1508.44 2336.75 1508.44 M2336.75 1504.73 Q2342.56 1504.73 2345.62 1509.34 Q2348.7 1513.92 2348.7 1522.67 Q2348.7 1531.4 2345.62 1536.01 Q2342.56 1540.59 2336.75 1540.59 Q2330.94 1540.59 2327.86 1536.01 Q2324.81 1531.4 2324.81 1522.67 Q2324.81 1513.92 2327.86 1509.34 Q2330.94 1504.73 2336.75 1504.73 Z" fill="#000000" fill-rule="evenodd" fill-opacity="1" /><path clip-path="url(#clip810)" d="M 0 0 M1332.53 1434.17 Q1328.92 1434.17 1327.09 1437.74 Q1325.28 1441.28 1325.28 1448.41 Q1325.28 1455.51 1327.09 1459.08 Q1328.92 1462.62 1332.53 1462.62 Q1336.16 1462.62 1337.97 1459.08 Q1339.8 1455.51 1339.8 1448.41 Q1339.8 1441.28 1337.97 1437.74 Q1336.16 1434.17 1332.53 1434.17 M1332.53 1430.47 Q1338.34 1430.47 1341.39 1435.07 Q1344.47 1439.66 1344.47 1448.41 Q1344.47 1457.13 1341.39 1461.74 Q1338.34 1466.32 1332.53 1466.32 Q1326.72 1466.32 1323.64 1461.74 Q1320.58 1457.13 1320.58 1448.41 Q1320.58 1439.66 1323.64 1435.07 Q1326.72 1430.47 1332.53 1430.47 Z" fill="#000000" fill-rule="evenodd" fill-opacity="1" /><path clip-path="url(#clip810)" d="M 0 0 M1275.12 1129.59 L1291.44 1129.59 L1291.44 1133.52 L1269.5 1133.52 L1269.5 1129.59 Q1272.16 1126.83 1276.74 1122.21 Q1281.35 1117.55 1282.53 1116.21 Q1284.77 1113.69 1285.65 1111.95 Q1286.56 1110.19 1286.56 1108.5 Q1286.56 1105.75 1284.61 1104.01 Q1282.69 1102.27 1279.59 1102.27 Q1277.39 1102.27 1274.94 1103.04 Q1272.51 1103.8 1269.73 1105.35 L1269.73 1100.63 Q1272.55 1099.5 1275.01 1098.92 Q1277.46 1098.34 1279.5 1098.34 Q1284.87 1098.34 1288.06 1101.02 Q1291.26 1103.71 1291.26 1108.2 Q1291.26 1110.33 1290.45 1112.25 Q1289.66 1114.15 1287.55 1116.74 Q1286.97 1117.41 1283.87 1120.63 Q1280.77 1123.83 1275.12 1129.59 Z" fill="#000000" fill-rule="evenodd" fill-opacity="1" /><path clip-path="url(#clip810)" d="M 0 0 M1296.56 1098.96 L1314.91 1098.96 L1314.91 1102.9 L1300.84 1102.9 L1300.84 1111.37 Q1301.86 1111.02 1302.88 1110.86 Q1303.89 1110.68 1304.91 1110.68 Q1310.7 1110.68 1314.08 1113.85 Q1317.46 1117.02 1317.46 1122.44 Q1317.46 1128.02 1313.99 1131.12 Q1310.52 1134.2 1304.2 1134.2 Q1302.02 1134.2 1299.75 1133.83 Q1297.51 1133.46 1295.1 1132.71 L1295.1 1128.02 Q1297.18 1129.15 1299.4 1129.71 Q1301.63 1130.26 1304.1 1130.26 Q1308.11 1130.26 1310.45 1128.15 Q1312.78 1126.05 1312.78 1122.44 Q1312.78 1118.83 1310.45 1116.72 Q1308.11 1114.61 1304.1 1114.61 Q1302.23 1114.61 1300.35 1115.03 Q1298.5 1115.45 1296.56 1116.33 L1296.56 1098.96 Z" fill="#000000" fill-rule="evenodd" fill-opacity="1" /><path clip-path="url(#clip810)" d="M 0 0 M1332.53 1102.04 Q1328.92 1102.04 1327.09 1105.61 Q1325.28 1109.15 1325.28 1116.28 Q1325.28 1123.39 1327.09 1126.95 Q1328.92 1130.49 1332.53 1130.49 Q1336.16 1130.49 1337.97 1126.95 Q1339.8 1123.39 1339.8 1116.28 Q1339.8 1109.15 1337.97 1105.61 Q1336.16 1102.04 1332.53 1102.04 M1332.53 1098.34 Q1338.34 1098.34 1341.39 1102.95 Q1344.47 1107.53 1344.47 1116.28 Q1344.47 1125.01 1341.39 1129.61 Q1338.34 1134.2 1332.53 1134.2 Q1326.72 1134.2 1323.64 1129.61 Q1320.58 1125.01 1320.58 1116.28 Q1320.58 1107.53 1323.64 1102.95 Q1326.72 1098.34 1332.53 1098.34 Z" fill="#000000" fill-rule="evenodd" fill-opacity="1" /><path clip-path="url(#clip810)" d="M 0 0 M1269.54 766.837 L1287.9 766.837 L1287.9 770.772 L1273.83 770.772 L1273.83 779.244 Q1274.84 778.897 1275.86 778.735 Q1276.88 778.55 1277.9 778.55 Q1283.69 778.55 1287.07 781.721 Q1290.45 784.892 1290.45 790.309 Q1290.45 795.887 1286.97 798.989 Q1283.5 802.068 1277.18 802.068 Q1275.01 802.068 1272.74 801.698 Q1270.49 801.327 1268.08 800.586 L1268.08 795.887 Q1270.17 797.022 1272.39 797.577 Q1274.61 798.133 1277.09 798.133 Q1281.09 798.133 1283.43 796.026 Q1285.77 793.92 1285.77 790.309 Q1285.77 786.698 1283.43 784.591 Q1281.09 782.485 1277.09 782.485 Q1275.21 782.485 1273.34 782.901 Q1271.49 783.318 1269.54 784.198 L1269.54 766.837 Z" fill="#000000" fill-rule="evenodd" fill-opacity="1" /><path clip-path="url(#clip810)" d="M 0 0 M1305.52 769.915 Q1301.9 769.915 1300.08 773.48 Q1298.27 777.022 1298.27 784.151 Q1298.27 791.258 1300.08 794.823 Q1301.9 798.364 1305.52 798.364 Q1309.15 798.364 1310.95 794.823 Q1312.78 791.258 1312.78 784.151 Q1312.78 777.022 1310.95 773.48 Q1309.15 769.915 1305.52 769.915 M1305.52 766.212 Q1311.33 766.212 1314.38 770.818 Q1317.46 775.401 1317.46 784.151 Q1317.46 792.878 1314.38 797.485 Q1311.33 802.068 1305.52 802.068 Q1299.7 802.068 1296.63 797.485 Q1293.57 792.878 1293.57 784.151 Q1293.57 775.401 1296.63 770.818 Q1299.7 766.212 1305.52 766.212 Z" fill="#000000" fill-rule="evenodd" fill-opacity="1" /><path clip-path="url(#clip810)" d="M 0 0 M1332.53 769.915 Q1328.92 769.915 1327.09 773.48 Q1325.28 777.022 1325.28 784.151 Q1325.28 791.258 1327.09 794.823 Q1328.92 798.364 1332.53 798.364 Q1336.16 798.364 1337.97 794.823 Q1339.8 791.258 1339.8 784.151 Q1339.8 777.022 1337.97 773.48 Q1336.16 769.915 1332.53 769.915 M1332.53 766.212 Q1338.34 766.212 1341.39 770.818 Q1344.47 775.401 1344.47 784.151 Q1344.47 792.878 1341.39 797.485 Q1338.34 802.068 1332.53 802.068 Q1326.72 802.068 1323.64 797.485 Q1320.58 792.878 1320.58 784.151 Q1320.58 775.401 1323.64 770.818 Q1326.72 766.212 1332.53 766.212 Z" fill="#000000" fill-rule="evenodd" fill-opacity="1" /><path clip-path="url(#clip810)" d="M 0 0 M1269.22 434.709 L1291.44 434.709 L1291.44 436.699 L1278.89 469.269 L1274.01 469.269 L1285.82 438.644 L1269.22 438.644 L1269.22 434.709 Z" fill="#000000" fill-rule="evenodd" fill-opacity="1" /><path clip-path="url(#clip810)" d="M 0 0 M1296.56 434.709 L1314.91 434.709 L1314.91 438.644 L1300.84 438.644 L1300.84 447.116 Q1301.86 446.769 1302.88 446.607 Q1303.89 446.422 1304.91 446.422 Q1310.7 446.422 1314.08 449.593 Q1317.46 452.764 1317.46 458.181 Q1317.46 463.759 1313.99 466.861 Q1310.52 469.94 1304.2 469.94 Q1302.02 469.94 1299.75 469.57 Q1297.51 469.199 1295.1 468.458 L1295.1 463.759 Q1297.18 464.894 1299.4 465.449 Q1301.63 466.005 1304.1 466.005 Q1308.11 466.005 1310.45 463.898 Q1312.78 461.792 1312.78 458.181 Q1312.78 454.57 1310.45 452.463 Q1308.11 450.357 1304.1 450.357 Q1302.23 450.357 1300.35 450.773 Q1298.5 451.19 1296.56 452.07 L1296.56 434.709 Z" fill="#000000" fill-rule="evenodd" fill-opacity="1" /><path clip-path="url(#clip810)" d="M 0 0 M1332.53 437.787 Q1328.92 437.787 1327.09 441.352 Q1325.28 444.894 1325.28 452.023 Q1325.28 459.13 1327.09 462.695 Q1328.92 466.236 1332.53 466.236 Q1336.16 466.236 1337.97 462.695 Q1339.8 459.13 1339.8 452.023 Q1339.8 444.894 1337.97 441.352 Q1336.16 437.787 1332.53 437.787 M1332.53 434.084 Q1338.34 434.084 1341.39 438.69 Q1344.47 443.273 1344.47 452.023 Q1344.47 460.75 1341.39 465.357 Q1338.34 469.94 1332.53 469.94 Q1326.72 469.94 1323.64 465.357 Q1320.58 460.75 1320.58 452.023 Q1320.58 443.273 1323.64 438.69 Q1326.72 434.084 1332.53 434.084 Z" fill="#000000" fill-rule="evenodd" fill-opacity="1" /><path clip-path="url(#clip810)" d="M 0 0 M1243.52 133.205 L1251.16 133.205 L1251.16 106.84 L1242.85 108.506 L1242.85 104.247 L1251.12 102.581 L1255.79 102.581 L1255.79 133.205 L1263.43 133.205 L1263.43 137.141 L1243.52 137.141 L1243.52 133.205 Z" fill="#000000" fill-rule="evenodd" fill-opacity="1" /><path clip-path="url(#clip810)" d="M 0 0 M1278.5 105.659 Q1274.89 105.659 1273.06 109.224 Q1271.26 112.766 1271.26 119.895 Q1271.26 127.002 1273.06 130.567 Q1274.89 134.108 1278.5 134.108 Q1282.14 134.108 1283.94 130.567 Q1285.77 127.002 1285.77 119.895 Q1285.77 112.766 1283.94 109.224 Q1282.14 105.659 1278.5 105.659 M1278.5 101.956 Q1284.31 101.956 1287.37 106.562 Q1290.45 111.145 1290.45 119.895 Q1290.45 128.622 1287.37 133.229 Q1284.31 137.812 1278.5 137.812 Q1272.69 137.812 1269.61 133.229 Q1266.56 128.622 1266.56 119.895 Q1266.56 111.145 1269.61 106.562 Q1272.69 101.956 1278.5 101.956 Z" fill="#000000" fill-rule="evenodd" fill-opacity="1" /><path clip-path="url(#clip810)" d="M 0 0 M1305.52 105.659 Q1301.9 105.659 1300.08 109.224 Q1298.27 112.766 1298.27 119.895 Q1298.27 127.002 1300.08 130.567 Q1301.9 134.108 1305.52 134.108 Q1309.15 134.108 1310.95 130.567 Q1312.78 127.002 1312.78 119.895 Q1312.78 112.766 1310.95 109.224 Q1309.15 105.659 1305.52 105.659 M1305.52 101.956 Q1311.33 101.956 1314.38 106.562 Q1317.46 111.145 1317.46 119.895 Q1317.46 128.622 1314.38 133.229 Q1311.33 137.812 1305.52 137.812 Q1299.7 137.812 1296.63 133.229 Q1293.57 128.622 1293.57 119.895 Q1293.57 111.145 1296.63 106.562 Q1299.7 101.956 1305.52 101.956 Z" fill="#000000" fill-rule="evenodd" fill-opacity="1" /><path clip-path="url(#clip810)" d="M 0 0 M1332.53 105.659 Q1328.92 105.659 1327.09 109.224 Q1325.28 112.766 1325.28 119.895 Q1325.28 127.002 1327.09 130.567 Q1328.92 134.108 1332.53 134.108 Q1336.16 134.108 1337.97 130.567 Q1339.8 127.002 1339.8 119.895 Q1339.8 112.766 1337.97 109.224 Q1336.16 105.659 1332.53 105.659 M1332.53 101.956 Q1338.34 101.956 1341.39 106.562 Q1344.47 111.145 1344.47 119.895 Q1344.47 128.622 1341.39 133.229 Q1338.34 137.812 1332.53 137.812 Q1326.72 137.812 1323.64 133.229 Q1320.58 128.622 1320.58 119.895 Q1320.58 111.145 1323.64 106.562 Q1326.72 101.956 1332.53 101.956 Z" fill="#000000" fill-rule="evenodd" fill-opacity="1" /><polyline clip-path="url(#clip813)" style="stroke:#009af9; stroke-width:4; stroke-opacity:1; fill:none" points="
  1396.33,1445.72 1499.5,1443.06 1602.68,1437.74 1705.85,1427.12 1809.03,1405.86 1912.2,1363.35 2015.38,1278.32 2118.55,1108.27 2221.72,768.174 2324.9,87.9763 
  
  "/>
<path clip-path="url(#clip810)" d="
M1854.37 251.724 L2280.76 251.724 L2280.76 130.764 L1854.37 130.764  Z
  " fill="#ffffff" fill-rule="evenodd" fill-opacity="1"/>
<polyline clip-path="url(#clip810)" style="stroke:#000000; stroke-width:4; stroke-opacity:1; fill:none" points="
  1854.37,251.724 2280.76,251.724 2280.76,130.764 1854.37,130.764 1854.37,251.724 
  "/>
<polyline clip-path="url(#clip810)" style="stroke:#009af9; stroke-width:4; stroke-opacity:1; fill:none" points="
  1878.37,191.244 2022.37,191.244 
  "/>
<path clip-path="url(#clip810)" d="M 0 0 M2046.37 173.964 L2051.09 173.964 L2058.36 203.177 L2065.6 173.964 L2070.86 173.964 L2078.13 203.177 L2085.37 173.964 L2090.12 173.964 L2081.44 208.524 L2075.56 208.524 L2068.27 178.524 L2060.9 208.524 L2055.03 208.524 L2046.37 173.964 Z" fill="#000000" fill-rule="evenodd" fill-opacity="1" /><path clip-path="url(#clip810)" d="M 0 0 M2093.54 182.598 L2097.8 182.598 L2097.8 208.524 L2093.54 208.524 L2093.54 182.598 M2093.54 172.506 L2097.8 172.506 L2097.8 177.899 L2093.54 177.899 L2093.54 172.506 Z" fill="#000000" fill-rule="evenodd" fill-opacity="1" /><path clip-path="url(#clip810)" d="M 0 0 M2123.82 192.876 L2123.82 208.524 L2119.56 208.524 L2119.56 193.015 Q2119.56 189.334 2118.13 187.506 Q2116.69 185.677 2113.82 185.677 Q2110.37 185.677 2108.38 187.876 Q2106.39 190.075 2106.39 193.871 L2106.39 208.524 L2102.11 208.524 L2102.11 182.598 L2106.39 182.598 L2106.39 186.626 Q2107.92 184.288 2109.98 183.131 Q2112.06 181.973 2114.77 181.973 Q2119.24 181.973 2121.53 184.751 Q2123.82 187.506 2123.82 192.876 Z" fill="#000000" fill-rule="evenodd" fill-opacity="1" /><path clip-path="url(#clip810)" d="M 0 0 M2149.84 192.876 L2149.84 208.524 L2145.58 208.524 L2145.58 193.015 Q2145.58 189.334 2144.15 187.506 Q2142.71 185.677 2139.84 185.677 Q2136.39 185.677 2134.4 187.876 Q2132.41 190.075 2132.41 193.871 L2132.41 208.524 L2128.13 208.524 L2128.13 182.598 L2132.41 182.598 L2132.41 186.626 Q2133.94 184.288 2136 183.131 Q2138.08 181.973 2140.79 181.973 Q2145.26 181.973 2147.55 184.751 Q2149.84 187.506 2149.84 192.876 Z" fill="#000000" fill-rule="evenodd" fill-opacity="1" /><path clip-path="url(#clip810)" d="M 0 0 M2154.31 182.598 L2158.57 182.598 L2158.57 208.524 L2154.31 208.524 L2154.31 182.598 M2154.31 172.506 L2158.57 172.506 L2158.57 177.899 L2154.31 177.899 L2154.31 172.506 Z" fill="#000000" fill-rule="evenodd" fill-opacity="1" /><path clip-path="url(#clip810)" d="M 0 0 M2184.58 192.876 L2184.58 208.524 L2180.33 208.524 L2180.33 193.015 Q2180.33 189.334 2178.89 187.506 Q2177.46 185.677 2174.58 185.677 Q2171.14 185.677 2169.15 187.876 Q2167.15 190.075 2167.15 193.871 L2167.15 208.524 L2162.87 208.524 L2162.87 182.598 L2167.15 182.598 L2167.15 186.626 Q2168.68 184.288 2170.74 183.131 Q2172.83 181.973 2175.53 181.973 Q2180 181.973 2182.29 184.751 Q2184.58 187.506 2184.58 192.876 Z" fill="#000000" fill-rule="evenodd" fill-opacity="1" /><path clip-path="url(#clip810)" d="M 0 0 M2206.11 195.26 Q2206.11 190.631 2204.19 188.084 Q2202.29 185.538 2198.84 185.538 Q2195.42 185.538 2193.5 188.084 Q2191.6 190.631 2191.6 195.26 Q2191.6 199.867 2193.5 202.413 Q2195.42 204.959 2198.84 204.959 Q2202.29 204.959 2204.19 202.413 Q2206.11 199.867 2206.11 195.26 M2210.37 205.307 Q2210.37 211.927 2207.43 215.144 Q2204.49 218.385 2198.43 218.385 Q2196.18 218.385 2194.19 218.038 Q2192.2 217.714 2190.33 217.019 L2190.33 212.876 Q2192.2 213.894 2194.03 214.381 Q2195.86 214.867 2197.76 214.867 Q2201.95 214.867 2204.03 212.668 Q2206.11 210.492 2206.11 206.07 L2206.11 203.964 Q2204.79 206.256 2202.73 207.39 Q2200.67 208.524 2197.8 208.524 Q2193.03 208.524 2190.12 204.89 Q2187.2 201.256 2187.2 195.26 Q2187.2 189.242 2190.12 185.608 Q2193.03 181.973 2197.8 181.973 Q2200.67 181.973 2202.73 183.108 Q2204.79 184.242 2206.11 186.533 L2206.11 182.598 L2210.37 182.598 L2210.37 205.307 Z" fill="#000000" fill-rule="evenodd" fill-opacity="1" /><path clip-path="url(#clip810)" d="M 0 0 M2231.37 183.362 L2231.37 187.39 Q2229.56 186.464 2227.62 186.001 Q2225.67 185.538 2223.59 185.538 Q2220.42 185.538 2218.82 186.51 Q2217.25 187.483 2217.25 189.427 Q2217.25 190.908 2218.38 191.765 Q2219.52 192.598 2222.94 193.362 L2224.4 193.686 Q2228.94 194.658 2230.83 196.441 Q2232.76 198.2 2232.76 201.371 Q2232.76 204.982 2229.89 207.089 Q2227.04 209.195 2222.04 209.195 Q2219.96 209.195 2217.69 208.779 Q2215.44 208.385 2212.94 207.575 L2212.94 203.177 Q2215.3 204.404 2217.59 205.029 Q2219.89 205.631 2222.13 205.631 Q2225.14 205.631 2226.76 204.612 Q2228.38 203.57 2228.38 201.695 Q2228.38 199.959 2227.2 199.033 Q2226.04 198.107 2222.08 197.251 L2220.6 196.904 Q2216.64 196.07 2214.89 194.358 Q2213.13 192.621 2213.13 189.612 Q2213.13 185.955 2215.72 183.964 Q2218.31 181.973 2223.08 181.973 Q2225.44 181.973 2227.52 182.321 Q2229.61 182.668 2231.37 183.362 Z" fill="#000000" fill-rule="evenodd" fill-opacity="1" /></svg>
