<?xml version="1.0" encoding="utf-8"?>
<svg xmlns="http://www.w3.org/2000/svg" xmlns:xlink="http://www.w3.org/1999/xlink" width="600" height="400" viewBox="0 0 2400 1600">
<defs>
  <clipPath id="clip710">
    <rect x="0" y="0" width="2400" height="1600"/>
  </clipPath>
</defs>
<path clip-path="url(#clip710)" d="
M0 1600 L2400 1600 L2400 0 L0 0  Z
  " fill="#ffffff" fill-rule="evenodd" fill-opacity="1"/>
<defs>
  <clipPath id="clip711">
    <rect x="480" y="0" width="1681" height="1600"/>
  </clipPath>
</defs>
<path clip-path="url(#clip710)" d="
M238.616 1423.18 L2352.76 1423.18 L2352.76 47.2441 L238.616 47.2441  Z
  " fill="#ffffff" fill-rule="evenodd" fill-opacity="1"/>
<defs>
  <clipPath id="clip712">
    <rect x="238" y="47" width="2115" height="1377"/>
  </clipPath>
</defs>
<polyline clip-path="url(#clip712)" style="stroke:#000000; stroke-width:2; stroke-opacity:0.1; fill:none" points="
  552.708,1423.18 552.708,47.2441 
  "/>
<polyline clip-path="url(#clip712)" style="stroke:#000000; stroke-width:2; stroke-opacity:0.1; fill:none" points="
  922.055,1423.18 922.055,47.2441 
  "/>
<polyline clip-path="url(#clip712)" style="stroke:#000000; stroke-width:2; stroke-opacity:0.1; fill:none" points="
  1291.4,1423.18 1291.4,47.2441 
  "/>
<polyline clip-path="url(#clip712)" style="stroke:#000000; stroke-width:2; stroke-opacity:0.1; fill:none" points="
  1660.75,1423.18 1660.75,47.2441 
  "/>
<polyline clip-path="url(#clip712)" style="stroke:#000000; stroke-width:2; stroke-opacity:0.1; fill:none" points="
  2030.09,1423.18 2030.09,47.2441 
  "/>
<polyline clip-path="url(#clip712)" style="stroke:#000000; stroke-width:2; stroke-opacity:0.1; fill:none" points="
  238.616,1399.87 2352.76,1399.87 
  "/>
<polyline clip-path="url(#clip712)" style="stroke:#000000; stroke-width:2; stroke-opacity:0.1; fill:none" points="
  238.616,1117.55 2352.76,1117.55 
  "/>
<polyline clip-path="url(#clip712)" style="stroke:#000000; stroke-width:2; stroke-opacity:0.1; fill:none" points="
  238.616,835.221 2352.76,835.221 
  "/>
<polyline clip-path="url(#clip712)" style="stroke:#000000; stroke-width:2; stroke-opacity:0.1; fill:none" points="
  238.616,552.895 2352.76,552.895 
  "/>
<polyline clip-path="url(#clip712)" style="stroke:#000000; stroke-width:2; stroke-opacity:0.1; fill:none" points="
  238.616,270.57 2352.76,270.57 
  "/>
<polyline clip-path="url(#clip710)" style="stroke:#000000; stroke-width:4; stroke-opacity:1; fill:none" points="
  238.616,1423.18 2352.76,1423.18 
  "/>
<polyline clip-path="url(#clip710)" style="stroke:#000000; stroke-width:4; stroke-opacity:1; fill:none" points="
  238.616,1423.18 238.616,47.2441 
  "/>
<polyline clip-path="url(#clip710)" style="stroke:#000000; stroke-width:4; stroke-opacity:1; fill:none" points="
  552.708,1423.18 552.708,1406.67 
  "/>
<polyline clip-path="url(#clip710)" style="stroke:#000000; stroke-width:4; stroke-opacity:1; fill:none" points="
  922.055,1423.18 922.055,1406.67 
  "/>
<polyline clip-path="url(#clip710)" style="stroke:#000000; stroke-width:4; stroke-opacity:1; fill:none" points="
  1291.4,1423.18 1291.4,1406.67 
  "/>
<polyline clip-path="url(#clip710)" style="stroke:#000000; stroke-width:4; stroke-opacity:1; fill:none" points="
  1660.75,1423.18 1660.75,1406.67 
  "/>
<polyline clip-path="url(#clip710)" style="stroke:#000000; stroke-width:4; stroke-opacity:1; fill:none" points="
  2030.09,1423.18 2030.09,1406.67 
  "/>
<polyline clip-path="url(#clip710)" style="stroke:#000000; stroke-width:4; stroke-opacity:1; fill:none" points="
  238.616,1399.87 263.986,1399.87 
  "/>
<polyline clip-path="url(#clip710)" style="stroke:#000000; stroke-width:4; stroke-opacity:1; fill:none" points="
  238.616,1117.55 263.986,1117.55 
  "/>
<polyline clip-path="url(#clip710)" style="stroke:#000000; stroke-width:4; stroke-opacity:1; fill:none" points="
  238.616,835.221 263.986,835.221 
  "/>
<polyline clip-path="url(#clip710)" style="stroke:#000000; stroke-width:4; stroke-opacity:1; fill:none" points="
  238.616,552.895 263.986,552.895 
  "/>
<polyline clip-path="url(#clip710)" style="stroke:#000000; stroke-width:4; stroke-opacity:1; fill:none" points="
  238.616,270.57 263.986,270.57 
  "/>
<path clip-path="url(#clip710)" d="M 0 0 M519.954 1461.77 L532.431 1461.77 L532.431 1465.56 L519.954 1465.56 L519.954 1461.77 Z" fill="#000000" fill-rule="evenodd" fill-opacity="1" /><path clip-path="url(#clip710)" d="M 0 0 M537.547 1442.09 L555.903 1442.09 L555.903 1446.03 L541.829 1446.03 L541.829 1454.5 Q542.847 1454.15 543.866 1453.99 Q544.884 1453.8 545.903 1453.8 Q551.69 1453.8 555.07 1456.98 Q558.449 1460.15 558.449 1465.56 Q558.449 1471.14 554.977 1474.24 Q551.505 1477.32 545.185 1477.32 Q543.009 1477.32 540.741 1476.95 Q538.496 1476.58 536.088 1475.84 L536.088 1471.14 Q538.172 1472.28 540.394 1472.83 Q542.616 1473.39 545.093 1473.39 Q549.097 1473.39 551.435 1471.28 Q553.773 1469.18 553.773 1465.56 Q553.773 1461.95 551.435 1459.85 Q549.097 1457.74 545.093 1457.74 Q543.218 1457.74 541.343 1458.16 Q539.491 1458.57 537.547 1459.45 L537.547 1442.09 Z" fill="#000000" fill-rule="evenodd" fill-opacity="1" /><path clip-path="url(#clip710)" d="M 0 0 M573.519 1445.17 Q569.907 1445.17 568.079 1448.74 Q566.273 1452.28 566.273 1459.41 Q566.273 1466.51 568.079 1470.08 Q569.907 1473.62 573.519 1473.62 Q577.153 1473.62 578.958 1470.08 Q580.787 1466.51 580.787 1459.41 Q580.787 1452.28 578.958 1448.74 Q577.153 1445.17 573.519 1445.17 M573.519 1441.47 Q579.329 1441.47 582.384 1446.07 Q585.463 1450.66 585.463 1459.41 Q585.463 1468.13 582.384 1472.74 Q579.329 1477.32 573.519 1477.32 Q567.708 1477.32 564.63 1472.74 Q561.574 1468.13 561.574 1459.41 Q561.574 1450.66 564.63 1446.07 Q567.708 1441.47 573.519 1441.47 Z" fill="#000000" fill-rule="evenodd" fill-opacity="1" /><path clip-path="url(#clip710)" d="M 0 0 M890.099 1461.77 L902.576 1461.77 L902.576 1465.56 L890.099 1465.56 L890.099 1461.77 Z" fill="#000000" fill-rule="evenodd" fill-opacity="1" /><path clip-path="url(#clip710)" d="M 0 0 M911.673 1472.72 L927.993 1472.72 L927.993 1476.65 L906.048 1476.65 L906.048 1472.72 Q908.71 1469.96 913.294 1465.33 Q917.9 1460.68 919.081 1459.34 Q921.326 1456.81 922.206 1455.08 Q923.108 1453.32 923.108 1451.63 Q923.108 1448.87 921.164 1447.14 Q919.243 1445.4 916.141 1445.4 Q913.942 1445.4 911.488 1446.17 Q909.057 1446.93 906.28 1448.48 L906.28 1443.76 Q909.104 1442.62 911.557 1442.05 Q914.011 1441.47 916.048 1441.47 Q921.418 1441.47 924.613 1444.15 Q927.807 1446.84 927.807 1451.33 Q927.807 1453.46 926.997 1455.38 Q926.21 1457.28 924.104 1459.87 Q923.525 1460.54 920.423 1463.76 Q917.321 1466.95 911.673 1472.72 Z" fill="#000000" fill-rule="evenodd" fill-opacity="1" /><path clip-path="url(#clip710)" d="M 0 0 M933.108 1442.09 L951.465 1442.09 L951.465 1446.03 L937.391 1446.03 L937.391 1454.5 Q938.409 1454.15 939.428 1453.99 Q940.446 1453.8 941.465 1453.8 Q947.252 1453.8 950.631 1456.98 Q954.011 1460.15 954.011 1465.56 Q954.011 1471.14 950.539 1474.24 Q947.066 1477.32 940.747 1477.32 Q938.571 1477.32 936.303 1476.95 Q934.057 1476.58 931.65 1475.84 L931.65 1471.14 Q933.733 1472.28 935.955 1472.83 Q938.178 1473.39 940.654 1473.39 Q944.659 1473.39 946.997 1471.28 Q949.335 1469.18 949.335 1465.56 Q949.335 1461.95 946.997 1459.85 Q944.659 1457.74 940.654 1457.74 Q938.779 1457.74 936.905 1458.16 Q935.053 1458.57 933.108 1459.45 L933.108 1442.09 Z" fill="#000000" fill-rule="evenodd" fill-opacity="1" /><path clip-path="url(#clip710)" d="M 0 0 M1291.4 1445.17 Q1287.79 1445.17 1285.96 1448.74 Q1284.16 1452.28 1284.16 1459.41 Q1284.16 1466.51 1285.96 1470.08 Q1287.79 1473.62 1291.4 1473.62 Q1295.04 1473.62 1296.84 1470.08 Q1298.67 1466.51 1298.67 1459.41 Q1298.67 1452.28 1296.84 1448.74 Q1295.04 1445.17 1291.4 1445.17 M1291.4 1441.47 Q1297.21 1441.47 1300.27 1446.07 Q1303.35 1450.66 1303.35 1459.41 Q1303.35 1468.13 1300.27 1472.74 Q1297.21 1477.32 1291.4 1477.32 Q1285.59 1477.32 1282.51 1472.74 Q1279.46 1468.13 1279.46 1459.41 Q1279.46 1450.66 1282.51 1446.07 Q1285.59 1441.47 1291.4 1441.47 Z" fill="#000000" fill-rule="evenodd" fill-opacity="1" /><path clip-path="url(#clip710)" d="M 0 0 M1642.39 1472.72 L1658.71 1472.72 L1658.71 1476.65 L1636.77 1476.65 L1636.77 1472.72 Q1639.43 1469.96 1644.01 1465.33 Q1648.62 1460.68 1649.8 1459.34 Q1652.04 1456.81 1652.92 1455.08 Q1653.83 1453.32 1653.83 1451.63 Q1653.83 1448.87 1651.88 1447.14 Q1649.96 1445.4 1646.86 1445.4 Q1644.66 1445.4 1642.21 1446.17 Q1639.78 1446.93 1637 1448.48 L1637 1443.76 Q1639.82 1442.62 1642.28 1442.05 Q1644.73 1441.47 1646.77 1441.47 Q1652.14 1441.47 1655.33 1444.15 Q1658.53 1446.84 1658.53 1451.33 Q1658.53 1453.46 1657.72 1455.38 Q1656.93 1457.28 1654.82 1459.87 Q1654.24 1460.54 1651.14 1463.76 Q1648.04 1466.95 1642.39 1472.72 Z" fill="#000000" fill-rule="evenodd" fill-opacity="1" /><path clip-path="url(#clip710)" d="M 0 0 M1663.83 1442.09 L1682.18 1442.09 L1682.18 1446.03 L1668.11 1446.03 L1668.11 1454.5 Q1669.13 1454.15 1670.15 1453.99 Q1671.16 1453.8 1672.18 1453.8 Q1677.97 1453.8 1681.35 1456.98 Q1684.73 1460.15 1684.73 1465.56 Q1684.73 1471.14 1681.26 1474.24 Q1677.79 1477.32 1671.47 1477.32 Q1669.29 1477.32 1667.02 1476.95 Q1664.78 1476.58 1662.37 1475.84 L1662.37 1471.14 Q1664.45 1472.28 1666.67 1472.83 Q1668.9 1473.39 1671.37 1473.39 Q1675.38 1473.39 1677.72 1471.28 Q1680.05 1469.18 1680.05 1465.56 Q1680.05 1461.95 1677.72 1459.85 Q1675.38 1457.74 1671.37 1457.74 Q1669.5 1457.74 1667.62 1458.16 Q1665.77 1458.57 1663.83 1459.45 L1663.83 1442.09 Z" fill="#000000" fill-rule="evenodd" fill-opacity="1" /><path clip-path="url(#clip710)" d="M 0 0 M2006.87 1442.09 L2025.22 1442.09 L2025.22 1446.03 L2011.15 1446.03 L2011.15 1454.5 Q2012.17 1454.15 2013.19 1453.99 Q2014.2 1453.8 2015.22 1453.8 Q2021.01 1453.8 2024.39 1456.98 Q2027.77 1460.15 2027.77 1465.56 Q2027.77 1471.14 2024.3 1474.24 Q2020.82 1477.32 2014.5 1477.32 Q2012.33 1477.32 2010.06 1476.95 Q2007.81 1476.58 2005.41 1475.84 L2005.41 1471.14 Q2007.49 1472.28 2009.71 1472.83 Q2011.94 1473.39 2014.41 1473.39 Q2018.42 1473.39 2020.75 1471.28 Q2023.09 1469.18 2023.09 1465.56 Q2023.09 1461.95 2020.75 1459.85 Q2018.42 1457.74 2014.41 1457.74 Q2012.54 1457.74 2010.66 1458.16 Q2008.81 1458.57 2006.87 1459.45 L2006.87 1442.09 Z" fill="#000000" fill-rule="evenodd" fill-opacity="1" /><path clip-path="url(#clip710)" d="M 0 0 M2042.84 1445.17 Q2039.23 1445.17 2037.4 1448.74 Q2035.59 1452.28 2035.59 1459.41 Q2035.59 1466.51 2037.4 1470.08 Q2039.23 1473.62 2042.84 1473.62 Q2046.47 1473.62 2048.28 1470.08 Q2050.11 1466.51 2050.11 1459.41 Q2050.11 1452.28 2048.28 1448.74 Q2046.47 1445.17 2042.84 1445.17 M2042.84 1441.47 Q2048.65 1441.47 2051.7 1446.07 Q2054.78 1450.66 2054.78 1459.41 Q2054.78 1468.13 2051.7 1472.74 Q2048.65 1477.32 2042.84 1477.32 Q2037.03 1477.32 2033.95 1472.74 Q2030.89 1468.13 2030.89 1459.41 Q2030.89 1450.66 2033.95 1446.07 Q2037.03 1441.47 2042.84 1441.47 Z" fill="#000000" fill-rule="evenodd" fill-opacity="1" /><path clip-path="url(#clip710)" d="M 0 0 M140.288 1385.67 Q136.677 1385.67 134.848 1389.23 Q133.043 1392.78 133.043 1399.91 Q133.043 1407.01 134.848 1410.58 Q136.677 1414.12 140.288 1414.12 Q143.922 1414.12 145.728 1410.58 Q147.556 1407.01 147.556 1399.91 Q147.556 1392.78 145.728 1389.23 Q143.922 1385.67 140.288 1385.67 M140.288 1381.97 Q146.098 1381.97 149.154 1386.57 Q152.232 1391.16 152.232 1399.91 Q152.232 1408.63 149.154 1413.24 Q146.098 1417.82 140.288 1417.82 Q134.478 1417.82 131.399 1413.24 Q128.343 1408.63 128.343 1399.91 Q128.343 1391.16 131.399 1386.57 Q134.478 1381.97 140.288 1381.97 Z" fill="#000000" fill-rule="evenodd" fill-opacity="1" /><path clip-path="url(#clip710)" d="M 0 0 M157.302 1411.27 L162.186 1411.27 L162.186 1417.15 L157.302 1417.15 L157.302 1411.27 Z" fill="#000000" fill-rule="evenodd" fill-opacity="1" /><path clip-path="url(#clip710)" d="M 0 0 M171.283 1413.22 L187.602 1413.22 L187.602 1417.15 L165.658 1417.15 L165.658 1413.22 Q168.32 1410.46 172.903 1405.83 Q177.51 1401.18 178.69 1399.84 Q180.936 1397.31 181.815 1395.58 Q182.718 1393.82 182.718 1392.13 Q182.718 1389.37 180.774 1387.64 Q178.852 1385.9 175.751 1385.9 Q173.552 1385.9 171.098 1386.67 Q168.667 1387.43 165.89 1388.98 L165.89 1384.26 Q168.714 1383.12 171.167 1382.54 Q173.621 1381.97 175.658 1381.97 Q181.028 1381.97 184.223 1384.65 Q187.417 1387.34 187.417 1391.83 Q187.417 1393.96 186.607 1395.88 Q185.82 1397.78 183.714 1400.37 Q183.135 1401.04 180.033 1404.26 Q176.931 1407.45 171.283 1413.22 Z" fill="#000000" fill-rule="evenodd" fill-opacity="1" /><path clip-path="url(#clip710)" d="M 0 0 M202.672 1385.67 Q199.061 1385.67 197.232 1389.23 Q195.426 1392.78 195.426 1399.91 Q195.426 1407.01 197.232 1410.58 Q199.061 1414.12 202.672 1414.12 Q206.306 1414.12 208.112 1410.58 Q209.94 1407.01 209.94 1399.91 Q209.94 1392.78 208.112 1389.23 Q206.306 1385.67 202.672 1385.67 M202.672 1381.97 Q208.482 1381.97 211.537 1386.57 Q214.616 1391.16 214.616 1399.91 Q214.616 1408.63 211.537 1413.24 Q208.482 1417.82 202.672 1417.82 Q196.862 1417.82 193.783 1413.24 Q190.727 1408.63 190.727 1399.91 Q190.727 1391.16 193.783 1386.57 Q196.862 1381.97 202.672 1381.97 Z" fill="#000000" fill-rule="evenodd" fill-opacity="1" /><path clip-path="url(#clip710)" d="M 0 0 M141.283 1103.34 Q137.672 1103.34 135.843 1106.91 Q134.038 1110.45 134.038 1117.58 Q134.038 1124.69 135.843 1128.25 Q137.672 1131.79 141.283 1131.79 Q144.917 1131.79 146.723 1128.25 Q148.552 1124.69 148.552 1117.58 Q148.552 1110.45 146.723 1106.91 Q144.917 1103.34 141.283 1103.34 M141.283 1099.64 Q147.093 1099.64 150.149 1104.25 Q153.228 1108.83 153.228 1117.58 Q153.228 1126.31 150.149 1130.91 Q147.093 1135.5 141.283 1135.5 Q135.473 1135.5 132.394 1130.91 Q129.339 1126.31 129.339 1117.58 Q129.339 1108.83 132.394 1104.25 Q135.473 1099.64 141.283 1099.64 Z" fill="#000000" fill-rule="evenodd" fill-opacity="1" /><path clip-path="url(#clip710)" d="M 0 0 M158.297 1128.95 L163.181 1128.95 L163.181 1134.83 L158.297 1134.83 L158.297 1128.95 Z" fill="#000000" fill-rule="evenodd" fill-opacity="1" /><path clip-path="url(#clip710)" d="M 0 0 M172.278 1130.89 L188.598 1130.89 L188.598 1134.83 L166.653 1134.83 L166.653 1130.89 Q169.315 1128.14 173.899 1123.51 Q178.505 1118.85 179.686 1117.51 Q181.931 1114.99 182.811 1113.25 Q183.714 1111.49 183.714 1109.8 Q183.714 1107.05 181.769 1105.31 Q179.848 1103.58 176.746 1103.58 Q174.547 1103.58 172.093 1104.34 Q169.663 1105.1 166.885 1106.65 L166.885 1101.93 Q169.709 1100.8 172.163 1100.22 Q174.616 1099.64 176.653 1099.64 Q182.024 1099.64 185.218 1102.33 Q188.413 1105.01 188.413 1109.5 Q188.413 1111.63 187.602 1113.55 Q186.815 1115.45 184.709 1118.04 Q184.13 1118.71 181.028 1121.93 Q177.927 1125.13 172.278 1130.89 Z" fill="#000000" fill-rule="evenodd" fill-opacity="1" /><path clip-path="url(#clip710)" d="M 0 0 M193.713 1100.27 L212.07 1100.27 L212.07 1104.2 L197.996 1104.2 L197.996 1112.67 Q199.014 1112.33 200.033 1112.16 Q201.051 1111.98 202.07 1111.98 Q207.857 1111.98 211.237 1115.15 Q214.616 1118.32 214.616 1123.74 Q214.616 1129.32 211.144 1132.42 Q207.672 1135.5 201.352 1135.5 Q199.176 1135.5 196.908 1135.13 Q194.663 1134.76 192.255 1134.02 L192.255 1129.32 Q194.338 1130.45 196.561 1131.01 Q198.783 1131.56 201.26 1131.56 Q205.264 1131.56 207.602 1129.46 Q209.94 1127.35 209.94 1123.74 Q209.94 1120.13 207.602 1118.02 Q205.264 1115.91 201.26 1115.91 Q199.385 1115.91 197.51 1116.33 Q195.658 1116.75 193.713 1117.63 L193.713 1100.27 Z" fill="#000000" fill-rule="evenodd" fill-opacity="1" /><path clip-path="url(#clip710)" d="M 0 0 M139.339 821.019 Q135.728 821.019 133.899 824.584 Q132.093 828.126 132.093 835.255 Q132.093 842.362 133.899 845.927 Q135.728 849.468 139.339 849.468 Q142.973 849.468 144.779 845.927 Q146.607 842.362 146.607 835.255 Q146.607 828.126 144.779 824.584 Q142.973 821.019 139.339 821.019 M139.339 817.316 Q145.149 817.316 148.204 821.922 Q151.283 826.505 151.283 835.255 Q151.283 843.982 148.204 848.589 Q145.149 853.172 139.339 853.172 Q133.529 853.172 130.45 848.589 Q127.394 843.982 127.394 835.255 Q127.394 826.505 130.45 821.922 Q133.529 817.316 139.339 817.316 Z" fill="#000000" fill-rule="evenodd" fill-opacity="1" /><path clip-path="url(#clip710)" d="M 0 0 M156.353 846.621 L161.237 846.621 L161.237 852.501 L156.353 852.501 L156.353 846.621 Z" fill="#000000" fill-rule="evenodd" fill-opacity="1" /><path clip-path="url(#clip710)" d="M 0 0 M180.473 833.867 Q183.829 834.584 185.704 836.853 Q187.602 839.121 187.602 842.454 Q187.602 847.57 184.084 850.371 Q180.565 853.172 174.084 853.172 Q171.908 853.172 169.593 852.732 Q167.302 852.316 164.848 851.459 L164.848 846.945 Q166.792 848.079 169.107 848.658 Q171.422 849.237 173.945 849.237 Q178.343 849.237 180.635 847.501 Q182.95 845.765 182.95 842.454 Q182.95 839.399 180.797 837.686 Q178.667 835.95 174.848 835.95 L170.82 835.95 L170.82 832.107 L175.033 832.107 Q178.482 832.107 180.311 830.742 Q182.139 829.353 182.139 826.76 Q182.139 824.098 180.241 822.686 Q178.366 821.251 174.848 821.251 Q172.927 821.251 170.728 821.668 Q168.528 822.084 165.89 822.964 L165.89 818.797 Q168.552 818.056 170.866 817.686 Q173.204 817.316 175.265 817.316 Q180.589 817.316 183.69 819.746 Q186.792 822.154 186.792 826.274 Q186.792 829.144 185.149 831.135 Q183.505 833.103 180.473 833.867 Z" fill="#000000" fill-rule="evenodd" fill-opacity="1" /><path clip-path="url(#clip710)" d="M 0 0 M202.672 821.019 Q199.061 821.019 197.232 824.584 Q195.426 828.126 195.426 835.255 Q195.426 842.362 197.232 845.927 Q199.061 849.468 202.672 849.468 Q206.306 849.468 208.112 845.927 Q209.94 842.362 209.94 835.255 Q209.94 828.126 208.112 824.584 Q206.306 821.019 202.672 821.019 M202.672 817.316 Q208.482 817.316 211.537 821.922 Q214.616 826.505 214.616 835.255 Q214.616 843.982 211.537 848.589 Q208.482 853.172 202.672 853.172 Q196.862 853.172 193.783 848.589 Q190.727 843.982 190.727 835.255 Q190.727 826.505 193.783 821.922 Q196.862 817.316 202.672 817.316 Z" fill="#000000" fill-rule="evenodd" fill-opacity="1" /><path clip-path="url(#clip710)" d="M 0 0 M140.334 538.694 Q136.723 538.694 134.894 542.259 Q133.089 545.801 133.089 552.93 Q133.089 560.037 134.894 563.601 Q136.723 567.143 140.334 567.143 Q143.968 567.143 145.774 563.601 Q147.603 560.037 147.603 552.93 Q147.603 545.801 145.774 542.259 Q143.968 538.694 140.334 538.694 M140.334 534.99 Q146.144 534.99 149.2 539.597 Q152.279 544.18 152.279 552.93 Q152.279 561.657 149.2 566.263 Q146.144 570.847 140.334 570.847 Q134.524 570.847 131.445 566.263 Q128.39 561.657 128.39 552.93 Q128.39 544.18 131.445 539.597 Q134.524 534.99 140.334 534.99 Z" fill="#000000" fill-rule="evenodd" fill-opacity="1" /><path clip-path="url(#clip710)" d="M 0 0 M157.348 564.296 L162.232 564.296 L162.232 570.175 L157.348 570.175 L157.348 564.296 Z" fill="#000000" fill-rule="evenodd" fill-opacity="1" /><path clip-path="url(#clip710)" d="M 0 0 M181.468 551.541 Q184.825 552.259 186.7 554.527 Q188.598 556.796 188.598 560.129 Q188.598 565.245 185.079 568.046 Q181.561 570.847 175.079 570.847 Q172.903 570.847 170.589 570.407 Q168.297 569.99 165.843 569.134 L165.843 564.62 Q167.788 565.754 170.103 566.333 Q172.417 566.912 174.94 566.912 Q179.339 566.912 181.63 565.175 Q183.945 563.439 183.945 560.129 Q183.945 557.074 181.792 555.361 Q179.663 553.625 175.843 553.625 L171.815 553.625 L171.815 549.782 L176.028 549.782 Q179.477 549.782 181.306 548.416 Q183.135 547.027 183.135 544.435 Q183.135 541.773 181.237 540.361 Q179.362 538.926 175.843 538.926 Q173.922 538.926 171.723 539.342 Q169.524 539.759 166.885 540.639 L166.885 536.472 Q169.547 535.731 171.862 535.361 Q174.2 534.99 176.26 534.99 Q181.584 534.99 184.686 537.421 Q187.788 539.828 187.788 543.949 Q187.788 546.819 186.144 548.81 Q184.501 550.777 181.468 551.541 Z" fill="#000000" fill-rule="evenodd" fill-opacity="1" /><path clip-path="url(#clip710)" d="M 0 0 M193.713 535.615 L212.07 535.615 L212.07 539.551 L197.996 539.551 L197.996 548.023 Q199.014 547.676 200.033 547.513 Q201.051 547.328 202.07 547.328 Q207.857 547.328 211.237 550.5 Q214.616 553.671 214.616 559.088 Q214.616 564.666 211.144 567.768 Q207.672 570.847 201.352 570.847 Q199.176 570.847 196.908 570.476 Q194.663 570.106 192.255 569.365 L192.255 564.666 Q194.338 565.8 196.561 566.356 Q198.783 566.912 201.26 566.912 Q205.264 566.912 207.602 564.805 Q209.94 562.699 209.94 559.088 Q209.94 555.476 207.602 553.37 Q205.264 551.263 201.26 551.263 Q199.385 551.263 197.51 551.68 Q195.658 552.097 193.713 552.976 L193.713 535.615 Z" fill="#000000" fill-rule="evenodd" fill-opacity="1" /><path clip-path="url(#clip710)" d="M 0 0 M138.205 256.369 Q134.593 256.369 132.765 259.934 Q130.959 263.475 130.959 270.605 Q130.959 277.711 132.765 281.276 Q134.593 284.818 138.205 284.818 Q141.839 284.818 143.644 281.276 Q145.473 277.711 145.473 270.605 Q145.473 263.475 143.644 259.934 Q141.839 256.369 138.205 256.369 M138.205 252.665 Q144.015 252.665 147.07 257.272 Q150.149 261.855 150.149 270.605 Q150.149 279.332 147.07 283.938 Q144.015 288.521 138.205 288.521 Q132.394 288.521 129.316 283.938 Q126.26 279.332 126.26 270.605 Q126.26 261.855 129.316 257.272 Q132.394 252.665 138.205 252.665 Z" fill="#000000" fill-rule="evenodd" fill-opacity="1" /><path clip-path="url(#clip710)" d="M 0 0 M155.218 281.971 L160.103 281.971 L160.103 287.85 L155.218 287.85 L155.218 281.971 Z" fill="#000000" fill-rule="evenodd" fill-opacity="1" /><path clip-path="url(#clip710)" d="M 0 0 M178.019 257.364 L166.214 275.813 L178.019 275.813 L178.019 257.364 M176.792 253.29 L182.672 253.29 L182.672 275.813 L187.602 275.813 L187.602 279.702 L182.672 279.702 L182.672 287.85 L178.019 287.85 L178.019 279.702 L162.417 279.702 L162.417 275.188 L176.792 253.29 Z" fill="#000000" fill-rule="evenodd" fill-opacity="1" /><path clip-path="url(#clip710)" d="M 0 0 M202.672 256.369 Q199.061 256.369 197.232 259.934 Q195.426 263.475 195.426 270.605 Q195.426 277.711 197.232 281.276 Q199.061 284.818 202.672 284.818 Q206.306 284.818 208.112 281.276 Q209.94 277.711 209.94 270.605 Q209.94 263.475 208.112 259.934 Q206.306 256.369 202.672 256.369 M202.672 252.665 Q208.482 252.665 211.537 257.272 Q214.616 261.855 214.616 270.605 Q214.616 279.332 211.537 283.938 Q208.482 288.521 202.672 288.521 Q196.862 288.521 193.783 283.938 Q190.727 279.332 190.727 270.605 Q190.727 261.855 193.783 257.272 Q196.862 252.665 202.672 252.665 Z" fill="#000000" fill-rule="evenodd" fill-opacity="1" /><path clip-path="url(#clip710)" d="M 0 0 M1134.28 1508.52 L1143.86 1508.52 L1155.99 1540.86 L1168.18 1508.52 L1177.76 1508.52 L1177.76 1556.04 L1171.49 1556.04 L1171.49 1514.32 L1159.24 1546.91 L1152.78 1546.91 L1140.52 1514.32 L1140.52 1556.04 L1134.28 1556.04 L1134.28 1508.52 Z" fill="#000000" fill-rule="evenodd" fill-opacity="1" /><path clip-path="url(#clip710)" d="M 0 0 M1197.72 1524.5 Q1193.01 1524.5 1190.27 1528.19 Q1187.53 1531.85 1187.53 1538.25 Q1187.53 1544.65 1190.24 1548.34 Q1192.98 1552 1197.72 1552 Q1202.4 1552 1205.13 1548.31 Q1207.87 1544.62 1207.87 1538.25 Q1207.87 1531.92 1205.13 1528.23 Q1202.4 1524.5 1197.72 1524.5 M1197.72 1519.54 Q1205.36 1519.54 1209.72 1524.5 Q1214.08 1529.47 1214.08 1538.25 Q1214.08 1547 1209.72 1552 Q1205.36 1556.97 1197.72 1556.97 Q1190.05 1556.97 1185.69 1552 Q1181.36 1547 1181.36 1538.25 Q1181.36 1529.47 1185.69 1524.5 Q1190.05 1519.54 1197.72 1519.54 Z" fill="#000000" fill-rule="evenodd" fill-opacity="1" /><path clip-path="url(#clip710)" d="M 0 0 M1249.85 1534.53 L1249.85 1556.04 L1244 1556.04 L1244 1534.72 Q1244 1529.66 1242.02 1527.14 Q1240.05 1524.63 1236.1 1524.63 Q1231.36 1524.63 1228.62 1527.65 Q1225.89 1530.68 1225.89 1535.9 L1225.89 1556.04 L1220 1556.04 L1220 1520.4 L1225.89 1520.4 L1225.89 1525.93 Q1227.99 1522.72 1230.82 1521.13 Q1233.68 1519.54 1237.41 1519.54 Q1243.55 1519.54 1246.7 1523.36 Q1249.85 1527.14 1249.85 1534.53 Z" fill="#000000" fill-rule="evenodd" fill-opacity="1" /><path clip-path="url(#clip710)" d="M 0 0 M1286.49 1536.76 L1286.49 1539.62 L1259.56 1539.62 Q1259.94 1545.67 1263.19 1548.85 Q1266.47 1552 1272.29 1552 Q1275.67 1552 1278.82 1551.17 Q1282 1550.35 1285.12 1548.69 L1285.12 1554.23 Q1281.97 1555.57 1278.66 1556.27 Q1275.35 1556.97 1271.94 1556.97 Q1263.41 1556.97 1258.41 1552 Q1253.45 1547.04 1253.45 1538.57 Q1253.45 1529.82 1258.16 1524.69 Q1262.9 1519.54 1270.92 1519.54 Q1278.12 1519.54 1282.29 1524.18 Q1286.49 1528.8 1286.49 1536.76 M1280.63 1535.04 Q1280.57 1530.23 1277.93 1527.37 Q1275.32 1524.5 1270.99 1524.5 Q1266.09 1524.5 1263.13 1527.27 Q1260.2 1530.04 1259.75 1535.07 L1280.63 1535.04 Z" fill="#000000" fill-rule="evenodd" fill-opacity="1" /><path clip-path="url(#clip710)" d="M 0 0 M1307.46 1559.35 Q1304.98 1565.72 1302.62 1567.66 Q1300.27 1569.6 1296.32 1569.6 L1291.64 1569.6 L1291.64 1564.7 L1295.08 1564.7 Q1297.5 1564.7 1298.84 1563.56 Q1300.17 1562.41 1301.8 1558.14 L1302.85 1555.47 L1288.43 1520.4 L1294.64 1520.4 L1305.78 1548.28 L1316.92 1520.4 L1323.12 1520.4 L1307.46 1559.35 Z" fill="#000000" fill-rule="evenodd" fill-opacity="1" /><path clip-path="url(#clip710)" d="M 0 0 M1358.9 1534.53 L1358.9 1556.04 L1353.04 1556.04 L1353.04 1534.72 Q1353.04 1529.66 1351.07 1527.14 Q1349.09 1524.63 1345.15 1524.63 Q1340.41 1524.63 1337.67 1527.65 Q1334.93 1530.68 1334.93 1535.9 L1334.93 1556.04 L1329.04 1556.04 L1329.04 1520.4 L1334.93 1520.4 L1334.93 1525.93 Q1337.03 1522.72 1339.86 1521.13 Q1342.73 1519.54 1346.45 1519.54 Q1352.6 1519.54 1355.75 1523.36 Q1358.9 1527.14 1358.9 1534.53 Z" fill="#000000" fill-rule="evenodd" fill-opacity="1" /><path clip-path="url(#clip710)" d="M 0 0 M1395.53 1536.76 L1395.53 1539.62 L1368.61 1539.62 Q1368.99 1545.67 1372.23 1548.85 Q1375.51 1552 1381.34 1552 Q1384.71 1552 1387.86 1551.17 Q1391.04 1550.35 1394.16 1548.69 L1394.16 1554.23 Q1391.01 1555.57 1387.7 1556.27 Q1384.39 1556.97 1380.99 1556.97 Q1372.46 1556.97 1367.46 1552 Q1362.49 1547.04 1362.49 1538.57 Q1362.49 1529.82 1367.2 1524.69 Q1371.95 1519.54 1379.97 1519.54 Q1387.16 1519.54 1391.33 1524.18 Q1395.53 1528.8 1395.53 1536.76 M1389.68 1535.04 Q1389.61 1530.23 1386.97 1527.37 Q1384.36 1524.5 1380.03 1524.5 Q1375.13 1524.5 1372.17 1527.27 Q1369.24 1530.04 1368.8 1535.07 L1389.68 1535.04 Z" fill="#000000" fill-rule="evenodd" fill-opacity="1" /><path clip-path="url(#clip710)" d="M 0 0 M1424.4 1521.45 L1424.4 1526.98 Q1421.92 1525.71 1419.24 1525.07 Q1416.57 1524.44 1413.71 1524.44 Q1409.35 1524.44 1407.15 1525.77 Q1404.99 1527.11 1404.99 1529.79 Q1404.99 1531.82 1406.54 1533 Q1408.1 1534.15 1412.82 1535.2 L1414.82 1535.64 Q1421.06 1536.98 1423.67 1539.43 Q1426.31 1541.85 1426.31 1546.21 Q1426.31 1551.17 1422.36 1554.07 Q1418.45 1556.97 1411.57 1556.97 Q1408.71 1556.97 1405.59 1556.39 Q1402.5 1555.85 1399.07 1554.74 L1399.07 1548.69 Q1402.31 1550.38 1405.46 1551.24 Q1408.61 1552.07 1411.7 1552.07 Q1415.84 1552.07 1418.07 1550.66 Q1420.29 1549.23 1420.29 1546.65 Q1420.29 1544.27 1418.67 1542.99 Q1417.08 1541.72 1411.64 1540.54 L1409.6 1540.07 Q1404.16 1538.92 1401.74 1536.56 Q1399.32 1534.18 1399.32 1530.04 Q1399.32 1525.01 1402.88 1522.27 Q1406.45 1519.54 1413.01 1519.54 Q1416.25 1519.54 1419.12 1520.01 Q1421.98 1520.49 1424.4 1521.45 Z" fill="#000000" fill-rule="evenodd" fill-opacity="1" /><path clip-path="url(#clip710)" d="M 0 0 M1455.18 1521.45 L1455.18 1526.98 Q1452.7 1525.71 1450.02 1525.07 Q1447.35 1524.44 1444.48 1524.44 Q1440.12 1524.44 1437.93 1525.77 Q1435.76 1527.11 1435.76 1529.79 Q1435.76 1531.82 1437.32 1533 Q1438.88 1534.15 1443.59 1535.2 L1445.6 1535.64 Q1451.84 1536.98 1454.45 1539.43 Q1457.09 1541.85 1457.09 1546.21 Q1457.09 1551.17 1453.14 1554.07 Q1449.23 1556.97 1442.35 1556.97 Q1439.49 1556.97 1436.37 1556.39 Q1433.28 1555.85 1429.84 1554.74 L1429.84 1548.69 Q1433.09 1550.38 1436.24 1551.24 Q1439.39 1552.07 1442.48 1552.07 Q1446.62 1552.07 1448.84 1550.66 Q1451.07 1549.23 1451.07 1546.65 Q1451.07 1544.27 1449.45 1542.99 Q1447.86 1541.72 1442.42 1540.54 L1440.38 1540.07 Q1434.94 1538.92 1432.52 1536.56 Q1430.1 1534.18 1430.1 1530.04 Q1430.1 1525.01 1433.66 1522.27 Q1437.23 1519.54 1443.78 1519.54 Q1447.03 1519.54 1449.9 1520.01 Q1452.76 1520.49 1455.18 1521.45 Z" fill="#000000" fill-rule="evenodd" fill-opacity="1" /><path clip-path="url(#clip710)" d="M 0 0 M40.4842 760.452 L40.4842 754.023 L88.0042 754.023 L88.0042 760.452 L40.4842 760.452 Z" fill="#000000" fill-rule="evenodd" fill-opacity="1" /><path clip-path="url(#clip710)" d="M 0 0 M88.0042 735.371 L40.4842 753.513 L40.4842 746.798 L80.4926 731.743 L40.4842 716.656 L40.4842 709.972 L88.0042 728.082 L88.0042 735.371 Z" fill="#000000" fill-rule="evenodd" fill-opacity="1" /><polyline clip-path="url(#clip712)" style="stroke:#009af9; stroke-width:4; stroke-opacity:1; fill:none" points="
  2292.92,255.797 2219.05,124.075 2145.18,96.1012 2071.31,86.1857 1997.44,102.745 1923.58,132.536 1849.71,173.999 1775.84,220.193 1701.97,279.039 1628.1,345.611 
  1554.23,419.868 1539.45,436.733 1524.68,453.367 1509.91,469.846 1495.13,488.217 1480.36,504.562 1465.59,524.788 1450.81,543.126 1436.04,561.588 1421.26,582.074 
  1406.49,602.766 1391.72,623.731 1376.94,645.038 1362.17,666.755 1347.39,688.952 1332.62,709.961 1317.85,733.349 1303.07,757.445 1288.3,780.614 1273.53,804.674 
  1258.75,829.72 1243.98,854.132 1229.2,879.74 1214.43,904.925 1199.66,931.546 1184.88,956.194 1170.11,982.521 1155.33,1008.87 1140.56,1035.36 1125.79,1062.12 
  1111.01,1087.28 1096.24,1112.84 1081.47,1138.92 1066.69,1163.44 1051.92,1186.25 1037.14,1209.52 1022.37,1235.9 1007.6,1257.7 992.822,1273.87 978.048,1292.47 
  963.274,1310.47 948.5,1327.45 933.726,1342.8 918.953,1351.21 904.179,1364.81 889.405,1368.69 859.857,1384.24 830.309,1383.75 520.058,1222.37 298.45,1132.78 
  
  "/>
</svg>
